M48
; DRILL file {KiCad (5.1.12)-1} date 06/22/22 09:42:56
; FORMAT={-:-/ absolute / metric / decimal}
; #@! TF.CreationDate,2022-06-22T09:42:56+02:00
; #@! TF.GenerationSoftware,Kicad,Pcbnew,(5.1.12)-1
; #@! TF.FileFunction,NonPlated,1,2,NPTH
FMAT,2
METRIC
T1C0.650
T2C1.500
T3C1.700
T4C1.800
T5C3.050
T6C4.000
%
G90
G05
T1
X16.16Y-5.145
X21.94Y-5.145
T2
X163.591Y-29.706
X163.591Y-34.556
T3
X4.445Y-9.2
X4.445Y-28.25
X4.445Y-47.437
X4.445Y-66.467
X4.445Y-85.512
X14.605Y-9.2
X14.605Y-28.25
X14.605Y-47.437
X14.605Y-66.467
X14.605Y-85.512
X23.495Y-28.25
X23.495Y-47.3
X23.495Y-66.35
X23.495Y-85.4
X23.622Y-9.271
X33.655Y-28.25
X33.655Y-47.3
X33.655Y-66.35
X33.655Y-85.4
X33.782Y-9.271
X42.489Y-85.385
X42.586Y-47.32
X42.586Y-66.36
X42.596Y-9.271
X42.596Y-28.311
X52.649Y-85.385
X52.746Y-47.32
X52.746Y-66.36
X52.756Y-9.271
X52.756Y-28.311
X61.585Y-85.385
X61.641Y-28.311
X61.641Y-47.3
X61.641Y-66.34
X61.681Y-9.291
X71.745Y-85.385
X71.801Y-28.311
X71.801Y-47.3
X71.801Y-66.34
X71.841Y-9.291
X80.691Y-85.4
X80.726Y-28.275
X80.726Y-47.427
X80.736Y-66.34
X80.762Y-9.256
X90.851Y-85.4
X90.886Y-28.275
X90.886Y-47.427
X90.896Y-66.34
X90.922Y-9.256
X99.822Y-9.291
X99.822Y-28.275
X99.822Y-47.427
X99.832Y-66.391
X109.982Y-9.291
X109.982Y-28.275
X109.982Y-47.427
X109.992Y-66.391
X111.694Y-85.374
X121.854Y-85.374
X163.027Y-85.471
X173.187Y-85.471
X174.869Y-66.518
X174.996Y-9.307
X175.016Y-28.351
X175.016Y-47.401
X185.029Y-66.518
X185.156Y-9.307
X185.176Y-28.351
X185.176Y-47.401
X194.0Y-47.391
X194.0Y-85.476
X194.01Y-66.446
X194.026Y-9.291
X194.026Y-28.346
X204.16Y-47.391
X204.16Y-85.476
X204.17Y-66.446
X204.186Y-9.291
X204.186Y-28.346
X213.045Y-66.391
X213.06Y-47.346
X213.076Y-85.486
X213.091Y-28.296
X213.096Y-9.251
X223.205Y-66.391
X223.22Y-47.346
X223.236Y-85.486
X223.251Y-28.296
X223.256Y-9.251
X232.212Y-28.245
X232.212Y-47.31
X232.212Y-85.374
X232.222Y-9.261
X232.232Y-66.355
X242.372Y-28.245
X242.372Y-47.31
X242.372Y-85.374
X242.382Y-9.261
X242.392Y-66.355
X251.252Y-66.34
X251.252Y-85.354
X251.282Y-47.325
X251.313Y-9.235
X251.328Y-28.26
X261.412Y-66.34
X261.412Y-85.354
X261.442Y-47.325
X261.473Y-9.235
X261.488Y-28.26
X270.276Y-47.346
X270.276Y-66.36
X270.276Y-85.374
X270.292Y-28.316
X270.297Y-9.241
X280.436Y-47.346
X280.436Y-66.36
X280.436Y-85.374
X280.452Y-28.316
X280.457Y-9.241
T4
X166.621Y-29.406
X166.621Y-34.856
T5
X104.874Y-92.374
X128.674Y-92.374
X156.207Y-92.471
X180.007Y-92.471
T6
X9.525Y-9.2
X9.525Y-28.25
X9.525Y-47.437
X9.525Y-66.467
X9.525Y-85.512
X28.575Y-28.25
X28.575Y-47.3
X28.575Y-66.35
X28.575Y-85.4
X28.702Y-9.271
X47.569Y-85.385
X47.666Y-47.32
X47.666Y-66.36
X47.676Y-9.271
X47.676Y-28.311
X66.665Y-85.385
X66.721Y-28.311
X66.721Y-47.3
X66.721Y-66.34
X66.761Y-9.291
X85.771Y-85.4
X85.806Y-28.275
X85.806Y-47.427
X85.816Y-66.34
X85.842Y-9.256
X104.874Y-77.134
X104.902Y-9.291
X104.902Y-28.275
X104.902Y-47.427
X104.912Y-66.391
X116.774Y-85.374
X128.674Y-77.134
X156.207Y-77.231
X168.107Y-85.471
X179.949Y-66.518
X180.007Y-77.231
X180.076Y-9.307
X180.096Y-28.351
X180.096Y-47.401
X199.08Y-47.391
X199.08Y-85.476
X199.09Y-66.446
X199.106Y-9.291
X199.106Y-28.346
X218.125Y-66.391
X218.14Y-47.346
X218.156Y-85.486
X218.171Y-28.296
X218.176Y-9.251
X237.292Y-28.245
X237.292Y-47.31
X237.292Y-85.374
X237.302Y-9.261
X237.312Y-66.355
X256.332Y-66.34
X256.332Y-85.354
X256.362Y-47.325
X256.393Y-9.235
X256.408Y-28.26
X275.356Y-47.346
X275.356Y-66.36
X275.356Y-85.374
X275.372Y-28.316
X275.377Y-9.241
T0
M30
