G04 #@! TF.GenerationSoftware,KiCad,Pcbnew,(5.1.12)-1*
G04 #@! TF.CreationDate,2022-06-22T09:42:13+02:00*
G04 #@! TF.ProjectId,Moledupy,4d6f6c65-6475-4707-992e-6b696361645f,rev?*
G04 #@! TF.SameCoordinates,Original*
G04 #@! TF.FileFunction,Legend,Bot*
G04 #@! TF.FilePolarity,Positive*
%FSLAX46Y46*%
G04 Gerber Fmt 4.6, Leading zero omitted, Abs format (unit mm)*
G04 Created by KiCad (PCBNEW (5.1.12)-1) date 2022-06-22 09:42:13*
%MOMM*%
%LPD*%
G01*
G04 APERTURE LIST*
%ADD10C,0.120000*%
%ADD11C,0.100000*%
%ADD12C,0.150000*%
%ADD13C,4.700000*%
%ADD14C,2.000000*%
%ADD15O,1.350000X1.350000*%
%ADD16R,1.350000X1.350000*%
%ADD17O,1.600000X1.600000*%
%ADD18C,1.600000*%
%ADD19C,3.050000*%
%ADD20C,4.000000*%
%ADD21C,1.700000*%
%ADD22C,2.200000*%
%ADD23R,1.700000X1.700000*%
%ADD24R,1.752600X0.431800*%
%ADD25R,0.300000X1.150000*%
%ADD26C,0.650000*%
%ADD27O,1.000000X1.600000*%
%ADD28O,1.000000X2.100000*%
%ADD29R,2.000000X2.000000*%
%ADD30R,2.000000X3.200000*%
%ADD31O,1.700000X1.700000*%
%ADD32R,3.500000X1.700000*%
%ADD33O,1.500000X1.500000*%
%ADD34O,1.800000X1.800000*%
%ADD35R,1.700000X3.500000*%
G04 APERTURE END LIST*
D10*
X139788900Y-8242300D02*
X145453100Y-8242300D01*
X145453100Y-8242300D02*
X145453100Y-8449361D01*
X145453100Y-16903700D02*
X139788900Y-16903700D01*
X139788900Y-16903700D02*
X139788900Y-16696639D01*
X139788900Y-8449361D02*
X139788900Y-8242300D01*
X145453100Y-16696639D02*
X145453100Y-16903700D01*
D11*
G36*
X137807700Y-10488501D02*
G01*
X137807700Y-10107501D01*
X138061700Y-10107501D01*
X138061700Y-10488501D01*
X137807700Y-10488501D01*
G37*
X137807700Y-10488501D02*
X137807700Y-10107501D01*
X138061700Y-10107501D01*
X138061700Y-10488501D01*
X137807700Y-10488501D01*
G36*
X147434300Y-13738499D02*
G01*
X147434300Y-13357499D01*
X147180300Y-13357499D01*
X147180300Y-13738499D01*
X147434300Y-13738499D01*
G37*
X147434300Y-13738499D02*
X147434300Y-13357499D01*
X147180300Y-13357499D01*
X147180300Y-13738499D01*
X147434300Y-13738499D01*
D10*
X23630000Y1245000D02*
X14470000Y1245000D01*
X14470000Y1245000D02*
X14470000Y-460000D01*
X23630000Y-460000D02*
X23630000Y1245000D01*
X23630000Y-2470000D02*
X23630000Y-4390000D01*
X14470000Y-4390000D02*
X14470000Y-2470000D01*
X271426000Y-90512000D02*
X271426000Y-88227000D01*
X272896000Y-90512000D02*
X271426000Y-90512000D01*
X272896000Y-88227000D02*
X272896000Y-90512000D01*
X271172000Y-74383000D02*
X271172000Y-72098000D01*
X272642000Y-74383000D02*
X271172000Y-74383000D01*
X272642000Y-72098000D02*
X272642000Y-74383000D01*
X271172000Y-55587000D02*
X271172000Y-53302000D01*
X272642000Y-55587000D02*
X271172000Y-55587000D01*
X272642000Y-53302000D02*
X272642000Y-55587000D01*
X271299000Y-36410000D02*
X271299000Y-34125000D01*
X272769000Y-36410000D02*
X271299000Y-36410000D01*
X272769000Y-34125000D02*
X272769000Y-36410000D01*
X271299000Y-17233000D02*
X271299000Y-14948000D01*
X272769000Y-17233000D02*
X271299000Y-17233000D01*
X272769000Y-14948000D02*
X272769000Y-17233000D01*
X252249000Y-90639000D02*
X252249000Y-88354000D01*
X253719000Y-90639000D02*
X252249000Y-90639000D01*
X253719000Y-88354000D02*
X253719000Y-90639000D01*
X252249000Y-74637000D02*
X252249000Y-72352000D01*
X253719000Y-74637000D02*
X252249000Y-74637000D01*
X253719000Y-72352000D02*
X253719000Y-74637000D01*
X252249000Y-55333000D02*
X252249000Y-53048000D01*
X253719000Y-55333000D02*
X252249000Y-55333000D01*
X253719000Y-53048000D02*
X253719000Y-55333000D01*
X252122000Y-36664000D02*
X252122000Y-34379000D01*
X253592000Y-36664000D02*
X252122000Y-36664000D01*
X253592000Y-34379000D02*
X253592000Y-36664000D01*
X252249000Y-17233000D02*
X252249000Y-14948000D01*
X253719000Y-17233000D02*
X252249000Y-17233000D01*
X253719000Y-14948000D02*
X253719000Y-17233000D01*
X233326000Y-90512000D02*
X233326000Y-88227000D01*
X234796000Y-90512000D02*
X233326000Y-90512000D01*
X234796000Y-88227000D02*
X234796000Y-90512000D01*
X233453000Y-74637000D02*
X233453000Y-72352000D01*
X234923000Y-74637000D02*
X233453000Y-74637000D01*
X234923000Y-72352000D02*
X234923000Y-74637000D01*
X233453000Y-55460000D02*
X233453000Y-53175000D01*
X234923000Y-55460000D02*
X233453000Y-55460000D01*
X234923000Y-53175000D02*
X234923000Y-55460000D01*
X233580000Y-36410000D02*
X233580000Y-34125000D01*
X235050000Y-36410000D02*
X233580000Y-36410000D01*
X235050000Y-34125000D02*
X235050000Y-36410000D01*
X233453000Y-17233000D02*
X233453000Y-14948000D01*
X234923000Y-17233000D02*
X233453000Y-17233000D01*
X234923000Y-14948000D02*
X234923000Y-17233000D01*
X214149000Y-90512000D02*
X214149000Y-88227000D01*
X215619000Y-90512000D02*
X214149000Y-90512000D01*
X215619000Y-88227000D02*
X215619000Y-90512000D01*
X214530000Y-74357500D02*
X214530000Y-72072500D01*
X216000000Y-74357500D02*
X214530000Y-74357500D01*
X216000000Y-72072500D02*
X216000000Y-74357500D01*
X214276000Y-55587000D02*
X214276000Y-53302000D01*
X215746000Y-55587000D02*
X214276000Y-55587000D01*
X215746000Y-53302000D02*
X215746000Y-55587000D01*
X214022000Y-36283000D02*
X214022000Y-33998000D01*
X215492000Y-36283000D02*
X214022000Y-36283000D01*
X215492000Y-33998000D02*
X215492000Y-36283000D01*
X214022000Y-17360000D02*
X214022000Y-15075000D01*
X215492000Y-17360000D02*
X214022000Y-17360000D01*
X215492000Y-15075000D02*
X215492000Y-17360000D01*
X194972000Y-91020000D02*
X194972000Y-88735000D01*
X196442000Y-91020000D02*
X194972000Y-91020000D01*
X196442000Y-88735000D02*
X196442000Y-91020000D01*
X195099000Y-74764000D02*
X195099000Y-72479000D01*
X196569000Y-74764000D02*
X195099000Y-74764000D01*
X196569000Y-72479000D02*
X196569000Y-74764000D01*
X194972000Y-55968000D02*
X194972000Y-53683000D01*
X196442000Y-55968000D02*
X194972000Y-55968000D01*
X196442000Y-53683000D02*
X196442000Y-55968000D01*
X194591000Y-36664000D02*
X194591000Y-34379000D01*
X196061000Y-36664000D02*
X194591000Y-36664000D01*
X196061000Y-34379000D02*
X196061000Y-36664000D01*
X194464000Y-17614000D02*
X194464000Y-15329000D01*
X195934000Y-17614000D02*
X194464000Y-17614000D01*
X195934000Y-15329000D02*
X195934000Y-17614000D01*
X165835000Y-80303000D02*
X165835000Y-82588000D01*
X164365000Y-80303000D02*
X165835000Y-80303000D01*
X164365000Y-82588000D02*
X164365000Y-80303000D01*
X175414000Y-75145000D02*
X175414000Y-72860000D01*
X176884000Y-75145000D02*
X175414000Y-75145000D01*
X176884000Y-72860000D02*
X176884000Y-75145000D01*
X175668000Y-55739500D02*
X175668000Y-53454500D01*
X177138000Y-55739500D02*
X175668000Y-55739500D01*
X177138000Y-53454500D02*
X177138000Y-55739500D01*
X175795000Y-36816500D02*
X175795000Y-34531500D01*
X177265000Y-36816500D02*
X175795000Y-36816500D01*
X177265000Y-34531500D02*
X177265000Y-36816500D01*
X175414000Y-17868000D02*
X175414000Y-15583000D01*
X176884000Y-17868000D02*
X175414000Y-17868000D01*
X176884000Y-15583000D02*
X176884000Y-17868000D01*
X114146000Y-80430000D02*
X114146000Y-82715000D01*
X112676000Y-80430000D02*
X114146000Y-80430000D01*
X112676000Y-82715000D02*
X112676000Y-80430000D01*
X100484000Y-74764000D02*
X100484000Y-72479000D01*
X101954000Y-74764000D02*
X100484000Y-74764000D01*
X101954000Y-72479000D02*
X101954000Y-74764000D01*
X100357000Y-55841000D02*
X100357000Y-53556000D01*
X101827000Y-55841000D02*
X100357000Y-55841000D01*
X101827000Y-53556000D02*
X101827000Y-55841000D01*
X100484000Y-36664000D02*
X100484000Y-34379000D01*
X101954000Y-36664000D02*
X100484000Y-36664000D01*
X101954000Y-34379000D02*
X101954000Y-36664000D01*
X100230000Y-17741000D02*
X100230000Y-15456000D01*
X101700000Y-17741000D02*
X100230000Y-17741000D01*
X101700000Y-15456000D02*
X101700000Y-17741000D01*
X81561000Y-89902500D02*
X81561000Y-87617500D01*
X83031000Y-89902500D02*
X81561000Y-89902500D01*
X83031000Y-87617500D02*
X83031000Y-89902500D01*
X81561000Y-74764000D02*
X81561000Y-72479000D01*
X83031000Y-74764000D02*
X81561000Y-74764000D01*
X83031000Y-72479000D02*
X83031000Y-74764000D01*
X81561000Y-55993500D02*
X81561000Y-53708500D01*
X83031000Y-55993500D02*
X81561000Y-55993500D01*
X83031000Y-53708500D02*
X83031000Y-55993500D01*
X81307000Y-36689500D02*
X81307000Y-34404500D01*
X82777000Y-36689500D02*
X81307000Y-36689500D01*
X82777000Y-34404500D02*
X82777000Y-36689500D01*
X81561000Y-17766500D02*
X81561000Y-15481500D01*
X83031000Y-17766500D02*
X81561000Y-17766500D01*
X83031000Y-15481500D02*
X83031000Y-17766500D01*
X62384000Y-89877000D02*
X62384000Y-87592000D01*
X63854000Y-89877000D02*
X62384000Y-89877000D01*
X63854000Y-87592000D02*
X63854000Y-89877000D01*
X62511000Y-74789500D02*
X62511000Y-72504500D01*
X63981000Y-74789500D02*
X62511000Y-74789500D01*
X63981000Y-72504500D02*
X63981000Y-74789500D01*
X62765000Y-55739500D02*
X62765000Y-53454500D01*
X64235000Y-55739500D02*
X62765000Y-55739500D01*
X64235000Y-53454500D02*
X64235000Y-55739500D01*
X62765000Y-36816500D02*
X62765000Y-34531500D01*
X64235000Y-36816500D02*
X62765000Y-36816500D01*
X64235000Y-34531500D02*
X64235000Y-36816500D01*
X62638000Y-17766500D02*
X62638000Y-15481500D01*
X64108000Y-17766500D02*
X62638000Y-17766500D01*
X64108000Y-15481500D02*
X64108000Y-17766500D01*
X43207000Y-90029500D02*
X43207000Y-87744500D01*
X44677000Y-90029500D02*
X43207000Y-90029500D01*
X44677000Y-87744500D02*
X44677000Y-90029500D01*
X43207000Y-74789500D02*
X43207000Y-72504500D01*
X44677000Y-74789500D02*
X43207000Y-74789500D01*
X44677000Y-72504500D02*
X44677000Y-74789500D01*
X43334000Y-55739500D02*
X43334000Y-53454500D01*
X44804000Y-55739500D02*
X43334000Y-55739500D01*
X44804000Y-53454500D02*
X44804000Y-55739500D01*
X42572000Y-36816500D02*
X42572000Y-34531500D01*
X44042000Y-36816500D02*
X42572000Y-36816500D01*
X44042000Y-34531500D02*
X44042000Y-36816500D01*
X43334000Y-17766500D02*
X43334000Y-15481500D01*
X44804000Y-17766500D02*
X43334000Y-17766500D01*
X44804000Y-15481500D02*
X44804000Y-17766500D01*
X24157000Y-90385000D02*
X24157000Y-88100000D01*
X25627000Y-90385000D02*
X24157000Y-90385000D01*
X25627000Y-88100000D02*
X25627000Y-90385000D01*
X24538000Y-74891000D02*
X24538000Y-72606000D01*
X26008000Y-74891000D02*
X24538000Y-74891000D01*
X26008000Y-72606000D02*
X26008000Y-74891000D01*
X24538000Y-55968000D02*
X24538000Y-53683000D01*
X26008000Y-55968000D02*
X24538000Y-55968000D01*
X26008000Y-53683000D02*
X26008000Y-55968000D01*
X24157000Y-37299000D02*
X24157000Y-35014000D01*
X25627000Y-37299000D02*
X24157000Y-37299000D01*
X25627000Y-35014000D02*
X25627000Y-37299000D01*
X23014000Y-17868000D02*
X23014000Y-15583000D01*
X24484000Y-17868000D02*
X23014000Y-17868000D01*
X24484000Y-15583000D02*
X24484000Y-17868000D01*
X5361000Y-90791500D02*
X5361000Y-88506500D01*
X6831000Y-90791500D02*
X5361000Y-90791500D01*
X6831000Y-88506500D02*
X6831000Y-90791500D01*
X5234000Y-74916500D02*
X5234000Y-72631500D01*
X6704000Y-74916500D02*
X5234000Y-74916500D01*
X6704000Y-72631500D02*
X6704000Y-74916500D01*
X4980000Y-55968000D02*
X4980000Y-53683000D01*
X6450000Y-55968000D02*
X4980000Y-55968000D01*
X6450000Y-53683000D02*
X6450000Y-55968000D01*
X5615000Y-37070500D02*
X5615000Y-34785500D01*
X7085000Y-37070500D02*
X5615000Y-37070500D01*
X7085000Y-34785500D02*
X7085000Y-37070500D01*
X7708000Y-16991000D02*
X5423000Y-16991000D01*
X7708000Y-15521000D02*
X7708000Y-16991000D01*
X5423000Y-15521000D02*
X7708000Y-15521000D01*
X168121000Y-42631000D02*
X168121000Y-21631000D01*
X117121000Y-35831000D02*
X117121000Y-42631000D01*
X165454000Y-42631000D02*
X165454000Y-39624000D01*
X165454000Y-39624000D02*
X168121000Y-39624000D01*
X168121000Y-42631000D02*
X167821000Y-42631000D01*
X165721000Y-42631000D02*
X165321000Y-42631000D01*
X163121000Y-42631000D02*
X162721000Y-42631000D01*
X160621000Y-42631000D02*
X160221000Y-42631000D01*
X158021000Y-42631000D02*
X157621000Y-42631000D01*
X155521000Y-42631000D02*
X155121000Y-42631000D01*
X153021000Y-42631000D02*
X152621000Y-42631000D01*
X150421000Y-42631000D02*
X150021000Y-42631000D01*
X147921000Y-42631000D02*
X147521000Y-42631000D01*
X145321000Y-42631000D02*
X144921000Y-42631000D01*
X142821000Y-42631000D02*
X142421000Y-42631000D01*
X140321000Y-42631000D02*
X139921000Y-42631000D01*
X137721000Y-42631000D02*
X137321000Y-42631000D01*
X135221000Y-42631000D02*
X134821000Y-42631000D01*
X132621000Y-42631000D02*
X132221000Y-42631000D01*
X130121000Y-42631000D02*
X129721000Y-42631000D01*
X127521000Y-42631000D02*
X127121000Y-42631000D01*
X125021000Y-42631000D02*
X124621000Y-42631000D01*
X122521000Y-42631000D02*
X122121000Y-42631000D01*
X119921000Y-42631000D02*
X119521000Y-42631000D01*
X153021000Y-21631000D02*
X152621000Y-21631000D01*
X147921000Y-21631000D02*
X147521000Y-21631000D01*
X140321000Y-21631000D02*
X139921000Y-21631000D01*
X132621000Y-21631000D02*
X132221000Y-21631000D01*
X163121000Y-21631000D02*
X162721000Y-21631000D01*
X165721000Y-21631000D02*
X165321000Y-21631000D01*
X158021000Y-21631000D02*
X157621000Y-21631000D01*
X125021000Y-21631000D02*
X124621000Y-21631000D01*
X119921000Y-21631000D02*
X119521000Y-21631000D01*
X122521000Y-21631000D02*
X122121000Y-21631000D01*
X137721000Y-21631000D02*
X137321000Y-21631000D01*
X142821000Y-21631000D02*
X142421000Y-21631000D01*
X155521000Y-21631000D02*
X155121000Y-21631000D01*
X150421000Y-21631000D02*
X150021000Y-21631000D01*
X130121000Y-21631000D02*
X129721000Y-21631000D01*
X145321000Y-21631000D02*
X144921000Y-21631000D01*
X168121000Y-21631000D02*
X167821000Y-21631000D01*
X160621000Y-21631000D02*
X160221000Y-21631000D01*
X135221000Y-21631000D02*
X134821000Y-21631000D01*
X127521000Y-21631000D02*
X127121000Y-21631000D01*
X117121000Y-21631000D02*
X117121000Y-28431000D01*
X117121000Y-33631000D02*
X117121000Y-33231000D01*
X117121000Y-31031000D02*
X117121000Y-30631000D01*
D12*
X143382904Y-12025380D02*
X143382904Y-12834904D01*
X143335285Y-12930142D01*
X143287666Y-12977761D01*
X143192428Y-13025380D01*
X143001952Y-13025380D01*
X142906714Y-12977761D01*
X142859095Y-12930142D01*
X142811476Y-12834904D01*
X142811476Y-12025380D01*
X142430523Y-12025380D02*
X141811476Y-12025380D01*
X142144809Y-12406333D01*
X142001952Y-12406333D01*
X141906714Y-12453952D01*
X141859095Y-12501571D01*
X141811476Y-12596809D01*
X141811476Y-12834904D01*
X141859095Y-12930142D01*
X141906714Y-12977761D01*
X142001952Y-13025380D01*
X142287666Y-13025380D01*
X142382904Y-12977761D01*
X142430523Y-12930142D01*
X138938000Y-17175180D02*
X138938000Y-17413276D01*
X139176095Y-17318038D02*
X138938000Y-17413276D01*
X138699904Y-17318038D01*
X139080857Y-17603752D02*
X138938000Y-17413276D01*
X138795142Y-17603752D01*
X138938000Y-17175180D02*
X138938000Y-17413276D01*
X139176095Y-17318038D02*
X138938000Y-17413276D01*
X138699904Y-17318038D01*
X139080857Y-17603752D02*
X138938000Y-17413276D01*
X138795142Y-17603752D01*
X19383333Y-7707380D02*
X19383333Y-8421666D01*
X19430952Y-8564523D01*
X19526190Y-8659761D01*
X19669047Y-8707380D01*
X19764285Y-8707380D01*
X18383333Y-8707380D02*
X18954761Y-8707380D01*
X18669047Y-8707380D02*
X18669047Y-7707380D01*
X18764285Y-7850238D01*
X18859523Y-7945476D01*
X18954761Y-7993095D01*
X274043380Y-87812714D02*
X273043380Y-87812714D01*
X273043380Y-88050809D01*
X273091000Y-88193666D01*
X273186238Y-88288904D01*
X273281476Y-88336523D01*
X273471952Y-88384142D01*
X273614809Y-88384142D01*
X273805285Y-88336523D01*
X273900523Y-88288904D01*
X273995761Y-88193666D01*
X274043380Y-88050809D01*
X274043380Y-87812714D01*
X273043380Y-89241285D02*
X273043380Y-89050809D01*
X273091000Y-88955571D01*
X273138619Y-88907952D01*
X273281476Y-88812714D01*
X273471952Y-88765095D01*
X273852904Y-88765095D01*
X273948142Y-88812714D01*
X273995761Y-88860333D01*
X274043380Y-88955571D01*
X274043380Y-89146047D01*
X273995761Y-89241285D01*
X273948142Y-89288904D01*
X273852904Y-89336523D01*
X273614809Y-89336523D01*
X273519571Y-89288904D01*
X273471952Y-89241285D01*
X273424333Y-89146047D01*
X273424333Y-88955571D01*
X273471952Y-88860333D01*
X273519571Y-88812714D01*
X273614809Y-88765095D01*
X273043380Y-89955571D02*
X273043380Y-90050809D01*
X273091000Y-90146047D01*
X273138619Y-90193666D01*
X273233857Y-90241285D01*
X273424333Y-90288904D01*
X273662428Y-90288904D01*
X273852904Y-90241285D01*
X273948142Y-90193666D01*
X273995761Y-90146047D01*
X274043380Y-90050809D01*
X274043380Y-89955571D01*
X273995761Y-89860333D01*
X273948142Y-89812714D01*
X273852904Y-89765095D01*
X273662428Y-89717476D01*
X273424333Y-89717476D01*
X273233857Y-89765095D01*
X273138619Y-89812714D01*
X273091000Y-89860333D01*
X273043380Y-89955571D01*
X273789380Y-71683714D02*
X272789380Y-71683714D01*
X272789380Y-71921809D01*
X272837000Y-72064666D01*
X272932238Y-72159904D01*
X273027476Y-72207523D01*
X273217952Y-72255142D01*
X273360809Y-72255142D01*
X273551285Y-72207523D01*
X273646523Y-72159904D01*
X273741761Y-72064666D01*
X273789380Y-71921809D01*
X273789380Y-71683714D01*
X272789380Y-73159904D02*
X272789380Y-72683714D01*
X273265571Y-72636095D01*
X273217952Y-72683714D01*
X273170333Y-72778952D01*
X273170333Y-73017047D01*
X273217952Y-73112285D01*
X273265571Y-73159904D01*
X273360809Y-73207523D01*
X273598904Y-73207523D01*
X273694142Y-73159904D01*
X273741761Y-73112285D01*
X273789380Y-73017047D01*
X273789380Y-72778952D01*
X273741761Y-72683714D01*
X273694142Y-72636095D01*
X273789380Y-73683714D02*
X273789380Y-73874190D01*
X273741761Y-73969428D01*
X273694142Y-74017047D01*
X273551285Y-74112285D01*
X273360809Y-74159904D01*
X272979857Y-74159904D01*
X272884619Y-74112285D01*
X272837000Y-74064666D01*
X272789380Y-73969428D01*
X272789380Y-73778952D01*
X272837000Y-73683714D01*
X272884619Y-73636095D01*
X272979857Y-73588476D01*
X273217952Y-73588476D01*
X273313190Y-73636095D01*
X273360809Y-73683714D01*
X273408428Y-73778952D01*
X273408428Y-73969428D01*
X273360809Y-74064666D01*
X273313190Y-74112285D01*
X273217952Y-74159904D01*
X273789380Y-52887714D02*
X272789380Y-52887714D01*
X272789380Y-53125809D01*
X272837000Y-53268666D01*
X272932238Y-53363904D01*
X273027476Y-53411523D01*
X273217952Y-53459142D01*
X273360809Y-53459142D01*
X273551285Y-53411523D01*
X273646523Y-53363904D01*
X273741761Y-53268666D01*
X273789380Y-53125809D01*
X273789380Y-52887714D01*
X272789380Y-54363904D02*
X272789380Y-53887714D01*
X273265571Y-53840095D01*
X273217952Y-53887714D01*
X273170333Y-53982952D01*
X273170333Y-54221047D01*
X273217952Y-54316285D01*
X273265571Y-54363904D01*
X273360809Y-54411523D01*
X273598904Y-54411523D01*
X273694142Y-54363904D01*
X273741761Y-54316285D01*
X273789380Y-54221047D01*
X273789380Y-53982952D01*
X273741761Y-53887714D01*
X273694142Y-53840095D01*
X273217952Y-54982952D02*
X273170333Y-54887714D01*
X273122714Y-54840095D01*
X273027476Y-54792476D01*
X272979857Y-54792476D01*
X272884619Y-54840095D01*
X272837000Y-54887714D01*
X272789380Y-54982952D01*
X272789380Y-55173428D01*
X272837000Y-55268666D01*
X272884619Y-55316285D01*
X272979857Y-55363904D01*
X273027476Y-55363904D01*
X273122714Y-55316285D01*
X273170333Y-55268666D01*
X273217952Y-55173428D01*
X273217952Y-54982952D01*
X273265571Y-54887714D01*
X273313190Y-54840095D01*
X273408428Y-54792476D01*
X273598904Y-54792476D01*
X273694142Y-54840095D01*
X273741761Y-54887714D01*
X273789380Y-54982952D01*
X273789380Y-55173428D01*
X273741761Y-55268666D01*
X273694142Y-55316285D01*
X273598904Y-55363904D01*
X273408428Y-55363904D01*
X273313190Y-55316285D01*
X273265571Y-55268666D01*
X273217952Y-55173428D01*
X273916380Y-33710714D02*
X272916380Y-33710714D01*
X272916380Y-33948809D01*
X272964000Y-34091666D01*
X273059238Y-34186904D01*
X273154476Y-34234523D01*
X273344952Y-34282142D01*
X273487809Y-34282142D01*
X273678285Y-34234523D01*
X273773523Y-34186904D01*
X273868761Y-34091666D01*
X273916380Y-33948809D01*
X273916380Y-33710714D01*
X272916380Y-35186904D02*
X272916380Y-34710714D01*
X273392571Y-34663095D01*
X273344952Y-34710714D01*
X273297333Y-34805952D01*
X273297333Y-35044047D01*
X273344952Y-35139285D01*
X273392571Y-35186904D01*
X273487809Y-35234523D01*
X273725904Y-35234523D01*
X273821142Y-35186904D01*
X273868761Y-35139285D01*
X273916380Y-35044047D01*
X273916380Y-34805952D01*
X273868761Y-34710714D01*
X273821142Y-34663095D01*
X272916380Y-35567857D02*
X272916380Y-36234523D01*
X273916380Y-35805952D01*
X273916380Y-14533714D02*
X272916380Y-14533714D01*
X272916380Y-14771809D01*
X272964000Y-14914666D01*
X273059238Y-15009904D01*
X273154476Y-15057523D01*
X273344952Y-15105142D01*
X273487809Y-15105142D01*
X273678285Y-15057523D01*
X273773523Y-15009904D01*
X273868761Y-14914666D01*
X273916380Y-14771809D01*
X273916380Y-14533714D01*
X272916380Y-16009904D02*
X272916380Y-15533714D01*
X273392571Y-15486095D01*
X273344952Y-15533714D01*
X273297333Y-15628952D01*
X273297333Y-15867047D01*
X273344952Y-15962285D01*
X273392571Y-16009904D01*
X273487809Y-16057523D01*
X273725904Y-16057523D01*
X273821142Y-16009904D01*
X273868761Y-15962285D01*
X273916380Y-15867047D01*
X273916380Y-15628952D01*
X273868761Y-15533714D01*
X273821142Y-15486095D01*
X272916380Y-16914666D02*
X272916380Y-16724190D01*
X272964000Y-16628952D01*
X273011619Y-16581333D01*
X273154476Y-16486095D01*
X273344952Y-16438476D01*
X273725904Y-16438476D01*
X273821142Y-16486095D01*
X273868761Y-16533714D01*
X273916380Y-16628952D01*
X273916380Y-16819428D01*
X273868761Y-16914666D01*
X273821142Y-16962285D01*
X273725904Y-17009904D01*
X273487809Y-17009904D01*
X273392571Y-16962285D01*
X273344952Y-16914666D01*
X273297333Y-16819428D01*
X273297333Y-16628952D01*
X273344952Y-16533714D01*
X273392571Y-16486095D01*
X273487809Y-16438476D01*
X254866380Y-87939714D02*
X253866380Y-87939714D01*
X253866380Y-88177809D01*
X253914000Y-88320666D01*
X254009238Y-88415904D01*
X254104476Y-88463523D01*
X254294952Y-88511142D01*
X254437809Y-88511142D01*
X254628285Y-88463523D01*
X254723523Y-88415904D01*
X254818761Y-88320666D01*
X254866380Y-88177809D01*
X254866380Y-87939714D01*
X253866380Y-89415904D02*
X253866380Y-88939714D01*
X254342571Y-88892095D01*
X254294952Y-88939714D01*
X254247333Y-89034952D01*
X254247333Y-89273047D01*
X254294952Y-89368285D01*
X254342571Y-89415904D01*
X254437809Y-89463523D01*
X254675904Y-89463523D01*
X254771142Y-89415904D01*
X254818761Y-89368285D01*
X254866380Y-89273047D01*
X254866380Y-89034952D01*
X254818761Y-88939714D01*
X254771142Y-88892095D01*
X253866380Y-90368285D02*
X253866380Y-89892095D01*
X254342571Y-89844476D01*
X254294952Y-89892095D01*
X254247333Y-89987333D01*
X254247333Y-90225428D01*
X254294952Y-90320666D01*
X254342571Y-90368285D01*
X254437809Y-90415904D01*
X254675904Y-90415904D01*
X254771142Y-90368285D01*
X254818761Y-90320666D01*
X254866380Y-90225428D01*
X254866380Y-89987333D01*
X254818761Y-89892095D01*
X254771142Y-89844476D01*
X254866380Y-71937714D02*
X253866380Y-71937714D01*
X253866380Y-72175809D01*
X253914000Y-72318666D01*
X254009238Y-72413904D01*
X254104476Y-72461523D01*
X254294952Y-72509142D01*
X254437809Y-72509142D01*
X254628285Y-72461523D01*
X254723523Y-72413904D01*
X254818761Y-72318666D01*
X254866380Y-72175809D01*
X254866380Y-71937714D01*
X253866380Y-73413904D02*
X253866380Y-72937714D01*
X254342571Y-72890095D01*
X254294952Y-72937714D01*
X254247333Y-73032952D01*
X254247333Y-73271047D01*
X254294952Y-73366285D01*
X254342571Y-73413904D01*
X254437809Y-73461523D01*
X254675904Y-73461523D01*
X254771142Y-73413904D01*
X254818761Y-73366285D01*
X254866380Y-73271047D01*
X254866380Y-73032952D01*
X254818761Y-72937714D01*
X254771142Y-72890095D01*
X254199714Y-74318666D02*
X254866380Y-74318666D01*
X253818761Y-74080571D02*
X254533047Y-73842476D01*
X254533047Y-74461523D01*
X254866380Y-52633714D02*
X253866380Y-52633714D01*
X253866380Y-52871809D01*
X253914000Y-53014666D01*
X254009238Y-53109904D01*
X254104476Y-53157523D01*
X254294952Y-53205142D01*
X254437809Y-53205142D01*
X254628285Y-53157523D01*
X254723523Y-53109904D01*
X254818761Y-53014666D01*
X254866380Y-52871809D01*
X254866380Y-52633714D01*
X253866380Y-54109904D02*
X253866380Y-53633714D01*
X254342571Y-53586095D01*
X254294952Y-53633714D01*
X254247333Y-53728952D01*
X254247333Y-53967047D01*
X254294952Y-54062285D01*
X254342571Y-54109904D01*
X254437809Y-54157523D01*
X254675904Y-54157523D01*
X254771142Y-54109904D01*
X254818761Y-54062285D01*
X254866380Y-53967047D01*
X254866380Y-53728952D01*
X254818761Y-53633714D01*
X254771142Y-53586095D01*
X253866380Y-54490857D02*
X253866380Y-55109904D01*
X254247333Y-54776571D01*
X254247333Y-54919428D01*
X254294952Y-55014666D01*
X254342571Y-55062285D01*
X254437809Y-55109904D01*
X254675904Y-55109904D01*
X254771142Y-55062285D01*
X254818761Y-55014666D01*
X254866380Y-54919428D01*
X254866380Y-54633714D01*
X254818761Y-54538476D01*
X254771142Y-54490857D01*
X254739380Y-33964714D02*
X253739380Y-33964714D01*
X253739380Y-34202809D01*
X253787000Y-34345666D01*
X253882238Y-34440904D01*
X253977476Y-34488523D01*
X254167952Y-34536142D01*
X254310809Y-34536142D01*
X254501285Y-34488523D01*
X254596523Y-34440904D01*
X254691761Y-34345666D01*
X254739380Y-34202809D01*
X254739380Y-33964714D01*
X253739380Y-35440904D02*
X253739380Y-34964714D01*
X254215571Y-34917095D01*
X254167952Y-34964714D01*
X254120333Y-35059952D01*
X254120333Y-35298047D01*
X254167952Y-35393285D01*
X254215571Y-35440904D01*
X254310809Y-35488523D01*
X254548904Y-35488523D01*
X254644142Y-35440904D01*
X254691761Y-35393285D01*
X254739380Y-35298047D01*
X254739380Y-35059952D01*
X254691761Y-34964714D01*
X254644142Y-34917095D01*
X253834619Y-35869476D02*
X253787000Y-35917095D01*
X253739380Y-36012333D01*
X253739380Y-36250428D01*
X253787000Y-36345666D01*
X253834619Y-36393285D01*
X253929857Y-36440904D01*
X254025095Y-36440904D01*
X254167952Y-36393285D01*
X254739380Y-35821857D01*
X254739380Y-36440904D01*
X254866380Y-14533714D02*
X253866380Y-14533714D01*
X253866380Y-14771809D01*
X253914000Y-14914666D01*
X254009238Y-15009904D01*
X254104476Y-15057523D01*
X254294952Y-15105142D01*
X254437809Y-15105142D01*
X254628285Y-15057523D01*
X254723523Y-15009904D01*
X254818761Y-14914666D01*
X254866380Y-14771809D01*
X254866380Y-14533714D01*
X253866380Y-16009904D02*
X253866380Y-15533714D01*
X254342571Y-15486095D01*
X254294952Y-15533714D01*
X254247333Y-15628952D01*
X254247333Y-15867047D01*
X254294952Y-15962285D01*
X254342571Y-16009904D01*
X254437809Y-16057523D01*
X254675904Y-16057523D01*
X254771142Y-16009904D01*
X254818761Y-15962285D01*
X254866380Y-15867047D01*
X254866380Y-15628952D01*
X254818761Y-15533714D01*
X254771142Y-15486095D01*
X254866380Y-17009904D02*
X254866380Y-16438476D01*
X254866380Y-16724190D02*
X253866380Y-16724190D01*
X254009238Y-16628952D01*
X254104476Y-16533714D01*
X254152095Y-16438476D01*
X235943380Y-87812714D02*
X234943380Y-87812714D01*
X234943380Y-88050809D01*
X234991000Y-88193666D01*
X235086238Y-88288904D01*
X235181476Y-88336523D01*
X235371952Y-88384142D01*
X235514809Y-88384142D01*
X235705285Y-88336523D01*
X235800523Y-88288904D01*
X235895761Y-88193666D01*
X235943380Y-88050809D01*
X235943380Y-87812714D01*
X234943380Y-89288904D02*
X234943380Y-88812714D01*
X235419571Y-88765095D01*
X235371952Y-88812714D01*
X235324333Y-88907952D01*
X235324333Y-89146047D01*
X235371952Y-89241285D01*
X235419571Y-89288904D01*
X235514809Y-89336523D01*
X235752904Y-89336523D01*
X235848142Y-89288904D01*
X235895761Y-89241285D01*
X235943380Y-89146047D01*
X235943380Y-88907952D01*
X235895761Y-88812714D01*
X235848142Y-88765095D01*
X234943380Y-89955571D02*
X234943380Y-90050809D01*
X234991000Y-90146047D01*
X235038619Y-90193666D01*
X235133857Y-90241285D01*
X235324333Y-90288904D01*
X235562428Y-90288904D01*
X235752904Y-90241285D01*
X235848142Y-90193666D01*
X235895761Y-90146047D01*
X235943380Y-90050809D01*
X235943380Y-89955571D01*
X235895761Y-89860333D01*
X235848142Y-89812714D01*
X235752904Y-89765095D01*
X235562428Y-89717476D01*
X235324333Y-89717476D01*
X235133857Y-89765095D01*
X235038619Y-89812714D01*
X234991000Y-89860333D01*
X234943380Y-89955571D01*
X236070380Y-71937714D02*
X235070380Y-71937714D01*
X235070380Y-72175809D01*
X235118000Y-72318666D01*
X235213238Y-72413904D01*
X235308476Y-72461523D01*
X235498952Y-72509142D01*
X235641809Y-72509142D01*
X235832285Y-72461523D01*
X235927523Y-72413904D01*
X236022761Y-72318666D01*
X236070380Y-72175809D01*
X236070380Y-71937714D01*
X235403714Y-73366285D02*
X236070380Y-73366285D01*
X235022761Y-73128190D02*
X235737047Y-72890095D01*
X235737047Y-73509142D01*
X236070380Y-73937714D02*
X236070380Y-74128190D01*
X236022761Y-74223428D01*
X235975142Y-74271047D01*
X235832285Y-74366285D01*
X235641809Y-74413904D01*
X235260857Y-74413904D01*
X235165619Y-74366285D01*
X235118000Y-74318666D01*
X235070380Y-74223428D01*
X235070380Y-74032952D01*
X235118000Y-73937714D01*
X235165619Y-73890095D01*
X235260857Y-73842476D01*
X235498952Y-73842476D01*
X235594190Y-73890095D01*
X235641809Y-73937714D01*
X235689428Y-74032952D01*
X235689428Y-74223428D01*
X235641809Y-74318666D01*
X235594190Y-74366285D01*
X235498952Y-74413904D01*
X236070380Y-52760714D02*
X235070380Y-52760714D01*
X235070380Y-52998809D01*
X235118000Y-53141666D01*
X235213238Y-53236904D01*
X235308476Y-53284523D01*
X235498952Y-53332142D01*
X235641809Y-53332142D01*
X235832285Y-53284523D01*
X235927523Y-53236904D01*
X236022761Y-53141666D01*
X236070380Y-52998809D01*
X236070380Y-52760714D01*
X235403714Y-54189285D02*
X236070380Y-54189285D01*
X235022761Y-53951190D02*
X235737047Y-53713095D01*
X235737047Y-54332142D01*
X235498952Y-54855952D02*
X235451333Y-54760714D01*
X235403714Y-54713095D01*
X235308476Y-54665476D01*
X235260857Y-54665476D01*
X235165619Y-54713095D01*
X235118000Y-54760714D01*
X235070380Y-54855952D01*
X235070380Y-55046428D01*
X235118000Y-55141666D01*
X235165619Y-55189285D01*
X235260857Y-55236904D01*
X235308476Y-55236904D01*
X235403714Y-55189285D01*
X235451333Y-55141666D01*
X235498952Y-55046428D01*
X235498952Y-54855952D01*
X235546571Y-54760714D01*
X235594190Y-54713095D01*
X235689428Y-54665476D01*
X235879904Y-54665476D01*
X235975142Y-54713095D01*
X236022761Y-54760714D01*
X236070380Y-54855952D01*
X236070380Y-55046428D01*
X236022761Y-55141666D01*
X235975142Y-55189285D01*
X235879904Y-55236904D01*
X235689428Y-55236904D01*
X235594190Y-55189285D01*
X235546571Y-55141666D01*
X235498952Y-55046428D01*
X236197380Y-33710714D02*
X235197380Y-33710714D01*
X235197380Y-33948809D01*
X235245000Y-34091666D01*
X235340238Y-34186904D01*
X235435476Y-34234523D01*
X235625952Y-34282142D01*
X235768809Y-34282142D01*
X235959285Y-34234523D01*
X236054523Y-34186904D01*
X236149761Y-34091666D01*
X236197380Y-33948809D01*
X236197380Y-33710714D01*
X235530714Y-35139285D02*
X236197380Y-35139285D01*
X235149761Y-34901190D02*
X235864047Y-34663095D01*
X235864047Y-35282142D01*
X235197380Y-35567857D02*
X235197380Y-36234523D01*
X236197380Y-35805952D01*
X236070380Y-14533714D02*
X235070380Y-14533714D01*
X235070380Y-14771809D01*
X235118000Y-14914666D01*
X235213238Y-15009904D01*
X235308476Y-15057523D01*
X235498952Y-15105142D01*
X235641809Y-15105142D01*
X235832285Y-15057523D01*
X235927523Y-15009904D01*
X236022761Y-14914666D01*
X236070380Y-14771809D01*
X236070380Y-14533714D01*
X235403714Y-15962285D02*
X236070380Y-15962285D01*
X235022761Y-15724190D02*
X235737047Y-15486095D01*
X235737047Y-16105142D01*
X235070380Y-16914666D02*
X235070380Y-16724190D01*
X235118000Y-16628952D01*
X235165619Y-16581333D01*
X235308476Y-16486095D01*
X235498952Y-16438476D01*
X235879904Y-16438476D01*
X235975142Y-16486095D01*
X236022761Y-16533714D01*
X236070380Y-16628952D01*
X236070380Y-16819428D01*
X236022761Y-16914666D01*
X235975142Y-16962285D01*
X235879904Y-17009904D01*
X235641809Y-17009904D01*
X235546571Y-16962285D01*
X235498952Y-16914666D01*
X235451333Y-16819428D01*
X235451333Y-16628952D01*
X235498952Y-16533714D01*
X235546571Y-16486095D01*
X235641809Y-16438476D01*
X216766380Y-87812714D02*
X215766380Y-87812714D01*
X215766380Y-88050809D01*
X215814000Y-88193666D01*
X215909238Y-88288904D01*
X216004476Y-88336523D01*
X216194952Y-88384142D01*
X216337809Y-88384142D01*
X216528285Y-88336523D01*
X216623523Y-88288904D01*
X216718761Y-88193666D01*
X216766380Y-88050809D01*
X216766380Y-87812714D01*
X216099714Y-89241285D02*
X216766380Y-89241285D01*
X215718761Y-89003190D02*
X216433047Y-88765095D01*
X216433047Y-89384142D01*
X215766380Y-90241285D02*
X215766380Y-89765095D01*
X216242571Y-89717476D01*
X216194952Y-89765095D01*
X216147333Y-89860333D01*
X216147333Y-90098428D01*
X216194952Y-90193666D01*
X216242571Y-90241285D01*
X216337809Y-90288904D01*
X216575904Y-90288904D01*
X216671142Y-90241285D01*
X216718761Y-90193666D01*
X216766380Y-90098428D01*
X216766380Y-89860333D01*
X216718761Y-89765095D01*
X216671142Y-89717476D01*
X217147380Y-71658214D02*
X216147380Y-71658214D01*
X216147380Y-71896309D01*
X216195000Y-72039166D01*
X216290238Y-72134404D01*
X216385476Y-72182023D01*
X216575952Y-72229642D01*
X216718809Y-72229642D01*
X216909285Y-72182023D01*
X217004523Y-72134404D01*
X217099761Y-72039166D01*
X217147380Y-71896309D01*
X217147380Y-71658214D01*
X216480714Y-73086785D02*
X217147380Y-73086785D01*
X216099761Y-72848690D02*
X216814047Y-72610595D01*
X216814047Y-73229642D01*
X216480714Y-74039166D02*
X217147380Y-74039166D01*
X216099761Y-73801071D02*
X216814047Y-73562976D01*
X216814047Y-74182023D01*
X216893380Y-52887714D02*
X215893380Y-52887714D01*
X215893380Y-53125809D01*
X215941000Y-53268666D01*
X216036238Y-53363904D01*
X216131476Y-53411523D01*
X216321952Y-53459142D01*
X216464809Y-53459142D01*
X216655285Y-53411523D01*
X216750523Y-53363904D01*
X216845761Y-53268666D01*
X216893380Y-53125809D01*
X216893380Y-52887714D01*
X216226714Y-54316285D02*
X216893380Y-54316285D01*
X215845761Y-54078190D02*
X216560047Y-53840095D01*
X216560047Y-54459142D01*
X215893380Y-54744857D02*
X215893380Y-55363904D01*
X216274333Y-55030571D01*
X216274333Y-55173428D01*
X216321952Y-55268666D01*
X216369571Y-55316285D01*
X216464809Y-55363904D01*
X216702904Y-55363904D01*
X216798142Y-55316285D01*
X216845761Y-55268666D01*
X216893380Y-55173428D01*
X216893380Y-54887714D01*
X216845761Y-54792476D01*
X216798142Y-54744857D01*
X216639380Y-33583714D02*
X215639380Y-33583714D01*
X215639380Y-33821809D01*
X215687000Y-33964666D01*
X215782238Y-34059904D01*
X215877476Y-34107523D01*
X216067952Y-34155142D01*
X216210809Y-34155142D01*
X216401285Y-34107523D01*
X216496523Y-34059904D01*
X216591761Y-33964666D01*
X216639380Y-33821809D01*
X216639380Y-33583714D01*
X215972714Y-35012285D02*
X216639380Y-35012285D01*
X215591761Y-34774190D02*
X216306047Y-34536095D01*
X216306047Y-35155142D01*
X215734619Y-35488476D02*
X215687000Y-35536095D01*
X215639380Y-35631333D01*
X215639380Y-35869428D01*
X215687000Y-35964666D01*
X215734619Y-36012285D01*
X215829857Y-36059904D01*
X215925095Y-36059904D01*
X216067952Y-36012285D01*
X216639380Y-35440857D01*
X216639380Y-36059904D01*
X216639380Y-14660714D02*
X215639380Y-14660714D01*
X215639380Y-14898809D01*
X215687000Y-15041666D01*
X215782238Y-15136904D01*
X215877476Y-15184523D01*
X216067952Y-15232142D01*
X216210809Y-15232142D01*
X216401285Y-15184523D01*
X216496523Y-15136904D01*
X216591761Y-15041666D01*
X216639380Y-14898809D01*
X216639380Y-14660714D01*
X215972714Y-16089285D02*
X216639380Y-16089285D01*
X215591761Y-15851190D02*
X216306047Y-15613095D01*
X216306047Y-16232142D01*
X216639380Y-17136904D02*
X216639380Y-16565476D01*
X216639380Y-16851190D02*
X215639380Y-16851190D01*
X215782238Y-16755952D01*
X215877476Y-16660714D01*
X215925095Y-16565476D01*
X197589380Y-88320714D02*
X196589380Y-88320714D01*
X196589380Y-88558809D01*
X196637000Y-88701666D01*
X196732238Y-88796904D01*
X196827476Y-88844523D01*
X197017952Y-88892142D01*
X197160809Y-88892142D01*
X197351285Y-88844523D01*
X197446523Y-88796904D01*
X197541761Y-88701666D01*
X197589380Y-88558809D01*
X197589380Y-88320714D01*
X196922714Y-89749285D02*
X197589380Y-89749285D01*
X196541761Y-89511190D02*
X197256047Y-89273095D01*
X197256047Y-89892142D01*
X196589380Y-90463571D02*
X196589380Y-90558809D01*
X196637000Y-90654047D01*
X196684619Y-90701666D01*
X196779857Y-90749285D01*
X196970333Y-90796904D01*
X197208428Y-90796904D01*
X197398904Y-90749285D01*
X197494142Y-90701666D01*
X197541761Y-90654047D01*
X197589380Y-90558809D01*
X197589380Y-90463571D01*
X197541761Y-90368333D01*
X197494142Y-90320714D01*
X197398904Y-90273095D01*
X197208428Y-90225476D01*
X196970333Y-90225476D01*
X196779857Y-90273095D01*
X196684619Y-90320714D01*
X196637000Y-90368333D01*
X196589380Y-90463571D01*
X197716380Y-72064714D02*
X196716380Y-72064714D01*
X196716380Y-72302809D01*
X196764000Y-72445666D01*
X196859238Y-72540904D01*
X196954476Y-72588523D01*
X197144952Y-72636142D01*
X197287809Y-72636142D01*
X197478285Y-72588523D01*
X197573523Y-72540904D01*
X197668761Y-72445666D01*
X197716380Y-72302809D01*
X197716380Y-72064714D01*
X196716380Y-72969476D02*
X196716380Y-73588523D01*
X197097333Y-73255190D01*
X197097333Y-73398047D01*
X197144952Y-73493285D01*
X197192571Y-73540904D01*
X197287809Y-73588523D01*
X197525904Y-73588523D01*
X197621142Y-73540904D01*
X197668761Y-73493285D01*
X197716380Y-73398047D01*
X197716380Y-73112333D01*
X197668761Y-73017095D01*
X197621142Y-72969476D01*
X197716380Y-74064714D02*
X197716380Y-74255190D01*
X197668761Y-74350428D01*
X197621142Y-74398047D01*
X197478285Y-74493285D01*
X197287809Y-74540904D01*
X196906857Y-74540904D01*
X196811619Y-74493285D01*
X196764000Y-74445666D01*
X196716380Y-74350428D01*
X196716380Y-74159952D01*
X196764000Y-74064714D01*
X196811619Y-74017095D01*
X196906857Y-73969476D01*
X197144952Y-73969476D01*
X197240190Y-74017095D01*
X197287809Y-74064714D01*
X197335428Y-74159952D01*
X197335428Y-74350428D01*
X197287809Y-74445666D01*
X197240190Y-74493285D01*
X197144952Y-74540904D01*
X197589380Y-53268714D02*
X196589380Y-53268714D01*
X196589380Y-53506809D01*
X196637000Y-53649666D01*
X196732238Y-53744904D01*
X196827476Y-53792523D01*
X197017952Y-53840142D01*
X197160809Y-53840142D01*
X197351285Y-53792523D01*
X197446523Y-53744904D01*
X197541761Y-53649666D01*
X197589380Y-53506809D01*
X197589380Y-53268714D01*
X196589380Y-54173476D02*
X196589380Y-54792523D01*
X196970333Y-54459190D01*
X196970333Y-54602047D01*
X197017952Y-54697285D01*
X197065571Y-54744904D01*
X197160809Y-54792523D01*
X197398904Y-54792523D01*
X197494142Y-54744904D01*
X197541761Y-54697285D01*
X197589380Y-54602047D01*
X197589380Y-54316333D01*
X197541761Y-54221095D01*
X197494142Y-54173476D01*
X197017952Y-55363952D02*
X196970333Y-55268714D01*
X196922714Y-55221095D01*
X196827476Y-55173476D01*
X196779857Y-55173476D01*
X196684619Y-55221095D01*
X196637000Y-55268714D01*
X196589380Y-55363952D01*
X196589380Y-55554428D01*
X196637000Y-55649666D01*
X196684619Y-55697285D01*
X196779857Y-55744904D01*
X196827476Y-55744904D01*
X196922714Y-55697285D01*
X196970333Y-55649666D01*
X197017952Y-55554428D01*
X197017952Y-55363952D01*
X197065571Y-55268714D01*
X197113190Y-55221095D01*
X197208428Y-55173476D01*
X197398904Y-55173476D01*
X197494142Y-55221095D01*
X197541761Y-55268714D01*
X197589380Y-55363952D01*
X197589380Y-55554428D01*
X197541761Y-55649666D01*
X197494142Y-55697285D01*
X197398904Y-55744904D01*
X197208428Y-55744904D01*
X197113190Y-55697285D01*
X197065571Y-55649666D01*
X197017952Y-55554428D01*
X197208380Y-33964714D02*
X196208380Y-33964714D01*
X196208380Y-34202809D01*
X196256000Y-34345666D01*
X196351238Y-34440904D01*
X196446476Y-34488523D01*
X196636952Y-34536142D01*
X196779809Y-34536142D01*
X196970285Y-34488523D01*
X197065523Y-34440904D01*
X197160761Y-34345666D01*
X197208380Y-34202809D01*
X197208380Y-33964714D01*
X196208380Y-34869476D02*
X196208380Y-35488523D01*
X196589333Y-35155190D01*
X196589333Y-35298047D01*
X196636952Y-35393285D01*
X196684571Y-35440904D01*
X196779809Y-35488523D01*
X197017904Y-35488523D01*
X197113142Y-35440904D01*
X197160761Y-35393285D01*
X197208380Y-35298047D01*
X197208380Y-35012333D01*
X197160761Y-34917095D01*
X197113142Y-34869476D01*
X196208380Y-35821857D02*
X196208380Y-36488523D01*
X197208380Y-36059952D01*
X197081380Y-14914714D02*
X196081380Y-14914714D01*
X196081380Y-15152809D01*
X196129000Y-15295666D01*
X196224238Y-15390904D01*
X196319476Y-15438523D01*
X196509952Y-15486142D01*
X196652809Y-15486142D01*
X196843285Y-15438523D01*
X196938523Y-15390904D01*
X197033761Y-15295666D01*
X197081380Y-15152809D01*
X197081380Y-14914714D01*
X196081380Y-15819476D02*
X196081380Y-16438523D01*
X196462333Y-16105190D01*
X196462333Y-16248047D01*
X196509952Y-16343285D01*
X196557571Y-16390904D01*
X196652809Y-16438523D01*
X196890904Y-16438523D01*
X196986142Y-16390904D01*
X197033761Y-16343285D01*
X197081380Y-16248047D01*
X197081380Y-15962333D01*
X197033761Y-15867095D01*
X196986142Y-15819476D01*
X196081380Y-17295666D02*
X196081380Y-17105190D01*
X196129000Y-17009952D01*
X196176619Y-16962333D01*
X196319476Y-16867095D01*
X196509952Y-16819476D01*
X196890904Y-16819476D01*
X196986142Y-16867095D01*
X197033761Y-16914714D01*
X197081380Y-17009952D01*
X197081380Y-17200428D01*
X197033761Y-17295666D01*
X196986142Y-17343285D01*
X196890904Y-17390904D01*
X196652809Y-17390904D01*
X196557571Y-17343285D01*
X196509952Y-17295666D01*
X196462333Y-17200428D01*
X196462333Y-17009952D01*
X196509952Y-16914714D01*
X196557571Y-16867095D01*
X196652809Y-16819476D01*
X164122380Y-80573714D02*
X163122380Y-80573714D01*
X163122380Y-80811809D01*
X163170000Y-80954666D01*
X163265238Y-81049904D01*
X163360476Y-81097523D01*
X163550952Y-81145142D01*
X163693809Y-81145142D01*
X163884285Y-81097523D01*
X163979523Y-81049904D01*
X164074761Y-80954666D01*
X164122380Y-80811809D01*
X164122380Y-80573714D01*
X163122380Y-81478476D02*
X163122380Y-82097523D01*
X163503333Y-81764190D01*
X163503333Y-81907047D01*
X163550952Y-82002285D01*
X163598571Y-82049904D01*
X163693809Y-82097523D01*
X163931904Y-82097523D01*
X164027142Y-82049904D01*
X164074761Y-82002285D01*
X164122380Y-81907047D01*
X164122380Y-81621333D01*
X164074761Y-81526095D01*
X164027142Y-81478476D01*
X163122380Y-83002285D02*
X163122380Y-82526095D01*
X163598571Y-82478476D01*
X163550952Y-82526095D01*
X163503333Y-82621333D01*
X163503333Y-82859428D01*
X163550952Y-82954666D01*
X163598571Y-83002285D01*
X163693809Y-83049904D01*
X163931904Y-83049904D01*
X164027142Y-83002285D01*
X164074761Y-82954666D01*
X164122380Y-82859428D01*
X164122380Y-82621333D01*
X164074761Y-82526095D01*
X164027142Y-82478476D01*
X178031380Y-72445714D02*
X177031380Y-72445714D01*
X177031380Y-72683809D01*
X177079000Y-72826666D01*
X177174238Y-72921904D01*
X177269476Y-72969523D01*
X177459952Y-73017142D01*
X177602809Y-73017142D01*
X177793285Y-72969523D01*
X177888523Y-72921904D01*
X177983761Y-72826666D01*
X178031380Y-72683809D01*
X178031380Y-72445714D01*
X177031380Y-73350476D02*
X177031380Y-73969523D01*
X177412333Y-73636190D01*
X177412333Y-73779047D01*
X177459952Y-73874285D01*
X177507571Y-73921904D01*
X177602809Y-73969523D01*
X177840904Y-73969523D01*
X177936142Y-73921904D01*
X177983761Y-73874285D01*
X178031380Y-73779047D01*
X178031380Y-73493333D01*
X177983761Y-73398095D01*
X177936142Y-73350476D01*
X177364714Y-74826666D02*
X178031380Y-74826666D01*
X176983761Y-74588571D02*
X177698047Y-74350476D01*
X177698047Y-74969523D01*
X178285380Y-53040214D02*
X177285380Y-53040214D01*
X177285380Y-53278309D01*
X177333000Y-53421166D01*
X177428238Y-53516404D01*
X177523476Y-53564023D01*
X177713952Y-53611642D01*
X177856809Y-53611642D01*
X178047285Y-53564023D01*
X178142523Y-53516404D01*
X178237761Y-53421166D01*
X178285380Y-53278309D01*
X178285380Y-53040214D01*
X177285380Y-53944976D02*
X177285380Y-54564023D01*
X177666333Y-54230690D01*
X177666333Y-54373547D01*
X177713952Y-54468785D01*
X177761571Y-54516404D01*
X177856809Y-54564023D01*
X178094904Y-54564023D01*
X178190142Y-54516404D01*
X178237761Y-54468785D01*
X178285380Y-54373547D01*
X178285380Y-54087833D01*
X178237761Y-53992595D01*
X178190142Y-53944976D01*
X177285380Y-54897357D02*
X177285380Y-55516404D01*
X177666333Y-55183071D01*
X177666333Y-55325928D01*
X177713952Y-55421166D01*
X177761571Y-55468785D01*
X177856809Y-55516404D01*
X178094904Y-55516404D01*
X178190142Y-55468785D01*
X178237761Y-55421166D01*
X178285380Y-55325928D01*
X178285380Y-55040214D01*
X178237761Y-54944976D01*
X178190142Y-54897357D01*
X178412380Y-34117214D02*
X177412380Y-34117214D01*
X177412380Y-34355309D01*
X177460000Y-34498166D01*
X177555238Y-34593404D01*
X177650476Y-34641023D01*
X177840952Y-34688642D01*
X177983809Y-34688642D01*
X178174285Y-34641023D01*
X178269523Y-34593404D01*
X178364761Y-34498166D01*
X178412380Y-34355309D01*
X178412380Y-34117214D01*
X177412380Y-35021976D02*
X177412380Y-35641023D01*
X177793333Y-35307690D01*
X177793333Y-35450547D01*
X177840952Y-35545785D01*
X177888571Y-35593404D01*
X177983809Y-35641023D01*
X178221904Y-35641023D01*
X178317142Y-35593404D01*
X178364761Y-35545785D01*
X178412380Y-35450547D01*
X178412380Y-35164833D01*
X178364761Y-35069595D01*
X178317142Y-35021976D01*
X177507619Y-36021976D02*
X177460000Y-36069595D01*
X177412380Y-36164833D01*
X177412380Y-36402928D01*
X177460000Y-36498166D01*
X177507619Y-36545785D01*
X177602857Y-36593404D01*
X177698095Y-36593404D01*
X177840952Y-36545785D01*
X178412380Y-35974357D01*
X178412380Y-36593404D01*
X178031380Y-15168714D02*
X177031380Y-15168714D01*
X177031380Y-15406809D01*
X177079000Y-15549666D01*
X177174238Y-15644904D01*
X177269476Y-15692523D01*
X177459952Y-15740142D01*
X177602809Y-15740142D01*
X177793285Y-15692523D01*
X177888523Y-15644904D01*
X177983761Y-15549666D01*
X178031380Y-15406809D01*
X178031380Y-15168714D01*
X177031380Y-16073476D02*
X177031380Y-16692523D01*
X177412333Y-16359190D01*
X177412333Y-16502047D01*
X177459952Y-16597285D01*
X177507571Y-16644904D01*
X177602809Y-16692523D01*
X177840904Y-16692523D01*
X177936142Y-16644904D01*
X177983761Y-16597285D01*
X178031380Y-16502047D01*
X178031380Y-16216333D01*
X177983761Y-16121095D01*
X177936142Y-16073476D01*
X178031380Y-17644904D02*
X178031380Y-17073476D01*
X178031380Y-17359190D02*
X177031380Y-17359190D01*
X177174238Y-17263952D01*
X177269476Y-17168714D01*
X177317095Y-17073476D01*
X112433380Y-80700714D02*
X111433380Y-80700714D01*
X111433380Y-80938809D01*
X111481000Y-81081666D01*
X111576238Y-81176904D01*
X111671476Y-81224523D01*
X111861952Y-81272142D01*
X112004809Y-81272142D01*
X112195285Y-81224523D01*
X112290523Y-81176904D01*
X112385761Y-81081666D01*
X112433380Y-80938809D01*
X112433380Y-80700714D01*
X111433380Y-81605476D02*
X111433380Y-82224523D01*
X111814333Y-81891190D01*
X111814333Y-82034047D01*
X111861952Y-82129285D01*
X111909571Y-82176904D01*
X112004809Y-82224523D01*
X112242904Y-82224523D01*
X112338142Y-82176904D01*
X112385761Y-82129285D01*
X112433380Y-82034047D01*
X112433380Y-81748333D01*
X112385761Y-81653095D01*
X112338142Y-81605476D01*
X111433380Y-82843571D02*
X111433380Y-82938809D01*
X111481000Y-83034047D01*
X111528619Y-83081666D01*
X111623857Y-83129285D01*
X111814333Y-83176904D01*
X112052428Y-83176904D01*
X112242904Y-83129285D01*
X112338142Y-83081666D01*
X112385761Y-83034047D01*
X112433380Y-82938809D01*
X112433380Y-82843571D01*
X112385761Y-82748333D01*
X112338142Y-82700714D01*
X112242904Y-82653095D01*
X112052428Y-82605476D01*
X111814333Y-82605476D01*
X111623857Y-82653095D01*
X111528619Y-82700714D01*
X111481000Y-82748333D01*
X111433380Y-82843571D01*
X103101380Y-72064714D02*
X102101380Y-72064714D01*
X102101380Y-72302809D01*
X102149000Y-72445666D01*
X102244238Y-72540904D01*
X102339476Y-72588523D01*
X102529952Y-72636142D01*
X102672809Y-72636142D01*
X102863285Y-72588523D01*
X102958523Y-72540904D01*
X103053761Y-72445666D01*
X103101380Y-72302809D01*
X103101380Y-72064714D01*
X102196619Y-73017095D02*
X102149000Y-73064714D01*
X102101380Y-73159952D01*
X102101380Y-73398047D01*
X102149000Y-73493285D01*
X102196619Y-73540904D01*
X102291857Y-73588523D01*
X102387095Y-73588523D01*
X102529952Y-73540904D01*
X103101380Y-72969476D01*
X103101380Y-73588523D01*
X103101380Y-74064714D02*
X103101380Y-74255190D01*
X103053761Y-74350428D01*
X103006142Y-74398047D01*
X102863285Y-74493285D01*
X102672809Y-74540904D01*
X102291857Y-74540904D01*
X102196619Y-74493285D01*
X102149000Y-74445666D01*
X102101380Y-74350428D01*
X102101380Y-74159952D01*
X102149000Y-74064714D01*
X102196619Y-74017095D01*
X102291857Y-73969476D01*
X102529952Y-73969476D01*
X102625190Y-74017095D01*
X102672809Y-74064714D01*
X102720428Y-74159952D01*
X102720428Y-74350428D01*
X102672809Y-74445666D01*
X102625190Y-74493285D01*
X102529952Y-74540904D01*
X102974380Y-53141714D02*
X101974380Y-53141714D01*
X101974380Y-53379809D01*
X102022000Y-53522666D01*
X102117238Y-53617904D01*
X102212476Y-53665523D01*
X102402952Y-53713142D01*
X102545809Y-53713142D01*
X102736285Y-53665523D01*
X102831523Y-53617904D01*
X102926761Y-53522666D01*
X102974380Y-53379809D01*
X102974380Y-53141714D01*
X102069619Y-54094095D02*
X102022000Y-54141714D01*
X101974380Y-54236952D01*
X101974380Y-54475047D01*
X102022000Y-54570285D01*
X102069619Y-54617904D01*
X102164857Y-54665523D01*
X102260095Y-54665523D01*
X102402952Y-54617904D01*
X102974380Y-54046476D01*
X102974380Y-54665523D01*
X102402952Y-55236952D02*
X102355333Y-55141714D01*
X102307714Y-55094095D01*
X102212476Y-55046476D01*
X102164857Y-55046476D01*
X102069619Y-55094095D01*
X102022000Y-55141714D01*
X101974380Y-55236952D01*
X101974380Y-55427428D01*
X102022000Y-55522666D01*
X102069619Y-55570285D01*
X102164857Y-55617904D01*
X102212476Y-55617904D01*
X102307714Y-55570285D01*
X102355333Y-55522666D01*
X102402952Y-55427428D01*
X102402952Y-55236952D01*
X102450571Y-55141714D01*
X102498190Y-55094095D01*
X102593428Y-55046476D01*
X102783904Y-55046476D01*
X102879142Y-55094095D01*
X102926761Y-55141714D01*
X102974380Y-55236952D01*
X102974380Y-55427428D01*
X102926761Y-55522666D01*
X102879142Y-55570285D01*
X102783904Y-55617904D01*
X102593428Y-55617904D01*
X102498190Y-55570285D01*
X102450571Y-55522666D01*
X102402952Y-55427428D01*
X103101380Y-33964714D02*
X102101380Y-33964714D01*
X102101380Y-34202809D01*
X102149000Y-34345666D01*
X102244238Y-34440904D01*
X102339476Y-34488523D01*
X102529952Y-34536142D01*
X102672809Y-34536142D01*
X102863285Y-34488523D01*
X102958523Y-34440904D01*
X103053761Y-34345666D01*
X103101380Y-34202809D01*
X103101380Y-33964714D01*
X102196619Y-34917095D02*
X102149000Y-34964714D01*
X102101380Y-35059952D01*
X102101380Y-35298047D01*
X102149000Y-35393285D01*
X102196619Y-35440904D01*
X102291857Y-35488523D01*
X102387095Y-35488523D01*
X102529952Y-35440904D01*
X103101380Y-34869476D01*
X103101380Y-35488523D01*
X102101380Y-35821857D02*
X102101380Y-36488523D01*
X103101380Y-36059952D01*
X102847380Y-15041714D02*
X101847380Y-15041714D01*
X101847380Y-15279809D01*
X101895000Y-15422666D01*
X101990238Y-15517904D01*
X102085476Y-15565523D01*
X102275952Y-15613142D01*
X102418809Y-15613142D01*
X102609285Y-15565523D01*
X102704523Y-15517904D01*
X102799761Y-15422666D01*
X102847380Y-15279809D01*
X102847380Y-15041714D01*
X101942619Y-15994095D02*
X101895000Y-16041714D01*
X101847380Y-16136952D01*
X101847380Y-16375047D01*
X101895000Y-16470285D01*
X101942619Y-16517904D01*
X102037857Y-16565523D01*
X102133095Y-16565523D01*
X102275952Y-16517904D01*
X102847380Y-15946476D01*
X102847380Y-16565523D01*
X101847380Y-17422666D02*
X101847380Y-17232190D01*
X101895000Y-17136952D01*
X101942619Y-17089333D01*
X102085476Y-16994095D01*
X102275952Y-16946476D01*
X102656904Y-16946476D01*
X102752142Y-16994095D01*
X102799761Y-17041714D01*
X102847380Y-17136952D01*
X102847380Y-17327428D01*
X102799761Y-17422666D01*
X102752142Y-17470285D01*
X102656904Y-17517904D01*
X102418809Y-17517904D01*
X102323571Y-17470285D01*
X102275952Y-17422666D01*
X102228333Y-17327428D01*
X102228333Y-17136952D01*
X102275952Y-17041714D01*
X102323571Y-16994095D01*
X102418809Y-16946476D01*
X84178380Y-87203214D02*
X83178380Y-87203214D01*
X83178380Y-87441309D01*
X83226000Y-87584166D01*
X83321238Y-87679404D01*
X83416476Y-87727023D01*
X83606952Y-87774642D01*
X83749809Y-87774642D01*
X83940285Y-87727023D01*
X84035523Y-87679404D01*
X84130761Y-87584166D01*
X84178380Y-87441309D01*
X84178380Y-87203214D01*
X83273619Y-88155595D02*
X83226000Y-88203214D01*
X83178380Y-88298452D01*
X83178380Y-88536547D01*
X83226000Y-88631785D01*
X83273619Y-88679404D01*
X83368857Y-88727023D01*
X83464095Y-88727023D01*
X83606952Y-88679404D01*
X84178380Y-88107976D01*
X84178380Y-88727023D01*
X83178380Y-89631785D02*
X83178380Y-89155595D01*
X83654571Y-89107976D01*
X83606952Y-89155595D01*
X83559333Y-89250833D01*
X83559333Y-89488928D01*
X83606952Y-89584166D01*
X83654571Y-89631785D01*
X83749809Y-89679404D01*
X83987904Y-89679404D01*
X84083142Y-89631785D01*
X84130761Y-89584166D01*
X84178380Y-89488928D01*
X84178380Y-89250833D01*
X84130761Y-89155595D01*
X84083142Y-89107976D01*
X84178380Y-72064714D02*
X83178380Y-72064714D01*
X83178380Y-72302809D01*
X83226000Y-72445666D01*
X83321238Y-72540904D01*
X83416476Y-72588523D01*
X83606952Y-72636142D01*
X83749809Y-72636142D01*
X83940285Y-72588523D01*
X84035523Y-72540904D01*
X84130761Y-72445666D01*
X84178380Y-72302809D01*
X84178380Y-72064714D01*
X83273619Y-73017095D02*
X83226000Y-73064714D01*
X83178380Y-73159952D01*
X83178380Y-73398047D01*
X83226000Y-73493285D01*
X83273619Y-73540904D01*
X83368857Y-73588523D01*
X83464095Y-73588523D01*
X83606952Y-73540904D01*
X84178380Y-72969476D01*
X84178380Y-73588523D01*
X83511714Y-74445666D02*
X84178380Y-74445666D01*
X83130761Y-74207571D02*
X83845047Y-73969476D01*
X83845047Y-74588523D01*
X84178380Y-53294214D02*
X83178380Y-53294214D01*
X83178380Y-53532309D01*
X83226000Y-53675166D01*
X83321238Y-53770404D01*
X83416476Y-53818023D01*
X83606952Y-53865642D01*
X83749809Y-53865642D01*
X83940285Y-53818023D01*
X84035523Y-53770404D01*
X84130761Y-53675166D01*
X84178380Y-53532309D01*
X84178380Y-53294214D01*
X83273619Y-54246595D02*
X83226000Y-54294214D01*
X83178380Y-54389452D01*
X83178380Y-54627547D01*
X83226000Y-54722785D01*
X83273619Y-54770404D01*
X83368857Y-54818023D01*
X83464095Y-54818023D01*
X83606952Y-54770404D01*
X84178380Y-54198976D01*
X84178380Y-54818023D01*
X83178380Y-55151357D02*
X83178380Y-55770404D01*
X83559333Y-55437071D01*
X83559333Y-55579928D01*
X83606952Y-55675166D01*
X83654571Y-55722785D01*
X83749809Y-55770404D01*
X83987904Y-55770404D01*
X84083142Y-55722785D01*
X84130761Y-55675166D01*
X84178380Y-55579928D01*
X84178380Y-55294214D01*
X84130761Y-55198976D01*
X84083142Y-55151357D01*
X83924380Y-33990214D02*
X82924380Y-33990214D01*
X82924380Y-34228309D01*
X82972000Y-34371166D01*
X83067238Y-34466404D01*
X83162476Y-34514023D01*
X83352952Y-34561642D01*
X83495809Y-34561642D01*
X83686285Y-34514023D01*
X83781523Y-34466404D01*
X83876761Y-34371166D01*
X83924380Y-34228309D01*
X83924380Y-33990214D01*
X83019619Y-34942595D02*
X82972000Y-34990214D01*
X82924380Y-35085452D01*
X82924380Y-35323547D01*
X82972000Y-35418785D01*
X83019619Y-35466404D01*
X83114857Y-35514023D01*
X83210095Y-35514023D01*
X83352952Y-35466404D01*
X83924380Y-34894976D01*
X83924380Y-35514023D01*
X83019619Y-35894976D02*
X82972000Y-35942595D01*
X82924380Y-36037833D01*
X82924380Y-36275928D01*
X82972000Y-36371166D01*
X83019619Y-36418785D01*
X83114857Y-36466404D01*
X83210095Y-36466404D01*
X83352952Y-36418785D01*
X83924380Y-35847357D01*
X83924380Y-36466404D01*
X84178380Y-15067214D02*
X83178380Y-15067214D01*
X83178380Y-15305309D01*
X83226000Y-15448166D01*
X83321238Y-15543404D01*
X83416476Y-15591023D01*
X83606952Y-15638642D01*
X83749809Y-15638642D01*
X83940285Y-15591023D01*
X84035523Y-15543404D01*
X84130761Y-15448166D01*
X84178380Y-15305309D01*
X84178380Y-15067214D01*
X83273619Y-16019595D02*
X83226000Y-16067214D01*
X83178380Y-16162452D01*
X83178380Y-16400547D01*
X83226000Y-16495785D01*
X83273619Y-16543404D01*
X83368857Y-16591023D01*
X83464095Y-16591023D01*
X83606952Y-16543404D01*
X84178380Y-15971976D01*
X84178380Y-16591023D01*
X84178380Y-17543404D02*
X84178380Y-16971976D01*
X84178380Y-17257690D02*
X83178380Y-17257690D01*
X83321238Y-17162452D01*
X83416476Y-17067214D01*
X83464095Y-16971976D01*
X65001380Y-87177714D02*
X64001380Y-87177714D01*
X64001380Y-87415809D01*
X64049000Y-87558666D01*
X64144238Y-87653904D01*
X64239476Y-87701523D01*
X64429952Y-87749142D01*
X64572809Y-87749142D01*
X64763285Y-87701523D01*
X64858523Y-87653904D01*
X64953761Y-87558666D01*
X65001380Y-87415809D01*
X65001380Y-87177714D01*
X64096619Y-88130095D02*
X64049000Y-88177714D01*
X64001380Y-88272952D01*
X64001380Y-88511047D01*
X64049000Y-88606285D01*
X64096619Y-88653904D01*
X64191857Y-88701523D01*
X64287095Y-88701523D01*
X64429952Y-88653904D01*
X65001380Y-88082476D01*
X65001380Y-88701523D01*
X64001380Y-89320571D02*
X64001380Y-89415809D01*
X64049000Y-89511047D01*
X64096619Y-89558666D01*
X64191857Y-89606285D01*
X64382333Y-89653904D01*
X64620428Y-89653904D01*
X64810904Y-89606285D01*
X64906142Y-89558666D01*
X64953761Y-89511047D01*
X65001380Y-89415809D01*
X65001380Y-89320571D01*
X64953761Y-89225333D01*
X64906142Y-89177714D01*
X64810904Y-89130095D01*
X64620428Y-89082476D01*
X64382333Y-89082476D01*
X64191857Y-89130095D01*
X64096619Y-89177714D01*
X64049000Y-89225333D01*
X64001380Y-89320571D01*
X65128380Y-72090214D02*
X64128380Y-72090214D01*
X64128380Y-72328309D01*
X64176000Y-72471166D01*
X64271238Y-72566404D01*
X64366476Y-72614023D01*
X64556952Y-72661642D01*
X64699809Y-72661642D01*
X64890285Y-72614023D01*
X64985523Y-72566404D01*
X65080761Y-72471166D01*
X65128380Y-72328309D01*
X65128380Y-72090214D01*
X65128380Y-73614023D02*
X65128380Y-73042595D01*
X65128380Y-73328309D02*
X64128380Y-73328309D01*
X64271238Y-73233071D01*
X64366476Y-73137833D01*
X64414095Y-73042595D01*
X65128380Y-74090214D02*
X65128380Y-74280690D01*
X65080761Y-74375928D01*
X65033142Y-74423547D01*
X64890285Y-74518785D01*
X64699809Y-74566404D01*
X64318857Y-74566404D01*
X64223619Y-74518785D01*
X64176000Y-74471166D01*
X64128380Y-74375928D01*
X64128380Y-74185452D01*
X64176000Y-74090214D01*
X64223619Y-74042595D01*
X64318857Y-73994976D01*
X64556952Y-73994976D01*
X64652190Y-74042595D01*
X64699809Y-74090214D01*
X64747428Y-74185452D01*
X64747428Y-74375928D01*
X64699809Y-74471166D01*
X64652190Y-74518785D01*
X64556952Y-74566404D01*
X65382380Y-53040214D02*
X64382380Y-53040214D01*
X64382380Y-53278309D01*
X64430000Y-53421166D01*
X64525238Y-53516404D01*
X64620476Y-53564023D01*
X64810952Y-53611642D01*
X64953809Y-53611642D01*
X65144285Y-53564023D01*
X65239523Y-53516404D01*
X65334761Y-53421166D01*
X65382380Y-53278309D01*
X65382380Y-53040214D01*
X65382380Y-54564023D02*
X65382380Y-53992595D01*
X65382380Y-54278309D02*
X64382380Y-54278309D01*
X64525238Y-54183071D01*
X64620476Y-54087833D01*
X64668095Y-53992595D01*
X64810952Y-55135452D02*
X64763333Y-55040214D01*
X64715714Y-54992595D01*
X64620476Y-54944976D01*
X64572857Y-54944976D01*
X64477619Y-54992595D01*
X64430000Y-55040214D01*
X64382380Y-55135452D01*
X64382380Y-55325928D01*
X64430000Y-55421166D01*
X64477619Y-55468785D01*
X64572857Y-55516404D01*
X64620476Y-55516404D01*
X64715714Y-55468785D01*
X64763333Y-55421166D01*
X64810952Y-55325928D01*
X64810952Y-55135452D01*
X64858571Y-55040214D01*
X64906190Y-54992595D01*
X65001428Y-54944976D01*
X65191904Y-54944976D01*
X65287142Y-54992595D01*
X65334761Y-55040214D01*
X65382380Y-55135452D01*
X65382380Y-55325928D01*
X65334761Y-55421166D01*
X65287142Y-55468785D01*
X65191904Y-55516404D01*
X65001428Y-55516404D01*
X64906190Y-55468785D01*
X64858571Y-55421166D01*
X64810952Y-55325928D01*
X65382380Y-34117214D02*
X64382380Y-34117214D01*
X64382380Y-34355309D01*
X64430000Y-34498166D01*
X64525238Y-34593404D01*
X64620476Y-34641023D01*
X64810952Y-34688642D01*
X64953809Y-34688642D01*
X65144285Y-34641023D01*
X65239523Y-34593404D01*
X65334761Y-34498166D01*
X65382380Y-34355309D01*
X65382380Y-34117214D01*
X65382380Y-35641023D02*
X65382380Y-35069595D01*
X65382380Y-35355309D02*
X64382380Y-35355309D01*
X64525238Y-35260071D01*
X64620476Y-35164833D01*
X64668095Y-35069595D01*
X64382380Y-35974357D02*
X64382380Y-36641023D01*
X65382380Y-36212452D01*
X65255380Y-15067214D02*
X64255380Y-15067214D01*
X64255380Y-15305309D01*
X64303000Y-15448166D01*
X64398238Y-15543404D01*
X64493476Y-15591023D01*
X64683952Y-15638642D01*
X64826809Y-15638642D01*
X65017285Y-15591023D01*
X65112523Y-15543404D01*
X65207761Y-15448166D01*
X65255380Y-15305309D01*
X65255380Y-15067214D01*
X65255380Y-16591023D02*
X65255380Y-16019595D01*
X65255380Y-16305309D02*
X64255380Y-16305309D01*
X64398238Y-16210071D01*
X64493476Y-16114833D01*
X64541095Y-16019595D01*
X64255380Y-17448166D02*
X64255380Y-17257690D01*
X64303000Y-17162452D01*
X64350619Y-17114833D01*
X64493476Y-17019595D01*
X64683952Y-16971976D01*
X65064904Y-16971976D01*
X65160142Y-17019595D01*
X65207761Y-17067214D01*
X65255380Y-17162452D01*
X65255380Y-17352928D01*
X65207761Y-17448166D01*
X65160142Y-17495785D01*
X65064904Y-17543404D01*
X64826809Y-17543404D01*
X64731571Y-17495785D01*
X64683952Y-17448166D01*
X64636333Y-17352928D01*
X64636333Y-17162452D01*
X64683952Y-17067214D01*
X64731571Y-17019595D01*
X64826809Y-16971976D01*
X45824380Y-87330214D02*
X44824380Y-87330214D01*
X44824380Y-87568309D01*
X44872000Y-87711166D01*
X44967238Y-87806404D01*
X45062476Y-87854023D01*
X45252952Y-87901642D01*
X45395809Y-87901642D01*
X45586285Y-87854023D01*
X45681523Y-87806404D01*
X45776761Y-87711166D01*
X45824380Y-87568309D01*
X45824380Y-87330214D01*
X45824380Y-88854023D02*
X45824380Y-88282595D01*
X45824380Y-88568309D02*
X44824380Y-88568309D01*
X44967238Y-88473071D01*
X45062476Y-88377833D01*
X45110095Y-88282595D01*
X44824380Y-89758785D02*
X44824380Y-89282595D01*
X45300571Y-89234976D01*
X45252952Y-89282595D01*
X45205333Y-89377833D01*
X45205333Y-89615928D01*
X45252952Y-89711166D01*
X45300571Y-89758785D01*
X45395809Y-89806404D01*
X45633904Y-89806404D01*
X45729142Y-89758785D01*
X45776761Y-89711166D01*
X45824380Y-89615928D01*
X45824380Y-89377833D01*
X45776761Y-89282595D01*
X45729142Y-89234976D01*
X45824380Y-72090214D02*
X44824380Y-72090214D01*
X44824380Y-72328309D01*
X44872000Y-72471166D01*
X44967238Y-72566404D01*
X45062476Y-72614023D01*
X45252952Y-72661642D01*
X45395809Y-72661642D01*
X45586285Y-72614023D01*
X45681523Y-72566404D01*
X45776761Y-72471166D01*
X45824380Y-72328309D01*
X45824380Y-72090214D01*
X45824380Y-73614023D02*
X45824380Y-73042595D01*
X45824380Y-73328309D02*
X44824380Y-73328309D01*
X44967238Y-73233071D01*
X45062476Y-73137833D01*
X45110095Y-73042595D01*
X45157714Y-74471166D02*
X45824380Y-74471166D01*
X44776761Y-74233071D02*
X45491047Y-73994976D01*
X45491047Y-74614023D01*
X45951380Y-53040214D02*
X44951380Y-53040214D01*
X44951380Y-53278309D01*
X44999000Y-53421166D01*
X45094238Y-53516404D01*
X45189476Y-53564023D01*
X45379952Y-53611642D01*
X45522809Y-53611642D01*
X45713285Y-53564023D01*
X45808523Y-53516404D01*
X45903761Y-53421166D01*
X45951380Y-53278309D01*
X45951380Y-53040214D01*
X45951380Y-54564023D02*
X45951380Y-53992595D01*
X45951380Y-54278309D02*
X44951380Y-54278309D01*
X45094238Y-54183071D01*
X45189476Y-54087833D01*
X45237095Y-53992595D01*
X44951380Y-54897357D02*
X44951380Y-55516404D01*
X45332333Y-55183071D01*
X45332333Y-55325928D01*
X45379952Y-55421166D01*
X45427571Y-55468785D01*
X45522809Y-55516404D01*
X45760904Y-55516404D01*
X45856142Y-55468785D01*
X45903761Y-55421166D01*
X45951380Y-55325928D01*
X45951380Y-55040214D01*
X45903761Y-54944976D01*
X45856142Y-54897357D01*
X45189380Y-34117214D02*
X44189380Y-34117214D01*
X44189380Y-34355309D01*
X44237000Y-34498166D01*
X44332238Y-34593404D01*
X44427476Y-34641023D01*
X44617952Y-34688642D01*
X44760809Y-34688642D01*
X44951285Y-34641023D01*
X45046523Y-34593404D01*
X45141761Y-34498166D01*
X45189380Y-34355309D01*
X45189380Y-34117214D01*
X45189380Y-35641023D02*
X45189380Y-35069595D01*
X45189380Y-35355309D02*
X44189380Y-35355309D01*
X44332238Y-35260071D01*
X44427476Y-35164833D01*
X44475095Y-35069595D01*
X44284619Y-36021976D02*
X44237000Y-36069595D01*
X44189380Y-36164833D01*
X44189380Y-36402928D01*
X44237000Y-36498166D01*
X44284619Y-36545785D01*
X44379857Y-36593404D01*
X44475095Y-36593404D01*
X44617952Y-36545785D01*
X45189380Y-35974357D01*
X45189380Y-36593404D01*
X45951380Y-15067214D02*
X44951380Y-15067214D01*
X44951380Y-15305309D01*
X44999000Y-15448166D01*
X45094238Y-15543404D01*
X45189476Y-15591023D01*
X45379952Y-15638642D01*
X45522809Y-15638642D01*
X45713285Y-15591023D01*
X45808523Y-15543404D01*
X45903761Y-15448166D01*
X45951380Y-15305309D01*
X45951380Y-15067214D01*
X45951380Y-16591023D02*
X45951380Y-16019595D01*
X45951380Y-16305309D02*
X44951380Y-16305309D01*
X45094238Y-16210071D01*
X45189476Y-16114833D01*
X45237095Y-16019595D01*
X45951380Y-17543404D02*
X45951380Y-16971976D01*
X45951380Y-17257690D02*
X44951380Y-17257690D01*
X45094238Y-17162452D01*
X45189476Y-17067214D01*
X45237095Y-16971976D01*
X26774380Y-87685714D02*
X25774380Y-87685714D01*
X25774380Y-87923809D01*
X25822000Y-88066666D01*
X25917238Y-88161904D01*
X26012476Y-88209523D01*
X26202952Y-88257142D01*
X26345809Y-88257142D01*
X26536285Y-88209523D01*
X26631523Y-88161904D01*
X26726761Y-88066666D01*
X26774380Y-87923809D01*
X26774380Y-87685714D01*
X26774380Y-89209523D02*
X26774380Y-88638095D01*
X26774380Y-88923809D02*
X25774380Y-88923809D01*
X25917238Y-88828571D01*
X26012476Y-88733333D01*
X26060095Y-88638095D01*
X25774380Y-89828571D02*
X25774380Y-89923809D01*
X25822000Y-90019047D01*
X25869619Y-90066666D01*
X25964857Y-90114285D01*
X26155333Y-90161904D01*
X26393428Y-90161904D01*
X26583904Y-90114285D01*
X26679142Y-90066666D01*
X26726761Y-90019047D01*
X26774380Y-89923809D01*
X26774380Y-89828571D01*
X26726761Y-89733333D01*
X26679142Y-89685714D01*
X26583904Y-89638095D01*
X26393428Y-89590476D01*
X26155333Y-89590476D01*
X25964857Y-89638095D01*
X25869619Y-89685714D01*
X25822000Y-89733333D01*
X25774380Y-89828571D01*
X27155380Y-72667904D02*
X26155380Y-72667904D01*
X26155380Y-72906000D01*
X26203000Y-73048857D01*
X26298238Y-73144095D01*
X26393476Y-73191714D01*
X26583952Y-73239333D01*
X26726809Y-73239333D01*
X26917285Y-73191714D01*
X27012523Y-73144095D01*
X27107761Y-73048857D01*
X27155380Y-72906000D01*
X27155380Y-72667904D01*
X27155380Y-73715523D02*
X27155380Y-73906000D01*
X27107761Y-74001238D01*
X27060142Y-74048857D01*
X26917285Y-74144095D01*
X26726809Y-74191714D01*
X26345857Y-74191714D01*
X26250619Y-74144095D01*
X26203000Y-74096476D01*
X26155380Y-74001238D01*
X26155380Y-73810761D01*
X26203000Y-73715523D01*
X26250619Y-73667904D01*
X26345857Y-73620285D01*
X26583952Y-73620285D01*
X26679190Y-73667904D01*
X26726809Y-73715523D01*
X26774428Y-73810761D01*
X26774428Y-74001238D01*
X26726809Y-74096476D01*
X26679190Y-74144095D01*
X26583952Y-74191714D01*
X27155380Y-53744904D02*
X26155380Y-53744904D01*
X26155380Y-53983000D01*
X26203000Y-54125857D01*
X26298238Y-54221095D01*
X26393476Y-54268714D01*
X26583952Y-54316333D01*
X26726809Y-54316333D01*
X26917285Y-54268714D01*
X27012523Y-54221095D01*
X27107761Y-54125857D01*
X27155380Y-53983000D01*
X27155380Y-53744904D01*
X26583952Y-54887761D02*
X26536333Y-54792523D01*
X26488714Y-54744904D01*
X26393476Y-54697285D01*
X26345857Y-54697285D01*
X26250619Y-54744904D01*
X26203000Y-54792523D01*
X26155380Y-54887761D01*
X26155380Y-55078238D01*
X26203000Y-55173476D01*
X26250619Y-55221095D01*
X26345857Y-55268714D01*
X26393476Y-55268714D01*
X26488714Y-55221095D01*
X26536333Y-55173476D01*
X26583952Y-55078238D01*
X26583952Y-54887761D01*
X26631571Y-54792523D01*
X26679190Y-54744904D01*
X26774428Y-54697285D01*
X26964904Y-54697285D01*
X27060142Y-54744904D01*
X27107761Y-54792523D01*
X27155380Y-54887761D01*
X27155380Y-55078238D01*
X27107761Y-55173476D01*
X27060142Y-55221095D01*
X26964904Y-55268714D01*
X26774428Y-55268714D01*
X26679190Y-55221095D01*
X26631571Y-55173476D01*
X26583952Y-55078238D01*
X26774380Y-35075904D02*
X25774380Y-35075904D01*
X25774380Y-35314000D01*
X25822000Y-35456857D01*
X25917238Y-35552095D01*
X26012476Y-35599714D01*
X26202952Y-35647333D01*
X26345809Y-35647333D01*
X26536285Y-35599714D01*
X26631523Y-35552095D01*
X26726761Y-35456857D01*
X26774380Y-35314000D01*
X26774380Y-35075904D01*
X25774380Y-35980666D02*
X25774380Y-36647333D01*
X26774380Y-36218761D01*
X25631380Y-15644904D02*
X24631380Y-15644904D01*
X24631380Y-15883000D01*
X24679000Y-16025857D01*
X24774238Y-16121095D01*
X24869476Y-16168714D01*
X25059952Y-16216333D01*
X25202809Y-16216333D01*
X25393285Y-16168714D01*
X25488523Y-16121095D01*
X25583761Y-16025857D01*
X25631380Y-15883000D01*
X25631380Y-15644904D01*
X24631380Y-17073476D02*
X24631380Y-16883000D01*
X24679000Y-16787761D01*
X24726619Y-16740142D01*
X24869476Y-16644904D01*
X25059952Y-16597285D01*
X25440904Y-16597285D01*
X25536142Y-16644904D01*
X25583761Y-16692523D01*
X25631380Y-16787761D01*
X25631380Y-16978238D01*
X25583761Y-17073476D01*
X25536142Y-17121095D01*
X25440904Y-17168714D01*
X25202809Y-17168714D01*
X25107571Y-17121095D01*
X25059952Y-17073476D01*
X25012333Y-16978238D01*
X25012333Y-16787761D01*
X25059952Y-16692523D01*
X25107571Y-16644904D01*
X25202809Y-16597285D01*
X7978380Y-88568404D02*
X6978380Y-88568404D01*
X6978380Y-88806500D01*
X7026000Y-88949357D01*
X7121238Y-89044595D01*
X7216476Y-89092214D01*
X7406952Y-89139833D01*
X7549809Y-89139833D01*
X7740285Y-89092214D01*
X7835523Y-89044595D01*
X7930761Y-88949357D01*
X7978380Y-88806500D01*
X7978380Y-88568404D01*
X6978380Y-90044595D02*
X6978380Y-89568404D01*
X7454571Y-89520785D01*
X7406952Y-89568404D01*
X7359333Y-89663642D01*
X7359333Y-89901738D01*
X7406952Y-89996976D01*
X7454571Y-90044595D01*
X7549809Y-90092214D01*
X7787904Y-90092214D01*
X7883142Y-90044595D01*
X7930761Y-89996976D01*
X7978380Y-89901738D01*
X7978380Y-89663642D01*
X7930761Y-89568404D01*
X7883142Y-89520785D01*
X7851380Y-72693404D02*
X6851380Y-72693404D01*
X6851380Y-72931500D01*
X6899000Y-73074357D01*
X6994238Y-73169595D01*
X7089476Y-73217214D01*
X7279952Y-73264833D01*
X7422809Y-73264833D01*
X7613285Y-73217214D01*
X7708523Y-73169595D01*
X7803761Y-73074357D01*
X7851380Y-72931500D01*
X7851380Y-72693404D01*
X7184714Y-74121976D02*
X7851380Y-74121976D01*
X6803761Y-73883880D02*
X7518047Y-73645785D01*
X7518047Y-74264833D01*
X7597380Y-53744904D02*
X6597380Y-53744904D01*
X6597380Y-53983000D01*
X6645000Y-54125857D01*
X6740238Y-54221095D01*
X6835476Y-54268714D01*
X7025952Y-54316333D01*
X7168809Y-54316333D01*
X7359285Y-54268714D01*
X7454523Y-54221095D01*
X7549761Y-54125857D01*
X7597380Y-53983000D01*
X7597380Y-53744904D01*
X6597380Y-54649666D02*
X6597380Y-55268714D01*
X6978333Y-54935380D01*
X6978333Y-55078238D01*
X7025952Y-55173476D01*
X7073571Y-55221095D01*
X7168809Y-55268714D01*
X7406904Y-55268714D01*
X7502142Y-55221095D01*
X7549761Y-55173476D01*
X7597380Y-55078238D01*
X7597380Y-54792523D01*
X7549761Y-54697285D01*
X7502142Y-54649666D01*
X8232380Y-34847404D02*
X7232380Y-34847404D01*
X7232380Y-35085500D01*
X7280000Y-35228357D01*
X7375238Y-35323595D01*
X7470476Y-35371214D01*
X7660952Y-35418833D01*
X7803809Y-35418833D01*
X7994285Y-35371214D01*
X8089523Y-35323595D01*
X8184761Y-35228357D01*
X8232380Y-35085500D01*
X8232380Y-34847404D01*
X7327619Y-35799785D02*
X7280000Y-35847404D01*
X7232380Y-35942642D01*
X7232380Y-36180738D01*
X7280000Y-36275976D01*
X7327619Y-36323595D01*
X7422857Y-36371214D01*
X7518095Y-36371214D01*
X7660952Y-36323595D01*
X8232380Y-35752166D01*
X8232380Y-36371214D01*
X6961095Y-15278380D02*
X6961095Y-14278380D01*
X6723000Y-14278380D01*
X6580142Y-14326000D01*
X6484904Y-14421238D01*
X6437285Y-14516476D01*
X6389666Y-14706952D01*
X6389666Y-14849809D01*
X6437285Y-15040285D01*
X6484904Y-15135523D01*
X6580142Y-15230761D01*
X6723000Y-15278380D01*
X6961095Y-15278380D01*
X5437285Y-15278380D02*
X6008714Y-15278380D01*
X5723000Y-15278380D02*
X5723000Y-14278380D01*
X5818238Y-14421238D01*
X5913476Y-14516476D01*
X6008714Y-14564095D01*
X142073380Y-31369095D02*
X142882904Y-31369095D01*
X142978142Y-31416714D01*
X143025761Y-31464333D01*
X143073380Y-31559571D01*
X143073380Y-31750047D01*
X143025761Y-31845285D01*
X142978142Y-31892904D01*
X142882904Y-31940523D01*
X142073380Y-31940523D01*
X143073380Y-32940523D02*
X143073380Y-32369095D01*
X143073380Y-32654809D02*
X142073380Y-32654809D01*
X142216238Y-32559571D01*
X142311476Y-32464333D01*
X142359095Y-32369095D01*
X116744809Y-24835761D02*
X116782904Y-24950047D01*
X116782904Y-25140523D01*
X116744809Y-25216714D01*
X116706714Y-25254809D01*
X116630523Y-25292904D01*
X116554333Y-25292904D01*
X116478142Y-25254809D01*
X116440047Y-25216714D01*
X116401952Y-25140523D01*
X116363857Y-24988142D01*
X116325761Y-24911952D01*
X116287666Y-24873857D01*
X116211476Y-24835761D01*
X116135285Y-24835761D01*
X116059095Y-24873857D01*
X116021000Y-24911952D01*
X115982904Y-24988142D01*
X115982904Y-25178619D01*
X116021000Y-25292904D01*
X115982904Y-25559571D02*
X116782904Y-25750047D01*
X116211476Y-25902428D01*
X116782904Y-26054809D01*
X115982904Y-26245285D01*
X116782904Y-26550047D02*
X115982904Y-26550047D01*
X115982904Y-26740523D01*
X116021000Y-26854809D01*
X116097190Y-26931000D01*
X116173380Y-26969095D01*
X116325761Y-27007190D01*
X116440047Y-27007190D01*
X116592428Y-26969095D01*
X116668619Y-26931000D01*
X116744809Y-26854809D01*
X116782904Y-26740523D01*
X116782904Y-26550047D01*
X116782904Y-27350047D02*
X115982904Y-27350047D01*
X115982904Y-27883380D02*
X115982904Y-28035761D01*
X116021000Y-28111952D01*
X116097190Y-28188142D01*
X116249571Y-28226238D01*
X116516238Y-28226238D01*
X116668619Y-28188142D01*
X116744809Y-28111952D01*
X116782904Y-28035761D01*
X116782904Y-27883380D01*
X116744809Y-27807190D01*
X116668619Y-27731000D01*
X116516238Y-27692904D01*
X116249571Y-27692904D01*
X116097190Y-27731000D01*
X116021000Y-27807190D01*
X115982904Y-27883380D01*
X116744809Y-36021476D02*
X116782904Y-36135761D01*
X116782904Y-36326238D01*
X116744809Y-36402428D01*
X116706714Y-36440523D01*
X116630523Y-36478619D01*
X116554333Y-36478619D01*
X116478142Y-36440523D01*
X116440047Y-36402428D01*
X116401952Y-36326238D01*
X116363857Y-36173857D01*
X116325761Y-36097666D01*
X116287666Y-36059571D01*
X116211476Y-36021476D01*
X116135285Y-36021476D01*
X116059095Y-36059571D01*
X116021000Y-36097666D01*
X115982904Y-36173857D01*
X115982904Y-36364333D01*
X116021000Y-36478619D01*
X115982904Y-36745285D02*
X116782904Y-36935761D01*
X116211476Y-37088142D01*
X116782904Y-37240523D01*
X115982904Y-37431000D01*
X116706714Y-38192904D02*
X116744809Y-38154809D01*
X116782904Y-38040523D01*
X116782904Y-37964333D01*
X116744809Y-37850047D01*
X116668619Y-37773857D01*
X116592428Y-37735761D01*
X116440047Y-37697666D01*
X116325761Y-37697666D01*
X116173380Y-37735761D01*
X116097190Y-37773857D01*
X116021000Y-37850047D01*
X115982904Y-37964333D01*
X115982904Y-38040523D01*
X116021000Y-38154809D01*
X116059095Y-38192904D01*
X116782904Y-38916714D02*
X116782904Y-38535761D01*
X115982904Y-38535761D01*
X116782904Y-39183380D02*
X115982904Y-39183380D01*
X116782904Y-39640523D02*
X116325761Y-39297666D01*
X115982904Y-39640523D02*
X116440047Y-39183380D01*
X150061964Y-18174597D02*
X149792590Y-18443971D01*
X150277463Y-18282346D02*
X149523216Y-17905223D01*
X149900340Y-18659470D01*
X148876719Y-18605595D02*
X148903656Y-18524783D01*
X148984468Y-18443971D01*
X149092218Y-18390096D01*
X149199967Y-18390096D01*
X149280780Y-18417033D01*
X149415467Y-18497845D01*
X149496279Y-18578658D01*
X149577091Y-18713345D01*
X149604028Y-18794157D01*
X149604028Y-18901906D01*
X149550154Y-19009656D01*
X149496279Y-19063531D01*
X149388529Y-19117406D01*
X149334654Y-19117406D01*
X149146093Y-18928844D01*
X149253842Y-18821094D01*
X149146093Y-19413717D02*
X148580407Y-18848032D01*
X148822844Y-19736966D01*
X148257158Y-19171280D01*
X148553470Y-20006340D02*
X147987784Y-19440654D01*
X147853097Y-19575341D01*
X147799223Y-19683091D01*
X147799223Y-19790841D01*
X147826160Y-19871653D01*
X147906972Y-20006340D01*
X147987784Y-20087152D01*
X148122471Y-20167964D01*
X148203284Y-20194902D01*
X148311033Y-20194902D01*
X148418783Y-20141027D01*
X148553470Y-20006340D01*
X161819155Y-18617158D02*
X161846093Y-18536346D01*
X161926905Y-18455534D01*
X162034654Y-18401659D01*
X162142404Y-18401659D01*
X162223216Y-18428597D01*
X162357903Y-18509409D01*
X162438715Y-18590221D01*
X162519528Y-18724908D01*
X162546465Y-18805720D01*
X162546465Y-18913470D01*
X162492590Y-19021219D01*
X162438715Y-19075094D01*
X162330966Y-19128969D01*
X162277091Y-19128969D01*
X162088529Y-18940407D01*
X162196279Y-18832658D01*
X162088529Y-19425280D02*
X161522844Y-18859595D01*
X161765280Y-19748529D01*
X161199595Y-19182844D01*
X161495906Y-20017903D02*
X160930221Y-19452218D01*
X160795534Y-19586905D01*
X160741659Y-19694654D01*
X160741659Y-19802404D01*
X160768597Y-19883216D01*
X160849409Y-20017903D01*
X160930221Y-20098715D01*
X161064908Y-20179528D01*
X161145720Y-20206465D01*
X161253470Y-20206465D01*
X161361219Y-20152590D01*
X161495906Y-20017903D01*
X136419155Y-18617158D02*
X136446093Y-18536346D01*
X136526905Y-18455534D01*
X136634654Y-18401659D01*
X136742404Y-18401659D01*
X136823216Y-18428597D01*
X136957903Y-18509409D01*
X137038715Y-18590221D01*
X137119528Y-18724908D01*
X137146465Y-18805720D01*
X137146465Y-18913470D01*
X137092590Y-19021219D01*
X137038715Y-19075094D01*
X136930966Y-19128969D01*
X136877091Y-19128969D01*
X136688529Y-18940407D01*
X136796279Y-18832658D01*
X136688529Y-19425280D02*
X136122844Y-18859595D01*
X136365280Y-19748529D01*
X135799595Y-19182844D01*
X136095906Y-20017903D02*
X135530221Y-19452218D01*
X135395534Y-19586905D01*
X135341659Y-19694654D01*
X135341659Y-19802404D01*
X135368597Y-19883216D01*
X135449409Y-20017903D01*
X135530221Y-20098715D01*
X135664908Y-20179528D01*
X135745720Y-20206465D01*
X135853470Y-20206465D01*
X135961219Y-20152590D01*
X136095906Y-20017903D01*
X123719155Y-18617158D02*
X123746093Y-18536346D01*
X123826905Y-18455534D01*
X123934654Y-18401659D01*
X124042404Y-18401659D01*
X124123216Y-18428597D01*
X124257903Y-18509409D01*
X124338715Y-18590221D01*
X124419528Y-18724908D01*
X124446465Y-18805720D01*
X124446465Y-18913470D01*
X124392590Y-19021219D01*
X124338715Y-19075094D01*
X124230966Y-19128969D01*
X124177091Y-19128969D01*
X123988529Y-18940407D01*
X124096279Y-18832658D01*
X123988529Y-19425280D02*
X123422844Y-18859595D01*
X123665280Y-19748529D01*
X123099595Y-19182844D01*
X123395906Y-20017903D02*
X122830221Y-19452218D01*
X122695534Y-19586905D01*
X122641659Y-19694654D01*
X122641659Y-19802404D01*
X122668597Y-19883216D01*
X122749409Y-20017903D01*
X122830221Y-20098715D01*
X122964908Y-20179528D01*
X123045720Y-20206465D01*
X123153470Y-20206465D01*
X123261219Y-20152590D01*
X123395906Y-20017903D01*
X123719155Y-44217158D02*
X123746093Y-44136346D01*
X123826905Y-44055534D01*
X123934654Y-44001659D01*
X124042404Y-44001659D01*
X124123216Y-44028597D01*
X124257903Y-44109409D01*
X124338715Y-44190221D01*
X124419528Y-44324908D01*
X124446465Y-44405720D01*
X124446465Y-44513470D01*
X124392590Y-44621219D01*
X124338715Y-44675094D01*
X124230966Y-44728969D01*
X124177091Y-44728969D01*
X123988529Y-44540407D01*
X124096279Y-44432658D01*
X123988529Y-45025280D02*
X123422844Y-44459595D01*
X123665280Y-45348529D01*
X123099595Y-44782844D01*
X123395906Y-45617903D02*
X122830221Y-45052218D01*
X122695534Y-45186905D01*
X122641659Y-45294654D01*
X122641659Y-45402404D01*
X122668597Y-45483216D01*
X122749409Y-45617903D01*
X122830221Y-45698715D01*
X122964908Y-45779528D01*
X123045720Y-45806465D01*
X123153470Y-45806465D01*
X123261219Y-45752590D01*
X123395906Y-45617903D01*
X136419155Y-44217158D02*
X136446093Y-44136346D01*
X136526905Y-44055534D01*
X136634654Y-44001659D01*
X136742404Y-44001659D01*
X136823216Y-44028597D01*
X136957903Y-44109409D01*
X137038715Y-44190221D01*
X137119528Y-44324908D01*
X137146465Y-44405720D01*
X137146465Y-44513470D01*
X137092590Y-44621219D01*
X137038715Y-44675094D01*
X136930966Y-44728969D01*
X136877091Y-44728969D01*
X136688529Y-44540407D01*
X136796279Y-44432658D01*
X136688529Y-45025280D02*
X136122844Y-44459595D01*
X136365280Y-45348529D01*
X135799595Y-44782844D01*
X136095906Y-45617903D02*
X135530221Y-45052218D01*
X135395534Y-45186905D01*
X135341659Y-45294654D01*
X135341659Y-45402404D01*
X135368597Y-45483216D01*
X135449409Y-45617903D01*
X135530221Y-45698715D01*
X135664908Y-45779528D01*
X135745720Y-45806465D01*
X135853470Y-45806465D01*
X135961219Y-45752590D01*
X136095906Y-45617903D01*
X149119155Y-44217158D02*
X149146093Y-44136346D01*
X149226905Y-44055534D01*
X149334654Y-44001659D01*
X149442404Y-44001659D01*
X149523216Y-44028597D01*
X149657903Y-44109409D01*
X149738715Y-44190221D01*
X149819528Y-44324908D01*
X149846465Y-44405720D01*
X149846465Y-44513470D01*
X149792590Y-44621219D01*
X149738715Y-44675094D01*
X149630966Y-44728969D01*
X149577091Y-44728969D01*
X149388529Y-44540407D01*
X149496279Y-44432658D01*
X149388529Y-45025280D02*
X148822844Y-44459595D01*
X149065280Y-45348529D01*
X148499595Y-44782844D01*
X148795906Y-45617903D02*
X148230221Y-45052218D01*
X148095534Y-45186905D01*
X148041659Y-45294654D01*
X148041659Y-45402404D01*
X148068597Y-45483216D01*
X148149409Y-45617903D01*
X148230221Y-45698715D01*
X148364908Y-45779528D01*
X148445720Y-45806465D01*
X148553470Y-45806465D01*
X148661219Y-45752590D01*
X148795906Y-45617903D01*
X161819155Y-44217158D02*
X161846093Y-44136346D01*
X161926905Y-44055534D01*
X162034654Y-44001659D01*
X162142404Y-44001659D01*
X162223216Y-44028597D01*
X162357903Y-44109409D01*
X162438715Y-44190221D01*
X162519528Y-44324908D01*
X162546465Y-44405720D01*
X162546465Y-44513470D01*
X162492590Y-44621219D01*
X162438715Y-44675094D01*
X162330966Y-44728969D01*
X162277091Y-44728969D01*
X162088529Y-44540407D01*
X162196279Y-44432658D01*
X162088529Y-45025280D02*
X161522844Y-44459595D01*
X161765280Y-45348529D01*
X161199595Y-44782844D01*
X161495906Y-45617903D02*
X160930221Y-45052218D01*
X160795534Y-45186905D01*
X160741659Y-45294654D01*
X160741659Y-45402404D01*
X160768597Y-45483216D01*
X160849409Y-45617903D01*
X160930221Y-45698715D01*
X161064908Y-45779528D01*
X161145720Y-45806465D01*
X161253470Y-45806465D01*
X161361219Y-45752590D01*
X161495906Y-45617903D01*
X167548309Y-17484129D02*
X167925433Y-18238377D01*
X167171186Y-17861253D01*
X167063436Y-18507751D02*
X167009561Y-18615500D01*
X167009561Y-18669375D01*
X167036499Y-18750187D01*
X167117311Y-18830999D01*
X167198123Y-18857937D01*
X167251998Y-18857937D01*
X167332810Y-18830999D01*
X167548309Y-18615500D01*
X166982624Y-18049815D01*
X166794062Y-18238377D01*
X166767125Y-18319189D01*
X166767125Y-18373064D01*
X166794062Y-18453876D01*
X166847937Y-18507751D01*
X166928749Y-18534688D01*
X166982624Y-18534688D01*
X167063436Y-18507751D01*
X167251998Y-18319189D01*
X166416938Y-18615500D02*
X166874874Y-19073436D01*
X166901812Y-19154248D01*
X166901812Y-19208123D01*
X166874874Y-19288935D01*
X166767125Y-19396685D01*
X166686312Y-19423622D01*
X166632438Y-19423622D01*
X166551625Y-19396685D01*
X166093690Y-18938749D01*
X166390001Y-19719934D02*
X166336126Y-19827683D01*
X166201439Y-19962370D01*
X166120627Y-19989308D01*
X166066752Y-19989308D01*
X165985940Y-19962370D01*
X165932065Y-19908496D01*
X165905128Y-19827683D01*
X165905128Y-19773809D01*
X165932065Y-19692996D01*
X166012877Y-19558309D01*
X166039815Y-19477497D01*
X166039815Y-19423622D01*
X166012877Y-19342810D01*
X165959003Y-19288935D01*
X165878190Y-19261998D01*
X165824316Y-19261998D01*
X165743503Y-19288935D01*
X165608816Y-19423622D01*
X165554942Y-19531372D01*
X164870966Y-17651473D02*
X165248089Y-18405720D01*
X164493842Y-18028597D01*
X164870966Y-18728969D02*
X164817091Y-18836719D01*
X164682404Y-18971406D01*
X164601592Y-18998343D01*
X164547717Y-18998343D01*
X164466905Y-18971406D01*
X164413030Y-18917531D01*
X164386093Y-18836719D01*
X164386093Y-18782844D01*
X164413030Y-18702032D01*
X164493842Y-18567345D01*
X164520780Y-18486532D01*
X164520780Y-18432658D01*
X164493842Y-18351845D01*
X164439967Y-18297971D01*
X164359155Y-18271033D01*
X164305280Y-18271033D01*
X164224468Y-18297971D01*
X164089781Y-18432658D01*
X164035906Y-18540407D01*
X163955094Y-19159967D02*
X164224468Y-19429341D01*
X163847345Y-18675094D02*
X163955094Y-19159967D01*
X163470221Y-19052218D01*
X163847345Y-19752590D02*
X163793470Y-19860340D01*
X163658783Y-19995027D01*
X163577971Y-20021964D01*
X163524096Y-20021964D01*
X163443284Y-19995027D01*
X163389409Y-19941152D01*
X163362471Y-19860340D01*
X163362471Y-19806465D01*
X163389409Y-19725653D01*
X163470221Y-19590966D01*
X163497158Y-19510154D01*
X163497158Y-19456279D01*
X163470221Y-19375467D01*
X163416346Y-19321592D01*
X163335534Y-19294654D01*
X163281659Y-19294654D01*
X163200847Y-19321592D01*
X163066160Y-19456279D01*
X163012285Y-19564028D01*
X160979308Y-16653131D02*
X160629122Y-17003317D01*
X161033183Y-17030255D01*
X160952370Y-17111067D01*
X160925433Y-17191879D01*
X160925433Y-17245754D01*
X160952370Y-17326566D01*
X161087057Y-17461253D01*
X161167870Y-17488190D01*
X161221744Y-17488190D01*
X161302557Y-17461253D01*
X161464181Y-17299629D01*
X161491118Y-17218816D01*
X161491118Y-17164942D01*
X160467497Y-17164942D02*
X160844621Y-17919189D01*
X160090374Y-17542065D01*
X159955687Y-17676752D02*
X159605500Y-18026938D01*
X160009561Y-18053876D01*
X159928749Y-18134688D01*
X159901812Y-18215500D01*
X159901812Y-18269375D01*
X159928749Y-18350187D01*
X160063436Y-18484874D01*
X160144248Y-18511812D01*
X160198123Y-18511812D01*
X160278935Y-18484874D01*
X160440560Y-18323250D01*
X160467497Y-18242438D01*
X160467497Y-18188563D01*
X160117311Y-18754248D02*
X159686312Y-19185247D01*
X159201439Y-18969748D02*
X159012877Y-19158309D01*
X159228377Y-19535433D02*
X159497751Y-19266059D01*
X158932065Y-18700374D01*
X158662691Y-18969748D01*
X158985940Y-19777870D02*
X158420255Y-19212184D01*
X158662691Y-20101118D01*
X158097006Y-19535433D01*
X156911592Y-18220847D02*
X156561406Y-18571033D01*
X156965467Y-18597971D01*
X156884654Y-18678783D01*
X156857717Y-18759595D01*
X156857717Y-18813470D01*
X156884654Y-18894282D01*
X157019341Y-19028969D01*
X157100154Y-19055906D01*
X157154028Y-19055906D01*
X157234841Y-19028969D01*
X157396465Y-18867345D01*
X157423402Y-18786532D01*
X157423402Y-18732658D01*
X156399781Y-18732658D02*
X156776905Y-19486905D01*
X156022658Y-19109781D01*
X155887971Y-19244468D02*
X155537784Y-19594654D01*
X155941845Y-19621592D01*
X155861033Y-19702404D01*
X155834096Y-19783216D01*
X155834096Y-19837091D01*
X155861033Y-19917903D01*
X155995720Y-20052590D01*
X156076532Y-20079528D01*
X156130407Y-20079528D01*
X156211219Y-20052590D01*
X156372844Y-19890966D01*
X156399781Y-19810154D01*
X156399781Y-19756279D01*
X157154773Y-16285788D02*
X156885399Y-16555162D01*
X157370272Y-16393537D02*
X156616025Y-16016414D01*
X156993149Y-16770661D01*
X156804587Y-16959223D02*
X156238902Y-16393537D01*
X156104215Y-16528224D01*
X156050340Y-16635974D01*
X156050340Y-16743723D01*
X156077277Y-16824536D01*
X156158089Y-16959223D01*
X156238902Y-17040035D01*
X156373589Y-17120847D01*
X156454401Y-17147784D01*
X156562150Y-17147784D01*
X156669900Y-17093910D01*
X156804587Y-16959223D01*
X155861778Y-17794282D02*
X155915653Y-17794282D01*
X156023402Y-17740407D01*
X156077277Y-17686532D01*
X156131152Y-17578783D01*
X156131152Y-17471033D01*
X156104215Y-17390221D01*
X156023402Y-17255534D01*
X155942590Y-17174722D01*
X155807903Y-17093910D01*
X155727091Y-17066972D01*
X155619341Y-17066972D01*
X155511592Y-17120847D01*
X155457717Y-17174722D01*
X155403842Y-17282471D01*
X155403842Y-17336346D01*
X155861778Y-18009781D02*
X155430780Y-18440780D01*
X154757345Y-17875094D02*
X155134468Y-18629341D01*
X154380221Y-18252218D01*
X154434096Y-19329714D02*
X154353284Y-18871778D01*
X154757345Y-19006465D02*
X154191659Y-18440780D01*
X153976160Y-18656279D01*
X153949223Y-18737091D01*
X153949223Y-18790966D01*
X153976160Y-18871778D01*
X154056972Y-18952590D01*
X154137784Y-18979528D01*
X154191659Y-18979528D01*
X154272471Y-18952590D01*
X154487971Y-18737091D01*
X153895348Y-19275839D02*
X153706786Y-19464401D01*
X153922285Y-19841524D02*
X154191659Y-19572150D01*
X153625974Y-19006465D01*
X153356600Y-19275839D01*
X153194975Y-19976211D02*
X153383537Y-19787650D01*
X153679849Y-20083961D02*
X153114163Y-19518276D01*
X152844789Y-19787650D01*
X152155592Y-18120722D02*
X152182529Y-18039910D01*
X152263341Y-17959097D01*
X152371091Y-17905223D01*
X152478841Y-17905223D01*
X152559653Y-17932160D01*
X152694340Y-18012972D01*
X152775152Y-18093784D01*
X152855964Y-18228471D01*
X152882902Y-18309284D01*
X152882902Y-18417033D01*
X152829027Y-18524783D01*
X152775152Y-18578658D01*
X152667402Y-18632532D01*
X152613528Y-18632532D01*
X152424966Y-18443971D01*
X152532715Y-18336221D01*
X152424966Y-18928844D02*
X151859280Y-18363158D01*
X151643781Y-18578658D01*
X151616844Y-18659470D01*
X151616844Y-18713345D01*
X151643781Y-18794157D01*
X151724593Y-18874969D01*
X151805406Y-18901906D01*
X151859280Y-18901906D01*
X151940093Y-18874969D01*
X152155592Y-18659470D01*
X151374407Y-18955781D02*
X151320532Y-18955781D01*
X151239720Y-18982719D01*
X151105033Y-19117406D01*
X151078096Y-19198218D01*
X151078096Y-19252093D01*
X151105033Y-19332905D01*
X151158908Y-19386780D01*
X151266658Y-19440654D01*
X151913155Y-19440654D01*
X151562969Y-19790841D01*
X150916471Y-19790841D02*
X150943409Y-19710028D01*
X150943409Y-19656154D01*
X150916471Y-19575341D01*
X150889534Y-19548404D01*
X150808722Y-19521467D01*
X150754847Y-19521467D01*
X150674035Y-19548404D01*
X150566285Y-19656154D01*
X150539348Y-19736966D01*
X150539348Y-19790841D01*
X150566285Y-19871653D01*
X150593223Y-19898590D01*
X150674035Y-19925528D01*
X150727910Y-19925528D01*
X150808722Y-19898590D01*
X150916471Y-19790841D01*
X150997284Y-19763903D01*
X151051158Y-19763903D01*
X151131971Y-19790841D01*
X151239720Y-19898590D01*
X151266658Y-19979402D01*
X151266658Y-20033277D01*
X151239720Y-20114089D01*
X151131971Y-20221839D01*
X151051158Y-20248776D01*
X150997284Y-20248776D01*
X150916471Y-20221839D01*
X150808722Y-20114089D01*
X150781784Y-20033277D01*
X150781784Y-19979402D01*
X150808722Y-19898590D01*
X146811592Y-18120722D02*
X146838529Y-18039910D01*
X146919341Y-17959097D01*
X147027091Y-17905223D01*
X147134841Y-17905223D01*
X147215653Y-17932160D01*
X147350340Y-18012972D01*
X147431152Y-18093784D01*
X147511964Y-18228471D01*
X147538902Y-18309284D01*
X147538902Y-18417033D01*
X147485027Y-18524783D01*
X147431152Y-18578658D01*
X147323402Y-18632532D01*
X147269528Y-18632532D01*
X147080966Y-18443971D01*
X147188715Y-18336221D01*
X147080966Y-18928844D02*
X146515280Y-18363158D01*
X146299781Y-18578658D01*
X146272844Y-18659470D01*
X146272844Y-18713345D01*
X146299781Y-18794157D01*
X146380593Y-18874969D01*
X146461406Y-18901906D01*
X146515280Y-18901906D01*
X146596093Y-18874969D01*
X146811592Y-18659470D01*
X146030407Y-18955781D02*
X145976532Y-18955781D01*
X145895720Y-18982719D01*
X145761033Y-19117406D01*
X145734096Y-19198218D01*
X145734096Y-19252093D01*
X145761033Y-19332905D01*
X145814908Y-19386780D01*
X145922658Y-19440654D01*
X146569155Y-19440654D01*
X146218969Y-19790841D01*
X145464722Y-19413717D02*
X145087598Y-19790841D01*
X145895720Y-20114089D01*
X144281592Y-18120722D02*
X144308529Y-18039910D01*
X144389341Y-17959097D01*
X144497091Y-17905223D01*
X144604841Y-17905223D01*
X144685653Y-17932160D01*
X144820340Y-18012972D01*
X144901152Y-18093784D01*
X144981964Y-18228471D01*
X145008902Y-18309284D01*
X145008902Y-18417033D01*
X144955027Y-18524783D01*
X144901152Y-18578658D01*
X144793402Y-18632532D01*
X144739528Y-18632532D01*
X144550966Y-18443971D01*
X144658715Y-18336221D01*
X144550966Y-18928844D02*
X143985280Y-18363158D01*
X143769781Y-18578658D01*
X143742844Y-18659470D01*
X143742844Y-18713345D01*
X143769781Y-18794157D01*
X143850593Y-18874969D01*
X143931406Y-18901906D01*
X143985280Y-18901906D01*
X144066093Y-18874969D01*
X144281592Y-18659470D01*
X143500407Y-18955781D02*
X143446532Y-18955781D01*
X143365720Y-18982719D01*
X143231033Y-19117406D01*
X143204096Y-19198218D01*
X143204096Y-19252093D01*
X143231033Y-19332905D01*
X143284908Y-19386780D01*
X143392658Y-19440654D01*
X144039155Y-19440654D01*
X143688969Y-19790841D01*
X142638410Y-19710028D02*
X142746160Y-19602279D01*
X142826972Y-19575341D01*
X142880847Y-19575341D01*
X143015534Y-19602279D01*
X143150221Y-19683091D01*
X143365720Y-19898590D01*
X143392658Y-19979402D01*
X143392658Y-20033277D01*
X143365720Y-20114089D01*
X143257971Y-20221839D01*
X143177158Y-20248776D01*
X143123284Y-20248776D01*
X143042471Y-20221839D01*
X142907784Y-20087152D01*
X142880847Y-20006340D01*
X142880847Y-19952465D01*
X142907784Y-19871653D01*
X143015534Y-19763903D01*
X143096346Y-19736966D01*
X143150221Y-19736966D01*
X143231033Y-19763903D01*
X142024435Y-18969375D02*
X141943622Y-18511439D01*
X142347683Y-18646126D02*
X141781998Y-18080441D01*
X141566499Y-18295940D01*
X141539561Y-18376752D01*
X141539561Y-18430627D01*
X141566499Y-18511439D01*
X141647311Y-18592251D01*
X141728123Y-18619189D01*
X141781998Y-18619189D01*
X141862810Y-18592251D01*
X142078309Y-18376752D01*
X141216312Y-18646126D02*
X141674248Y-19104062D01*
X141701186Y-19184874D01*
X141701186Y-19238749D01*
X141674248Y-19319561D01*
X141566499Y-19427311D01*
X141485687Y-19454248D01*
X141431812Y-19454248D01*
X141351000Y-19427311D01*
X140893064Y-18969375D01*
X141189375Y-19804435D02*
X140623690Y-19238749D01*
X140866126Y-20127683D01*
X140300441Y-19561998D01*
X139201592Y-18120722D02*
X139228529Y-18039910D01*
X139309341Y-17959097D01*
X139417091Y-17905223D01*
X139524841Y-17905223D01*
X139605653Y-17932160D01*
X139740340Y-18012972D01*
X139821152Y-18093784D01*
X139901964Y-18228471D01*
X139928902Y-18309284D01*
X139928902Y-18417033D01*
X139875027Y-18524783D01*
X139821152Y-18578658D01*
X139713402Y-18632532D01*
X139659528Y-18632532D01*
X139470966Y-18443971D01*
X139578715Y-18336221D01*
X139470966Y-18928844D02*
X138905280Y-18363158D01*
X138689781Y-18578658D01*
X138662844Y-18659470D01*
X138662844Y-18713345D01*
X138689781Y-18794157D01*
X138770593Y-18874969D01*
X138851406Y-18901906D01*
X138905280Y-18901906D01*
X138986093Y-18874969D01*
X139201592Y-18659470D01*
X138420407Y-18955781D02*
X138366532Y-18955781D01*
X138285720Y-18982719D01*
X138151033Y-19117406D01*
X138124096Y-19198218D01*
X138124096Y-19252093D01*
X138151033Y-19332905D01*
X138204908Y-19386780D01*
X138312658Y-19440654D01*
X138959155Y-19440654D01*
X138608969Y-19790841D01*
X137881659Y-19494529D02*
X137827784Y-19494529D01*
X137746972Y-19521467D01*
X137612285Y-19656154D01*
X137585348Y-19736966D01*
X137585348Y-19790841D01*
X137612285Y-19871653D01*
X137666160Y-19925528D01*
X137773910Y-19979402D01*
X138420407Y-19979402D01*
X138070221Y-20329589D01*
X134111592Y-18120722D02*
X134138529Y-18039910D01*
X134219341Y-17959097D01*
X134327091Y-17905223D01*
X134434841Y-17905223D01*
X134515653Y-17932160D01*
X134650340Y-18012972D01*
X134731152Y-18093784D01*
X134811964Y-18228471D01*
X134838902Y-18309284D01*
X134838902Y-18417033D01*
X134785027Y-18524783D01*
X134731152Y-18578658D01*
X134623402Y-18632532D01*
X134569528Y-18632532D01*
X134380966Y-18443971D01*
X134488715Y-18336221D01*
X134380966Y-18928844D02*
X133815280Y-18363158D01*
X133599781Y-18578658D01*
X133572844Y-18659470D01*
X133572844Y-18713345D01*
X133599781Y-18794157D01*
X133680593Y-18874969D01*
X133761406Y-18901906D01*
X133815280Y-18901906D01*
X133896093Y-18874969D01*
X134111592Y-18659470D01*
X133330407Y-18955781D02*
X133276532Y-18955781D01*
X133195720Y-18982719D01*
X133061033Y-19117406D01*
X133034096Y-19198218D01*
X133034096Y-19252093D01*
X133061033Y-19332905D01*
X133114908Y-19386780D01*
X133222658Y-19440654D01*
X133869155Y-19440654D01*
X133518969Y-19790841D01*
X132980221Y-20329589D02*
X133303470Y-20006340D01*
X133141845Y-20167964D02*
X132576160Y-19602279D01*
X132710847Y-19629216D01*
X132818597Y-19629216D01*
X132899409Y-19602279D01*
X131581592Y-18120722D02*
X131608529Y-18039910D01*
X131689341Y-17959097D01*
X131797091Y-17905223D01*
X131904841Y-17905223D01*
X131985653Y-17932160D01*
X132120340Y-18012972D01*
X132201152Y-18093784D01*
X132281964Y-18228471D01*
X132308902Y-18309284D01*
X132308902Y-18417033D01*
X132255027Y-18524783D01*
X132201152Y-18578658D01*
X132093402Y-18632532D01*
X132039528Y-18632532D01*
X131850966Y-18443971D01*
X131958715Y-18336221D01*
X131850966Y-18928844D02*
X131285280Y-18363158D01*
X131069781Y-18578658D01*
X131042844Y-18659470D01*
X131042844Y-18713345D01*
X131069781Y-18794157D01*
X131150593Y-18874969D01*
X131231406Y-18901906D01*
X131285280Y-18901906D01*
X131366093Y-18874969D01*
X131581592Y-18659470D01*
X130800407Y-18955781D02*
X130746532Y-18955781D01*
X130665720Y-18982719D01*
X130531033Y-19117406D01*
X130504096Y-19198218D01*
X130504096Y-19252093D01*
X130531033Y-19332905D01*
X130584908Y-19386780D01*
X130692658Y-19440654D01*
X131339155Y-19440654D01*
X130988969Y-19790841D01*
X130073097Y-19575341D02*
X130019223Y-19629216D01*
X129992285Y-19710028D01*
X129992285Y-19763903D01*
X130019223Y-19844715D01*
X130100035Y-19979402D01*
X130234722Y-20114089D01*
X130369409Y-20194902D01*
X130450221Y-20221839D01*
X130504096Y-20221839D01*
X130584908Y-20194902D01*
X130638783Y-20141027D01*
X130665720Y-20060215D01*
X130665720Y-20006340D01*
X130638783Y-19925528D01*
X130557971Y-19790841D01*
X130423284Y-19656154D01*
X130288597Y-19575341D01*
X130207784Y-19548404D01*
X130153910Y-19548404D01*
X130073097Y-19575341D01*
X129041592Y-18120722D02*
X129068529Y-18039910D01*
X129149341Y-17959097D01*
X129257091Y-17905223D01*
X129364841Y-17905223D01*
X129445653Y-17932160D01*
X129580340Y-18012972D01*
X129661152Y-18093784D01*
X129741964Y-18228471D01*
X129768902Y-18309284D01*
X129768902Y-18417033D01*
X129715027Y-18524783D01*
X129661152Y-18578658D01*
X129553402Y-18632532D01*
X129499528Y-18632532D01*
X129310966Y-18443971D01*
X129418715Y-18336221D01*
X129310966Y-18928844D02*
X128745280Y-18363158D01*
X128529781Y-18578658D01*
X128502844Y-18659470D01*
X128502844Y-18713345D01*
X128529781Y-18794157D01*
X128610593Y-18874969D01*
X128691406Y-18901906D01*
X128745280Y-18901906D01*
X128826093Y-18874969D01*
X129041592Y-18659470D01*
X128448969Y-19790841D02*
X128772218Y-19467592D01*
X128610593Y-19629216D02*
X128044908Y-19063531D01*
X128179595Y-19090468D01*
X128287345Y-19090468D01*
X128368157Y-19063531D01*
X128179595Y-20060215D02*
X128071845Y-20167964D01*
X127991033Y-20194902D01*
X127937158Y-20194902D01*
X127802471Y-20167964D01*
X127667784Y-20087152D01*
X127452285Y-19871653D01*
X127425348Y-19790841D01*
X127425348Y-19736966D01*
X127452285Y-19656154D01*
X127560035Y-19548404D01*
X127640847Y-19521467D01*
X127694722Y-19521467D01*
X127775534Y-19548404D01*
X127910221Y-19683091D01*
X127937158Y-19763903D01*
X127937158Y-19817778D01*
X127910221Y-19898590D01*
X127802471Y-20006340D01*
X127721659Y-20033277D01*
X127667784Y-20033277D01*
X127586972Y-20006340D01*
X126501592Y-18120722D02*
X126528529Y-18039910D01*
X126609341Y-17959097D01*
X126717091Y-17905223D01*
X126824841Y-17905223D01*
X126905653Y-17932160D01*
X127040340Y-18012972D01*
X127121152Y-18093784D01*
X127201964Y-18228471D01*
X127228902Y-18309284D01*
X127228902Y-18417033D01*
X127175027Y-18524783D01*
X127121152Y-18578658D01*
X127013402Y-18632532D01*
X126959528Y-18632532D01*
X126770966Y-18443971D01*
X126878715Y-18336221D01*
X126770966Y-18928844D02*
X126205280Y-18363158D01*
X125989781Y-18578658D01*
X125962844Y-18659470D01*
X125962844Y-18713345D01*
X125989781Y-18794157D01*
X126070593Y-18874969D01*
X126151406Y-18901906D01*
X126205280Y-18901906D01*
X126286093Y-18874969D01*
X126501592Y-18659470D01*
X125908969Y-19790841D02*
X126232218Y-19467592D01*
X126070593Y-19629216D02*
X125504908Y-19063531D01*
X125639595Y-19090468D01*
X125747345Y-19090468D01*
X125828157Y-19063531D01*
X125262471Y-19790841D02*
X125289409Y-19710028D01*
X125289409Y-19656154D01*
X125262471Y-19575341D01*
X125235534Y-19548404D01*
X125154722Y-19521467D01*
X125100847Y-19521467D01*
X125020035Y-19548404D01*
X124912285Y-19656154D01*
X124885348Y-19736966D01*
X124885348Y-19790841D01*
X124912285Y-19871653D01*
X124939223Y-19898590D01*
X125020035Y-19925528D01*
X125073910Y-19925528D01*
X125154722Y-19898590D01*
X125262471Y-19790841D01*
X125343284Y-19763903D01*
X125397158Y-19763903D01*
X125477971Y-19790841D01*
X125585720Y-19898590D01*
X125612658Y-19979402D01*
X125612658Y-20033277D01*
X125585720Y-20114089D01*
X125477971Y-20221839D01*
X125397158Y-20248776D01*
X125343284Y-20248776D01*
X125262471Y-20221839D01*
X125154722Y-20114089D01*
X125127784Y-20033277D01*
X125127784Y-19979402D01*
X125154722Y-19898590D01*
X121421592Y-18120722D02*
X121448529Y-18039910D01*
X121529341Y-17959097D01*
X121637091Y-17905223D01*
X121744841Y-17905223D01*
X121825653Y-17932160D01*
X121960340Y-18012972D01*
X122041152Y-18093784D01*
X122121964Y-18228471D01*
X122148902Y-18309284D01*
X122148902Y-18417033D01*
X122095027Y-18524783D01*
X122041152Y-18578658D01*
X121933402Y-18632532D01*
X121879528Y-18632532D01*
X121690966Y-18443971D01*
X121798715Y-18336221D01*
X121690966Y-18928844D02*
X121125280Y-18363158D01*
X120909781Y-18578658D01*
X120882844Y-18659470D01*
X120882844Y-18713345D01*
X120909781Y-18794157D01*
X120990593Y-18874969D01*
X121071406Y-18901906D01*
X121125280Y-18901906D01*
X121206093Y-18874969D01*
X121421592Y-18659470D01*
X120828969Y-19790841D02*
X121152218Y-19467592D01*
X120990593Y-19629216D02*
X120424908Y-19063531D01*
X120559595Y-19090468D01*
X120667345Y-19090468D01*
X120748157Y-19063531D01*
X120074722Y-19413717D02*
X119697598Y-19790841D01*
X120505720Y-20114089D01*
X118881592Y-18120722D02*
X118908529Y-18039910D01*
X118989341Y-17959097D01*
X119097091Y-17905223D01*
X119204841Y-17905223D01*
X119285653Y-17932160D01*
X119420340Y-18012972D01*
X119501152Y-18093784D01*
X119581964Y-18228471D01*
X119608902Y-18309284D01*
X119608902Y-18417033D01*
X119555027Y-18524783D01*
X119501152Y-18578658D01*
X119393402Y-18632532D01*
X119339528Y-18632532D01*
X119150966Y-18443971D01*
X119258715Y-18336221D01*
X119150966Y-18928844D02*
X118585280Y-18363158D01*
X118369781Y-18578658D01*
X118342844Y-18659470D01*
X118342844Y-18713345D01*
X118369781Y-18794157D01*
X118450593Y-18874969D01*
X118531406Y-18901906D01*
X118585280Y-18901906D01*
X118666093Y-18874969D01*
X118881592Y-18659470D01*
X118288969Y-19790841D02*
X118612218Y-19467592D01*
X118450593Y-19629216D02*
X117884908Y-19063531D01*
X118019595Y-19090468D01*
X118127345Y-19090468D01*
X118208157Y-19063531D01*
X117238410Y-19710028D02*
X117346160Y-19602279D01*
X117426972Y-19575341D01*
X117480847Y-19575341D01*
X117615534Y-19602279D01*
X117750221Y-19683091D01*
X117965720Y-19898590D01*
X117992658Y-19979402D01*
X117992658Y-20033277D01*
X117965720Y-20114089D01*
X117857971Y-20221839D01*
X117777158Y-20248776D01*
X117723284Y-20248776D01*
X117642471Y-20221839D01*
X117507784Y-20087152D01*
X117480847Y-20006340D01*
X117480847Y-19952465D01*
X117507784Y-19871653D01*
X117615534Y-19763903D01*
X117696346Y-19736966D01*
X117750221Y-19736966D01*
X117831033Y-19763903D01*
X118881592Y-44228722D02*
X118908529Y-44147910D01*
X118989341Y-44067097D01*
X119097091Y-44013223D01*
X119204841Y-44013223D01*
X119285653Y-44040160D01*
X119420340Y-44120972D01*
X119501152Y-44201784D01*
X119581964Y-44336471D01*
X119608902Y-44417284D01*
X119608902Y-44525033D01*
X119555027Y-44632783D01*
X119501152Y-44686658D01*
X119393402Y-44740532D01*
X119339528Y-44740532D01*
X119150966Y-44551971D01*
X119258715Y-44444221D01*
X119150966Y-45036844D02*
X118585280Y-44471158D01*
X118369781Y-44686658D01*
X118342844Y-44767470D01*
X118342844Y-44821345D01*
X118369781Y-44902157D01*
X118450593Y-44982969D01*
X118531406Y-45009906D01*
X118585280Y-45009906D01*
X118666093Y-44982969D01*
X118881592Y-44767470D01*
X118288969Y-45898841D02*
X118612218Y-45575592D01*
X118450593Y-45737216D02*
X117884908Y-45171531D01*
X118019595Y-45198468D01*
X118127345Y-45198468D01*
X118208157Y-45171531D01*
X117211473Y-45844966D02*
X117480847Y-45575592D01*
X117777158Y-45818028D01*
X117723284Y-45818028D01*
X117642471Y-45844966D01*
X117507784Y-45979653D01*
X117480847Y-46060465D01*
X117480847Y-46114340D01*
X117507784Y-46195152D01*
X117642471Y-46329839D01*
X117723284Y-46356776D01*
X117777158Y-46356776D01*
X117857971Y-46329839D01*
X117992658Y-46195152D01*
X118019595Y-46114340D01*
X118019595Y-46060465D01*
X121421592Y-44274722D02*
X121448529Y-44193910D01*
X121529341Y-44113097D01*
X121637091Y-44059223D01*
X121744841Y-44059223D01*
X121825653Y-44086160D01*
X121960340Y-44166972D01*
X122041152Y-44247784D01*
X122121964Y-44382471D01*
X122148902Y-44463284D01*
X122148902Y-44571033D01*
X122095027Y-44678783D01*
X122041152Y-44732658D01*
X121933402Y-44786532D01*
X121879528Y-44786532D01*
X121690966Y-44597971D01*
X121798715Y-44490221D01*
X121690966Y-45082844D02*
X121125280Y-44517158D01*
X120909781Y-44732658D01*
X120882844Y-44813470D01*
X120882844Y-44867345D01*
X120909781Y-44948157D01*
X120990593Y-45028969D01*
X121071406Y-45055906D01*
X121125280Y-45055906D01*
X121206093Y-45028969D01*
X121421592Y-44813470D01*
X120828969Y-45944841D02*
X121152218Y-45621592D01*
X120990593Y-45783216D02*
X120424908Y-45217531D01*
X120559595Y-45244468D01*
X120667345Y-45244468D01*
X120748157Y-45217531D01*
X119966972Y-46052590D02*
X120344096Y-46429714D01*
X119886160Y-45702404D02*
X120424908Y-45971778D01*
X120074722Y-46321964D01*
X126501592Y-44228722D02*
X126528529Y-44147910D01*
X126609341Y-44067097D01*
X126717091Y-44013223D01*
X126824841Y-44013223D01*
X126905653Y-44040160D01*
X127040340Y-44120972D01*
X127121152Y-44201784D01*
X127201964Y-44336471D01*
X127228902Y-44417284D01*
X127228902Y-44525033D01*
X127175027Y-44632783D01*
X127121152Y-44686658D01*
X127013402Y-44740532D01*
X126959528Y-44740532D01*
X126770966Y-44551971D01*
X126878715Y-44444221D01*
X126770966Y-45036844D02*
X126205280Y-44471158D01*
X125989781Y-44686658D01*
X125962844Y-44767470D01*
X125962844Y-44821345D01*
X125989781Y-44902157D01*
X126070593Y-44982969D01*
X126151406Y-45009906D01*
X126205280Y-45009906D01*
X126286093Y-44982969D01*
X126501592Y-44767470D01*
X125908969Y-45898841D02*
X126232218Y-45575592D01*
X126070593Y-45737216D02*
X125504908Y-45171531D01*
X125639595Y-45198468D01*
X125747345Y-45198468D01*
X125828157Y-45171531D01*
X125154722Y-45521717D02*
X124804536Y-45871903D01*
X125208597Y-45898841D01*
X125127784Y-45979653D01*
X125100847Y-46060465D01*
X125100847Y-46114340D01*
X125127784Y-46195152D01*
X125262471Y-46329839D01*
X125343284Y-46356776D01*
X125397158Y-46356776D01*
X125477971Y-46329839D01*
X125639595Y-46168215D01*
X125666532Y-46087402D01*
X125666532Y-46033528D01*
X129041592Y-44374722D02*
X129068529Y-44293910D01*
X129149341Y-44213097D01*
X129257091Y-44159223D01*
X129364841Y-44159223D01*
X129445653Y-44186160D01*
X129580340Y-44266972D01*
X129661152Y-44347784D01*
X129741964Y-44482471D01*
X129768902Y-44563284D01*
X129768902Y-44671033D01*
X129715027Y-44778783D01*
X129661152Y-44832658D01*
X129553402Y-44886532D01*
X129499528Y-44886532D01*
X129310966Y-44697971D01*
X129418715Y-44590221D01*
X129310966Y-45182844D02*
X128745280Y-44617158D01*
X128529781Y-44832658D01*
X128502844Y-44913470D01*
X128502844Y-44967345D01*
X128529781Y-45048157D01*
X128610593Y-45128969D01*
X128691406Y-45155906D01*
X128745280Y-45155906D01*
X128826093Y-45128969D01*
X129041592Y-44913470D01*
X128448969Y-46044841D02*
X128772218Y-45721592D01*
X128610593Y-45883216D02*
X128044908Y-45317531D01*
X128179595Y-45344468D01*
X128287345Y-45344468D01*
X128368157Y-45317531D01*
X127721659Y-45748529D02*
X127667784Y-45748529D01*
X127586972Y-45775467D01*
X127452285Y-45910154D01*
X127425348Y-45990966D01*
X127425348Y-46044841D01*
X127452285Y-46125653D01*
X127506160Y-46179528D01*
X127613910Y-46233402D01*
X128260407Y-46233402D01*
X127910221Y-46583589D01*
X131581592Y-44374722D02*
X131608529Y-44293910D01*
X131689341Y-44213097D01*
X131797091Y-44159223D01*
X131904841Y-44159223D01*
X131985653Y-44186160D01*
X132120340Y-44266972D01*
X132201152Y-44347784D01*
X132281964Y-44482471D01*
X132308902Y-44563284D01*
X132308902Y-44671033D01*
X132255027Y-44778783D01*
X132201152Y-44832658D01*
X132093402Y-44886532D01*
X132039528Y-44886532D01*
X131850966Y-44697971D01*
X131958715Y-44590221D01*
X131850966Y-45182844D02*
X131285280Y-44617158D01*
X131069781Y-44832658D01*
X131042844Y-44913470D01*
X131042844Y-44967345D01*
X131069781Y-45048157D01*
X131150593Y-45128969D01*
X131231406Y-45155906D01*
X131285280Y-45155906D01*
X131366093Y-45128969D01*
X131581592Y-44913470D01*
X130988969Y-46044841D02*
X131312218Y-45721592D01*
X131150593Y-45883216D02*
X130584908Y-45317531D01*
X130719595Y-45344468D01*
X130827345Y-45344468D01*
X130908157Y-45317531D01*
X130450221Y-46583589D02*
X130773470Y-46260340D01*
X130611845Y-46421964D02*
X130046160Y-45856279D01*
X130180847Y-45883216D01*
X130288597Y-45883216D01*
X130369409Y-45856279D01*
X134121592Y-44228722D02*
X134148529Y-44147910D01*
X134229341Y-44067097D01*
X134337091Y-44013223D01*
X134444841Y-44013223D01*
X134525653Y-44040160D01*
X134660340Y-44120972D01*
X134741152Y-44201784D01*
X134821964Y-44336471D01*
X134848902Y-44417284D01*
X134848902Y-44525033D01*
X134795027Y-44632783D01*
X134741152Y-44686658D01*
X134633402Y-44740532D01*
X134579528Y-44740532D01*
X134390966Y-44551971D01*
X134498715Y-44444221D01*
X134390966Y-45036844D02*
X133825280Y-44471158D01*
X133609781Y-44686658D01*
X133582844Y-44767470D01*
X133582844Y-44821345D01*
X133609781Y-44902157D01*
X133690593Y-44982969D01*
X133771406Y-45009906D01*
X133825280Y-45009906D01*
X133906093Y-44982969D01*
X134121592Y-44767470D01*
X133528969Y-45898841D02*
X133852218Y-45575592D01*
X133690593Y-45737216D02*
X133124908Y-45171531D01*
X133259595Y-45198468D01*
X133367345Y-45198468D01*
X133448157Y-45171531D01*
X132613097Y-45683341D02*
X132559223Y-45737216D01*
X132532285Y-45818028D01*
X132532285Y-45871903D01*
X132559223Y-45952715D01*
X132640035Y-46087402D01*
X132774722Y-46222089D01*
X132909409Y-46302902D01*
X132990221Y-46329839D01*
X133044096Y-46329839D01*
X133124908Y-46302902D01*
X133178783Y-46249027D01*
X133205720Y-46168215D01*
X133205720Y-46114340D01*
X133178783Y-46033528D01*
X133097971Y-45898841D01*
X132963284Y-45764154D01*
X132828597Y-45683341D01*
X132747784Y-45656404D01*
X132693910Y-45656404D01*
X132613097Y-45683341D01*
X138932218Y-44244096D02*
X138959155Y-44163284D01*
X139039967Y-44082471D01*
X139147717Y-44028597D01*
X139255467Y-44028597D01*
X139336279Y-44055534D01*
X139470966Y-44136346D01*
X139551778Y-44217158D01*
X139632590Y-44351845D01*
X139659528Y-44432658D01*
X139659528Y-44540407D01*
X139605653Y-44648157D01*
X139551778Y-44702032D01*
X139444028Y-44755906D01*
X139390154Y-44755906D01*
X139201592Y-44567345D01*
X139309341Y-44459595D01*
X139201592Y-45052218D02*
X138635906Y-44486532D01*
X138420407Y-44702032D01*
X138393470Y-44782844D01*
X138393470Y-44836719D01*
X138420407Y-44917531D01*
X138501219Y-44998343D01*
X138582032Y-45025280D01*
X138635906Y-45025280D01*
X138716719Y-44998343D01*
X138932218Y-44782844D01*
X138608969Y-45644841D02*
X138501219Y-45752590D01*
X138420407Y-45779528D01*
X138366532Y-45779528D01*
X138231845Y-45752590D01*
X138097158Y-45671778D01*
X137881659Y-45456279D01*
X137854722Y-45375467D01*
X137854722Y-45321592D01*
X137881659Y-45240780D01*
X137989409Y-45133030D01*
X138070221Y-45106093D01*
X138124096Y-45106093D01*
X138204908Y-45133030D01*
X138339595Y-45267717D01*
X138366532Y-45348529D01*
X138366532Y-45402404D01*
X138339595Y-45483216D01*
X138231845Y-45590966D01*
X138151033Y-45617903D01*
X138097158Y-45617903D01*
X138016346Y-45590966D01*
X141472218Y-44244096D02*
X141499155Y-44163284D01*
X141579967Y-44082471D01*
X141687717Y-44028597D01*
X141795467Y-44028597D01*
X141876279Y-44055534D01*
X142010966Y-44136346D01*
X142091778Y-44217158D01*
X142172590Y-44351845D01*
X142199528Y-44432658D01*
X142199528Y-44540407D01*
X142145653Y-44648157D01*
X142091778Y-44702032D01*
X141984028Y-44755906D01*
X141930154Y-44755906D01*
X141741592Y-44567345D01*
X141849341Y-44459595D01*
X141741592Y-45052218D02*
X141175906Y-44486532D01*
X140960407Y-44702032D01*
X140933470Y-44782844D01*
X140933470Y-44836719D01*
X140960407Y-44917531D01*
X141041219Y-44998343D01*
X141122032Y-45025280D01*
X141175906Y-45025280D01*
X141256719Y-44998343D01*
X141472218Y-44782844D01*
X140771845Y-45375467D02*
X140798783Y-45294654D01*
X140798783Y-45240780D01*
X140771845Y-45159967D01*
X140744908Y-45133030D01*
X140664096Y-45106093D01*
X140610221Y-45106093D01*
X140529409Y-45133030D01*
X140421659Y-45240780D01*
X140394722Y-45321592D01*
X140394722Y-45375467D01*
X140421659Y-45456279D01*
X140448597Y-45483216D01*
X140529409Y-45510154D01*
X140583284Y-45510154D01*
X140664096Y-45483216D01*
X140771845Y-45375467D01*
X140852658Y-45348529D01*
X140906532Y-45348529D01*
X140987345Y-45375467D01*
X141095094Y-45483216D01*
X141122032Y-45564028D01*
X141122032Y-45617903D01*
X141095094Y-45698715D01*
X140987345Y-45806465D01*
X140906532Y-45833402D01*
X140852658Y-45833402D01*
X140771845Y-45806465D01*
X140664096Y-45698715D01*
X140637158Y-45617903D01*
X140637158Y-45564028D01*
X140664096Y-45483216D01*
X144042218Y-44144096D02*
X144069155Y-44063284D01*
X144149967Y-43982471D01*
X144257717Y-43928597D01*
X144365467Y-43928597D01*
X144446279Y-43955534D01*
X144580966Y-44036346D01*
X144661778Y-44117158D01*
X144742590Y-44251845D01*
X144769528Y-44332658D01*
X144769528Y-44440407D01*
X144715653Y-44548157D01*
X144661778Y-44602032D01*
X144554028Y-44655906D01*
X144500154Y-44655906D01*
X144311592Y-44467345D01*
X144419341Y-44359595D01*
X144311592Y-44952218D02*
X143745906Y-44386532D01*
X143530407Y-44602032D01*
X143503470Y-44682844D01*
X143503470Y-44736719D01*
X143530407Y-44817531D01*
X143611219Y-44898343D01*
X143692032Y-44925280D01*
X143745906Y-44925280D01*
X143826719Y-44898343D01*
X144042218Y-44682844D01*
X143234096Y-44898343D02*
X142856972Y-45275467D01*
X143665094Y-45598715D01*
X146552218Y-44244096D02*
X146579155Y-44163284D01*
X146659967Y-44082471D01*
X146767717Y-44028597D01*
X146875467Y-44028597D01*
X146956279Y-44055534D01*
X147090966Y-44136346D01*
X147171778Y-44217158D01*
X147252590Y-44351845D01*
X147279528Y-44432658D01*
X147279528Y-44540407D01*
X147225653Y-44648157D01*
X147171778Y-44702032D01*
X147064028Y-44755906D01*
X147010154Y-44755906D01*
X146821592Y-44567345D01*
X146929341Y-44459595D01*
X146821592Y-45052218D02*
X146255906Y-44486532D01*
X146040407Y-44702032D01*
X146013470Y-44782844D01*
X146013470Y-44836719D01*
X146040407Y-44917531D01*
X146121219Y-44998343D01*
X146202032Y-45025280D01*
X146255906Y-45025280D01*
X146336719Y-44998343D01*
X146552218Y-44782844D01*
X145447784Y-45294654D02*
X145555534Y-45186905D01*
X145636346Y-45159967D01*
X145690221Y-45159967D01*
X145824908Y-45186905D01*
X145959595Y-45267717D01*
X146175094Y-45483216D01*
X146202032Y-45564028D01*
X146202032Y-45617903D01*
X146175094Y-45698715D01*
X146067345Y-45806465D01*
X145986532Y-45833402D01*
X145932658Y-45833402D01*
X145851845Y-45806465D01*
X145717158Y-45671778D01*
X145690221Y-45590966D01*
X145690221Y-45537091D01*
X145717158Y-45456279D01*
X145824908Y-45348529D01*
X145905720Y-45321592D01*
X145959595Y-45321592D01*
X146040407Y-45348529D01*
X151632218Y-44244096D02*
X151659155Y-44163284D01*
X151739967Y-44082471D01*
X151847717Y-44028597D01*
X151955467Y-44028597D01*
X152036279Y-44055534D01*
X152170966Y-44136346D01*
X152251778Y-44217158D01*
X152332590Y-44351845D01*
X152359528Y-44432658D01*
X152359528Y-44540407D01*
X152305653Y-44648157D01*
X152251778Y-44702032D01*
X152144028Y-44755906D01*
X152090154Y-44755906D01*
X151901592Y-44567345D01*
X152009341Y-44459595D01*
X151901592Y-45052218D02*
X151335906Y-44486532D01*
X151120407Y-44702032D01*
X151093470Y-44782844D01*
X151093470Y-44836719D01*
X151120407Y-44917531D01*
X151201219Y-44998343D01*
X151282032Y-45025280D01*
X151335906Y-45025280D01*
X151416719Y-44998343D01*
X151632218Y-44782844D01*
X150500847Y-45321592D02*
X150770221Y-45052218D01*
X151066532Y-45294654D01*
X151012658Y-45294654D01*
X150931845Y-45321592D01*
X150797158Y-45456279D01*
X150770221Y-45537091D01*
X150770221Y-45590966D01*
X150797158Y-45671778D01*
X150931845Y-45806465D01*
X151012658Y-45833402D01*
X151066532Y-45833402D01*
X151147345Y-45806465D01*
X151282032Y-45671778D01*
X151308969Y-45590966D01*
X151308969Y-45537091D01*
X154172218Y-44244096D02*
X154199155Y-44163284D01*
X154279967Y-44082471D01*
X154387717Y-44028597D01*
X154495467Y-44028597D01*
X154576279Y-44055534D01*
X154710966Y-44136346D01*
X154791778Y-44217158D01*
X154872590Y-44351845D01*
X154899528Y-44432658D01*
X154899528Y-44540407D01*
X154845653Y-44648157D01*
X154791778Y-44702032D01*
X154684028Y-44755906D01*
X154630154Y-44755906D01*
X154441592Y-44567345D01*
X154549341Y-44459595D01*
X154441592Y-45052218D02*
X153875906Y-44486532D01*
X153660407Y-44702032D01*
X153633470Y-44782844D01*
X153633470Y-44836719D01*
X153660407Y-44917531D01*
X153741219Y-44998343D01*
X153822032Y-45025280D01*
X153875906Y-45025280D01*
X153956719Y-44998343D01*
X154172218Y-44782844D01*
X153256346Y-45483216D02*
X153633470Y-45860340D01*
X153175534Y-45133030D02*
X153714282Y-45402404D01*
X153364096Y-45752590D01*
X156712218Y-44244096D02*
X156739155Y-44163284D01*
X156819967Y-44082471D01*
X156927717Y-44028597D01*
X157035467Y-44028597D01*
X157116279Y-44055534D01*
X157250966Y-44136346D01*
X157331778Y-44217158D01*
X157412590Y-44351845D01*
X157439528Y-44432658D01*
X157439528Y-44540407D01*
X157385653Y-44648157D01*
X157331778Y-44702032D01*
X157224028Y-44755906D01*
X157170154Y-44755906D01*
X156981592Y-44567345D01*
X157089341Y-44459595D01*
X156981592Y-45052218D02*
X156415906Y-44486532D01*
X156200407Y-44702032D01*
X156173470Y-44782844D01*
X156173470Y-44836719D01*
X156200407Y-44917531D01*
X156281219Y-44998343D01*
X156362032Y-45025280D01*
X156415906Y-45025280D01*
X156496719Y-44998343D01*
X156712218Y-44782844D01*
X155904096Y-44998343D02*
X155553910Y-45348529D01*
X155957971Y-45375467D01*
X155877158Y-45456279D01*
X155850221Y-45537091D01*
X155850221Y-45590966D01*
X155877158Y-45671778D01*
X156011845Y-45806465D01*
X156092658Y-45833402D01*
X156146532Y-45833402D01*
X156227345Y-45806465D01*
X156388969Y-45644841D01*
X156415906Y-45564028D01*
X156415906Y-45510154D01*
X166872218Y-44244096D02*
X166899155Y-44163284D01*
X166979967Y-44082471D01*
X167087717Y-44028597D01*
X167195467Y-44028597D01*
X167276279Y-44055534D01*
X167410966Y-44136346D01*
X167491778Y-44217158D01*
X167572590Y-44351845D01*
X167599528Y-44432658D01*
X167599528Y-44540407D01*
X167545653Y-44648157D01*
X167491778Y-44702032D01*
X167384028Y-44755906D01*
X167330154Y-44755906D01*
X167141592Y-44567345D01*
X167249341Y-44459595D01*
X167141592Y-45052218D02*
X166575906Y-44486532D01*
X166360407Y-44702032D01*
X166333470Y-44782844D01*
X166333470Y-44836719D01*
X166360407Y-44917531D01*
X166441219Y-44998343D01*
X166522032Y-45025280D01*
X166575906Y-45025280D01*
X166656719Y-44998343D01*
X166872218Y-44782844D01*
X165902471Y-45159967D02*
X165848597Y-45213842D01*
X165821659Y-45294654D01*
X165821659Y-45348529D01*
X165848597Y-45429341D01*
X165929409Y-45564028D01*
X166064096Y-45698715D01*
X166198783Y-45779528D01*
X166279595Y-45806465D01*
X166333470Y-45806465D01*
X166414282Y-45779528D01*
X166468157Y-45725653D01*
X166495094Y-45644841D01*
X166495094Y-45590966D01*
X166468157Y-45510154D01*
X166387345Y-45375467D01*
X166252658Y-45240780D01*
X166117971Y-45159967D01*
X166037158Y-45133030D01*
X165983284Y-45133030D01*
X165902471Y-45159967D01*
X159252218Y-44344096D02*
X159279155Y-44263284D01*
X159359967Y-44182471D01*
X159467717Y-44128597D01*
X159575467Y-44128597D01*
X159656279Y-44155534D01*
X159790966Y-44236346D01*
X159871778Y-44317158D01*
X159952590Y-44451845D01*
X159979528Y-44532658D01*
X159979528Y-44640407D01*
X159925653Y-44748157D01*
X159871778Y-44802032D01*
X159764028Y-44855906D01*
X159710154Y-44855906D01*
X159521592Y-44667345D01*
X159629341Y-44559595D01*
X159521592Y-45152218D02*
X158955906Y-44586532D01*
X158740407Y-44802032D01*
X158713470Y-44882844D01*
X158713470Y-44936719D01*
X158740407Y-45017531D01*
X158821219Y-45098343D01*
X158902032Y-45125280D01*
X158955906Y-45125280D01*
X159036719Y-45098343D01*
X159252218Y-44882844D01*
X158471033Y-45179155D02*
X158417158Y-45179155D01*
X158336346Y-45206093D01*
X158201659Y-45340780D01*
X158174722Y-45421592D01*
X158174722Y-45475467D01*
X158201659Y-45556279D01*
X158255534Y-45610154D01*
X158363284Y-45664028D01*
X159009781Y-45664028D01*
X158659595Y-46014215D01*
X164342218Y-44344096D02*
X164369155Y-44263284D01*
X164449967Y-44182471D01*
X164557717Y-44128597D01*
X164665467Y-44128597D01*
X164746279Y-44155534D01*
X164880966Y-44236346D01*
X164961778Y-44317158D01*
X165042590Y-44451845D01*
X165069528Y-44532658D01*
X165069528Y-44640407D01*
X165015653Y-44748157D01*
X164961778Y-44802032D01*
X164854028Y-44855906D01*
X164800154Y-44855906D01*
X164611592Y-44667345D01*
X164719341Y-44559595D01*
X164611592Y-45152218D02*
X164045906Y-44586532D01*
X163830407Y-44802032D01*
X163803470Y-44882844D01*
X163803470Y-44936719D01*
X163830407Y-45017531D01*
X163911219Y-45098343D01*
X163992032Y-45125280D01*
X164045906Y-45125280D01*
X164126719Y-45098343D01*
X164342218Y-44882844D01*
X163749595Y-46014215D02*
X164072844Y-45690966D01*
X163911219Y-45852590D02*
X163345534Y-45286905D01*
X163480221Y-45313842D01*
X163587971Y-45313842D01*
X163668783Y-45286905D01*
%LPC*%
D13*
X187007500Y-79070200D03*
X98259900Y-78701900D03*
X246900700Y-41554400D03*
X38100000Y-41122600D03*
D14*
X145438000Y-47498000D03*
X145438000Y-51998000D03*
X138938000Y-47498000D03*
X138938000Y-51998000D03*
D15*
X127381000Y-34226000D03*
X127381000Y-32226000D03*
D16*
X127381000Y-30226000D03*
D17*
X147372000Y-70463000D03*
D18*
X137212000Y-70463000D03*
D17*
X147320000Y-65786000D03*
D18*
X137160000Y-65786000D03*
D19*
X156207360Y-92471000D03*
X180007360Y-92471000D03*
D20*
X180007360Y-77231000D03*
X156207360Y-77231000D03*
D21*
X163027360Y-85471000D03*
X173187360Y-85471000D03*
D20*
X168107360Y-85471000D03*
D22*
X171917360Y-88011000D03*
X165567360Y-90551000D03*
D19*
X104873960Y-92374480D03*
X128673960Y-92374480D03*
D20*
X128673960Y-77134480D03*
X104873960Y-77134480D03*
D21*
X111693960Y-85374480D03*
X121853960Y-85374480D03*
D20*
X116773960Y-85374480D03*
D22*
X120583960Y-87914480D03*
X114233960Y-90454480D03*
D21*
X151511000Y-5588000D03*
X148971000Y-5588000D03*
X146431000Y-5588000D03*
X143891000Y-5588000D03*
X141351000Y-5588000D03*
X138811000Y-5588000D03*
X136271000Y-5588000D03*
D23*
X133731000Y-5588000D03*
D24*
X139192000Y-16147999D03*
X139192000Y-15498000D03*
X139192000Y-14848002D03*
X139192000Y-14198001D03*
X139192000Y-13548002D03*
X139192000Y-12898001D03*
X139192000Y-12248002D03*
X139192000Y-11598001D03*
X139192000Y-10948002D03*
X139192000Y-10298001D03*
X139192000Y-9648002D03*
X139192000Y-8998001D03*
X146050000Y-8998001D03*
X146050000Y-9648000D03*
X146050000Y-10298001D03*
X146050000Y-10947999D03*
X146050000Y-11598001D03*
X146050000Y-12247999D03*
X146050000Y-12897998D03*
X146050000Y-13547999D03*
X146050000Y-14197998D03*
X146050000Y-14847999D03*
X146050000Y-15497998D03*
X146050000Y-16147999D03*
D21*
X280436320Y-85374480D03*
X270276320Y-85374480D03*
D20*
X275356320Y-85374480D03*
D22*
X271546320Y-82834480D03*
X277896320Y-80294480D03*
D21*
X280436320Y-66360040D03*
X270276320Y-66360040D03*
D20*
X275356320Y-66360040D03*
D22*
X271546320Y-63820040D03*
X277896320Y-61280040D03*
D21*
X280436320Y-47345600D03*
X270276320Y-47345600D03*
D20*
X275356320Y-47345600D03*
D22*
X271546320Y-44805600D03*
X277896320Y-42265600D03*
D21*
X280451560Y-28315920D03*
X270291560Y-28315920D03*
D20*
X275371560Y-28315920D03*
D22*
X271561560Y-25775920D03*
X277911560Y-23235920D03*
D21*
X280456640Y-9240520D03*
X270296640Y-9240520D03*
D20*
X275376640Y-9240520D03*
D22*
X271566640Y-6700520D03*
X277916640Y-4160520D03*
D21*
X261411720Y-85354160D03*
X251251720Y-85354160D03*
D20*
X256331720Y-85354160D03*
D22*
X252521720Y-82814160D03*
X258871720Y-80274160D03*
D21*
X261411720Y-66339720D03*
X251251720Y-66339720D03*
D20*
X256331720Y-66339720D03*
D22*
X252521720Y-63799720D03*
X258871720Y-61259720D03*
D21*
X261442200Y-47325280D03*
X251282200Y-47325280D03*
D20*
X256362200Y-47325280D03*
D22*
X252552200Y-44785280D03*
X258902200Y-42245280D03*
D21*
X261487920Y-28260040D03*
X251327920Y-28260040D03*
D20*
X256407920Y-28260040D03*
D22*
X252597920Y-25720040D03*
X258947920Y-23180040D03*
D21*
X261472680Y-9235440D03*
X251312680Y-9235440D03*
D20*
X256392680Y-9235440D03*
D22*
X252582680Y-6695440D03*
X258932680Y-4155440D03*
D21*
X242371880Y-85374480D03*
X232211880Y-85374480D03*
D20*
X237291880Y-85374480D03*
D22*
X233481880Y-82834480D03*
X239831880Y-80294480D03*
D21*
X242392200Y-66354960D03*
X232232200Y-66354960D03*
D20*
X237312200Y-66354960D03*
D22*
X233502200Y-63814960D03*
X239852200Y-61274960D03*
D21*
X242371880Y-47310040D03*
X232211880Y-47310040D03*
D20*
X237291880Y-47310040D03*
D22*
X233481880Y-44770040D03*
X239831880Y-42230040D03*
D21*
X242371880Y-28244800D03*
X232211880Y-28244800D03*
D20*
X237291880Y-28244800D03*
D22*
X233481880Y-25704800D03*
X239831880Y-23164800D03*
D21*
X242382040Y-9260840D03*
X232222040Y-9260840D03*
D20*
X237302040Y-9260840D03*
D22*
X233492040Y-6720840D03*
X239842040Y-4180840D03*
D21*
X223235520Y-85486240D03*
X213075520Y-85486240D03*
D20*
X218155520Y-85486240D03*
D22*
X214345520Y-82946240D03*
X220695520Y-80406240D03*
D21*
X223205040Y-66390520D03*
X213045040Y-66390520D03*
D20*
X218125040Y-66390520D03*
D22*
X214315040Y-63850520D03*
X220665040Y-61310520D03*
D21*
X223220280Y-47345600D03*
X213060280Y-47345600D03*
D20*
X218140280Y-47345600D03*
D22*
X214330280Y-44805600D03*
X220680280Y-42265600D03*
D21*
X223250760Y-28295600D03*
X213090760Y-28295600D03*
D20*
X218170760Y-28295600D03*
D22*
X214360760Y-25755600D03*
X220710760Y-23215600D03*
D21*
X223255840Y-9250680D03*
X213095840Y-9250680D03*
D20*
X218175840Y-9250680D03*
D22*
X214365840Y-6710680D03*
X220715840Y-4170680D03*
D21*
X204160120Y-85476080D03*
X194000120Y-85476080D03*
D20*
X199080120Y-85476080D03*
D22*
X195270120Y-82936080D03*
X201620120Y-80396080D03*
D21*
X204170280Y-66446400D03*
X194010280Y-66446400D03*
D20*
X199090280Y-66446400D03*
D22*
X195280280Y-63906400D03*
X201630280Y-61366400D03*
D21*
X204160120Y-47391320D03*
X194000120Y-47391320D03*
D20*
X199080120Y-47391320D03*
D22*
X195270120Y-44851320D03*
X201620120Y-42311320D03*
D21*
X204185520Y-28346400D03*
X194025520Y-28346400D03*
D20*
X199105520Y-28346400D03*
D22*
X195295520Y-25806400D03*
X201645520Y-23266400D03*
D21*
X204185520Y-9291320D03*
X194025520Y-9291320D03*
D20*
X199105520Y-9291320D03*
D22*
X195295520Y-6751320D03*
X201645520Y-4211320D03*
D21*
X185028840Y-66517520D03*
X174868840Y-66517520D03*
D20*
X179948840Y-66517520D03*
D22*
X176138840Y-63977520D03*
X182488840Y-61437520D03*
D21*
X185176160Y-47401480D03*
X175016160Y-47401480D03*
D20*
X180096160Y-47401480D03*
D22*
X176286160Y-44861480D03*
X182636160Y-42321480D03*
D21*
X185176160Y-28351480D03*
X175016160Y-28351480D03*
D20*
X180096160Y-28351480D03*
D22*
X176286160Y-25811480D03*
X182636160Y-23271480D03*
D21*
X185155840Y-9306560D03*
X174995840Y-9306560D03*
D20*
X180075840Y-9306560D03*
D22*
X176265840Y-6766560D03*
X182615840Y-4226560D03*
D21*
X109992160Y-66390520D03*
X99832160Y-66390520D03*
D20*
X104912160Y-66390520D03*
D22*
X101102160Y-63850520D03*
X107452160Y-61310520D03*
D21*
X109982000Y-47426880D03*
X99822000Y-47426880D03*
D20*
X104902000Y-47426880D03*
D22*
X101092000Y-44886880D03*
X107442000Y-42346880D03*
D21*
X109982000Y-28275280D03*
X99822000Y-28275280D03*
D20*
X104902000Y-28275280D03*
D22*
X101092000Y-25735280D03*
X107442000Y-23195280D03*
D21*
X109982000Y-9291320D03*
X99822000Y-9291320D03*
D20*
X104902000Y-9291320D03*
D22*
X101092000Y-6751320D03*
X107442000Y-4211320D03*
D21*
X90850720Y-85399880D03*
X80690720Y-85399880D03*
D20*
X85770720Y-85399880D03*
D22*
X81960720Y-82859880D03*
X88310720Y-80319880D03*
D21*
X90896440Y-66339720D03*
X80736440Y-66339720D03*
D20*
X85816440Y-66339720D03*
D22*
X82006440Y-63799720D03*
X88356440Y-61259720D03*
D21*
X90886280Y-47426880D03*
X80726280Y-47426880D03*
D20*
X85806280Y-47426880D03*
D22*
X81996280Y-44886880D03*
X88346280Y-42346880D03*
D21*
X90886280Y-28275280D03*
X80726280Y-28275280D03*
D20*
X85806280Y-28275280D03*
D22*
X81996280Y-25735280D03*
X88346280Y-23195280D03*
D21*
X90921840Y-9255760D03*
X80761840Y-9255760D03*
D20*
X85841840Y-9255760D03*
D22*
X82031840Y-6715760D03*
X88381840Y-4175760D03*
D21*
X71744840Y-85384640D03*
X61584840Y-85384640D03*
D20*
X66664840Y-85384640D03*
D22*
X62854840Y-82844640D03*
X69204840Y-80304640D03*
D21*
X71800720Y-66339720D03*
X61640720Y-66339720D03*
D20*
X66720720Y-66339720D03*
D22*
X62910720Y-63799720D03*
X69260720Y-61259720D03*
D21*
X71800720Y-47299880D03*
X61640720Y-47299880D03*
D20*
X66720720Y-47299880D03*
D22*
X62910720Y-44759880D03*
X69260720Y-42219880D03*
D21*
X71800720Y-28310840D03*
X61640720Y-28310840D03*
D20*
X66720720Y-28310840D03*
D22*
X62910720Y-25770840D03*
X69260720Y-23230840D03*
D21*
X71841360Y-9291320D03*
X61681360Y-9291320D03*
D20*
X66761360Y-9291320D03*
D22*
X62951360Y-6751320D03*
X69301360Y-4211320D03*
D21*
X52649120Y-85384640D03*
X42489120Y-85384640D03*
D20*
X47569120Y-85384640D03*
D22*
X43759120Y-82844640D03*
X50109120Y-80304640D03*
D21*
X52745640Y-66360040D03*
X42585640Y-66360040D03*
D20*
X47665640Y-66360040D03*
D22*
X43855640Y-63820040D03*
X50205640Y-61280040D03*
D21*
X52745640Y-47320200D03*
X42585640Y-47320200D03*
D20*
X47665640Y-47320200D03*
D22*
X43855640Y-44780200D03*
X50205640Y-42240200D03*
D21*
X52755800Y-28310840D03*
X42595800Y-28310840D03*
D20*
X47675800Y-28310840D03*
D22*
X43865800Y-25770840D03*
X50215800Y-23230840D03*
D21*
X52755800Y-9271000D03*
X42595800Y-9271000D03*
D20*
X47675800Y-9271000D03*
D22*
X43865800Y-6731000D03*
X50215800Y-4191000D03*
D21*
X33655000Y-85399880D03*
X23495000Y-85399880D03*
D20*
X28575000Y-85399880D03*
D22*
X24765000Y-82859880D03*
X31115000Y-80319880D03*
D21*
X33655000Y-66349880D03*
X23495000Y-66349880D03*
D20*
X28575000Y-66349880D03*
D22*
X24765000Y-63809880D03*
X31115000Y-61269880D03*
D21*
X33655000Y-47299880D03*
X23495000Y-47299880D03*
D20*
X28575000Y-47299880D03*
D22*
X24765000Y-44759880D03*
X31115000Y-42219880D03*
D21*
X33655000Y-28249880D03*
X23495000Y-28249880D03*
D20*
X28575000Y-28249880D03*
D22*
X24765000Y-25709880D03*
X31115000Y-23169880D03*
D21*
X23622000Y-9271000D03*
X33782000Y-9271000D03*
D20*
X28702000Y-9271000D03*
D22*
X32512000Y-11811000D03*
X26162000Y-14351000D03*
X12065000Y-80431640D03*
X5715000Y-82971640D03*
D20*
X9525000Y-85511640D03*
D21*
X4445000Y-85511640D03*
X14605000Y-85511640D03*
D22*
X12065000Y-61386720D03*
X5715000Y-63926720D03*
D20*
X9525000Y-66466720D03*
D21*
X4445000Y-66466720D03*
X14605000Y-66466720D03*
X14605000Y-47437040D03*
X4445000Y-47437040D03*
D20*
X9525000Y-47437040D03*
D22*
X5715000Y-44897040D03*
X12065000Y-42357040D03*
D21*
X14605000Y-28249880D03*
X4445000Y-28249880D03*
D20*
X9525000Y-28249880D03*
D22*
X5715000Y-25709880D03*
X12065000Y-23169880D03*
D21*
X14605000Y-9199880D03*
X4445000Y-9199880D03*
D20*
X9525000Y-9199880D03*
D22*
X5715000Y-6659880D03*
X12065000Y-4119880D03*
D17*
X147320000Y-55880000D03*
D18*
X137160000Y-55880000D03*
D17*
X147320000Y-60579000D03*
D18*
X137160000Y-60579000D03*
D25*
X22400000Y-6210000D03*
X21600000Y-6210000D03*
X16800000Y-6210000D03*
X16000000Y-6210000D03*
X15700000Y-6210000D03*
X16500000Y-6210000D03*
X17300000Y-6210000D03*
X17800000Y-6210000D03*
X18300000Y-6210000D03*
X18800000Y-6210000D03*
X19300000Y-6210000D03*
X19800000Y-6210000D03*
X20300000Y-6210000D03*
X20800000Y-6210000D03*
X21300000Y-6210000D03*
X22100000Y-6210000D03*
D26*
X16160000Y-5145000D03*
X21940000Y-5145000D03*
D27*
X23370000Y-1465000D03*
X14730000Y-1465000D03*
D28*
X23370000Y-5645000D03*
X14730000Y-5645000D03*
G36*
G01*
X272417250Y-88677000D02*
X271904750Y-88677000D01*
G75*
G02*
X271686000Y-88458250I0J218750D01*
G01*
X271686000Y-88020750D01*
G75*
G02*
X271904750Y-87802000I218750J0D01*
G01*
X272417250Y-87802000D01*
G75*
G02*
X272636000Y-88020750I0J-218750D01*
G01*
X272636000Y-88458250D01*
G75*
G02*
X272417250Y-88677000I-218750J0D01*
G01*
G37*
G36*
G01*
X272417250Y-90252000D02*
X271904750Y-90252000D01*
G75*
G02*
X271686000Y-90033250I0J218750D01*
G01*
X271686000Y-89595750D01*
G75*
G02*
X271904750Y-89377000I218750J0D01*
G01*
X272417250Y-89377000D01*
G75*
G02*
X272636000Y-89595750I0J-218750D01*
G01*
X272636000Y-90033250D01*
G75*
G02*
X272417250Y-90252000I-218750J0D01*
G01*
G37*
G36*
G01*
X272163250Y-72548000D02*
X271650750Y-72548000D01*
G75*
G02*
X271432000Y-72329250I0J218750D01*
G01*
X271432000Y-71891750D01*
G75*
G02*
X271650750Y-71673000I218750J0D01*
G01*
X272163250Y-71673000D01*
G75*
G02*
X272382000Y-71891750I0J-218750D01*
G01*
X272382000Y-72329250D01*
G75*
G02*
X272163250Y-72548000I-218750J0D01*
G01*
G37*
G36*
G01*
X272163250Y-74123000D02*
X271650750Y-74123000D01*
G75*
G02*
X271432000Y-73904250I0J218750D01*
G01*
X271432000Y-73466750D01*
G75*
G02*
X271650750Y-73248000I218750J0D01*
G01*
X272163250Y-73248000D01*
G75*
G02*
X272382000Y-73466750I0J-218750D01*
G01*
X272382000Y-73904250D01*
G75*
G02*
X272163250Y-74123000I-218750J0D01*
G01*
G37*
G36*
G01*
X272163250Y-53752000D02*
X271650750Y-53752000D01*
G75*
G02*
X271432000Y-53533250I0J218750D01*
G01*
X271432000Y-53095750D01*
G75*
G02*
X271650750Y-52877000I218750J0D01*
G01*
X272163250Y-52877000D01*
G75*
G02*
X272382000Y-53095750I0J-218750D01*
G01*
X272382000Y-53533250D01*
G75*
G02*
X272163250Y-53752000I-218750J0D01*
G01*
G37*
G36*
G01*
X272163250Y-55327000D02*
X271650750Y-55327000D01*
G75*
G02*
X271432000Y-55108250I0J218750D01*
G01*
X271432000Y-54670750D01*
G75*
G02*
X271650750Y-54452000I218750J0D01*
G01*
X272163250Y-54452000D01*
G75*
G02*
X272382000Y-54670750I0J-218750D01*
G01*
X272382000Y-55108250D01*
G75*
G02*
X272163250Y-55327000I-218750J0D01*
G01*
G37*
G36*
G01*
X272290250Y-34575000D02*
X271777750Y-34575000D01*
G75*
G02*
X271559000Y-34356250I0J218750D01*
G01*
X271559000Y-33918750D01*
G75*
G02*
X271777750Y-33700000I218750J0D01*
G01*
X272290250Y-33700000D01*
G75*
G02*
X272509000Y-33918750I0J-218750D01*
G01*
X272509000Y-34356250D01*
G75*
G02*
X272290250Y-34575000I-218750J0D01*
G01*
G37*
G36*
G01*
X272290250Y-36150000D02*
X271777750Y-36150000D01*
G75*
G02*
X271559000Y-35931250I0J218750D01*
G01*
X271559000Y-35493750D01*
G75*
G02*
X271777750Y-35275000I218750J0D01*
G01*
X272290250Y-35275000D01*
G75*
G02*
X272509000Y-35493750I0J-218750D01*
G01*
X272509000Y-35931250D01*
G75*
G02*
X272290250Y-36150000I-218750J0D01*
G01*
G37*
G36*
G01*
X272290250Y-15398000D02*
X271777750Y-15398000D01*
G75*
G02*
X271559000Y-15179250I0J218750D01*
G01*
X271559000Y-14741750D01*
G75*
G02*
X271777750Y-14523000I218750J0D01*
G01*
X272290250Y-14523000D01*
G75*
G02*
X272509000Y-14741750I0J-218750D01*
G01*
X272509000Y-15179250D01*
G75*
G02*
X272290250Y-15398000I-218750J0D01*
G01*
G37*
G36*
G01*
X272290250Y-16973000D02*
X271777750Y-16973000D01*
G75*
G02*
X271559000Y-16754250I0J218750D01*
G01*
X271559000Y-16316750D01*
G75*
G02*
X271777750Y-16098000I218750J0D01*
G01*
X272290250Y-16098000D01*
G75*
G02*
X272509000Y-16316750I0J-218750D01*
G01*
X272509000Y-16754250D01*
G75*
G02*
X272290250Y-16973000I-218750J0D01*
G01*
G37*
G36*
G01*
X253240250Y-88804000D02*
X252727750Y-88804000D01*
G75*
G02*
X252509000Y-88585250I0J218750D01*
G01*
X252509000Y-88147750D01*
G75*
G02*
X252727750Y-87929000I218750J0D01*
G01*
X253240250Y-87929000D01*
G75*
G02*
X253459000Y-88147750I0J-218750D01*
G01*
X253459000Y-88585250D01*
G75*
G02*
X253240250Y-88804000I-218750J0D01*
G01*
G37*
G36*
G01*
X253240250Y-90379000D02*
X252727750Y-90379000D01*
G75*
G02*
X252509000Y-90160250I0J218750D01*
G01*
X252509000Y-89722750D01*
G75*
G02*
X252727750Y-89504000I218750J0D01*
G01*
X253240250Y-89504000D01*
G75*
G02*
X253459000Y-89722750I0J-218750D01*
G01*
X253459000Y-90160250D01*
G75*
G02*
X253240250Y-90379000I-218750J0D01*
G01*
G37*
G36*
G01*
X253240250Y-72802000D02*
X252727750Y-72802000D01*
G75*
G02*
X252509000Y-72583250I0J218750D01*
G01*
X252509000Y-72145750D01*
G75*
G02*
X252727750Y-71927000I218750J0D01*
G01*
X253240250Y-71927000D01*
G75*
G02*
X253459000Y-72145750I0J-218750D01*
G01*
X253459000Y-72583250D01*
G75*
G02*
X253240250Y-72802000I-218750J0D01*
G01*
G37*
G36*
G01*
X253240250Y-74377000D02*
X252727750Y-74377000D01*
G75*
G02*
X252509000Y-74158250I0J218750D01*
G01*
X252509000Y-73720750D01*
G75*
G02*
X252727750Y-73502000I218750J0D01*
G01*
X253240250Y-73502000D01*
G75*
G02*
X253459000Y-73720750I0J-218750D01*
G01*
X253459000Y-74158250D01*
G75*
G02*
X253240250Y-74377000I-218750J0D01*
G01*
G37*
G36*
G01*
X253240250Y-53498000D02*
X252727750Y-53498000D01*
G75*
G02*
X252509000Y-53279250I0J218750D01*
G01*
X252509000Y-52841750D01*
G75*
G02*
X252727750Y-52623000I218750J0D01*
G01*
X253240250Y-52623000D01*
G75*
G02*
X253459000Y-52841750I0J-218750D01*
G01*
X253459000Y-53279250D01*
G75*
G02*
X253240250Y-53498000I-218750J0D01*
G01*
G37*
G36*
G01*
X253240250Y-55073000D02*
X252727750Y-55073000D01*
G75*
G02*
X252509000Y-54854250I0J218750D01*
G01*
X252509000Y-54416750D01*
G75*
G02*
X252727750Y-54198000I218750J0D01*
G01*
X253240250Y-54198000D01*
G75*
G02*
X253459000Y-54416750I0J-218750D01*
G01*
X253459000Y-54854250D01*
G75*
G02*
X253240250Y-55073000I-218750J0D01*
G01*
G37*
G36*
G01*
X253113250Y-34829000D02*
X252600750Y-34829000D01*
G75*
G02*
X252382000Y-34610250I0J218750D01*
G01*
X252382000Y-34172750D01*
G75*
G02*
X252600750Y-33954000I218750J0D01*
G01*
X253113250Y-33954000D01*
G75*
G02*
X253332000Y-34172750I0J-218750D01*
G01*
X253332000Y-34610250D01*
G75*
G02*
X253113250Y-34829000I-218750J0D01*
G01*
G37*
G36*
G01*
X253113250Y-36404000D02*
X252600750Y-36404000D01*
G75*
G02*
X252382000Y-36185250I0J218750D01*
G01*
X252382000Y-35747750D01*
G75*
G02*
X252600750Y-35529000I218750J0D01*
G01*
X253113250Y-35529000D01*
G75*
G02*
X253332000Y-35747750I0J-218750D01*
G01*
X253332000Y-36185250D01*
G75*
G02*
X253113250Y-36404000I-218750J0D01*
G01*
G37*
G36*
G01*
X253240250Y-15398000D02*
X252727750Y-15398000D01*
G75*
G02*
X252509000Y-15179250I0J218750D01*
G01*
X252509000Y-14741750D01*
G75*
G02*
X252727750Y-14523000I218750J0D01*
G01*
X253240250Y-14523000D01*
G75*
G02*
X253459000Y-14741750I0J-218750D01*
G01*
X253459000Y-15179250D01*
G75*
G02*
X253240250Y-15398000I-218750J0D01*
G01*
G37*
G36*
G01*
X253240250Y-16973000D02*
X252727750Y-16973000D01*
G75*
G02*
X252509000Y-16754250I0J218750D01*
G01*
X252509000Y-16316750D01*
G75*
G02*
X252727750Y-16098000I218750J0D01*
G01*
X253240250Y-16098000D01*
G75*
G02*
X253459000Y-16316750I0J-218750D01*
G01*
X253459000Y-16754250D01*
G75*
G02*
X253240250Y-16973000I-218750J0D01*
G01*
G37*
G36*
G01*
X234317250Y-88677000D02*
X233804750Y-88677000D01*
G75*
G02*
X233586000Y-88458250I0J218750D01*
G01*
X233586000Y-88020750D01*
G75*
G02*
X233804750Y-87802000I218750J0D01*
G01*
X234317250Y-87802000D01*
G75*
G02*
X234536000Y-88020750I0J-218750D01*
G01*
X234536000Y-88458250D01*
G75*
G02*
X234317250Y-88677000I-218750J0D01*
G01*
G37*
G36*
G01*
X234317250Y-90252000D02*
X233804750Y-90252000D01*
G75*
G02*
X233586000Y-90033250I0J218750D01*
G01*
X233586000Y-89595750D01*
G75*
G02*
X233804750Y-89377000I218750J0D01*
G01*
X234317250Y-89377000D01*
G75*
G02*
X234536000Y-89595750I0J-218750D01*
G01*
X234536000Y-90033250D01*
G75*
G02*
X234317250Y-90252000I-218750J0D01*
G01*
G37*
G36*
G01*
X234444250Y-72802000D02*
X233931750Y-72802000D01*
G75*
G02*
X233713000Y-72583250I0J218750D01*
G01*
X233713000Y-72145750D01*
G75*
G02*
X233931750Y-71927000I218750J0D01*
G01*
X234444250Y-71927000D01*
G75*
G02*
X234663000Y-72145750I0J-218750D01*
G01*
X234663000Y-72583250D01*
G75*
G02*
X234444250Y-72802000I-218750J0D01*
G01*
G37*
G36*
G01*
X234444250Y-74377000D02*
X233931750Y-74377000D01*
G75*
G02*
X233713000Y-74158250I0J218750D01*
G01*
X233713000Y-73720750D01*
G75*
G02*
X233931750Y-73502000I218750J0D01*
G01*
X234444250Y-73502000D01*
G75*
G02*
X234663000Y-73720750I0J-218750D01*
G01*
X234663000Y-74158250D01*
G75*
G02*
X234444250Y-74377000I-218750J0D01*
G01*
G37*
G36*
G01*
X234444250Y-53625000D02*
X233931750Y-53625000D01*
G75*
G02*
X233713000Y-53406250I0J218750D01*
G01*
X233713000Y-52968750D01*
G75*
G02*
X233931750Y-52750000I218750J0D01*
G01*
X234444250Y-52750000D01*
G75*
G02*
X234663000Y-52968750I0J-218750D01*
G01*
X234663000Y-53406250D01*
G75*
G02*
X234444250Y-53625000I-218750J0D01*
G01*
G37*
G36*
G01*
X234444250Y-55200000D02*
X233931750Y-55200000D01*
G75*
G02*
X233713000Y-54981250I0J218750D01*
G01*
X233713000Y-54543750D01*
G75*
G02*
X233931750Y-54325000I218750J0D01*
G01*
X234444250Y-54325000D01*
G75*
G02*
X234663000Y-54543750I0J-218750D01*
G01*
X234663000Y-54981250D01*
G75*
G02*
X234444250Y-55200000I-218750J0D01*
G01*
G37*
G36*
G01*
X234571250Y-34575000D02*
X234058750Y-34575000D01*
G75*
G02*
X233840000Y-34356250I0J218750D01*
G01*
X233840000Y-33918750D01*
G75*
G02*
X234058750Y-33700000I218750J0D01*
G01*
X234571250Y-33700000D01*
G75*
G02*
X234790000Y-33918750I0J-218750D01*
G01*
X234790000Y-34356250D01*
G75*
G02*
X234571250Y-34575000I-218750J0D01*
G01*
G37*
G36*
G01*
X234571250Y-36150000D02*
X234058750Y-36150000D01*
G75*
G02*
X233840000Y-35931250I0J218750D01*
G01*
X233840000Y-35493750D01*
G75*
G02*
X234058750Y-35275000I218750J0D01*
G01*
X234571250Y-35275000D01*
G75*
G02*
X234790000Y-35493750I0J-218750D01*
G01*
X234790000Y-35931250D01*
G75*
G02*
X234571250Y-36150000I-218750J0D01*
G01*
G37*
G36*
G01*
X234444250Y-15398000D02*
X233931750Y-15398000D01*
G75*
G02*
X233713000Y-15179250I0J218750D01*
G01*
X233713000Y-14741750D01*
G75*
G02*
X233931750Y-14523000I218750J0D01*
G01*
X234444250Y-14523000D01*
G75*
G02*
X234663000Y-14741750I0J-218750D01*
G01*
X234663000Y-15179250D01*
G75*
G02*
X234444250Y-15398000I-218750J0D01*
G01*
G37*
G36*
G01*
X234444250Y-16973000D02*
X233931750Y-16973000D01*
G75*
G02*
X233713000Y-16754250I0J218750D01*
G01*
X233713000Y-16316750D01*
G75*
G02*
X233931750Y-16098000I218750J0D01*
G01*
X234444250Y-16098000D01*
G75*
G02*
X234663000Y-16316750I0J-218750D01*
G01*
X234663000Y-16754250D01*
G75*
G02*
X234444250Y-16973000I-218750J0D01*
G01*
G37*
G36*
G01*
X215140250Y-88677000D02*
X214627750Y-88677000D01*
G75*
G02*
X214409000Y-88458250I0J218750D01*
G01*
X214409000Y-88020750D01*
G75*
G02*
X214627750Y-87802000I218750J0D01*
G01*
X215140250Y-87802000D01*
G75*
G02*
X215359000Y-88020750I0J-218750D01*
G01*
X215359000Y-88458250D01*
G75*
G02*
X215140250Y-88677000I-218750J0D01*
G01*
G37*
G36*
G01*
X215140250Y-90252000D02*
X214627750Y-90252000D01*
G75*
G02*
X214409000Y-90033250I0J218750D01*
G01*
X214409000Y-89595750D01*
G75*
G02*
X214627750Y-89377000I218750J0D01*
G01*
X215140250Y-89377000D01*
G75*
G02*
X215359000Y-89595750I0J-218750D01*
G01*
X215359000Y-90033250D01*
G75*
G02*
X215140250Y-90252000I-218750J0D01*
G01*
G37*
G36*
G01*
X215521250Y-72522500D02*
X215008750Y-72522500D01*
G75*
G02*
X214790000Y-72303750I0J218750D01*
G01*
X214790000Y-71866250D01*
G75*
G02*
X215008750Y-71647500I218750J0D01*
G01*
X215521250Y-71647500D01*
G75*
G02*
X215740000Y-71866250I0J-218750D01*
G01*
X215740000Y-72303750D01*
G75*
G02*
X215521250Y-72522500I-218750J0D01*
G01*
G37*
G36*
G01*
X215521250Y-74097500D02*
X215008750Y-74097500D01*
G75*
G02*
X214790000Y-73878750I0J218750D01*
G01*
X214790000Y-73441250D01*
G75*
G02*
X215008750Y-73222500I218750J0D01*
G01*
X215521250Y-73222500D01*
G75*
G02*
X215740000Y-73441250I0J-218750D01*
G01*
X215740000Y-73878750D01*
G75*
G02*
X215521250Y-74097500I-218750J0D01*
G01*
G37*
G36*
G01*
X215267250Y-53752000D02*
X214754750Y-53752000D01*
G75*
G02*
X214536000Y-53533250I0J218750D01*
G01*
X214536000Y-53095750D01*
G75*
G02*
X214754750Y-52877000I218750J0D01*
G01*
X215267250Y-52877000D01*
G75*
G02*
X215486000Y-53095750I0J-218750D01*
G01*
X215486000Y-53533250D01*
G75*
G02*
X215267250Y-53752000I-218750J0D01*
G01*
G37*
G36*
G01*
X215267250Y-55327000D02*
X214754750Y-55327000D01*
G75*
G02*
X214536000Y-55108250I0J218750D01*
G01*
X214536000Y-54670750D01*
G75*
G02*
X214754750Y-54452000I218750J0D01*
G01*
X215267250Y-54452000D01*
G75*
G02*
X215486000Y-54670750I0J-218750D01*
G01*
X215486000Y-55108250D01*
G75*
G02*
X215267250Y-55327000I-218750J0D01*
G01*
G37*
G36*
G01*
X215013250Y-34448000D02*
X214500750Y-34448000D01*
G75*
G02*
X214282000Y-34229250I0J218750D01*
G01*
X214282000Y-33791750D01*
G75*
G02*
X214500750Y-33573000I218750J0D01*
G01*
X215013250Y-33573000D01*
G75*
G02*
X215232000Y-33791750I0J-218750D01*
G01*
X215232000Y-34229250D01*
G75*
G02*
X215013250Y-34448000I-218750J0D01*
G01*
G37*
G36*
G01*
X215013250Y-36023000D02*
X214500750Y-36023000D01*
G75*
G02*
X214282000Y-35804250I0J218750D01*
G01*
X214282000Y-35366750D01*
G75*
G02*
X214500750Y-35148000I218750J0D01*
G01*
X215013250Y-35148000D01*
G75*
G02*
X215232000Y-35366750I0J-218750D01*
G01*
X215232000Y-35804250D01*
G75*
G02*
X215013250Y-36023000I-218750J0D01*
G01*
G37*
G36*
G01*
X215013250Y-15525000D02*
X214500750Y-15525000D01*
G75*
G02*
X214282000Y-15306250I0J218750D01*
G01*
X214282000Y-14868750D01*
G75*
G02*
X214500750Y-14650000I218750J0D01*
G01*
X215013250Y-14650000D01*
G75*
G02*
X215232000Y-14868750I0J-218750D01*
G01*
X215232000Y-15306250D01*
G75*
G02*
X215013250Y-15525000I-218750J0D01*
G01*
G37*
G36*
G01*
X215013250Y-17100000D02*
X214500750Y-17100000D01*
G75*
G02*
X214282000Y-16881250I0J218750D01*
G01*
X214282000Y-16443750D01*
G75*
G02*
X214500750Y-16225000I218750J0D01*
G01*
X215013250Y-16225000D01*
G75*
G02*
X215232000Y-16443750I0J-218750D01*
G01*
X215232000Y-16881250D01*
G75*
G02*
X215013250Y-17100000I-218750J0D01*
G01*
G37*
G36*
G01*
X195963250Y-89185000D02*
X195450750Y-89185000D01*
G75*
G02*
X195232000Y-88966250I0J218750D01*
G01*
X195232000Y-88528750D01*
G75*
G02*
X195450750Y-88310000I218750J0D01*
G01*
X195963250Y-88310000D01*
G75*
G02*
X196182000Y-88528750I0J-218750D01*
G01*
X196182000Y-88966250D01*
G75*
G02*
X195963250Y-89185000I-218750J0D01*
G01*
G37*
G36*
G01*
X195963250Y-90760000D02*
X195450750Y-90760000D01*
G75*
G02*
X195232000Y-90541250I0J218750D01*
G01*
X195232000Y-90103750D01*
G75*
G02*
X195450750Y-89885000I218750J0D01*
G01*
X195963250Y-89885000D01*
G75*
G02*
X196182000Y-90103750I0J-218750D01*
G01*
X196182000Y-90541250D01*
G75*
G02*
X195963250Y-90760000I-218750J0D01*
G01*
G37*
G36*
G01*
X196090250Y-72929000D02*
X195577750Y-72929000D01*
G75*
G02*
X195359000Y-72710250I0J218750D01*
G01*
X195359000Y-72272750D01*
G75*
G02*
X195577750Y-72054000I218750J0D01*
G01*
X196090250Y-72054000D01*
G75*
G02*
X196309000Y-72272750I0J-218750D01*
G01*
X196309000Y-72710250D01*
G75*
G02*
X196090250Y-72929000I-218750J0D01*
G01*
G37*
G36*
G01*
X196090250Y-74504000D02*
X195577750Y-74504000D01*
G75*
G02*
X195359000Y-74285250I0J218750D01*
G01*
X195359000Y-73847750D01*
G75*
G02*
X195577750Y-73629000I218750J0D01*
G01*
X196090250Y-73629000D01*
G75*
G02*
X196309000Y-73847750I0J-218750D01*
G01*
X196309000Y-74285250D01*
G75*
G02*
X196090250Y-74504000I-218750J0D01*
G01*
G37*
G36*
G01*
X195963250Y-54133000D02*
X195450750Y-54133000D01*
G75*
G02*
X195232000Y-53914250I0J218750D01*
G01*
X195232000Y-53476750D01*
G75*
G02*
X195450750Y-53258000I218750J0D01*
G01*
X195963250Y-53258000D01*
G75*
G02*
X196182000Y-53476750I0J-218750D01*
G01*
X196182000Y-53914250D01*
G75*
G02*
X195963250Y-54133000I-218750J0D01*
G01*
G37*
G36*
G01*
X195963250Y-55708000D02*
X195450750Y-55708000D01*
G75*
G02*
X195232000Y-55489250I0J218750D01*
G01*
X195232000Y-55051750D01*
G75*
G02*
X195450750Y-54833000I218750J0D01*
G01*
X195963250Y-54833000D01*
G75*
G02*
X196182000Y-55051750I0J-218750D01*
G01*
X196182000Y-55489250D01*
G75*
G02*
X195963250Y-55708000I-218750J0D01*
G01*
G37*
G36*
G01*
X195582250Y-34829000D02*
X195069750Y-34829000D01*
G75*
G02*
X194851000Y-34610250I0J218750D01*
G01*
X194851000Y-34172750D01*
G75*
G02*
X195069750Y-33954000I218750J0D01*
G01*
X195582250Y-33954000D01*
G75*
G02*
X195801000Y-34172750I0J-218750D01*
G01*
X195801000Y-34610250D01*
G75*
G02*
X195582250Y-34829000I-218750J0D01*
G01*
G37*
G36*
G01*
X195582250Y-36404000D02*
X195069750Y-36404000D01*
G75*
G02*
X194851000Y-36185250I0J218750D01*
G01*
X194851000Y-35747750D01*
G75*
G02*
X195069750Y-35529000I218750J0D01*
G01*
X195582250Y-35529000D01*
G75*
G02*
X195801000Y-35747750I0J-218750D01*
G01*
X195801000Y-36185250D01*
G75*
G02*
X195582250Y-36404000I-218750J0D01*
G01*
G37*
G36*
G01*
X195455250Y-15779000D02*
X194942750Y-15779000D01*
G75*
G02*
X194724000Y-15560250I0J218750D01*
G01*
X194724000Y-15122750D01*
G75*
G02*
X194942750Y-14904000I218750J0D01*
G01*
X195455250Y-14904000D01*
G75*
G02*
X195674000Y-15122750I0J-218750D01*
G01*
X195674000Y-15560250D01*
G75*
G02*
X195455250Y-15779000I-218750J0D01*
G01*
G37*
G36*
G01*
X195455250Y-17354000D02*
X194942750Y-17354000D01*
G75*
G02*
X194724000Y-17135250I0J218750D01*
G01*
X194724000Y-16697750D01*
G75*
G02*
X194942750Y-16479000I218750J0D01*
G01*
X195455250Y-16479000D01*
G75*
G02*
X195674000Y-16697750I0J-218750D01*
G01*
X195674000Y-17135250D01*
G75*
G02*
X195455250Y-17354000I-218750J0D01*
G01*
G37*
G36*
G01*
X164843750Y-82138000D02*
X165356250Y-82138000D01*
G75*
G02*
X165575000Y-82356750I0J-218750D01*
G01*
X165575000Y-82794250D01*
G75*
G02*
X165356250Y-83013000I-218750J0D01*
G01*
X164843750Y-83013000D01*
G75*
G02*
X164625000Y-82794250I0J218750D01*
G01*
X164625000Y-82356750D01*
G75*
G02*
X164843750Y-82138000I218750J0D01*
G01*
G37*
G36*
G01*
X164843750Y-80563000D02*
X165356250Y-80563000D01*
G75*
G02*
X165575000Y-80781750I0J-218750D01*
G01*
X165575000Y-81219250D01*
G75*
G02*
X165356250Y-81438000I-218750J0D01*
G01*
X164843750Y-81438000D01*
G75*
G02*
X164625000Y-81219250I0J218750D01*
G01*
X164625000Y-80781750D01*
G75*
G02*
X164843750Y-80563000I218750J0D01*
G01*
G37*
G36*
G01*
X176405250Y-73310000D02*
X175892750Y-73310000D01*
G75*
G02*
X175674000Y-73091250I0J218750D01*
G01*
X175674000Y-72653750D01*
G75*
G02*
X175892750Y-72435000I218750J0D01*
G01*
X176405250Y-72435000D01*
G75*
G02*
X176624000Y-72653750I0J-218750D01*
G01*
X176624000Y-73091250D01*
G75*
G02*
X176405250Y-73310000I-218750J0D01*
G01*
G37*
G36*
G01*
X176405250Y-74885000D02*
X175892750Y-74885000D01*
G75*
G02*
X175674000Y-74666250I0J218750D01*
G01*
X175674000Y-74228750D01*
G75*
G02*
X175892750Y-74010000I218750J0D01*
G01*
X176405250Y-74010000D01*
G75*
G02*
X176624000Y-74228750I0J-218750D01*
G01*
X176624000Y-74666250D01*
G75*
G02*
X176405250Y-74885000I-218750J0D01*
G01*
G37*
G36*
G01*
X176659250Y-53904500D02*
X176146750Y-53904500D01*
G75*
G02*
X175928000Y-53685750I0J218750D01*
G01*
X175928000Y-53248250D01*
G75*
G02*
X176146750Y-53029500I218750J0D01*
G01*
X176659250Y-53029500D01*
G75*
G02*
X176878000Y-53248250I0J-218750D01*
G01*
X176878000Y-53685750D01*
G75*
G02*
X176659250Y-53904500I-218750J0D01*
G01*
G37*
G36*
G01*
X176659250Y-55479500D02*
X176146750Y-55479500D01*
G75*
G02*
X175928000Y-55260750I0J218750D01*
G01*
X175928000Y-54823250D01*
G75*
G02*
X176146750Y-54604500I218750J0D01*
G01*
X176659250Y-54604500D01*
G75*
G02*
X176878000Y-54823250I0J-218750D01*
G01*
X176878000Y-55260750D01*
G75*
G02*
X176659250Y-55479500I-218750J0D01*
G01*
G37*
G36*
G01*
X176786250Y-34981500D02*
X176273750Y-34981500D01*
G75*
G02*
X176055000Y-34762750I0J218750D01*
G01*
X176055000Y-34325250D01*
G75*
G02*
X176273750Y-34106500I218750J0D01*
G01*
X176786250Y-34106500D01*
G75*
G02*
X177005000Y-34325250I0J-218750D01*
G01*
X177005000Y-34762750D01*
G75*
G02*
X176786250Y-34981500I-218750J0D01*
G01*
G37*
G36*
G01*
X176786250Y-36556500D02*
X176273750Y-36556500D01*
G75*
G02*
X176055000Y-36337750I0J218750D01*
G01*
X176055000Y-35900250D01*
G75*
G02*
X176273750Y-35681500I218750J0D01*
G01*
X176786250Y-35681500D01*
G75*
G02*
X177005000Y-35900250I0J-218750D01*
G01*
X177005000Y-36337750D01*
G75*
G02*
X176786250Y-36556500I-218750J0D01*
G01*
G37*
G36*
G01*
X176405250Y-16033000D02*
X175892750Y-16033000D01*
G75*
G02*
X175674000Y-15814250I0J218750D01*
G01*
X175674000Y-15376750D01*
G75*
G02*
X175892750Y-15158000I218750J0D01*
G01*
X176405250Y-15158000D01*
G75*
G02*
X176624000Y-15376750I0J-218750D01*
G01*
X176624000Y-15814250D01*
G75*
G02*
X176405250Y-16033000I-218750J0D01*
G01*
G37*
G36*
G01*
X176405250Y-17608000D02*
X175892750Y-17608000D01*
G75*
G02*
X175674000Y-17389250I0J218750D01*
G01*
X175674000Y-16951750D01*
G75*
G02*
X175892750Y-16733000I218750J0D01*
G01*
X176405250Y-16733000D01*
G75*
G02*
X176624000Y-16951750I0J-218750D01*
G01*
X176624000Y-17389250D01*
G75*
G02*
X176405250Y-17608000I-218750J0D01*
G01*
G37*
G36*
G01*
X113154750Y-82265000D02*
X113667250Y-82265000D01*
G75*
G02*
X113886000Y-82483750I0J-218750D01*
G01*
X113886000Y-82921250D01*
G75*
G02*
X113667250Y-83140000I-218750J0D01*
G01*
X113154750Y-83140000D01*
G75*
G02*
X112936000Y-82921250I0J218750D01*
G01*
X112936000Y-82483750D01*
G75*
G02*
X113154750Y-82265000I218750J0D01*
G01*
G37*
G36*
G01*
X113154750Y-80690000D02*
X113667250Y-80690000D01*
G75*
G02*
X113886000Y-80908750I0J-218750D01*
G01*
X113886000Y-81346250D01*
G75*
G02*
X113667250Y-81565000I-218750J0D01*
G01*
X113154750Y-81565000D01*
G75*
G02*
X112936000Y-81346250I0J218750D01*
G01*
X112936000Y-80908750D01*
G75*
G02*
X113154750Y-80690000I218750J0D01*
G01*
G37*
G36*
G01*
X101475250Y-72929000D02*
X100962750Y-72929000D01*
G75*
G02*
X100744000Y-72710250I0J218750D01*
G01*
X100744000Y-72272750D01*
G75*
G02*
X100962750Y-72054000I218750J0D01*
G01*
X101475250Y-72054000D01*
G75*
G02*
X101694000Y-72272750I0J-218750D01*
G01*
X101694000Y-72710250D01*
G75*
G02*
X101475250Y-72929000I-218750J0D01*
G01*
G37*
G36*
G01*
X101475250Y-74504000D02*
X100962750Y-74504000D01*
G75*
G02*
X100744000Y-74285250I0J218750D01*
G01*
X100744000Y-73847750D01*
G75*
G02*
X100962750Y-73629000I218750J0D01*
G01*
X101475250Y-73629000D01*
G75*
G02*
X101694000Y-73847750I0J-218750D01*
G01*
X101694000Y-74285250D01*
G75*
G02*
X101475250Y-74504000I-218750J0D01*
G01*
G37*
G36*
G01*
X101348250Y-54006000D02*
X100835750Y-54006000D01*
G75*
G02*
X100617000Y-53787250I0J218750D01*
G01*
X100617000Y-53349750D01*
G75*
G02*
X100835750Y-53131000I218750J0D01*
G01*
X101348250Y-53131000D01*
G75*
G02*
X101567000Y-53349750I0J-218750D01*
G01*
X101567000Y-53787250D01*
G75*
G02*
X101348250Y-54006000I-218750J0D01*
G01*
G37*
G36*
G01*
X101348250Y-55581000D02*
X100835750Y-55581000D01*
G75*
G02*
X100617000Y-55362250I0J218750D01*
G01*
X100617000Y-54924750D01*
G75*
G02*
X100835750Y-54706000I218750J0D01*
G01*
X101348250Y-54706000D01*
G75*
G02*
X101567000Y-54924750I0J-218750D01*
G01*
X101567000Y-55362250D01*
G75*
G02*
X101348250Y-55581000I-218750J0D01*
G01*
G37*
G36*
G01*
X101475250Y-34829000D02*
X100962750Y-34829000D01*
G75*
G02*
X100744000Y-34610250I0J218750D01*
G01*
X100744000Y-34172750D01*
G75*
G02*
X100962750Y-33954000I218750J0D01*
G01*
X101475250Y-33954000D01*
G75*
G02*
X101694000Y-34172750I0J-218750D01*
G01*
X101694000Y-34610250D01*
G75*
G02*
X101475250Y-34829000I-218750J0D01*
G01*
G37*
G36*
G01*
X101475250Y-36404000D02*
X100962750Y-36404000D01*
G75*
G02*
X100744000Y-36185250I0J218750D01*
G01*
X100744000Y-35747750D01*
G75*
G02*
X100962750Y-35529000I218750J0D01*
G01*
X101475250Y-35529000D01*
G75*
G02*
X101694000Y-35747750I0J-218750D01*
G01*
X101694000Y-36185250D01*
G75*
G02*
X101475250Y-36404000I-218750J0D01*
G01*
G37*
G36*
G01*
X101221250Y-15906000D02*
X100708750Y-15906000D01*
G75*
G02*
X100490000Y-15687250I0J218750D01*
G01*
X100490000Y-15249750D01*
G75*
G02*
X100708750Y-15031000I218750J0D01*
G01*
X101221250Y-15031000D01*
G75*
G02*
X101440000Y-15249750I0J-218750D01*
G01*
X101440000Y-15687250D01*
G75*
G02*
X101221250Y-15906000I-218750J0D01*
G01*
G37*
G36*
G01*
X101221250Y-17481000D02*
X100708750Y-17481000D01*
G75*
G02*
X100490000Y-17262250I0J218750D01*
G01*
X100490000Y-16824750D01*
G75*
G02*
X100708750Y-16606000I218750J0D01*
G01*
X101221250Y-16606000D01*
G75*
G02*
X101440000Y-16824750I0J-218750D01*
G01*
X101440000Y-17262250D01*
G75*
G02*
X101221250Y-17481000I-218750J0D01*
G01*
G37*
G36*
G01*
X82552250Y-88067500D02*
X82039750Y-88067500D01*
G75*
G02*
X81821000Y-87848750I0J218750D01*
G01*
X81821000Y-87411250D01*
G75*
G02*
X82039750Y-87192500I218750J0D01*
G01*
X82552250Y-87192500D01*
G75*
G02*
X82771000Y-87411250I0J-218750D01*
G01*
X82771000Y-87848750D01*
G75*
G02*
X82552250Y-88067500I-218750J0D01*
G01*
G37*
G36*
G01*
X82552250Y-89642500D02*
X82039750Y-89642500D01*
G75*
G02*
X81821000Y-89423750I0J218750D01*
G01*
X81821000Y-88986250D01*
G75*
G02*
X82039750Y-88767500I218750J0D01*
G01*
X82552250Y-88767500D01*
G75*
G02*
X82771000Y-88986250I0J-218750D01*
G01*
X82771000Y-89423750D01*
G75*
G02*
X82552250Y-89642500I-218750J0D01*
G01*
G37*
G36*
G01*
X82552250Y-72929000D02*
X82039750Y-72929000D01*
G75*
G02*
X81821000Y-72710250I0J218750D01*
G01*
X81821000Y-72272750D01*
G75*
G02*
X82039750Y-72054000I218750J0D01*
G01*
X82552250Y-72054000D01*
G75*
G02*
X82771000Y-72272750I0J-218750D01*
G01*
X82771000Y-72710250D01*
G75*
G02*
X82552250Y-72929000I-218750J0D01*
G01*
G37*
G36*
G01*
X82552250Y-74504000D02*
X82039750Y-74504000D01*
G75*
G02*
X81821000Y-74285250I0J218750D01*
G01*
X81821000Y-73847750D01*
G75*
G02*
X82039750Y-73629000I218750J0D01*
G01*
X82552250Y-73629000D01*
G75*
G02*
X82771000Y-73847750I0J-218750D01*
G01*
X82771000Y-74285250D01*
G75*
G02*
X82552250Y-74504000I-218750J0D01*
G01*
G37*
G36*
G01*
X82552250Y-54158500D02*
X82039750Y-54158500D01*
G75*
G02*
X81821000Y-53939750I0J218750D01*
G01*
X81821000Y-53502250D01*
G75*
G02*
X82039750Y-53283500I218750J0D01*
G01*
X82552250Y-53283500D01*
G75*
G02*
X82771000Y-53502250I0J-218750D01*
G01*
X82771000Y-53939750D01*
G75*
G02*
X82552250Y-54158500I-218750J0D01*
G01*
G37*
G36*
G01*
X82552250Y-55733500D02*
X82039750Y-55733500D01*
G75*
G02*
X81821000Y-55514750I0J218750D01*
G01*
X81821000Y-55077250D01*
G75*
G02*
X82039750Y-54858500I218750J0D01*
G01*
X82552250Y-54858500D01*
G75*
G02*
X82771000Y-55077250I0J-218750D01*
G01*
X82771000Y-55514750D01*
G75*
G02*
X82552250Y-55733500I-218750J0D01*
G01*
G37*
G36*
G01*
X82298250Y-34854500D02*
X81785750Y-34854500D01*
G75*
G02*
X81567000Y-34635750I0J218750D01*
G01*
X81567000Y-34198250D01*
G75*
G02*
X81785750Y-33979500I218750J0D01*
G01*
X82298250Y-33979500D01*
G75*
G02*
X82517000Y-34198250I0J-218750D01*
G01*
X82517000Y-34635750D01*
G75*
G02*
X82298250Y-34854500I-218750J0D01*
G01*
G37*
G36*
G01*
X82298250Y-36429500D02*
X81785750Y-36429500D01*
G75*
G02*
X81567000Y-36210750I0J218750D01*
G01*
X81567000Y-35773250D01*
G75*
G02*
X81785750Y-35554500I218750J0D01*
G01*
X82298250Y-35554500D01*
G75*
G02*
X82517000Y-35773250I0J-218750D01*
G01*
X82517000Y-36210750D01*
G75*
G02*
X82298250Y-36429500I-218750J0D01*
G01*
G37*
G36*
G01*
X82552250Y-15931500D02*
X82039750Y-15931500D01*
G75*
G02*
X81821000Y-15712750I0J218750D01*
G01*
X81821000Y-15275250D01*
G75*
G02*
X82039750Y-15056500I218750J0D01*
G01*
X82552250Y-15056500D01*
G75*
G02*
X82771000Y-15275250I0J-218750D01*
G01*
X82771000Y-15712750D01*
G75*
G02*
X82552250Y-15931500I-218750J0D01*
G01*
G37*
G36*
G01*
X82552250Y-17506500D02*
X82039750Y-17506500D01*
G75*
G02*
X81821000Y-17287750I0J218750D01*
G01*
X81821000Y-16850250D01*
G75*
G02*
X82039750Y-16631500I218750J0D01*
G01*
X82552250Y-16631500D01*
G75*
G02*
X82771000Y-16850250I0J-218750D01*
G01*
X82771000Y-17287750D01*
G75*
G02*
X82552250Y-17506500I-218750J0D01*
G01*
G37*
G36*
G01*
X63375250Y-88042000D02*
X62862750Y-88042000D01*
G75*
G02*
X62644000Y-87823250I0J218750D01*
G01*
X62644000Y-87385750D01*
G75*
G02*
X62862750Y-87167000I218750J0D01*
G01*
X63375250Y-87167000D01*
G75*
G02*
X63594000Y-87385750I0J-218750D01*
G01*
X63594000Y-87823250D01*
G75*
G02*
X63375250Y-88042000I-218750J0D01*
G01*
G37*
G36*
G01*
X63375250Y-89617000D02*
X62862750Y-89617000D01*
G75*
G02*
X62644000Y-89398250I0J218750D01*
G01*
X62644000Y-88960750D01*
G75*
G02*
X62862750Y-88742000I218750J0D01*
G01*
X63375250Y-88742000D01*
G75*
G02*
X63594000Y-88960750I0J-218750D01*
G01*
X63594000Y-89398250D01*
G75*
G02*
X63375250Y-89617000I-218750J0D01*
G01*
G37*
G36*
G01*
X63502250Y-72954500D02*
X62989750Y-72954500D01*
G75*
G02*
X62771000Y-72735750I0J218750D01*
G01*
X62771000Y-72298250D01*
G75*
G02*
X62989750Y-72079500I218750J0D01*
G01*
X63502250Y-72079500D01*
G75*
G02*
X63721000Y-72298250I0J-218750D01*
G01*
X63721000Y-72735750D01*
G75*
G02*
X63502250Y-72954500I-218750J0D01*
G01*
G37*
G36*
G01*
X63502250Y-74529500D02*
X62989750Y-74529500D01*
G75*
G02*
X62771000Y-74310750I0J218750D01*
G01*
X62771000Y-73873250D01*
G75*
G02*
X62989750Y-73654500I218750J0D01*
G01*
X63502250Y-73654500D01*
G75*
G02*
X63721000Y-73873250I0J-218750D01*
G01*
X63721000Y-74310750D01*
G75*
G02*
X63502250Y-74529500I-218750J0D01*
G01*
G37*
G36*
G01*
X63756250Y-53904500D02*
X63243750Y-53904500D01*
G75*
G02*
X63025000Y-53685750I0J218750D01*
G01*
X63025000Y-53248250D01*
G75*
G02*
X63243750Y-53029500I218750J0D01*
G01*
X63756250Y-53029500D01*
G75*
G02*
X63975000Y-53248250I0J-218750D01*
G01*
X63975000Y-53685750D01*
G75*
G02*
X63756250Y-53904500I-218750J0D01*
G01*
G37*
G36*
G01*
X63756250Y-55479500D02*
X63243750Y-55479500D01*
G75*
G02*
X63025000Y-55260750I0J218750D01*
G01*
X63025000Y-54823250D01*
G75*
G02*
X63243750Y-54604500I218750J0D01*
G01*
X63756250Y-54604500D01*
G75*
G02*
X63975000Y-54823250I0J-218750D01*
G01*
X63975000Y-55260750D01*
G75*
G02*
X63756250Y-55479500I-218750J0D01*
G01*
G37*
G36*
G01*
X63756250Y-34981500D02*
X63243750Y-34981500D01*
G75*
G02*
X63025000Y-34762750I0J218750D01*
G01*
X63025000Y-34325250D01*
G75*
G02*
X63243750Y-34106500I218750J0D01*
G01*
X63756250Y-34106500D01*
G75*
G02*
X63975000Y-34325250I0J-218750D01*
G01*
X63975000Y-34762750D01*
G75*
G02*
X63756250Y-34981500I-218750J0D01*
G01*
G37*
G36*
G01*
X63756250Y-36556500D02*
X63243750Y-36556500D01*
G75*
G02*
X63025000Y-36337750I0J218750D01*
G01*
X63025000Y-35900250D01*
G75*
G02*
X63243750Y-35681500I218750J0D01*
G01*
X63756250Y-35681500D01*
G75*
G02*
X63975000Y-35900250I0J-218750D01*
G01*
X63975000Y-36337750D01*
G75*
G02*
X63756250Y-36556500I-218750J0D01*
G01*
G37*
G36*
G01*
X63629250Y-15931500D02*
X63116750Y-15931500D01*
G75*
G02*
X62898000Y-15712750I0J218750D01*
G01*
X62898000Y-15275250D01*
G75*
G02*
X63116750Y-15056500I218750J0D01*
G01*
X63629250Y-15056500D01*
G75*
G02*
X63848000Y-15275250I0J-218750D01*
G01*
X63848000Y-15712750D01*
G75*
G02*
X63629250Y-15931500I-218750J0D01*
G01*
G37*
G36*
G01*
X63629250Y-17506500D02*
X63116750Y-17506500D01*
G75*
G02*
X62898000Y-17287750I0J218750D01*
G01*
X62898000Y-16850250D01*
G75*
G02*
X63116750Y-16631500I218750J0D01*
G01*
X63629250Y-16631500D01*
G75*
G02*
X63848000Y-16850250I0J-218750D01*
G01*
X63848000Y-17287750D01*
G75*
G02*
X63629250Y-17506500I-218750J0D01*
G01*
G37*
G36*
G01*
X44198250Y-88194500D02*
X43685750Y-88194500D01*
G75*
G02*
X43467000Y-87975750I0J218750D01*
G01*
X43467000Y-87538250D01*
G75*
G02*
X43685750Y-87319500I218750J0D01*
G01*
X44198250Y-87319500D01*
G75*
G02*
X44417000Y-87538250I0J-218750D01*
G01*
X44417000Y-87975750D01*
G75*
G02*
X44198250Y-88194500I-218750J0D01*
G01*
G37*
G36*
G01*
X44198250Y-89769500D02*
X43685750Y-89769500D01*
G75*
G02*
X43467000Y-89550750I0J218750D01*
G01*
X43467000Y-89113250D01*
G75*
G02*
X43685750Y-88894500I218750J0D01*
G01*
X44198250Y-88894500D01*
G75*
G02*
X44417000Y-89113250I0J-218750D01*
G01*
X44417000Y-89550750D01*
G75*
G02*
X44198250Y-89769500I-218750J0D01*
G01*
G37*
G36*
G01*
X44198250Y-72954500D02*
X43685750Y-72954500D01*
G75*
G02*
X43467000Y-72735750I0J218750D01*
G01*
X43467000Y-72298250D01*
G75*
G02*
X43685750Y-72079500I218750J0D01*
G01*
X44198250Y-72079500D01*
G75*
G02*
X44417000Y-72298250I0J-218750D01*
G01*
X44417000Y-72735750D01*
G75*
G02*
X44198250Y-72954500I-218750J0D01*
G01*
G37*
G36*
G01*
X44198250Y-74529500D02*
X43685750Y-74529500D01*
G75*
G02*
X43467000Y-74310750I0J218750D01*
G01*
X43467000Y-73873250D01*
G75*
G02*
X43685750Y-73654500I218750J0D01*
G01*
X44198250Y-73654500D01*
G75*
G02*
X44417000Y-73873250I0J-218750D01*
G01*
X44417000Y-74310750D01*
G75*
G02*
X44198250Y-74529500I-218750J0D01*
G01*
G37*
G36*
G01*
X44325250Y-53904500D02*
X43812750Y-53904500D01*
G75*
G02*
X43594000Y-53685750I0J218750D01*
G01*
X43594000Y-53248250D01*
G75*
G02*
X43812750Y-53029500I218750J0D01*
G01*
X44325250Y-53029500D01*
G75*
G02*
X44544000Y-53248250I0J-218750D01*
G01*
X44544000Y-53685750D01*
G75*
G02*
X44325250Y-53904500I-218750J0D01*
G01*
G37*
G36*
G01*
X44325250Y-55479500D02*
X43812750Y-55479500D01*
G75*
G02*
X43594000Y-55260750I0J218750D01*
G01*
X43594000Y-54823250D01*
G75*
G02*
X43812750Y-54604500I218750J0D01*
G01*
X44325250Y-54604500D01*
G75*
G02*
X44544000Y-54823250I0J-218750D01*
G01*
X44544000Y-55260750D01*
G75*
G02*
X44325250Y-55479500I-218750J0D01*
G01*
G37*
G36*
G01*
X43563250Y-34981500D02*
X43050750Y-34981500D01*
G75*
G02*
X42832000Y-34762750I0J218750D01*
G01*
X42832000Y-34325250D01*
G75*
G02*
X43050750Y-34106500I218750J0D01*
G01*
X43563250Y-34106500D01*
G75*
G02*
X43782000Y-34325250I0J-218750D01*
G01*
X43782000Y-34762750D01*
G75*
G02*
X43563250Y-34981500I-218750J0D01*
G01*
G37*
G36*
G01*
X43563250Y-36556500D02*
X43050750Y-36556500D01*
G75*
G02*
X42832000Y-36337750I0J218750D01*
G01*
X42832000Y-35900250D01*
G75*
G02*
X43050750Y-35681500I218750J0D01*
G01*
X43563250Y-35681500D01*
G75*
G02*
X43782000Y-35900250I0J-218750D01*
G01*
X43782000Y-36337750D01*
G75*
G02*
X43563250Y-36556500I-218750J0D01*
G01*
G37*
G36*
G01*
X44325250Y-15931500D02*
X43812750Y-15931500D01*
G75*
G02*
X43594000Y-15712750I0J218750D01*
G01*
X43594000Y-15275250D01*
G75*
G02*
X43812750Y-15056500I218750J0D01*
G01*
X44325250Y-15056500D01*
G75*
G02*
X44544000Y-15275250I0J-218750D01*
G01*
X44544000Y-15712750D01*
G75*
G02*
X44325250Y-15931500I-218750J0D01*
G01*
G37*
G36*
G01*
X44325250Y-17506500D02*
X43812750Y-17506500D01*
G75*
G02*
X43594000Y-17287750I0J218750D01*
G01*
X43594000Y-16850250D01*
G75*
G02*
X43812750Y-16631500I218750J0D01*
G01*
X44325250Y-16631500D01*
G75*
G02*
X44544000Y-16850250I0J-218750D01*
G01*
X44544000Y-17287750D01*
G75*
G02*
X44325250Y-17506500I-218750J0D01*
G01*
G37*
G36*
G01*
X25148250Y-88550000D02*
X24635750Y-88550000D01*
G75*
G02*
X24417000Y-88331250I0J218750D01*
G01*
X24417000Y-87893750D01*
G75*
G02*
X24635750Y-87675000I218750J0D01*
G01*
X25148250Y-87675000D01*
G75*
G02*
X25367000Y-87893750I0J-218750D01*
G01*
X25367000Y-88331250D01*
G75*
G02*
X25148250Y-88550000I-218750J0D01*
G01*
G37*
G36*
G01*
X25148250Y-90125000D02*
X24635750Y-90125000D01*
G75*
G02*
X24417000Y-89906250I0J218750D01*
G01*
X24417000Y-89468750D01*
G75*
G02*
X24635750Y-89250000I218750J0D01*
G01*
X25148250Y-89250000D01*
G75*
G02*
X25367000Y-89468750I0J-218750D01*
G01*
X25367000Y-89906250D01*
G75*
G02*
X25148250Y-90125000I-218750J0D01*
G01*
G37*
G36*
G01*
X25529250Y-73056000D02*
X25016750Y-73056000D01*
G75*
G02*
X24798000Y-72837250I0J218750D01*
G01*
X24798000Y-72399750D01*
G75*
G02*
X25016750Y-72181000I218750J0D01*
G01*
X25529250Y-72181000D01*
G75*
G02*
X25748000Y-72399750I0J-218750D01*
G01*
X25748000Y-72837250D01*
G75*
G02*
X25529250Y-73056000I-218750J0D01*
G01*
G37*
G36*
G01*
X25529250Y-74631000D02*
X25016750Y-74631000D01*
G75*
G02*
X24798000Y-74412250I0J218750D01*
G01*
X24798000Y-73974750D01*
G75*
G02*
X25016750Y-73756000I218750J0D01*
G01*
X25529250Y-73756000D01*
G75*
G02*
X25748000Y-73974750I0J-218750D01*
G01*
X25748000Y-74412250D01*
G75*
G02*
X25529250Y-74631000I-218750J0D01*
G01*
G37*
G36*
G01*
X25529250Y-54133000D02*
X25016750Y-54133000D01*
G75*
G02*
X24798000Y-53914250I0J218750D01*
G01*
X24798000Y-53476750D01*
G75*
G02*
X25016750Y-53258000I218750J0D01*
G01*
X25529250Y-53258000D01*
G75*
G02*
X25748000Y-53476750I0J-218750D01*
G01*
X25748000Y-53914250D01*
G75*
G02*
X25529250Y-54133000I-218750J0D01*
G01*
G37*
G36*
G01*
X25529250Y-55708000D02*
X25016750Y-55708000D01*
G75*
G02*
X24798000Y-55489250I0J218750D01*
G01*
X24798000Y-55051750D01*
G75*
G02*
X25016750Y-54833000I218750J0D01*
G01*
X25529250Y-54833000D01*
G75*
G02*
X25748000Y-55051750I0J-218750D01*
G01*
X25748000Y-55489250D01*
G75*
G02*
X25529250Y-55708000I-218750J0D01*
G01*
G37*
G36*
G01*
X25148250Y-35464000D02*
X24635750Y-35464000D01*
G75*
G02*
X24417000Y-35245250I0J218750D01*
G01*
X24417000Y-34807750D01*
G75*
G02*
X24635750Y-34589000I218750J0D01*
G01*
X25148250Y-34589000D01*
G75*
G02*
X25367000Y-34807750I0J-218750D01*
G01*
X25367000Y-35245250D01*
G75*
G02*
X25148250Y-35464000I-218750J0D01*
G01*
G37*
G36*
G01*
X25148250Y-37039000D02*
X24635750Y-37039000D01*
G75*
G02*
X24417000Y-36820250I0J218750D01*
G01*
X24417000Y-36382750D01*
G75*
G02*
X24635750Y-36164000I218750J0D01*
G01*
X25148250Y-36164000D01*
G75*
G02*
X25367000Y-36382750I0J-218750D01*
G01*
X25367000Y-36820250D01*
G75*
G02*
X25148250Y-37039000I-218750J0D01*
G01*
G37*
G36*
G01*
X24005250Y-16033000D02*
X23492750Y-16033000D01*
G75*
G02*
X23274000Y-15814250I0J218750D01*
G01*
X23274000Y-15376750D01*
G75*
G02*
X23492750Y-15158000I218750J0D01*
G01*
X24005250Y-15158000D01*
G75*
G02*
X24224000Y-15376750I0J-218750D01*
G01*
X24224000Y-15814250D01*
G75*
G02*
X24005250Y-16033000I-218750J0D01*
G01*
G37*
G36*
G01*
X24005250Y-17608000D02*
X23492750Y-17608000D01*
G75*
G02*
X23274000Y-17389250I0J218750D01*
G01*
X23274000Y-16951750D01*
G75*
G02*
X23492750Y-16733000I218750J0D01*
G01*
X24005250Y-16733000D01*
G75*
G02*
X24224000Y-16951750I0J-218750D01*
G01*
X24224000Y-17389250D01*
G75*
G02*
X24005250Y-17608000I-218750J0D01*
G01*
G37*
G36*
G01*
X6352250Y-88956500D02*
X5839750Y-88956500D01*
G75*
G02*
X5621000Y-88737750I0J218750D01*
G01*
X5621000Y-88300250D01*
G75*
G02*
X5839750Y-88081500I218750J0D01*
G01*
X6352250Y-88081500D01*
G75*
G02*
X6571000Y-88300250I0J-218750D01*
G01*
X6571000Y-88737750D01*
G75*
G02*
X6352250Y-88956500I-218750J0D01*
G01*
G37*
G36*
G01*
X6352250Y-90531500D02*
X5839750Y-90531500D01*
G75*
G02*
X5621000Y-90312750I0J218750D01*
G01*
X5621000Y-89875250D01*
G75*
G02*
X5839750Y-89656500I218750J0D01*
G01*
X6352250Y-89656500D01*
G75*
G02*
X6571000Y-89875250I0J-218750D01*
G01*
X6571000Y-90312750D01*
G75*
G02*
X6352250Y-90531500I-218750J0D01*
G01*
G37*
G36*
G01*
X6225250Y-73081500D02*
X5712750Y-73081500D01*
G75*
G02*
X5494000Y-72862750I0J218750D01*
G01*
X5494000Y-72425250D01*
G75*
G02*
X5712750Y-72206500I218750J0D01*
G01*
X6225250Y-72206500D01*
G75*
G02*
X6444000Y-72425250I0J-218750D01*
G01*
X6444000Y-72862750D01*
G75*
G02*
X6225250Y-73081500I-218750J0D01*
G01*
G37*
G36*
G01*
X6225250Y-74656500D02*
X5712750Y-74656500D01*
G75*
G02*
X5494000Y-74437750I0J218750D01*
G01*
X5494000Y-74000250D01*
G75*
G02*
X5712750Y-73781500I218750J0D01*
G01*
X6225250Y-73781500D01*
G75*
G02*
X6444000Y-74000250I0J-218750D01*
G01*
X6444000Y-74437750D01*
G75*
G02*
X6225250Y-74656500I-218750J0D01*
G01*
G37*
G36*
G01*
X5971250Y-54133000D02*
X5458750Y-54133000D01*
G75*
G02*
X5240000Y-53914250I0J218750D01*
G01*
X5240000Y-53476750D01*
G75*
G02*
X5458750Y-53258000I218750J0D01*
G01*
X5971250Y-53258000D01*
G75*
G02*
X6190000Y-53476750I0J-218750D01*
G01*
X6190000Y-53914250D01*
G75*
G02*
X5971250Y-54133000I-218750J0D01*
G01*
G37*
G36*
G01*
X5971250Y-55708000D02*
X5458750Y-55708000D01*
G75*
G02*
X5240000Y-55489250I0J218750D01*
G01*
X5240000Y-55051750D01*
G75*
G02*
X5458750Y-54833000I218750J0D01*
G01*
X5971250Y-54833000D01*
G75*
G02*
X6190000Y-55051750I0J-218750D01*
G01*
X6190000Y-55489250D01*
G75*
G02*
X5971250Y-55708000I-218750J0D01*
G01*
G37*
G36*
G01*
X6606250Y-35235500D02*
X6093750Y-35235500D01*
G75*
G02*
X5875000Y-35016750I0J218750D01*
G01*
X5875000Y-34579250D01*
G75*
G02*
X6093750Y-34360500I218750J0D01*
G01*
X6606250Y-34360500D01*
G75*
G02*
X6825000Y-34579250I0J-218750D01*
G01*
X6825000Y-35016750D01*
G75*
G02*
X6606250Y-35235500I-218750J0D01*
G01*
G37*
G36*
G01*
X6606250Y-36810500D02*
X6093750Y-36810500D01*
G75*
G02*
X5875000Y-36591750I0J218750D01*
G01*
X5875000Y-36154250D01*
G75*
G02*
X6093750Y-35935500I218750J0D01*
G01*
X6606250Y-35935500D01*
G75*
G02*
X6825000Y-36154250I0J-218750D01*
G01*
X6825000Y-36591750D01*
G75*
G02*
X6606250Y-36810500I-218750J0D01*
G01*
G37*
G36*
G01*
X5873000Y-15999750D02*
X5873000Y-16512250D01*
G75*
G02*
X5654250Y-16731000I-218750J0D01*
G01*
X5216750Y-16731000D01*
G75*
G02*
X4998000Y-16512250I0J218750D01*
G01*
X4998000Y-15999750D01*
G75*
G02*
X5216750Y-15781000I218750J0D01*
G01*
X5654250Y-15781000D01*
G75*
G02*
X5873000Y-15999750I0J-218750D01*
G01*
G37*
G36*
G01*
X7448000Y-15999750D02*
X7448000Y-16512250D01*
G75*
G02*
X7229250Y-16731000I-218750J0D01*
G01*
X6791750Y-16731000D01*
G75*
G02*
X6573000Y-16512250I0J218750D01*
G01*
X6573000Y-15999750D01*
G75*
G02*
X6791750Y-15781000I218750J0D01*
G01*
X7229250Y-15781000D01*
G75*
G02*
X7448000Y-15999750I0J-218750D01*
G01*
G37*
D29*
X129540000Y-55880000D03*
D14*
X127040000Y-55880000D03*
X124540000Y-55880000D03*
D30*
X132640000Y-63380000D03*
X121440000Y-63380000D03*
D14*
X129540000Y-70380000D03*
X124540000Y-70380000D03*
D29*
X160253680Y-55798720D03*
D14*
X157753680Y-55798720D03*
X155253680Y-55798720D03*
D30*
X163353680Y-63298720D03*
X152153680Y-63298720D03*
D14*
X160253680Y-70298720D03*
X155253680Y-70298720D03*
D31*
X118721000Y-29591000D03*
D32*
X117821000Y-29591000D03*
D23*
X118721000Y-32131000D03*
D32*
X117821000Y-32131000D03*
D31*
X118721000Y-34671000D03*
D32*
X117821000Y-34671000D03*
D33*
X163591000Y-29706000D03*
X163591000Y-34556000D03*
D34*
X166621000Y-29406000D03*
X166621000Y-34856000D03*
D35*
X118491000Y-22341000D03*
X121031000Y-22341000D03*
X123571000Y-22341000D03*
X126111000Y-22341000D03*
X128651000Y-22341000D03*
X131191000Y-22341000D03*
X133731000Y-22341000D03*
X136271000Y-22341000D03*
X138811000Y-22341000D03*
X141351000Y-22341000D03*
X143891000Y-22341000D03*
X146431000Y-22341000D03*
X148971000Y-22341000D03*
X151511000Y-22341000D03*
X154051000Y-22341000D03*
X156591000Y-22341000D03*
X159131000Y-22341000D03*
X161671000Y-22341000D03*
X164211000Y-22341000D03*
X166751000Y-22341000D03*
X118491000Y-41921000D03*
X121031000Y-41921000D03*
X123571000Y-41921000D03*
X126111000Y-41921000D03*
X128651000Y-41921000D03*
X131191000Y-41921000D03*
X133731000Y-41921000D03*
X136271000Y-41921000D03*
X138811000Y-41921000D03*
X141351000Y-41921000D03*
X143891000Y-41921000D03*
X146431000Y-41921000D03*
X148971000Y-41921000D03*
X151511000Y-41921000D03*
X154051000Y-41921000D03*
X156591000Y-41921000D03*
X159131000Y-41921000D03*
X161671000Y-41921000D03*
X164211000Y-41921000D03*
X166751000Y-41921000D03*
D31*
X166751000Y-23241000D03*
X164211000Y-23241000D03*
D23*
X161671000Y-23241000D03*
D31*
X159131000Y-23241000D03*
X156591000Y-23241000D03*
X154051000Y-23241000D03*
X151511000Y-23241000D03*
D23*
X148971000Y-23241000D03*
D31*
X146431000Y-23241000D03*
X143891000Y-23241000D03*
X141351000Y-23241000D03*
X138811000Y-23241000D03*
D23*
X136271000Y-23241000D03*
D31*
X133731000Y-23241000D03*
X131191000Y-23241000D03*
X128651000Y-23241000D03*
X126111000Y-23241000D03*
D23*
X123571000Y-23241000D03*
D31*
X121031000Y-23241000D03*
X118491000Y-23241000D03*
X118491000Y-41021000D03*
X121031000Y-41021000D03*
D23*
X123571000Y-41021000D03*
D31*
X126111000Y-41021000D03*
X128651000Y-41021000D03*
X131191000Y-41021000D03*
X133731000Y-41021000D03*
D23*
X136271000Y-41021000D03*
D31*
X138811000Y-41021000D03*
X141351000Y-41021000D03*
X143891000Y-41021000D03*
X146431000Y-41021000D03*
D23*
X148971000Y-41021000D03*
D31*
X151511000Y-41021000D03*
X154051000Y-41021000D03*
X156591000Y-41021000D03*
X159131000Y-41021000D03*
D23*
X161671000Y-41021000D03*
D31*
X164211000Y-41021000D03*
X166751000Y-41021000D03*
M02*
