M48
; DRILL file {KiCad (5.1.12)-1} date 06/22/22 09:42:56
; FORMAT={-:-/ absolute / metric / decimal}
; #@! TF.CreationDate,2022-06-22T09:42:56+02:00
; #@! TF.GenerationSoftware,Kicad,Pcbnew,(5.1.12)-1
; #@! TF.FileFunction,Plated,1,2,PTH
FMAT,2
METRIC
T1C0.400
T2C0.600
T3C0.800
T4C1.000
T5C1.020
T6C1.100
T7C1.500
T8C2.700
%
G90
G05
T1
X15.875Y-12.192
X18.161Y-9.652
X19.05Y-8.001
X19.304Y-11.938
X20.574Y-9.525
X25.4Y-39.37
X26.162Y-5.08
X26.67Y-20.32
X26.67Y-58.42
X27.94Y-24.13
X27.94Y-43.18
X27.94Y-62.23
X29.21Y-77.47
X35.56Y-53.34
X36.83Y-7.62
X36.83Y-34.29
X36.83Y-72.39
X36.83Y-88.9
X39.37Y-12.7
X39.37Y-45.72
X39.37Y-85.09
X40.64Y-24.13
X40.64Y-60.96
X46.99Y-13.97
X53.34Y-12.7
X54.61Y-49.53
X55.88Y-33.02
X55.88Y-71.12
X58.42Y-27.94
X58.42Y-41.91
X58.42Y-62.23
X67.31Y-13.97
X73.66Y-71.12
X74.93Y-31.75
X74.93Y-50.8
X77.47Y-13.97
X77.47Y-22.86
X77.47Y-43.18
X77.47Y-62.23
X85.09Y-13.97
X91.44Y-13.97
X92.71Y-33.02
X92.71Y-52.07
X93.98Y-71.12
X96.52Y-43.18
X97.79Y-13.97
X97.79Y-24.13
X97.79Y-60.96
X111.379Y-23.749
X111.887Y-10.795
X112.649Y-23.622
X113.03Y-8.636
X113.411Y-52.07
X114.046Y-12.7
X114.046Y-23.495
X114.935Y-57.912
X115.189Y-48.387
X115.57Y-2.159
X115.824Y-53.213
X116.459Y-48.514
X118.11Y-3.048
X118.11Y-8.89
X118.491Y-1.27
X119.507Y-46.99
X120.015Y-18.669
X120.904Y-3.937
X122.301Y-51.562
X122.936Y-48.006
X123.571Y-4.826
X123.952Y-18.669
X123.952Y-46.355
X126.238Y-5.715
X130.937Y-8.509
X135.941Y-9.868
X136.055Y-15.329
X136.652Y-29.337
X139.065Y-33.909
X139.281Y-35.827
X140.818Y-35.712
X141.351Y-31.115
X141.605Y-9.652
X143.256Y-10.033
X144.78Y-19.05
X147.32Y-19.05
X149.606Y-34.544
X150.114Y-37.465
X152.908Y-37.465
X155.956Y-51.054
X159.639Y-51.181
X162.433Y-51.562
X164.785Y-59.756
X166.37Y-48.895
X167.513Y-55.954
X167.64Y-8.636
X168.656Y-2.413
X168.783Y-8.763
X168.783Y-36.068
X169.799Y-8.89
X170.053Y-20.447
X170.307Y-1.397
X171.069Y-8.89
X171.196Y-20.32
X172.212Y-36.195
X173.863Y-1.016
X174.879Y-51.562
X266.319Y-2.413
T3
X127.381Y-30.226
X127.381Y-32.226
X127.381Y-34.226
X137.16Y-55.88
X137.16Y-60.579
X137.16Y-65.786
X137.212Y-70.463
X147.32Y-55.88
X147.32Y-60.579
X147.32Y-65.786
X147.372Y-70.463
T4
X124.54Y-55.88
X124.54Y-70.38
X127.04Y-55.88
X129.54Y-55.88
X129.54Y-70.38
X133.731Y-5.588
X136.271Y-5.588
X138.811Y-5.588
X141.351Y-5.588
X143.891Y-5.588
X146.431Y-5.588
X148.971Y-5.588
X151.511Y-5.588
X155.254Y-55.799
X155.254Y-70.299
X157.754Y-55.799
X160.254Y-55.799
X160.254Y-70.299
T5
X118.491Y-23.241
X118.491Y-41.021
X118.721Y-29.591
X118.721Y-32.131
X118.721Y-34.671
X121.031Y-23.241
X121.031Y-41.021
X123.571Y-23.241
X123.571Y-41.021
X126.111Y-23.241
X126.111Y-41.021
X128.651Y-23.241
X128.651Y-41.021
X131.191Y-23.241
X131.191Y-41.021
X133.731Y-23.241
X133.731Y-41.021
X136.271Y-23.241
X136.271Y-41.021
X138.811Y-23.241
X138.811Y-41.021
X141.351Y-23.241
X141.351Y-41.021
X143.891Y-23.241
X143.891Y-41.021
X146.431Y-23.241
X146.431Y-41.021
X148.971Y-23.241
X148.971Y-41.021
X151.511Y-23.241
X151.511Y-41.021
X154.051Y-23.241
X154.051Y-41.021
X156.591Y-23.241
X156.591Y-41.021
X159.131Y-23.241
X159.131Y-41.021
X161.671Y-23.241
X161.671Y-41.021
X164.211Y-23.241
X164.211Y-41.021
X166.751Y-23.241
X166.751Y-41.021
T6
X138.938Y-47.498
X138.938Y-51.998
X145.438Y-47.498
X145.438Y-51.998
T7
X5.715Y-6.66
X5.715Y-25.71
X5.715Y-44.897
X5.715Y-63.927
X5.715Y-82.972
X12.065Y-4.12
X12.065Y-23.17
X12.065Y-42.357
X12.065Y-61.387
X12.065Y-80.432
X24.765Y-25.71
X24.765Y-44.76
X24.765Y-63.81
X24.765Y-82.86
X26.162Y-14.351
X31.115Y-23.17
X31.115Y-42.22
X31.115Y-61.27
X31.115Y-80.32
X32.512Y-11.811
X43.759Y-82.845
X43.856Y-44.78
X43.856Y-63.82
X43.866Y-6.731
X43.866Y-25.771
X50.109Y-80.305
X50.206Y-42.24
X50.206Y-61.28
X50.216Y-4.191
X50.216Y-23.231
X62.855Y-82.845
X62.911Y-25.771
X62.911Y-44.76
X62.911Y-63.8
X62.951Y-6.751
X69.205Y-80.305
X69.261Y-23.231
X69.261Y-42.22
X69.261Y-61.26
X69.301Y-4.211
X81.961Y-82.86
X81.996Y-25.735
X81.996Y-44.887
X82.006Y-63.8
X82.032Y-6.716
X88.311Y-80.32
X88.346Y-23.195
X88.346Y-42.347
X88.356Y-61.26
X88.382Y-4.176
X101.092Y-6.751
X101.092Y-25.735
X101.092Y-44.887
X101.102Y-63.851
X107.442Y-4.211
X107.442Y-23.195
X107.442Y-42.347
X107.452Y-61.311
X114.234Y-90.454
X120.584Y-87.914
X165.567Y-90.551
X171.917Y-88.011
X176.139Y-63.978
X176.266Y-6.767
X176.286Y-25.811
X176.286Y-44.861
X182.489Y-61.438
X182.616Y-4.227
X182.636Y-23.271
X182.636Y-42.321
X195.27Y-44.851
X195.27Y-82.936
X195.28Y-63.906
X195.296Y-6.751
X195.296Y-25.806
X201.62Y-42.311
X201.62Y-80.396
X201.63Y-61.366
X201.646Y-4.211
X201.646Y-23.266
X214.315Y-63.851
X214.33Y-44.806
X214.346Y-82.946
X214.361Y-25.756
X214.366Y-6.711
X220.665Y-61.311
X220.68Y-42.266
X220.696Y-80.406
X220.711Y-23.216
X220.716Y-4.171
X233.482Y-25.705
X233.482Y-44.77
X233.482Y-82.834
X233.492Y-6.721
X233.502Y-63.815
X239.832Y-23.165
X239.832Y-42.23
X239.832Y-80.294
X239.842Y-4.181
X239.852Y-61.275
X252.522Y-63.8
X252.522Y-82.814
X252.552Y-44.785
X252.583Y-6.695
X252.598Y-25.72
X258.872Y-61.26
X258.872Y-80.274
X258.902Y-42.245
X258.933Y-4.155
X258.948Y-23.18
X271.546Y-44.806
X271.546Y-63.82
X271.546Y-82.834
X271.562Y-25.776
X271.567Y-6.701
X277.896Y-42.266
X277.896Y-61.28
X277.896Y-80.294
X277.912Y-23.236
X277.917Y-4.161
T8
X38.1Y-41.123
X98.26Y-78.702
X187.007Y-79.07
X246.901Y-41.554
T2
X14.73Y-1.165G85X14.73Y-1.765
G05
X14.73Y-5.095G85X14.73Y-6.195
G05
X23.37Y-1.165G85X23.37Y-1.765
G05
X23.37Y-5.095G85X23.37Y-6.195
G05
T7
X121.44Y-62.73G85X121.44Y-64.03
G05
X132.64Y-62.73G85X132.64Y-64.03
G05
X152.154Y-62.649G85X152.154Y-63.949
G05
X163.354Y-62.649G85X163.354Y-63.949
G05
T0
M30
