%FSLAX45Y45*%
G04 Gerber Fmt 4.5, Leading zero omitted, Abs format (unit mm)*
G04 Created by KiCad (PCBNEW (5.1.12)-1) date 2022-06-22 09:42:56*
%MOMM*%
%LPD*%
G01*
G04 APERTURE LIST*
%TA.AperFunction,Profile*%
%ADD10C,0.050000*%
%TD*%
%ADD11C,0.200000*%
%ADD12C,0.300000*%
G04 APERTURE END LIST*
D10*
X28333700Y0D02*
G75*
G02*
X28498800Y-165100I0J-165100D01*
G01*
X28498800Y-9309100D02*
G75*
G02*
X28346400Y-9461500I-152400J0D01*
G01*
X114300Y-9461500D02*
G75*
G02*
X0Y-9347200I0J114300D01*
G01*
X0Y-127000D02*
G75*
G02*
X127000Y0I127000J0D01*
G01*
X0Y-127000D02*
X0Y-9347200D01*
X114300Y-9461500D02*
X28346400Y-9461500D01*
X28498800Y-165100D02*
X28498800Y-9309100D01*
X127000Y0D02*
X28333700Y0D01*
D11*
X1583500Y-482000D02*
X1648500Y-547000D01*
X1648500Y-482000D02*
X1583500Y-547000D01*
X2161500Y-482000D02*
X2226500Y-547000D01*
X2226500Y-482000D02*
X2161500Y-547000D01*
X16434100Y-2970600D02*
G75*
G03*
X16434100Y-2970600I-75000J0D01*
G01*
X16434100Y-3455600D02*
G75*
G03*
X16434100Y-3455600I-75000J0D01*
G01*
X444500Y-834988D02*
X444500Y-1004988D01*
X359500Y-919988D02*
X529500Y-919988D01*
X444500Y-2739988D02*
X444500Y-2909988D01*
X359500Y-2824988D02*
X529500Y-2824988D01*
X444500Y-4658704D02*
X444500Y-4828704D01*
X359500Y-4743704D02*
X529500Y-4743704D01*
X444500Y-6561672D02*
X444500Y-6731672D01*
X359500Y-6646672D02*
X529500Y-6646672D01*
X444500Y-8466164D02*
X444500Y-8636164D01*
X359500Y-8551164D02*
X529500Y-8551164D01*
X1460500Y-834988D02*
X1460500Y-1004988D01*
X1375500Y-919988D02*
X1545500Y-919988D01*
X1460500Y-2739988D02*
X1460500Y-2909988D01*
X1375500Y-2824988D02*
X1545500Y-2824988D01*
X1460500Y-4658704D02*
X1460500Y-4828704D01*
X1375500Y-4743704D02*
X1545500Y-4743704D01*
X1460500Y-6561672D02*
X1460500Y-6731672D01*
X1375500Y-6646672D02*
X1545500Y-6646672D01*
X1460500Y-8466164D02*
X1460500Y-8636164D01*
X1375500Y-8551164D02*
X1545500Y-8551164D01*
X2349500Y-2739988D02*
X2349500Y-2909988D01*
X2264500Y-2824988D02*
X2434500Y-2824988D01*
X2349500Y-4644988D02*
X2349500Y-4814988D01*
X2264500Y-4729988D02*
X2434500Y-4729988D01*
X2349500Y-6549988D02*
X2349500Y-6719988D01*
X2264500Y-6634988D02*
X2434500Y-6634988D01*
X2349500Y-8454988D02*
X2349500Y-8624988D01*
X2264500Y-8539988D02*
X2434500Y-8539988D01*
X2362200Y-842100D02*
X2362200Y-1012100D01*
X2277200Y-927100D02*
X2447200Y-927100D01*
X3365500Y-2739988D02*
X3365500Y-2909988D01*
X3280500Y-2824988D02*
X3450500Y-2824988D01*
X3365500Y-4644988D02*
X3365500Y-4814988D01*
X3280500Y-4729988D02*
X3450500Y-4729988D01*
X3365500Y-6549988D02*
X3365500Y-6719988D01*
X3280500Y-6634988D02*
X3450500Y-6634988D01*
X3365500Y-8454988D02*
X3365500Y-8624988D01*
X3280500Y-8539988D02*
X3450500Y-8539988D01*
X3378200Y-842100D02*
X3378200Y-1012100D01*
X3293200Y-927100D02*
X3463200Y-927100D01*
X4248912Y-8453464D02*
X4248912Y-8623464D01*
X4163912Y-8538464D02*
X4333912Y-8538464D01*
X4258564Y-4647020D02*
X4258564Y-4817020D01*
X4173564Y-4732020D02*
X4343564Y-4732020D01*
X4258564Y-6551004D02*
X4258564Y-6721004D01*
X4173564Y-6636004D02*
X4343564Y-6636004D01*
X4259580Y-842100D02*
X4259580Y-1012100D01*
X4174580Y-927100D02*
X4344580Y-927100D01*
X4259580Y-2746084D02*
X4259580Y-2916084D01*
X4174580Y-2831084D02*
X4344580Y-2831084D01*
X5264912Y-8453464D02*
X5264912Y-8623464D01*
X5179912Y-8538464D02*
X5349912Y-8538464D01*
X5274564Y-4647020D02*
X5274564Y-4817020D01*
X5189564Y-4732020D02*
X5359564Y-4732020D01*
X5274564Y-6551004D02*
X5274564Y-6721004D01*
X5189564Y-6636004D02*
X5359564Y-6636004D01*
X5275580Y-842100D02*
X5275580Y-1012100D01*
X5190580Y-927100D02*
X5360580Y-927100D01*
X5275580Y-2746084D02*
X5275580Y-2916084D01*
X5190580Y-2831084D02*
X5360580Y-2831084D01*
X6158484Y-8453464D02*
X6158484Y-8623464D01*
X6073484Y-8538464D02*
X6243484Y-8538464D01*
X6164072Y-2746084D02*
X6164072Y-2916084D01*
X6079072Y-2831084D02*
X6249072Y-2831084D01*
X6164072Y-4644988D02*
X6164072Y-4814988D01*
X6079072Y-4729988D02*
X6249072Y-4729988D01*
X6164072Y-6548972D02*
X6164072Y-6718972D01*
X6079072Y-6633972D02*
X6249072Y-6633972D01*
X6168136Y-844132D02*
X6168136Y-1014132D01*
X6083136Y-929132D02*
X6253136Y-929132D01*
X7174484Y-8453464D02*
X7174484Y-8623464D01*
X7089484Y-8538464D02*
X7259484Y-8538464D01*
X7180072Y-2746084D02*
X7180072Y-2916084D01*
X7095072Y-2831084D02*
X7265072Y-2831084D01*
X7180072Y-4644988D02*
X7180072Y-4814988D01*
X7095072Y-4729988D02*
X7265072Y-4729988D01*
X7180072Y-6548972D02*
X7180072Y-6718972D01*
X7095072Y-6633972D02*
X7265072Y-6633972D01*
X7184136Y-844132D02*
X7184136Y-1014132D01*
X7099136Y-929132D02*
X7269136Y-929132D01*
X8069072Y-8454988D02*
X8069072Y-8624988D01*
X7984072Y-8539988D02*
X8154072Y-8539988D01*
X8072628Y-2742528D02*
X8072628Y-2912528D01*
X7987628Y-2827528D02*
X8157628Y-2827528D01*
X8072628Y-4657688D02*
X8072628Y-4827688D01*
X7987628Y-4742688D02*
X8157628Y-4742688D01*
X8073644Y-6548972D02*
X8073644Y-6718972D01*
X7988644Y-6633972D02*
X8158644Y-6633972D01*
X8076184Y-840576D02*
X8076184Y-1010576D01*
X7991184Y-925576D02*
X8161184Y-925576D01*
X9085072Y-8454988D02*
X9085072Y-8624988D01*
X9000072Y-8539988D02*
X9170072Y-8539988D01*
X9088628Y-2742528D02*
X9088628Y-2912528D01*
X9003628Y-2827528D02*
X9173628Y-2827528D01*
X9088628Y-4657688D02*
X9088628Y-4827688D01*
X9003628Y-4742688D02*
X9173628Y-4742688D01*
X9089644Y-6548972D02*
X9089644Y-6718972D01*
X9004644Y-6633972D02*
X9174644Y-6633972D01*
X9092184Y-840576D02*
X9092184Y-1010576D01*
X9007184Y-925576D02*
X9177184Y-925576D01*
X9982200Y-844132D02*
X9982200Y-1014132D01*
X9897200Y-929132D02*
X10067200Y-929132D01*
X9982200Y-2742528D02*
X9982200Y-2912528D01*
X9897200Y-2827528D02*
X10067200Y-2827528D01*
X9982200Y-4657688D02*
X9982200Y-4827688D01*
X9897200Y-4742688D02*
X10067200Y-4742688D01*
X9983216Y-6554052D02*
X9983216Y-6724052D01*
X9898216Y-6639052D02*
X10068216Y-6639052D01*
X10998200Y-844132D02*
X10998200Y-1014132D01*
X10913200Y-929132D02*
X11083200Y-929132D01*
X10998200Y-2742528D02*
X10998200Y-2912528D01*
X10913200Y-2827528D02*
X11083200Y-2827528D01*
X10998200Y-4657688D02*
X10998200Y-4827688D01*
X10913200Y-4742688D02*
X11083200Y-4742688D01*
X10999216Y-6554052D02*
X10999216Y-6724052D01*
X10914216Y-6639052D02*
X11084216Y-6639052D01*
X11169396Y-8452448D02*
X11169396Y-8622448D01*
X11084396Y-8537448D02*
X11254396Y-8537448D01*
X12185396Y-8452448D02*
X12185396Y-8622448D01*
X12100396Y-8537448D02*
X12270396Y-8537448D01*
X16302736Y-8462100D02*
X16302736Y-8632100D01*
X16217736Y-8547100D02*
X16387736Y-8547100D01*
X17318736Y-8462100D02*
X17318736Y-8632100D01*
X17233736Y-8547100D02*
X17403736Y-8547100D01*
X17486884Y-6566752D02*
X17486884Y-6736752D01*
X17401884Y-6651752D02*
X17571884Y-6651752D01*
X17499584Y-845656D02*
X17499584Y-1015656D01*
X17414584Y-930656D02*
X17584584Y-930656D01*
X17501616Y-2750148D02*
X17501616Y-2920148D01*
X17416616Y-2835148D02*
X17586616Y-2835148D01*
X17501616Y-4655148D02*
X17501616Y-4825148D01*
X17416616Y-4740148D02*
X17586616Y-4740148D01*
X18502884Y-6566752D02*
X18502884Y-6736752D01*
X18417884Y-6651752D02*
X18587884Y-6651752D01*
X18515584Y-845656D02*
X18515584Y-1015656D01*
X18430584Y-930656D02*
X18600584Y-930656D01*
X18517616Y-2750148D02*
X18517616Y-2920148D01*
X18432616Y-2835148D02*
X18602616Y-2835148D01*
X18517616Y-4655148D02*
X18517616Y-4825148D01*
X18432616Y-4740148D02*
X18602616Y-4740148D01*
X19400012Y-4654132D02*
X19400012Y-4824132D01*
X19315012Y-4739132D02*
X19485012Y-4739132D01*
X19400012Y-8462608D02*
X19400012Y-8632608D01*
X19315012Y-8547608D02*
X19485012Y-8547608D01*
X19401028Y-6559640D02*
X19401028Y-6729640D01*
X19316028Y-6644640D02*
X19486028Y-6644640D01*
X19402552Y-844132D02*
X19402552Y-1014132D01*
X19317552Y-929132D02*
X19487552Y-929132D01*
X19402552Y-2749640D02*
X19402552Y-2919640D01*
X19317552Y-2834640D02*
X19487552Y-2834640D01*
X20416012Y-4654132D02*
X20416012Y-4824132D01*
X20331012Y-4739132D02*
X20501012Y-4739132D01*
X20416012Y-8462608D02*
X20416012Y-8632608D01*
X20331012Y-8547608D02*
X20501012Y-8547608D01*
X20417028Y-6559640D02*
X20417028Y-6729640D01*
X20332028Y-6644640D02*
X20502028Y-6644640D01*
X20418552Y-844132D02*
X20418552Y-1014132D01*
X20333552Y-929132D02*
X20503552Y-929132D01*
X20418552Y-2749640D02*
X20418552Y-2919640D01*
X20333552Y-2834640D02*
X20503552Y-2834640D01*
X21304504Y-6554052D02*
X21304504Y-6724052D01*
X21219504Y-6639052D02*
X21389504Y-6639052D01*
X21306028Y-4649560D02*
X21306028Y-4819560D01*
X21221028Y-4734560D02*
X21391028Y-4734560D01*
X21307552Y-8463624D02*
X21307552Y-8633624D01*
X21222552Y-8548624D02*
X21392552Y-8548624D01*
X21309076Y-2744560D02*
X21309076Y-2914560D01*
X21224076Y-2829560D02*
X21394076Y-2829560D01*
X21309584Y-840068D02*
X21309584Y-1010068D01*
X21224584Y-925068D02*
X21394584Y-925068D01*
X22320504Y-6554052D02*
X22320504Y-6724052D01*
X22235504Y-6639052D02*
X22405504Y-6639052D01*
X22322028Y-4649560D02*
X22322028Y-4819560D01*
X22237028Y-4734560D02*
X22407028Y-4734560D01*
X22323552Y-8463624D02*
X22323552Y-8633624D01*
X22238552Y-8548624D02*
X22408552Y-8548624D01*
X22325076Y-2744560D02*
X22325076Y-2914560D01*
X22240076Y-2829560D02*
X22410076Y-2829560D01*
X22325584Y-840068D02*
X22325584Y-1010068D01*
X22240584Y-925068D02*
X22410584Y-925068D01*
X23221188Y-2739480D02*
X23221188Y-2909480D01*
X23136188Y-2824480D02*
X23306188Y-2824480D01*
X23221188Y-4646004D02*
X23221188Y-4816004D01*
X23136188Y-4731004D02*
X23306188Y-4731004D01*
X23221188Y-8452448D02*
X23221188Y-8622448D01*
X23136188Y-8537448D02*
X23306188Y-8537448D01*
X23222204Y-841084D02*
X23222204Y-1011084D01*
X23137204Y-926084D02*
X23307204Y-926084D01*
X23223220Y-6550496D02*
X23223220Y-6720496D01*
X23138220Y-6635496D02*
X23308220Y-6635496D01*
X24237188Y-2739480D02*
X24237188Y-2909480D01*
X24152188Y-2824480D02*
X24322188Y-2824480D01*
X24237188Y-4646004D02*
X24237188Y-4816004D01*
X24152188Y-4731004D02*
X24322188Y-4731004D01*
X24237188Y-8452448D02*
X24237188Y-8622448D01*
X24152188Y-8537448D02*
X24322188Y-8537448D01*
X24238204Y-841084D02*
X24238204Y-1011084D01*
X24153204Y-926084D02*
X24323204Y-926084D01*
X24239220Y-6550496D02*
X24239220Y-6720496D01*
X24154220Y-6635496D02*
X24324220Y-6635496D01*
X25125172Y-6548972D02*
X25125172Y-6718972D01*
X25040172Y-6633972D02*
X25210172Y-6633972D01*
X25125172Y-8450416D02*
X25125172Y-8620416D01*
X25040172Y-8535416D02*
X25210172Y-8535416D01*
X25128220Y-4647528D02*
X25128220Y-4817528D01*
X25043220Y-4732528D02*
X25213220Y-4732528D01*
X25131268Y-838544D02*
X25131268Y-1008544D01*
X25046268Y-923544D02*
X25216268Y-923544D01*
X25132792Y-2741004D02*
X25132792Y-2911004D01*
X25047792Y-2826004D02*
X25217792Y-2826004D01*
X26141172Y-6548972D02*
X26141172Y-6718972D01*
X26056172Y-6633972D02*
X26226172Y-6633972D01*
X26141172Y-8450416D02*
X26141172Y-8620416D01*
X26056172Y-8535416D02*
X26226172Y-8535416D01*
X26144220Y-4647528D02*
X26144220Y-4817528D01*
X26059220Y-4732528D02*
X26229220Y-4732528D01*
X26147268Y-838544D02*
X26147268Y-1008544D01*
X26062268Y-923544D02*
X26232268Y-923544D01*
X26148792Y-2741004D02*
X26148792Y-2911004D01*
X26063792Y-2826004D02*
X26233792Y-2826004D01*
X27027632Y-4649560D02*
X27027632Y-4819560D01*
X26942632Y-4734560D02*
X27112632Y-4734560D01*
X27027632Y-6551004D02*
X27027632Y-6721004D01*
X26942632Y-6636004D02*
X27112632Y-6636004D01*
X27027632Y-8452448D02*
X27027632Y-8622448D01*
X26942632Y-8537448D02*
X27112632Y-8537448D01*
X27029156Y-2746592D02*
X27029156Y-2916592D01*
X26944156Y-2831592D02*
X27114156Y-2831592D01*
X27029664Y-839052D02*
X27029664Y-1009052D01*
X26944664Y-924052D02*
X27114664Y-924052D01*
X28043632Y-4649560D02*
X28043632Y-4819560D01*
X27958632Y-4734560D02*
X28128632Y-4734560D01*
X28043632Y-6551004D02*
X28043632Y-6721004D01*
X27958632Y-6636004D02*
X28128632Y-6636004D01*
X28043632Y-8452448D02*
X28043632Y-8622448D01*
X27958632Y-8537448D02*
X28128632Y-8537448D01*
X28045156Y-2746592D02*
X28045156Y-2916592D01*
X27960156Y-2831592D02*
X28130156Y-2831592D01*
X28045664Y-839052D02*
X28045664Y-1009052D01*
X27960664Y-924052D02*
X28130664Y-924052D01*
X16725740Y-3004240D02*
X16725740Y-2876960D01*
X16598460Y-2876960D01*
X16598460Y-3004240D01*
X16725740Y-3004240D01*
X16725740Y-3549240D02*
X16725740Y-3421960D01*
X16598460Y-3421960D01*
X16598460Y-3549240D01*
X16725740Y-3549240D01*
X10487396Y-9389948D02*
X10639896Y-9237448D01*
X10487396Y-9084948D01*
X10334896Y-9237448D01*
X10487396Y-9389948D01*
X12867396Y-9389948D02*
X13019896Y-9237448D01*
X12867396Y-9084948D01*
X12714896Y-9237448D01*
X12867396Y-9389948D01*
X15620736Y-9399600D02*
X15773236Y-9247100D01*
X15620736Y-9094600D01*
X15468236Y-9247100D01*
X15620736Y-9399600D01*
X18000736Y-9399600D02*
X18153236Y-9247100D01*
X18000736Y-9094600D01*
X17848236Y-9247100D01*
X18000736Y-9399600D01*
X752500Y-719988D02*
X1152500Y-1119988D01*
X1152500Y-719988D02*
X752500Y-1119988D01*
X1152500Y-919988D02*
G75*
G03*
X1152500Y-919988I-200000J0D01*
G01*
X752500Y-2624988D02*
X1152500Y-3024988D01*
X1152500Y-2624988D02*
X752500Y-3024988D01*
X1152500Y-2824988D02*
G75*
G03*
X1152500Y-2824988I-200000J0D01*
G01*
X752500Y-4543704D02*
X1152500Y-4943704D01*
X1152500Y-4543704D02*
X752500Y-4943704D01*
X1152500Y-4743704D02*
G75*
G03*
X1152500Y-4743704I-200000J0D01*
G01*
X752500Y-6446672D02*
X1152500Y-6846672D01*
X1152500Y-6446672D02*
X752500Y-6846672D01*
X1152500Y-6646672D02*
G75*
G03*
X1152500Y-6646672I-200000J0D01*
G01*
X752500Y-8351164D02*
X1152500Y-8751164D01*
X1152500Y-8351164D02*
X752500Y-8751164D01*
X1152500Y-8551164D02*
G75*
G03*
X1152500Y-8551164I-200000J0D01*
G01*
X2657500Y-2624988D02*
X3057500Y-3024988D01*
X3057500Y-2624988D02*
X2657500Y-3024988D01*
X3057500Y-2824988D02*
G75*
G03*
X3057500Y-2824988I-200000J0D01*
G01*
X2657500Y-4529988D02*
X3057500Y-4929988D01*
X3057500Y-4529988D02*
X2657500Y-4929988D01*
X3057500Y-4729988D02*
G75*
G03*
X3057500Y-4729988I-200000J0D01*
G01*
X2657500Y-6434988D02*
X3057500Y-6834988D01*
X3057500Y-6434988D02*
X2657500Y-6834988D01*
X3057500Y-6634988D02*
G75*
G03*
X3057500Y-6634988I-200000J0D01*
G01*
X2657500Y-8339988D02*
X3057500Y-8739988D01*
X3057500Y-8339988D02*
X2657500Y-8739988D01*
X3057500Y-8539988D02*
G75*
G03*
X3057500Y-8539988I-200000J0D01*
G01*
X2670200Y-727100D02*
X3070200Y-1127100D01*
X3070200Y-727100D02*
X2670200Y-1127100D01*
X3070200Y-927100D02*
G75*
G03*
X3070200Y-927100I-200000J0D01*
G01*
X4556912Y-8338464D02*
X4956912Y-8738464D01*
X4956912Y-8338464D02*
X4556912Y-8738464D01*
X4956912Y-8538464D02*
G75*
G03*
X4956912Y-8538464I-200000J0D01*
G01*
X4566564Y-4532020D02*
X4966564Y-4932020D01*
X4966564Y-4532020D02*
X4566564Y-4932020D01*
X4966564Y-4732020D02*
G75*
G03*
X4966564Y-4732020I-200000J0D01*
G01*
X4566564Y-6436004D02*
X4966564Y-6836004D01*
X4966564Y-6436004D02*
X4566564Y-6836004D01*
X4966564Y-6636004D02*
G75*
G03*
X4966564Y-6636004I-200000J0D01*
G01*
X4567580Y-727100D02*
X4967580Y-1127100D01*
X4967580Y-727100D02*
X4567580Y-1127100D01*
X4967580Y-927100D02*
G75*
G03*
X4967580Y-927100I-200000J0D01*
G01*
X4567580Y-2631084D02*
X4967580Y-3031084D01*
X4967580Y-2631084D02*
X4567580Y-3031084D01*
X4967580Y-2831084D02*
G75*
G03*
X4967580Y-2831084I-200000J0D01*
G01*
X6466484Y-8338464D02*
X6866484Y-8738464D01*
X6866484Y-8338464D02*
X6466484Y-8738464D01*
X6866484Y-8538464D02*
G75*
G03*
X6866484Y-8538464I-200000J0D01*
G01*
X6472072Y-2631084D02*
X6872072Y-3031084D01*
X6872072Y-2631084D02*
X6472072Y-3031084D01*
X6872072Y-2831084D02*
G75*
G03*
X6872072Y-2831084I-200000J0D01*
G01*
X6472072Y-4529988D02*
X6872072Y-4929988D01*
X6872072Y-4529988D02*
X6472072Y-4929988D01*
X6872072Y-4729988D02*
G75*
G03*
X6872072Y-4729988I-200000J0D01*
G01*
X6472072Y-6433972D02*
X6872072Y-6833972D01*
X6872072Y-6433972D02*
X6472072Y-6833972D01*
X6872072Y-6633972D02*
G75*
G03*
X6872072Y-6633972I-200000J0D01*
G01*
X6476136Y-729132D02*
X6876136Y-1129132D01*
X6876136Y-729132D02*
X6476136Y-1129132D01*
X6876136Y-929132D02*
G75*
G03*
X6876136Y-929132I-200000J0D01*
G01*
X8377072Y-8339988D02*
X8777072Y-8739988D01*
X8777072Y-8339988D02*
X8377072Y-8739988D01*
X8777072Y-8539988D02*
G75*
G03*
X8777072Y-8539988I-200000J0D01*
G01*
X8380628Y-2627528D02*
X8780628Y-3027528D01*
X8780628Y-2627528D02*
X8380628Y-3027528D01*
X8780628Y-2827528D02*
G75*
G03*
X8780628Y-2827528I-200000J0D01*
G01*
X8380628Y-4542688D02*
X8780628Y-4942688D01*
X8780628Y-4542688D02*
X8380628Y-4942688D01*
X8780628Y-4742688D02*
G75*
G03*
X8780628Y-4742688I-200000J0D01*
G01*
X8381644Y-6433972D02*
X8781644Y-6833972D01*
X8781644Y-6433972D02*
X8381644Y-6833972D01*
X8781644Y-6633972D02*
G75*
G03*
X8781644Y-6633972I-200000J0D01*
G01*
X8384184Y-725576D02*
X8784184Y-1125576D01*
X8784184Y-725576D02*
X8384184Y-1125576D01*
X8784184Y-925576D02*
G75*
G03*
X8784184Y-925576I-200000J0D01*
G01*
X10287396Y-7513448D02*
X10687396Y-7913448D01*
X10687396Y-7513448D02*
X10287396Y-7913448D01*
X10687396Y-7713448D02*
G75*
G03*
X10687396Y-7713448I-200000J0D01*
G01*
X10290200Y-729132D02*
X10690200Y-1129132D01*
X10690200Y-729132D02*
X10290200Y-1129132D01*
X10690200Y-929132D02*
G75*
G03*
X10690200Y-929132I-200000J0D01*
G01*
X10290200Y-2627528D02*
X10690200Y-3027528D01*
X10690200Y-2627528D02*
X10290200Y-3027528D01*
X10690200Y-2827528D02*
G75*
G03*
X10690200Y-2827528I-200000J0D01*
G01*
X10290200Y-4542688D02*
X10690200Y-4942688D01*
X10690200Y-4542688D02*
X10290200Y-4942688D01*
X10690200Y-4742688D02*
G75*
G03*
X10690200Y-4742688I-200000J0D01*
G01*
X10291216Y-6439052D02*
X10691216Y-6839052D01*
X10691216Y-6439052D02*
X10291216Y-6839052D01*
X10691216Y-6639052D02*
G75*
G03*
X10691216Y-6639052I-200000J0D01*
G01*
X11477396Y-8337448D02*
X11877396Y-8737448D01*
X11877396Y-8337448D02*
X11477396Y-8737448D01*
X11877396Y-8537448D02*
G75*
G03*
X11877396Y-8537448I-200000J0D01*
G01*
X12667396Y-7513448D02*
X13067396Y-7913448D01*
X13067396Y-7513448D02*
X12667396Y-7913448D01*
X13067396Y-7713448D02*
G75*
G03*
X13067396Y-7713448I-200000J0D01*
G01*
X15420736Y-7523100D02*
X15820736Y-7923100D01*
X15820736Y-7523100D02*
X15420736Y-7923100D01*
X15820736Y-7723100D02*
G75*
G03*
X15820736Y-7723100I-200000J0D01*
G01*
X16610736Y-8347100D02*
X17010736Y-8747100D01*
X17010736Y-8347100D02*
X16610736Y-8747100D01*
X17010736Y-8547100D02*
G75*
G03*
X17010736Y-8547100I-200000J0D01*
G01*
X17794884Y-6451752D02*
X18194884Y-6851752D01*
X18194884Y-6451752D02*
X17794884Y-6851752D01*
X18194884Y-6651752D02*
G75*
G03*
X18194884Y-6651752I-200000J0D01*
G01*
X17800736Y-7523100D02*
X18200736Y-7923100D01*
X18200736Y-7523100D02*
X17800736Y-7923100D01*
X18200736Y-7723100D02*
G75*
G03*
X18200736Y-7723100I-200000J0D01*
G01*
X17807584Y-730656D02*
X18207584Y-1130656D01*
X18207584Y-730656D02*
X17807584Y-1130656D01*
X18207584Y-930656D02*
G75*
G03*
X18207584Y-930656I-200000J0D01*
G01*
X17809616Y-2635148D02*
X18209616Y-3035148D01*
X18209616Y-2635148D02*
X17809616Y-3035148D01*
X18209616Y-2835148D02*
G75*
G03*
X18209616Y-2835148I-200000J0D01*
G01*
X17809616Y-4540148D02*
X18209616Y-4940148D01*
X18209616Y-4540148D02*
X17809616Y-4940148D01*
X18209616Y-4740148D02*
G75*
G03*
X18209616Y-4740148I-200000J0D01*
G01*
X19708012Y-4539132D02*
X20108012Y-4939132D01*
X20108012Y-4539132D02*
X19708012Y-4939132D01*
X20108012Y-4739132D02*
G75*
G03*
X20108012Y-4739132I-200000J0D01*
G01*
X19708012Y-8347608D02*
X20108012Y-8747608D01*
X20108012Y-8347608D02*
X19708012Y-8747608D01*
X20108012Y-8547608D02*
G75*
G03*
X20108012Y-8547608I-200000J0D01*
G01*
X19709028Y-6444640D02*
X20109028Y-6844640D01*
X20109028Y-6444640D02*
X19709028Y-6844640D01*
X20109028Y-6644640D02*
G75*
G03*
X20109028Y-6644640I-200000J0D01*
G01*
X19710552Y-729132D02*
X20110552Y-1129132D01*
X20110552Y-729132D02*
X19710552Y-1129132D01*
X20110552Y-929132D02*
G75*
G03*
X20110552Y-929132I-200000J0D01*
G01*
X19710552Y-2634640D02*
X20110552Y-3034640D01*
X20110552Y-2634640D02*
X19710552Y-3034640D01*
X20110552Y-2834640D02*
G75*
G03*
X20110552Y-2834640I-200000J0D01*
G01*
X21612504Y-6439052D02*
X22012504Y-6839052D01*
X22012504Y-6439052D02*
X21612504Y-6839052D01*
X22012504Y-6639052D02*
G75*
G03*
X22012504Y-6639052I-200000J0D01*
G01*
X21614028Y-4534560D02*
X22014028Y-4934560D01*
X22014028Y-4534560D02*
X21614028Y-4934560D01*
X22014028Y-4734560D02*
G75*
G03*
X22014028Y-4734560I-200000J0D01*
G01*
X21615552Y-8348624D02*
X22015552Y-8748624D01*
X22015552Y-8348624D02*
X21615552Y-8748624D01*
X22015552Y-8548624D02*
G75*
G03*
X22015552Y-8548624I-200000J0D01*
G01*
X21617076Y-2629560D02*
X22017076Y-3029560D01*
X22017076Y-2629560D02*
X21617076Y-3029560D01*
X22017076Y-2829560D02*
G75*
G03*
X22017076Y-2829560I-200000J0D01*
G01*
X21617584Y-725068D02*
X22017584Y-1125068D01*
X22017584Y-725068D02*
X21617584Y-1125068D01*
X22017584Y-925068D02*
G75*
G03*
X22017584Y-925068I-200000J0D01*
G01*
X23529188Y-2624480D02*
X23929188Y-3024480D01*
X23929188Y-2624480D02*
X23529188Y-3024480D01*
X23929188Y-2824480D02*
G75*
G03*
X23929188Y-2824480I-200000J0D01*
G01*
X23529188Y-4531004D02*
X23929188Y-4931004D01*
X23929188Y-4531004D02*
X23529188Y-4931004D01*
X23929188Y-4731004D02*
G75*
G03*
X23929188Y-4731004I-200000J0D01*
G01*
X23529188Y-8337448D02*
X23929188Y-8737448D01*
X23929188Y-8337448D02*
X23529188Y-8737448D01*
X23929188Y-8537448D02*
G75*
G03*
X23929188Y-8537448I-200000J0D01*
G01*
X23530204Y-726084D02*
X23930204Y-1126084D01*
X23930204Y-726084D02*
X23530204Y-1126084D01*
X23930204Y-926084D02*
G75*
G03*
X23930204Y-926084I-200000J0D01*
G01*
X23531220Y-6435496D02*
X23931220Y-6835496D01*
X23931220Y-6435496D02*
X23531220Y-6835496D01*
X23931220Y-6635496D02*
G75*
G03*
X23931220Y-6635496I-200000J0D01*
G01*
X25433172Y-6433972D02*
X25833172Y-6833972D01*
X25833172Y-6433972D02*
X25433172Y-6833972D01*
X25833172Y-6633972D02*
G75*
G03*
X25833172Y-6633972I-200000J0D01*
G01*
X25433172Y-8335416D02*
X25833172Y-8735416D01*
X25833172Y-8335416D02*
X25433172Y-8735416D01*
X25833172Y-8535416D02*
G75*
G03*
X25833172Y-8535416I-200000J0D01*
G01*
X25436220Y-4532528D02*
X25836220Y-4932528D01*
X25836220Y-4532528D02*
X25436220Y-4932528D01*
X25836220Y-4732528D02*
G75*
G03*
X25836220Y-4732528I-200000J0D01*
G01*
X25439268Y-723544D02*
X25839268Y-1123544D01*
X25839268Y-723544D02*
X25439268Y-1123544D01*
X25839268Y-923544D02*
G75*
G03*
X25839268Y-923544I-200000J0D01*
G01*
X25440792Y-2626004D02*
X25840792Y-3026004D01*
X25840792Y-2626004D02*
X25440792Y-3026004D01*
X25840792Y-2826004D02*
G75*
G03*
X25840792Y-2826004I-200000J0D01*
G01*
X27335632Y-4534560D02*
X27735632Y-4934560D01*
X27735632Y-4534560D02*
X27335632Y-4934560D01*
X27735632Y-4734560D02*
G75*
G03*
X27735632Y-4734560I-200000J0D01*
G01*
X27335632Y-6436004D02*
X27735632Y-6836004D01*
X27735632Y-6436004D02*
X27335632Y-6836004D01*
X27735632Y-6636004D02*
G75*
G03*
X27735632Y-6636004I-200000J0D01*
G01*
X27335632Y-8337448D02*
X27735632Y-8737448D01*
X27735632Y-8337448D02*
X27335632Y-8737448D01*
X27735632Y-8537448D02*
G75*
G03*
X27735632Y-8537448I-200000J0D01*
G01*
X27337156Y-2631592D02*
X27737156Y-3031592D01*
X27737156Y-2631592D02*
X27337156Y-3031592D01*
X27737156Y-2831592D02*
G75*
G03*
X27737156Y-2831592I-200000J0D01*
G01*
X27337664Y-724052D02*
X27737664Y-1124052D01*
X27737664Y-724052D02*
X27337664Y-1124052D01*
X27737664Y-924052D02*
G75*
G03*
X27737664Y-924052I-200000J0D01*
G01*
D12*
X283928Y-9929714D02*
X283928Y-9629714D01*
X355357Y-9629714D01*
X398214Y-9644000D01*
X426786Y-9672572D01*
X441071Y-9701143D01*
X455357Y-9758286D01*
X455357Y-9801143D01*
X441071Y-9858286D01*
X426786Y-9886857D01*
X398214Y-9915429D01*
X355357Y-9929714D01*
X283928Y-9929714D01*
X583928Y-9929714D02*
X583928Y-9729714D01*
X583928Y-9786857D02*
X598214Y-9758286D01*
X612500Y-9744000D01*
X641071Y-9729714D01*
X669643Y-9729714D01*
X769643Y-9929714D02*
X769643Y-9729714D01*
X769643Y-9629714D02*
X755357Y-9644000D01*
X769643Y-9658286D01*
X783928Y-9644000D01*
X769643Y-9629714D01*
X769643Y-9658286D01*
X955357Y-9929714D02*
X926786Y-9915429D01*
X912500Y-9886857D01*
X912500Y-9629714D01*
X1112500Y-9929714D02*
X1083928Y-9915429D01*
X1069643Y-9886857D01*
X1069643Y-9629714D01*
X1455357Y-9929714D02*
X1455357Y-9629714D01*
X1555357Y-9844000D01*
X1655357Y-9629714D01*
X1655357Y-9929714D01*
X1926786Y-9929714D02*
X1926786Y-9772572D01*
X1912500Y-9744000D01*
X1883928Y-9729714D01*
X1826786Y-9729714D01*
X1798214Y-9744000D01*
X1926786Y-9915429D02*
X1898214Y-9929714D01*
X1826786Y-9929714D01*
X1798214Y-9915429D01*
X1783928Y-9886857D01*
X1783928Y-9858286D01*
X1798214Y-9829714D01*
X1826786Y-9815429D01*
X1898214Y-9815429D01*
X1926786Y-9801143D01*
X2069643Y-9729714D02*
X2069643Y-10029714D01*
X2069643Y-9744000D02*
X2098214Y-9729714D01*
X2155357Y-9729714D01*
X2183928Y-9744000D01*
X2198214Y-9758286D01*
X2212500Y-9786857D01*
X2212500Y-9872572D01*
X2198214Y-9901143D01*
X2183928Y-9915429D01*
X2155357Y-9929714D01*
X2098214Y-9929714D01*
X2069643Y-9915429D01*
X2341071Y-9901143D02*
X2355357Y-9915429D01*
X2341071Y-9929714D01*
X2326786Y-9915429D01*
X2341071Y-9901143D01*
X2341071Y-9929714D01*
X2341071Y-9744000D02*
X2355357Y-9758286D01*
X2341071Y-9772572D01*
X2326786Y-9758286D01*
X2341071Y-9744000D01*
X2341071Y-9772572D01*
X-67500Y-10391500D02*
X-2500Y-10456500D01*
X-2500Y-10391500D02*
X-67500Y-10456500D01*
X341071Y-10259714D02*
X369643Y-10259714D01*
X398214Y-10274000D01*
X412500Y-10288286D01*
X426786Y-10316857D01*
X441071Y-10374000D01*
X441071Y-10445429D01*
X426786Y-10502572D01*
X412500Y-10531143D01*
X398214Y-10545429D01*
X369643Y-10559714D01*
X341071Y-10559714D01*
X312500Y-10545429D01*
X298214Y-10531143D01*
X283928Y-10502572D01*
X269643Y-10445429D01*
X269643Y-10374000D01*
X283928Y-10316857D01*
X298214Y-10288286D01*
X312500Y-10274000D01*
X341071Y-10259714D01*
X569643Y-10531143D02*
X583928Y-10545429D01*
X569643Y-10559714D01*
X555357Y-10545429D01*
X569643Y-10531143D01*
X569643Y-10559714D01*
X841071Y-10259714D02*
X783928Y-10259714D01*
X755357Y-10274000D01*
X741071Y-10288286D01*
X712500Y-10331143D01*
X698214Y-10388286D01*
X698214Y-10502572D01*
X712500Y-10531143D01*
X726786Y-10545429D01*
X755357Y-10559714D01*
X812500Y-10559714D01*
X841071Y-10545429D01*
X855357Y-10531143D01*
X869643Y-10502572D01*
X869643Y-10431143D01*
X855357Y-10402572D01*
X841071Y-10388286D01*
X812500Y-10374000D01*
X755357Y-10374000D01*
X726786Y-10388286D01*
X712500Y-10402572D01*
X698214Y-10431143D01*
X1141071Y-10259714D02*
X998214Y-10259714D01*
X983928Y-10402572D01*
X998214Y-10388286D01*
X1026786Y-10374000D01*
X1098214Y-10374000D01*
X1126786Y-10388286D01*
X1141071Y-10402572D01*
X1155357Y-10431143D01*
X1155357Y-10502572D01*
X1141071Y-10531143D01*
X1126786Y-10545429D01*
X1098214Y-10559714D01*
X1026786Y-10559714D01*
X998214Y-10545429D01*
X983928Y-10531143D01*
X1341071Y-10259714D02*
X1369643Y-10259714D01*
X1398214Y-10274000D01*
X1412500Y-10288286D01*
X1426786Y-10316857D01*
X1441071Y-10374000D01*
X1441071Y-10445429D01*
X1426786Y-10502572D01*
X1412500Y-10531143D01*
X1398214Y-10545429D01*
X1369643Y-10559714D01*
X1341071Y-10559714D01*
X1312500Y-10545429D01*
X1298214Y-10531143D01*
X1283928Y-10502572D01*
X1269643Y-10445429D01*
X1269643Y-10374000D01*
X1283928Y-10316857D01*
X1298214Y-10288286D01*
X1312500Y-10274000D01*
X1341071Y-10259714D01*
X1569643Y-10559714D02*
X1569643Y-10359714D01*
X1569643Y-10388286D02*
X1583928Y-10374000D01*
X1612500Y-10359714D01*
X1655357Y-10359714D01*
X1683928Y-10374000D01*
X1698214Y-10402572D01*
X1698214Y-10559714D01*
X1698214Y-10402572D02*
X1712500Y-10374000D01*
X1741071Y-10359714D01*
X1783928Y-10359714D01*
X1812500Y-10374000D01*
X1826786Y-10402572D01*
X1826786Y-10559714D01*
X1969643Y-10559714D02*
X1969643Y-10359714D01*
X1969643Y-10388286D02*
X1983928Y-10374000D01*
X2012500Y-10359714D01*
X2055357Y-10359714D01*
X2083928Y-10374000D01*
X2098214Y-10402572D01*
X2098214Y-10559714D01*
X2098214Y-10402572D02*
X2112500Y-10374000D01*
X2141071Y-10359714D01*
X2183928Y-10359714D01*
X2212500Y-10374000D01*
X2226786Y-10402572D01*
X2226786Y-10559714D01*
X2812500Y-10245429D02*
X2555357Y-10631143D01*
X3198214Y-10259714D02*
X3226786Y-10259714D01*
X3255357Y-10274000D01*
X3269643Y-10288286D01*
X3283928Y-10316857D01*
X3298214Y-10374000D01*
X3298214Y-10445429D01*
X3283928Y-10502572D01*
X3269643Y-10531143D01*
X3255357Y-10545429D01*
X3226786Y-10559714D01*
X3198214Y-10559714D01*
X3169643Y-10545429D01*
X3155357Y-10531143D01*
X3141071Y-10502572D01*
X3126786Y-10445429D01*
X3126786Y-10374000D01*
X3141071Y-10316857D01*
X3155357Y-10288286D01*
X3169643Y-10274000D01*
X3198214Y-10259714D01*
X3426786Y-10531143D02*
X3441071Y-10545429D01*
X3426786Y-10559714D01*
X3412500Y-10545429D01*
X3426786Y-10531143D01*
X3426786Y-10559714D01*
X3626786Y-10259714D02*
X3655357Y-10259714D01*
X3683928Y-10274000D01*
X3698214Y-10288286D01*
X3712500Y-10316857D01*
X3726786Y-10374000D01*
X3726786Y-10445429D01*
X3712500Y-10502572D01*
X3698214Y-10531143D01*
X3683928Y-10545429D01*
X3655357Y-10559714D01*
X3626786Y-10559714D01*
X3598214Y-10545429D01*
X3583928Y-10531143D01*
X3569643Y-10502572D01*
X3555357Y-10445429D01*
X3555357Y-10374000D01*
X3569643Y-10316857D01*
X3583928Y-10288286D01*
X3598214Y-10274000D01*
X3626786Y-10259714D01*
X3841071Y-10288286D02*
X3855357Y-10274000D01*
X3883928Y-10259714D01*
X3955357Y-10259714D01*
X3983928Y-10274000D01*
X3998214Y-10288286D01*
X4012500Y-10316857D01*
X4012500Y-10345429D01*
X3998214Y-10388286D01*
X3826786Y-10559714D01*
X4012500Y-10559714D01*
X4283928Y-10259714D02*
X4141071Y-10259714D01*
X4126786Y-10402572D01*
X4141071Y-10388286D01*
X4169643Y-10374000D01*
X4241071Y-10374000D01*
X4269643Y-10388286D01*
X4283928Y-10402572D01*
X4298214Y-10431143D01*
X4298214Y-10502572D01*
X4283928Y-10531143D01*
X4269643Y-10545429D01*
X4241071Y-10559714D01*
X4169643Y-10559714D01*
X4141071Y-10545429D01*
X4126786Y-10531143D01*
X4555357Y-10259714D02*
X4498214Y-10259714D01*
X4469643Y-10274000D01*
X4455357Y-10288286D01*
X4426786Y-10331143D01*
X4412500Y-10388286D01*
X4412500Y-10502572D01*
X4426786Y-10531143D01*
X4441071Y-10545429D01*
X4469643Y-10559714D01*
X4526786Y-10559714D01*
X4555357Y-10545429D01*
X4569643Y-10531143D01*
X4583928Y-10502572D01*
X4583928Y-10431143D01*
X4569643Y-10402572D01*
X4555357Y-10388286D01*
X4526786Y-10374000D01*
X4469643Y-10374000D01*
X4441071Y-10388286D01*
X4426786Y-10402572D01*
X4412500Y-10431143D01*
X4698214Y-10259714D02*
X4698214Y-10316857D01*
X4812500Y-10259714D02*
X4812500Y-10316857D01*
X5255357Y-10674000D02*
X5241071Y-10659714D01*
X5212500Y-10616857D01*
X5198214Y-10588286D01*
X5183928Y-10545429D01*
X5169643Y-10474000D01*
X5169643Y-10416857D01*
X5183928Y-10345429D01*
X5198214Y-10302572D01*
X5212500Y-10274000D01*
X5241071Y-10231143D01*
X5255357Y-10216857D01*
X5355357Y-10288286D02*
X5369643Y-10274000D01*
X5398214Y-10259714D01*
X5469643Y-10259714D01*
X5498214Y-10274000D01*
X5512500Y-10288286D01*
X5526786Y-10316857D01*
X5526786Y-10345429D01*
X5512500Y-10388286D01*
X5341071Y-10559714D01*
X5526786Y-10559714D01*
X5883928Y-10559714D02*
X5883928Y-10259714D01*
X6012500Y-10559714D02*
X6012500Y-10402572D01*
X5998214Y-10374000D01*
X5969643Y-10359714D01*
X5926786Y-10359714D01*
X5898214Y-10374000D01*
X5883928Y-10388286D01*
X6198214Y-10559714D02*
X6169643Y-10545429D01*
X6155357Y-10531143D01*
X6141071Y-10502572D01*
X6141071Y-10416857D01*
X6155357Y-10388286D01*
X6169643Y-10374000D01*
X6198214Y-10359714D01*
X6241071Y-10359714D01*
X6269643Y-10374000D01*
X6283928Y-10388286D01*
X6298214Y-10416857D01*
X6298214Y-10502572D01*
X6283928Y-10531143D01*
X6269643Y-10545429D01*
X6241071Y-10559714D01*
X6198214Y-10559714D01*
X6469643Y-10559714D02*
X6441071Y-10545429D01*
X6426786Y-10516857D01*
X6426786Y-10259714D01*
X6698214Y-10545429D02*
X6669643Y-10559714D01*
X6612500Y-10559714D01*
X6583928Y-10545429D01*
X6569643Y-10516857D01*
X6569643Y-10402572D01*
X6583928Y-10374000D01*
X6612500Y-10359714D01*
X6669643Y-10359714D01*
X6698214Y-10374000D01*
X6712500Y-10402572D01*
X6712500Y-10431143D01*
X6569643Y-10459714D01*
X6826786Y-10545429D02*
X6855357Y-10559714D01*
X6912500Y-10559714D01*
X6941071Y-10545429D01*
X6955357Y-10516857D01*
X6955357Y-10502572D01*
X6941071Y-10474000D01*
X6912500Y-10459714D01*
X6869643Y-10459714D01*
X6841071Y-10445429D01*
X6826786Y-10416857D01*
X6826786Y-10402572D01*
X6841071Y-10374000D01*
X6869643Y-10359714D01*
X6912500Y-10359714D01*
X6941071Y-10374000D01*
X7055357Y-10674000D02*
X7069643Y-10659714D01*
X7098214Y-10616857D01*
X7112500Y-10588286D01*
X7126786Y-10545429D01*
X7141071Y-10474000D01*
X7141071Y-10416857D01*
X7126786Y-10345429D01*
X7112500Y-10302572D01*
X7098214Y-10274000D01*
X7069643Y-10231143D01*
X7055357Y-10216857D01*
X7598214Y-10674000D02*
X7583928Y-10659714D01*
X7555357Y-10616857D01*
X7541071Y-10588286D01*
X7526786Y-10545429D01*
X7512500Y-10474000D01*
X7512500Y-10416857D01*
X7526786Y-10345429D01*
X7541071Y-10302572D01*
X7555357Y-10274000D01*
X7583928Y-10231143D01*
X7598214Y-10216857D01*
X7712500Y-10359714D02*
X7712500Y-10559714D01*
X7712500Y-10388286D02*
X7726786Y-10374000D01*
X7755357Y-10359714D01*
X7798214Y-10359714D01*
X7826786Y-10374000D01*
X7841071Y-10402572D01*
X7841071Y-10559714D01*
X8026786Y-10559714D02*
X7998214Y-10545429D01*
X7983928Y-10531143D01*
X7969643Y-10502572D01*
X7969643Y-10416857D01*
X7983928Y-10388286D01*
X7998214Y-10374000D01*
X8026786Y-10359714D01*
X8069643Y-10359714D01*
X8098214Y-10374000D01*
X8112500Y-10388286D01*
X8126786Y-10416857D01*
X8126786Y-10502572D01*
X8112500Y-10531143D01*
X8098214Y-10545429D01*
X8069643Y-10559714D01*
X8026786Y-10559714D01*
X8212500Y-10359714D02*
X8326786Y-10359714D01*
X8255357Y-10259714D02*
X8255357Y-10516857D01*
X8269643Y-10545429D01*
X8298214Y-10559714D01*
X8326786Y-10559714D01*
X8655357Y-10359714D02*
X8655357Y-10659714D01*
X8655357Y-10374000D02*
X8683928Y-10359714D01*
X8741071Y-10359714D01*
X8769643Y-10374000D01*
X8783928Y-10388286D01*
X8798214Y-10416857D01*
X8798214Y-10502572D01*
X8783928Y-10531143D01*
X8769643Y-10545429D01*
X8741071Y-10559714D01*
X8683928Y-10559714D01*
X8655357Y-10545429D01*
X8969643Y-10559714D02*
X8941071Y-10545429D01*
X8926786Y-10516857D01*
X8926786Y-10259714D01*
X9212500Y-10559714D02*
X9212500Y-10402572D01*
X9198214Y-10374000D01*
X9169643Y-10359714D01*
X9112500Y-10359714D01*
X9083928Y-10374000D01*
X9212500Y-10545429D02*
X9183928Y-10559714D01*
X9112500Y-10559714D01*
X9083928Y-10545429D01*
X9069643Y-10516857D01*
X9069643Y-10488286D01*
X9083928Y-10459714D01*
X9112500Y-10445429D01*
X9183928Y-10445429D01*
X9212500Y-10431143D01*
X9312500Y-10359714D02*
X9426786Y-10359714D01*
X9355357Y-10259714D02*
X9355357Y-10516857D01*
X9369643Y-10545429D01*
X9398214Y-10559714D01*
X9426786Y-10559714D01*
X9641071Y-10545429D02*
X9612500Y-10559714D01*
X9555357Y-10559714D01*
X9526786Y-10545429D01*
X9512500Y-10516857D01*
X9512500Y-10402572D01*
X9526786Y-10374000D01*
X9555357Y-10359714D01*
X9612500Y-10359714D01*
X9641071Y-10374000D01*
X9655357Y-10402572D01*
X9655357Y-10431143D01*
X9512500Y-10459714D01*
X9912500Y-10559714D02*
X9912500Y-10259714D01*
X9912500Y-10545429D02*
X9883928Y-10559714D01*
X9826786Y-10559714D01*
X9798214Y-10545429D01*
X9783928Y-10531143D01*
X9769643Y-10502572D01*
X9769643Y-10416857D01*
X9783928Y-10388286D01*
X9798214Y-10374000D01*
X9826786Y-10359714D01*
X9883928Y-10359714D01*
X9912500Y-10374000D01*
X10026786Y-10674000D02*
X10041071Y-10659714D01*
X10069643Y-10616857D01*
X10083928Y-10588286D01*
X10098214Y-10545429D01*
X10112500Y-10474000D01*
X10112500Y-10416857D01*
X10098214Y-10345429D01*
X10083928Y-10302572D01*
X10069643Y-10274000D01*
X10041071Y-10231143D01*
X10026786Y-10216857D01*
X-2500Y-10820000D02*
G75*
G03*
X-2500Y-10820000I-75000J0D01*
G01*
X441071Y-10955714D02*
X269643Y-10955714D01*
X355357Y-10955714D02*
X355357Y-10655714D01*
X326786Y-10698572D01*
X298214Y-10727143D01*
X269643Y-10741429D01*
X569643Y-10927143D02*
X583928Y-10941429D01*
X569643Y-10955714D01*
X555357Y-10941429D01*
X569643Y-10927143D01*
X569643Y-10955714D01*
X855357Y-10655714D02*
X712500Y-10655714D01*
X698214Y-10798572D01*
X712500Y-10784286D01*
X741071Y-10770000D01*
X812500Y-10770000D01*
X841071Y-10784286D01*
X855357Y-10798572D01*
X869643Y-10827143D01*
X869643Y-10898572D01*
X855357Y-10927143D01*
X841071Y-10941429D01*
X812500Y-10955714D01*
X741071Y-10955714D01*
X712500Y-10941429D01*
X698214Y-10927143D01*
X1055357Y-10655714D02*
X1083928Y-10655714D01*
X1112500Y-10670000D01*
X1126786Y-10684286D01*
X1141071Y-10712857D01*
X1155357Y-10770000D01*
X1155357Y-10841429D01*
X1141071Y-10898572D01*
X1126786Y-10927143D01*
X1112500Y-10941429D01*
X1083928Y-10955714D01*
X1055357Y-10955714D01*
X1026786Y-10941429D01*
X1012500Y-10927143D01*
X998214Y-10898572D01*
X983928Y-10841429D01*
X983928Y-10770000D01*
X998214Y-10712857D01*
X1012500Y-10684286D01*
X1026786Y-10670000D01*
X1055357Y-10655714D01*
X1341071Y-10655714D02*
X1369643Y-10655714D01*
X1398214Y-10670000D01*
X1412500Y-10684286D01*
X1426786Y-10712857D01*
X1441071Y-10770000D01*
X1441071Y-10841429D01*
X1426786Y-10898572D01*
X1412500Y-10927143D01*
X1398214Y-10941429D01*
X1369643Y-10955714D01*
X1341071Y-10955714D01*
X1312500Y-10941429D01*
X1298214Y-10927143D01*
X1283928Y-10898572D01*
X1269643Y-10841429D01*
X1269643Y-10770000D01*
X1283928Y-10712857D01*
X1298214Y-10684286D01*
X1312500Y-10670000D01*
X1341071Y-10655714D01*
X1569643Y-10955714D02*
X1569643Y-10755714D01*
X1569643Y-10784286D02*
X1583928Y-10770000D01*
X1612500Y-10755714D01*
X1655357Y-10755714D01*
X1683928Y-10770000D01*
X1698214Y-10798572D01*
X1698214Y-10955714D01*
X1698214Y-10798572D02*
X1712500Y-10770000D01*
X1741071Y-10755714D01*
X1783928Y-10755714D01*
X1812500Y-10770000D01*
X1826786Y-10798572D01*
X1826786Y-10955714D01*
X1969643Y-10955714D02*
X1969643Y-10755714D01*
X1969643Y-10784286D02*
X1983928Y-10770000D01*
X2012500Y-10755714D01*
X2055357Y-10755714D01*
X2083928Y-10770000D01*
X2098214Y-10798572D01*
X2098214Y-10955714D01*
X2098214Y-10798572D02*
X2112500Y-10770000D01*
X2141071Y-10755714D01*
X2183928Y-10755714D01*
X2212500Y-10770000D01*
X2226786Y-10798572D01*
X2226786Y-10955714D01*
X2812500Y-10641429D02*
X2555357Y-11027143D01*
X3198214Y-10655714D02*
X3226786Y-10655714D01*
X3255357Y-10670000D01*
X3269643Y-10684286D01*
X3283928Y-10712857D01*
X3298214Y-10770000D01*
X3298214Y-10841429D01*
X3283928Y-10898572D01*
X3269643Y-10927143D01*
X3255357Y-10941429D01*
X3226786Y-10955714D01*
X3198214Y-10955714D01*
X3169643Y-10941429D01*
X3155357Y-10927143D01*
X3141071Y-10898572D01*
X3126786Y-10841429D01*
X3126786Y-10770000D01*
X3141071Y-10712857D01*
X3155357Y-10684286D01*
X3169643Y-10670000D01*
X3198214Y-10655714D01*
X3426786Y-10927143D02*
X3441071Y-10941429D01*
X3426786Y-10955714D01*
X3412500Y-10941429D01*
X3426786Y-10927143D01*
X3426786Y-10955714D01*
X3626786Y-10655714D02*
X3655357Y-10655714D01*
X3683928Y-10670000D01*
X3698214Y-10684286D01*
X3712500Y-10712857D01*
X3726786Y-10770000D01*
X3726786Y-10841429D01*
X3712500Y-10898572D01*
X3698214Y-10927143D01*
X3683928Y-10941429D01*
X3655357Y-10955714D01*
X3626786Y-10955714D01*
X3598214Y-10941429D01*
X3583928Y-10927143D01*
X3569643Y-10898572D01*
X3555357Y-10841429D01*
X3555357Y-10770000D01*
X3569643Y-10712857D01*
X3583928Y-10684286D01*
X3598214Y-10670000D01*
X3626786Y-10655714D01*
X3998214Y-10655714D02*
X3855357Y-10655714D01*
X3841071Y-10798572D01*
X3855357Y-10784286D01*
X3883928Y-10770000D01*
X3955357Y-10770000D01*
X3983928Y-10784286D01*
X3998214Y-10798572D01*
X4012500Y-10827143D01*
X4012500Y-10898572D01*
X3998214Y-10927143D01*
X3983928Y-10941429D01*
X3955357Y-10955714D01*
X3883928Y-10955714D01*
X3855357Y-10941429D01*
X3841071Y-10927143D01*
X4155357Y-10955714D02*
X4212500Y-10955714D01*
X4241071Y-10941429D01*
X4255357Y-10927143D01*
X4283928Y-10884286D01*
X4298214Y-10827143D01*
X4298214Y-10712857D01*
X4283928Y-10684286D01*
X4269643Y-10670000D01*
X4241071Y-10655714D01*
X4183928Y-10655714D01*
X4155357Y-10670000D01*
X4141071Y-10684286D01*
X4126786Y-10712857D01*
X4126786Y-10784286D01*
X4141071Y-10812857D01*
X4155357Y-10827143D01*
X4183928Y-10841429D01*
X4241071Y-10841429D01*
X4269643Y-10827143D01*
X4283928Y-10812857D01*
X4298214Y-10784286D01*
X4583928Y-10955714D02*
X4412500Y-10955714D01*
X4498214Y-10955714D02*
X4498214Y-10655714D01*
X4469643Y-10698572D01*
X4441071Y-10727143D01*
X4412500Y-10741429D01*
X4698214Y-10655714D02*
X4698214Y-10712857D01*
X4812500Y-10655714D02*
X4812500Y-10712857D01*
X5255357Y-11070000D02*
X5241071Y-11055714D01*
X5212500Y-11012857D01*
X5198214Y-10984286D01*
X5183928Y-10941429D01*
X5169643Y-10870000D01*
X5169643Y-10812857D01*
X5183928Y-10741429D01*
X5198214Y-10698572D01*
X5212500Y-10670000D01*
X5241071Y-10627143D01*
X5255357Y-10612857D01*
X5355357Y-10684286D02*
X5369643Y-10670000D01*
X5398214Y-10655714D01*
X5469643Y-10655714D01*
X5498214Y-10670000D01*
X5512500Y-10684286D01*
X5526786Y-10712857D01*
X5526786Y-10741429D01*
X5512500Y-10784286D01*
X5341071Y-10955714D01*
X5526786Y-10955714D01*
X5883928Y-10955714D02*
X5883928Y-10655714D01*
X6012500Y-10955714D02*
X6012500Y-10798572D01*
X5998214Y-10770000D01*
X5969643Y-10755714D01*
X5926786Y-10755714D01*
X5898214Y-10770000D01*
X5883928Y-10784286D01*
X6198214Y-10955714D02*
X6169643Y-10941429D01*
X6155357Y-10927143D01*
X6141071Y-10898572D01*
X6141071Y-10812857D01*
X6155357Y-10784286D01*
X6169643Y-10770000D01*
X6198214Y-10755714D01*
X6241071Y-10755714D01*
X6269643Y-10770000D01*
X6283928Y-10784286D01*
X6298214Y-10812857D01*
X6298214Y-10898572D01*
X6283928Y-10927143D01*
X6269643Y-10941429D01*
X6241071Y-10955714D01*
X6198214Y-10955714D01*
X6469643Y-10955714D02*
X6441071Y-10941429D01*
X6426786Y-10912857D01*
X6426786Y-10655714D01*
X6698214Y-10941429D02*
X6669643Y-10955714D01*
X6612500Y-10955714D01*
X6583928Y-10941429D01*
X6569643Y-10912857D01*
X6569643Y-10798572D01*
X6583928Y-10770000D01*
X6612500Y-10755714D01*
X6669643Y-10755714D01*
X6698214Y-10770000D01*
X6712500Y-10798572D01*
X6712500Y-10827143D01*
X6569643Y-10855714D01*
X6826786Y-10941429D02*
X6855357Y-10955714D01*
X6912500Y-10955714D01*
X6941071Y-10941429D01*
X6955357Y-10912857D01*
X6955357Y-10898572D01*
X6941071Y-10870000D01*
X6912500Y-10855714D01*
X6869643Y-10855714D01*
X6841071Y-10841429D01*
X6826786Y-10812857D01*
X6826786Y-10798572D01*
X6841071Y-10770000D01*
X6869643Y-10755714D01*
X6912500Y-10755714D01*
X6941071Y-10770000D01*
X7055357Y-11070000D02*
X7069643Y-11055714D01*
X7098214Y-11012857D01*
X7112500Y-10984286D01*
X7126786Y-10941429D01*
X7141071Y-10870000D01*
X7141071Y-10812857D01*
X7126786Y-10741429D01*
X7112500Y-10698572D01*
X7098214Y-10670000D01*
X7069643Y-10627143D01*
X7055357Y-10612857D01*
X7598214Y-11070000D02*
X7583928Y-11055714D01*
X7555357Y-11012857D01*
X7541071Y-10984286D01*
X7526786Y-10941429D01*
X7512500Y-10870000D01*
X7512500Y-10812857D01*
X7526786Y-10741429D01*
X7541071Y-10698572D01*
X7555357Y-10670000D01*
X7583928Y-10627143D01*
X7598214Y-10612857D01*
X7712500Y-10755714D02*
X7712500Y-10955714D01*
X7712500Y-10784286D02*
X7726786Y-10770000D01*
X7755357Y-10755714D01*
X7798214Y-10755714D01*
X7826786Y-10770000D01*
X7841071Y-10798572D01*
X7841071Y-10955714D01*
X8026786Y-10955714D02*
X7998214Y-10941429D01*
X7983928Y-10927143D01*
X7969643Y-10898572D01*
X7969643Y-10812857D01*
X7983928Y-10784286D01*
X7998214Y-10770000D01*
X8026786Y-10755714D01*
X8069643Y-10755714D01*
X8098214Y-10770000D01*
X8112500Y-10784286D01*
X8126786Y-10812857D01*
X8126786Y-10898572D01*
X8112500Y-10927143D01*
X8098214Y-10941429D01*
X8069643Y-10955714D01*
X8026786Y-10955714D01*
X8212500Y-10755714D02*
X8326786Y-10755714D01*
X8255357Y-10655714D02*
X8255357Y-10912857D01*
X8269643Y-10941429D01*
X8298214Y-10955714D01*
X8326786Y-10955714D01*
X8655357Y-10755714D02*
X8655357Y-11055714D01*
X8655357Y-10770000D02*
X8683928Y-10755714D01*
X8741071Y-10755714D01*
X8769643Y-10770000D01*
X8783928Y-10784286D01*
X8798214Y-10812857D01*
X8798214Y-10898572D01*
X8783928Y-10927143D01*
X8769643Y-10941429D01*
X8741071Y-10955714D01*
X8683928Y-10955714D01*
X8655357Y-10941429D01*
X8969643Y-10955714D02*
X8941071Y-10941429D01*
X8926786Y-10912857D01*
X8926786Y-10655714D01*
X9212500Y-10955714D02*
X9212500Y-10798572D01*
X9198214Y-10770000D01*
X9169643Y-10755714D01*
X9112500Y-10755714D01*
X9083928Y-10770000D01*
X9212500Y-10941429D02*
X9183928Y-10955714D01*
X9112500Y-10955714D01*
X9083928Y-10941429D01*
X9069643Y-10912857D01*
X9069643Y-10884286D01*
X9083928Y-10855714D01*
X9112500Y-10841429D01*
X9183928Y-10841429D01*
X9212500Y-10827143D01*
X9312500Y-10755714D02*
X9426786Y-10755714D01*
X9355357Y-10655714D02*
X9355357Y-10912857D01*
X9369643Y-10941429D01*
X9398214Y-10955714D01*
X9426786Y-10955714D01*
X9641071Y-10941429D02*
X9612500Y-10955714D01*
X9555357Y-10955714D01*
X9526786Y-10941429D01*
X9512500Y-10912857D01*
X9512500Y-10798572D01*
X9526786Y-10770000D01*
X9555357Y-10755714D01*
X9612500Y-10755714D01*
X9641071Y-10770000D01*
X9655357Y-10798572D01*
X9655357Y-10827143D01*
X9512500Y-10855714D01*
X9912500Y-10955714D02*
X9912500Y-10655714D01*
X9912500Y-10941429D02*
X9883928Y-10955714D01*
X9826786Y-10955714D01*
X9798214Y-10941429D01*
X9783928Y-10927143D01*
X9769643Y-10898572D01*
X9769643Y-10812857D01*
X9783928Y-10784286D01*
X9798214Y-10770000D01*
X9826786Y-10755714D01*
X9883928Y-10755714D01*
X9912500Y-10770000D01*
X10026786Y-11070000D02*
X10041071Y-11055714D01*
X10069643Y-11012857D01*
X10083928Y-10984286D01*
X10098214Y-10941429D01*
X10112500Y-10870000D01*
X10112500Y-10812857D01*
X10098214Y-10741429D01*
X10083928Y-10698572D01*
X10069643Y-10670000D01*
X10041071Y-10627143D01*
X10026786Y-10612857D01*
X-87500Y-11131000D02*
X-87500Y-11301000D01*
X-172500Y-11216000D02*
X-2500Y-11216000D01*
X441071Y-11351714D02*
X269643Y-11351714D01*
X355357Y-11351714D02*
X355357Y-11051714D01*
X326786Y-11094572D01*
X298214Y-11123143D01*
X269643Y-11137429D01*
X569643Y-11323143D02*
X583928Y-11337429D01*
X569643Y-11351714D01*
X555357Y-11337429D01*
X569643Y-11323143D01*
X569643Y-11351714D01*
X683928Y-11051714D02*
X883928Y-11051714D01*
X755357Y-11351714D01*
X1055357Y-11051714D02*
X1083928Y-11051714D01*
X1112500Y-11066000D01*
X1126786Y-11080286D01*
X1141071Y-11108857D01*
X1155357Y-11166000D01*
X1155357Y-11237429D01*
X1141071Y-11294571D01*
X1126786Y-11323143D01*
X1112500Y-11337429D01*
X1083928Y-11351714D01*
X1055357Y-11351714D01*
X1026786Y-11337429D01*
X1012500Y-11323143D01*
X998214Y-11294571D01*
X983928Y-11237429D01*
X983928Y-11166000D01*
X998214Y-11108857D01*
X1012500Y-11080286D01*
X1026786Y-11066000D01*
X1055357Y-11051714D01*
X1341071Y-11051714D02*
X1369643Y-11051714D01*
X1398214Y-11066000D01*
X1412500Y-11080286D01*
X1426786Y-11108857D01*
X1441071Y-11166000D01*
X1441071Y-11237429D01*
X1426786Y-11294571D01*
X1412500Y-11323143D01*
X1398214Y-11337429D01*
X1369643Y-11351714D01*
X1341071Y-11351714D01*
X1312500Y-11337429D01*
X1298214Y-11323143D01*
X1283928Y-11294571D01*
X1269643Y-11237429D01*
X1269643Y-11166000D01*
X1283928Y-11108857D01*
X1298214Y-11080286D01*
X1312500Y-11066000D01*
X1341071Y-11051714D01*
X1569643Y-11351714D02*
X1569643Y-11151714D01*
X1569643Y-11180286D02*
X1583928Y-11166000D01*
X1612500Y-11151714D01*
X1655357Y-11151714D01*
X1683928Y-11166000D01*
X1698214Y-11194571D01*
X1698214Y-11351714D01*
X1698214Y-11194571D02*
X1712500Y-11166000D01*
X1741071Y-11151714D01*
X1783928Y-11151714D01*
X1812500Y-11166000D01*
X1826786Y-11194571D01*
X1826786Y-11351714D01*
X1969643Y-11351714D02*
X1969643Y-11151714D01*
X1969643Y-11180286D02*
X1983928Y-11166000D01*
X2012500Y-11151714D01*
X2055357Y-11151714D01*
X2083928Y-11166000D01*
X2098214Y-11194571D01*
X2098214Y-11351714D01*
X2098214Y-11194571D02*
X2112500Y-11166000D01*
X2141071Y-11151714D01*
X2183928Y-11151714D01*
X2212500Y-11166000D01*
X2226786Y-11194571D01*
X2226786Y-11351714D01*
X2812500Y-11037429D02*
X2555357Y-11423143D01*
X3198214Y-11051714D02*
X3226786Y-11051714D01*
X3255357Y-11066000D01*
X3269643Y-11080286D01*
X3283928Y-11108857D01*
X3298214Y-11166000D01*
X3298214Y-11237429D01*
X3283928Y-11294571D01*
X3269643Y-11323143D01*
X3255357Y-11337429D01*
X3226786Y-11351714D01*
X3198214Y-11351714D01*
X3169643Y-11337429D01*
X3155357Y-11323143D01*
X3141071Y-11294571D01*
X3126786Y-11237429D01*
X3126786Y-11166000D01*
X3141071Y-11108857D01*
X3155357Y-11080286D01*
X3169643Y-11066000D01*
X3198214Y-11051714D01*
X3426786Y-11323143D02*
X3441071Y-11337429D01*
X3426786Y-11351714D01*
X3412500Y-11337429D01*
X3426786Y-11323143D01*
X3426786Y-11351714D01*
X3626786Y-11051714D02*
X3655357Y-11051714D01*
X3683928Y-11066000D01*
X3698214Y-11080286D01*
X3712500Y-11108857D01*
X3726786Y-11166000D01*
X3726786Y-11237429D01*
X3712500Y-11294571D01*
X3698214Y-11323143D01*
X3683928Y-11337429D01*
X3655357Y-11351714D01*
X3626786Y-11351714D01*
X3598214Y-11337429D01*
X3583928Y-11323143D01*
X3569643Y-11294571D01*
X3555357Y-11237429D01*
X3555357Y-11166000D01*
X3569643Y-11108857D01*
X3583928Y-11080286D01*
X3598214Y-11066000D01*
X3626786Y-11051714D01*
X3983928Y-11051714D02*
X3926786Y-11051714D01*
X3898214Y-11066000D01*
X3883928Y-11080286D01*
X3855357Y-11123143D01*
X3841071Y-11180286D01*
X3841071Y-11294571D01*
X3855357Y-11323143D01*
X3869643Y-11337429D01*
X3898214Y-11351714D01*
X3955357Y-11351714D01*
X3983928Y-11337429D01*
X3998214Y-11323143D01*
X4012500Y-11294571D01*
X4012500Y-11223143D01*
X3998214Y-11194571D01*
X3983928Y-11180286D01*
X3955357Y-11166000D01*
X3898214Y-11166000D01*
X3869643Y-11180286D01*
X3855357Y-11194571D01*
X3841071Y-11223143D01*
X4269643Y-11051714D02*
X4212500Y-11051714D01*
X4183928Y-11066000D01*
X4169643Y-11080286D01*
X4141071Y-11123143D01*
X4126786Y-11180286D01*
X4126786Y-11294571D01*
X4141071Y-11323143D01*
X4155357Y-11337429D01*
X4183928Y-11351714D01*
X4241071Y-11351714D01*
X4269643Y-11337429D01*
X4283928Y-11323143D01*
X4298214Y-11294571D01*
X4298214Y-11223143D01*
X4283928Y-11194571D01*
X4269643Y-11180286D01*
X4241071Y-11166000D01*
X4183928Y-11166000D01*
X4155357Y-11180286D01*
X4141071Y-11194571D01*
X4126786Y-11223143D01*
X4441071Y-11351714D02*
X4498214Y-11351714D01*
X4526786Y-11337429D01*
X4541071Y-11323143D01*
X4569643Y-11280286D01*
X4583928Y-11223143D01*
X4583928Y-11108857D01*
X4569643Y-11080286D01*
X4555357Y-11066000D01*
X4526786Y-11051714D01*
X4469643Y-11051714D01*
X4441071Y-11066000D01*
X4426786Y-11080286D01*
X4412500Y-11108857D01*
X4412500Y-11180286D01*
X4426786Y-11208857D01*
X4441071Y-11223143D01*
X4469643Y-11237429D01*
X4526786Y-11237429D01*
X4555357Y-11223143D01*
X4569643Y-11208857D01*
X4583928Y-11180286D01*
X4698214Y-11051714D02*
X4698214Y-11108857D01*
X4812500Y-11051714D02*
X4812500Y-11108857D01*
X5255357Y-11466000D02*
X5241071Y-11451714D01*
X5212500Y-11408857D01*
X5198214Y-11380286D01*
X5183928Y-11337429D01*
X5169643Y-11266000D01*
X5169643Y-11208857D01*
X5183928Y-11137429D01*
X5198214Y-11094572D01*
X5212500Y-11066000D01*
X5241071Y-11023143D01*
X5255357Y-11008857D01*
X5526786Y-11351714D02*
X5355357Y-11351714D01*
X5441071Y-11351714D02*
X5441071Y-11051714D01*
X5412500Y-11094572D01*
X5383928Y-11123143D01*
X5355357Y-11137429D01*
X5641071Y-11080286D02*
X5655357Y-11066000D01*
X5683928Y-11051714D01*
X5755357Y-11051714D01*
X5783928Y-11066000D01*
X5798214Y-11080286D01*
X5812500Y-11108857D01*
X5812500Y-11137429D01*
X5798214Y-11180286D01*
X5626786Y-11351714D01*
X5812500Y-11351714D01*
X5998214Y-11051714D02*
X6026786Y-11051714D01*
X6055357Y-11066000D01*
X6069643Y-11080286D01*
X6083928Y-11108857D01*
X6098214Y-11166000D01*
X6098214Y-11237429D01*
X6083928Y-11294571D01*
X6069643Y-11323143D01*
X6055357Y-11337429D01*
X6026786Y-11351714D01*
X5998214Y-11351714D01*
X5969643Y-11337429D01*
X5955357Y-11323143D01*
X5941071Y-11294571D01*
X5926786Y-11237429D01*
X5926786Y-11166000D01*
X5941071Y-11108857D01*
X5955357Y-11080286D01*
X5969643Y-11066000D01*
X5998214Y-11051714D01*
X6455357Y-11351714D02*
X6455357Y-11051714D01*
X6583928Y-11351714D02*
X6583928Y-11194571D01*
X6569643Y-11166000D01*
X6541071Y-11151714D01*
X6498214Y-11151714D01*
X6469643Y-11166000D01*
X6455357Y-11180286D01*
X6769643Y-11351714D02*
X6741071Y-11337429D01*
X6726786Y-11323143D01*
X6712500Y-11294571D01*
X6712500Y-11208857D01*
X6726786Y-11180286D01*
X6741071Y-11166000D01*
X6769643Y-11151714D01*
X6812500Y-11151714D01*
X6841071Y-11166000D01*
X6855357Y-11180286D01*
X6869643Y-11208857D01*
X6869643Y-11294571D01*
X6855357Y-11323143D01*
X6841071Y-11337429D01*
X6812500Y-11351714D01*
X6769643Y-11351714D01*
X7041071Y-11351714D02*
X7012500Y-11337429D01*
X6998214Y-11308857D01*
X6998214Y-11051714D01*
X7269643Y-11337429D02*
X7241071Y-11351714D01*
X7183928Y-11351714D01*
X7155357Y-11337429D01*
X7141071Y-11308857D01*
X7141071Y-11194571D01*
X7155357Y-11166000D01*
X7183928Y-11151714D01*
X7241071Y-11151714D01*
X7269643Y-11166000D01*
X7283928Y-11194571D01*
X7283928Y-11223143D01*
X7141071Y-11251714D01*
X7398214Y-11337429D02*
X7426786Y-11351714D01*
X7483928Y-11351714D01*
X7512500Y-11337429D01*
X7526786Y-11308857D01*
X7526786Y-11294571D01*
X7512500Y-11266000D01*
X7483928Y-11251714D01*
X7441071Y-11251714D01*
X7412500Y-11237429D01*
X7398214Y-11208857D01*
X7398214Y-11194571D01*
X7412500Y-11166000D01*
X7441071Y-11151714D01*
X7483928Y-11151714D01*
X7512500Y-11166000D01*
X7626786Y-11466000D02*
X7641071Y-11451714D01*
X7669643Y-11408857D01*
X7683928Y-11380286D01*
X7698214Y-11337429D01*
X7712500Y-11266000D01*
X7712500Y-11208857D01*
X7698214Y-11137429D01*
X7683928Y-11094572D01*
X7669643Y-11066000D01*
X7641071Y-11023143D01*
X7626786Y-11008857D01*
X8169643Y-11466000D02*
X8155357Y-11451714D01*
X8126786Y-11408857D01*
X8112500Y-11380286D01*
X8098214Y-11337429D01*
X8083928Y-11266000D01*
X8083928Y-11208857D01*
X8098214Y-11137429D01*
X8112500Y-11094572D01*
X8126786Y-11066000D01*
X8155357Y-11023143D01*
X8169643Y-11008857D01*
X8283928Y-11151714D02*
X8283928Y-11351714D01*
X8283928Y-11180286D02*
X8298214Y-11166000D01*
X8326786Y-11151714D01*
X8369643Y-11151714D01*
X8398214Y-11166000D01*
X8412500Y-11194571D01*
X8412500Y-11351714D01*
X8598214Y-11351714D02*
X8569643Y-11337429D01*
X8555357Y-11323143D01*
X8541071Y-11294571D01*
X8541071Y-11208857D01*
X8555357Y-11180286D01*
X8569643Y-11166000D01*
X8598214Y-11151714D01*
X8641071Y-11151714D01*
X8669643Y-11166000D01*
X8683928Y-11180286D01*
X8698214Y-11208857D01*
X8698214Y-11294571D01*
X8683928Y-11323143D01*
X8669643Y-11337429D01*
X8641071Y-11351714D01*
X8598214Y-11351714D01*
X8783928Y-11151714D02*
X8898214Y-11151714D01*
X8826786Y-11051714D02*
X8826786Y-11308857D01*
X8841071Y-11337429D01*
X8869643Y-11351714D01*
X8898214Y-11351714D01*
X9226786Y-11151714D02*
X9226786Y-11451714D01*
X9226786Y-11166000D02*
X9255357Y-11151714D01*
X9312500Y-11151714D01*
X9341071Y-11166000D01*
X9355357Y-11180286D01*
X9369643Y-11208857D01*
X9369643Y-11294571D01*
X9355357Y-11323143D01*
X9341071Y-11337429D01*
X9312500Y-11351714D01*
X9255357Y-11351714D01*
X9226786Y-11337429D01*
X9541071Y-11351714D02*
X9512500Y-11337429D01*
X9498214Y-11308857D01*
X9498214Y-11051714D01*
X9783928Y-11351714D02*
X9783928Y-11194571D01*
X9769643Y-11166000D01*
X9741071Y-11151714D01*
X9683928Y-11151714D01*
X9655357Y-11166000D01*
X9783928Y-11337429D02*
X9755357Y-11351714D01*
X9683928Y-11351714D01*
X9655357Y-11337429D01*
X9641071Y-11308857D01*
X9641071Y-11280286D01*
X9655357Y-11251714D01*
X9683928Y-11237429D01*
X9755357Y-11237429D01*
X9783928Y-11223143D01*
X9883928Y-11151714D02*
X9998214Y-11151714D01*
X9926786Y-11051714D02*
X9926786Y-11308857D01*
X9941071Y-11337429D01*
X9969643Y-11351714D01*
X9998214Y-11351714D01*
X10212500Y-11337429D02*
X10183928Y-11351714D01*
X10126786Y-11351714D01*
X10098214Y-11337429D01*
X10083928Y-11308857D01*
X10083928Y-11194571D01*
X10098214Y-11166000D01*
X10126786Y-11151714D01*
X10183928Y-11151714D01*
X10212500Y-11166000D01*
X10226786Y-11194571D01*
X10226786Y-11223143D01*
X10083928Y-11251714D01*
X10483928Y-11351714D02*
X10483928Y-11051714D01*
X10483928Y-11337429D02*
X10455357Y-11351714D01*
X10398214Y-11351714D01*
X10369643Y-11337429D01*
X10355357Y-11323143D01*
X10341071Y-11294571D01*
X10341071Y-11208857D01*
X10355357Y-11180286D01*
X10369643Y-11166000D01*
X10398214Y-11151714D01*
X10455357Y-11151714D01*
X10483928Y-11166000D01*
X10598214Y-11466000D02*
X10612500Y-11451714D01*
X10641071Y-11408857D01*
X10655357Y-11380286D01*
X10669643Y-11337429D01*
X10683928Y-11266000D01*
X10683928Y-11208857D01*
X10669643Y-11137429D01*
X10655357Y-11094572D01*
X10641071Y-11066000D01*
X10612500Y-11023143D01*
X10598214Y-11008857D01*
X-28860Y-11675640D02*
X-28860Y-11548360D01*
X-156140Y-11548360D01*
X-156140Y-11675640D01*
X-28860Y-11675640D01*
X441071Y-11747714D02*
X269643Y-11747714D01*
X355357Y-11747714D02*
X355357Y-11447714D01*
X326786Y-11490571D01*
X298214Y-11519143D01*
X269643Y-11533429D01*
X569643Y-11719143D02*
X583928Y-11733429D01*
X569643Y-11747714D01*
X555357Y-11733429D01*
X569643Y-11719143D01*
X569643Y-11747714D01*
X755357Y-11576286D02*
X726786Y-11562000D01*
X712500Y-11547714D01*
X698214Y-11519143D01*
X698214Y-11504857D01*
X712500Y-11476286D01*
X726786Y-11462000D01*
X755357Y-11447714D01*
X812500Y-11447714D01*
X841071Y-11462000D01*
X855357Y-11476286D01*
X869643Y-11504857D01*
X869643Y-11519143D01*
X855357Y-11547714D01*
X841071Y-11562000D01*
X812500Y-11576286D01*
X755357Y-11576286D01*
X726786Y-11590571D01*
X712500Y-11604857D01*
X698214Y-11633429D01*
X698214Y-11690571D01*
X712500Y-11719143D01*
X726786Y-11733429D01*
X755357Y-11747714D01*
X812500Y-11747714D01*
X841071Y-11733429D01*
X855357Y-11719143D01*
X869643Y-11690571D01*
X869643Y-11633429D01*
X855357Y-11604857D01*
X841071Y-11590571D01*
X812500Y-11576286D01*
X1055357Y-11447714D02*
X1083928Y-11447714D01*
X1112500Y-11462000D01*
X1126786Y-11476286D01*
X1141071Y-11504857D01*
X1155357Y-11562000D01*
X1155357Y-11633429D01*
X1141071Y-11690571D01*
X1126786Y-11719143D01*
X1112500Y-11733429D01*
X1083928Y-11747714D01*
X1055357Y-11747714D01*
X1026786Y-11733429D01*
X1012500Y-11719143D01*
X998214Y-11690571D01*
X983928Y-11633429D01*
X983928Y-11562000D01*
X998214Y-11504857D01*
X1012500Y-11476286D01*
X1026786Y-11462000D01*
X1055357Y-11447714D01*
X1341071Y-11447714D02*
X1369643Y-11447714D01*
X1398214Y-11462000D01*
X1412500Y-11476286D01*
X1426786Y-11504857D01*
X1441071Y-11562000D01*
X1441071Y-11633429D01*
X1426786Y-11690571D01*
X1412500Y-11719143D01*
X1398214Y-11733429D01*
X1369643Y-11747714D01*
X1341071Y-11747714D01*
X1312500Y-11733429D01*
X1298214Y-11719143D01*
X1283928Y-11690571D01*
X1269643Y-11633429D01*
X1269643Y-11562000D01*
X1283928Y-11504857D01*
X1298214Y-11476286D01*
X1312500Y-11462000D01*
X1341071Y-11447714D01*
X1569643Y-11747714D02*
X1569643Y-11547714D01*
X1569643Y-11576286D02*
X1583928Y-11562000D01*
X1612500Y-11547714D01*
X1655357Y-11547714D01*
X1683928Y-11562000D01*
X1698214Y-11590571D01*
X1698214Y-11747714D01*
X1698214Y-11590571D02*
X1712500Y-11562000D01*
X1741071Y-11547714D01*
X1783928Y-11547714D01*
X1812500Y-11562000D01*
X1826786Y-11590571D01*
X1826786Y-11747714D01*
X1969643Y-11747714D02*
X1969643Y-11547714D01*
X1969643Y-11576286D02*
X1983928Y-11562000D01*
X2012500Y-11547714D01*
X2055357Y-11547714D01*
X2083928Y-11562000D01*
X2098214Y-11590571D01*
X2098214Y-11747714D01*
X2098214Y-11590571D02*
X2112500Y-11562000D01*
X2141071Y-11547714D01*
X2183928Y-11547714D01*
X2212500Y-11562000D01*
X2226786Y-11590571D01*
X2226786Y-11747714D01*
X2812500Y-11433429D02*
X2555357Y-11819143D01*
X3198214Y-11447714D02*
X3226786Y-11447714D01*
X3255357Y-11462000D01*
X3269643Y-11476286D01*
X3283928Y-11504857D01*
X3298214Y-11562000D01*
X3298214Y-11633429D01*
X3283928Y-11690571D01*
X3269643Y-11719143D01*
X3255357Y-11733429D01*
X3226786Y-11747714D01*
X3198214Y-11747714D01*
X3169643Y-11733429D01*
X3155357Y-11719143D01*
X3141071Y-11690571D01*
X3126786Y-11633429D01*
X3126786Y-11562000D01*
X3141071Y-11504857D01*
X3155357Y-11476286D01*
X3169643Y-11462000D01*
X3198214Y-11447714D01*
X3426786Y-11719143D02*
X3441071Y-11733429D01*
X3426786Y-11747714D01*
X3412500Y-11733429D01*
X3426786Y-11719143D01*
X3426786Y-11747714D01*
X3626786Y-11447714D02*
X3655357Y-11447714D01*
X3683928Y-11462000D01*
X3698214Y-11476286D01*
X3712500Y-11504857D01*
X3726786Y-11562000D01*
X3726786Y-11633429D01*
X3712500Y-11690571D01*
X3698214Y-11719143D01*
X3683928Y-11733429D01*
X3655357Y-11747714D01*
X3626786Y-11747714D01*
X3598214Y-11733429D01*
X3583928Y-11719143D01*
X3569643Y-11690571D01*
X3555357Y-11633429D01*
X3555357Y-11562000D01*
X3569643Y-11504857D01*
X3583928Y-11476286D01*
X3598214Y-11462000D01*
X3626786Y-11447714D01*
X3826786Y-11447714D02*
X4026786Y-11447714D01*
X3898214Y-11747714D01*
X4198214Y-11447714D02*
X4226786Y-11447714D01*
X4255357Y-11462000D01*
X4269643Y-11476286D01*
X4283928Y-11504857D01*
X4298214Y-11562000D01*
X4298214Y-11633429D01*
X4283928Y-11690571D01*
X4269643Y-11719143D01*
X4255357Y-11733429D01*
X4226786Y-11747714D01*
X4198214Y-11747714D01*
X4169643Y-11733429D01*
X4155357Y-11719143D01*
X4141071Y-11690571D01*
X4126786Y-11633429D01*
X4126786Y-11562000D01*
X4141071Y-11504857D01*
X4155357Y-11476286D01*
X4169643Y-11462000D01*
X4198214Y-11447714D01*
X4441071Y-11747714D02*
X4498214Y-11747714D01*
X4526786Y-11733429D01*
X4541071Y-11719143D01*
X4569643Y-11676286D01*
X4583928Y-11619143D01*
X4583928Y-11504857D01*
X4569643Y-11476286D01*
X4555357Y-11462000D01*
X4526786Y-11447714D01*
X4469643Y-11447714D01*
X4441071Y-11462000D01*
X4426786Y-11476286D01*
X4412500Y-11504857D01*
X4412500Y-11576286D01*
X4426786Y-11604857D01*
X4441071Y-11619143D01*
X4469643Y-11633429D01*
X4526786Y-11633429D01*
X4555357Y-11619143D01*
X4569643Y-11604857D01*
X4583928Y-11576286D01*
X4698214Y-11447714D02*
X4698214Y-11504857D01*
X4812500Y-11447714D02*
X4812500Y-11504857D01*
X5255357Y-11862000D02*
X5241071Y-11847714D01*
X5212500Y-11804857D01*
X5198214Y-11776286D01*
X5183928Y-11733429D01*
X5169643Y-11662000D01*
X5169643Y-11604857D01*
X5183928Y-11533429D01*
X5198214Y-11490571D01*
X5212500Y-11462000D01*
X5241071Y-11419143D01*
X5255357Y-11404857D01*
X5355357Y-11476286D02*
X5369643Y-11462000D01*
X5398214Y-11447714D01*
X5469643Y-11447714D01*
X5498214Y-11462000D01*
X5512500Y-11476286D01*
X5526786Y-11504857D01*
X5526786Y-11533429D01*
X5512500Y-11576286D01*
X5341071Y-11747714D01*
X5526786Y-11747714D01*
X5883928Y-11747714D02*
X5883928Y-11447714D01*
X6012500Y-11747714D02*
X6012500Y-11590571D01*
X5998214Y-11562000D01*
X5969643Y-11547714D01*
X5926786Y-11547714D01*
X5898214Y-11562000D01*
X5883928Y-11576286D01*
X6198214Y-11747714D02*
X6169643Y-11733429D01*
X6155357Y-11719143D01*
X6141071Y-11690571D01*
X6141071Y-11604857D01*
X6155357Y-11576286D01*
X6169643Y-11562000D01*
X6198214Y-11547714D01*
X6241071Y-11547714D01*
X6269643Y-11562000D01*
X6283928Y-11576286D01*
X6298214Y-11604857D01*
X6298214Y-11690571D01*
X6283928Y-11719143D01*
X6269643Y-11733429D01*
X6241071Y-11747714D01*
X6198214Y-11747714D01*
X6469643Y-11747714D02*
X6441071Y-11733429D01*
X6426786Y-11704857D01*
X6426786Y-11447714D01*
X6698214Y-11733429D02*
X6669643Y-11747714D01*
X6612500Y-11747714D01*
X6583928Y-11733429D01*
X6569643Y-11704857D01*
X6569643Y-11590571D01*
X6583928Y-11562000D01*
X6612500Y-11547714D01*
X6669643Y-11547714D01*
X6698214Y-11562000D01*
X6712500Y-11590571D01*
X6712500Y-11619143D01*
X6569643Y-11647714D01*
X6826786Y-11733429D02*
X6855357Y-11747714D01*
X6912500Y-11747714D01*
X6941071Y-11733429D01*
X6955357Y-11704857D01*
X6955357Y-11690571D01*
X6941071Y-11662000D01*
X6912500Y-11647714D01*
X6869643Y-11647714D01*
X6841071Y-11633429D01*
X6826786Y-11604857D01*
X6826786Y-11590571D01*
X6841071Y-11562000D01*
X6869643Y-11547714D01*
X6912500Y-11547714D01*
X6941071Y-11562000D01*
X7055357Y-11862000D02*
X7069643Y-11847714D01*
X7098214Y-11804857D01*
X7112500Y-11776286D01*
X7126786Y-11733429D01*
X7141071Y-11662000D01*
X7141071Y-11604857D01*
X7126786Y-11533429D01*
X7112500Y-11490571D01*
X7098214Y-11462000D01*
X7069643Y-11419143D01*
X7055357Y-11404857D01*
X7598214Y-11862000D02*
X7583928Y-11847714D01*
X7555357Y-11804857D01*
X7541071Y-11776286D01*
X7526786Y-11733429D01*
X7512500Y-11662000D01*
X7512500Y-11604857D01*
X7526786Y-11533429D01*
X7541071Y-11490571D01*
X7555357Y-11462000D01*
X7583928Y-11419143D01*
X7598214Y-11404857D01*
X7712500Y-11547714D02*
X7712500Y-11747714D01*
X7712500Y-11576286D02*
X7726786Y-11562000D01*
X7755357Y-11547714D01*
X7798214Y-11547714D01*
X7826786Y-11562000D01*
X7841071Y-11590571D01*
X7841071Y-11747714D01*
X8026786Y-11747714D02*
X7998214Y-11733429D01*
X7983928Y-11719143D01*
X7969643Y-11690571D01*
X7969643Y-11604857D01*
X7983928Y-11576286D01*
X7998214Y-11562000D01*
X8026786Y-11547714D01*
X8069643Y-11547714D01*
X8098214Y-11562000D01*
X8112500Y-11576286D01*
X8126786Y-11604857D01*
X8126786Y-11690571D01*
X8112500Y-11719143D01*
X8098214Y-11733429D01*
X8069643Y-11747714D01*
X8026786Y-11747714D01*
X8212500Y-11547714D02*
X8326786Y-11547714D01*
X8255357Y-11447714D02*
X8255357Y-11704857D01*
X8269643Y-11733429D01*
X8298214Y-11747714D01*
X8326786Y-11747714D01*
X8655357Y-11547714D02*
X8655357Y-11847714D01*
X8655357Y-11562000D02*
X8683928Y-11547714D01*
X8741071Y-11547714D01*
X8769643Y-11562000D01*
X8783928Y-11576286D01*
X8798214Y-11604857D01*
X8798214Y-11690571D01*
X8783928Y-11719143D01*
X8769643Y-11733429D01*
X8741071Y-11747714D01*
X8683928Y-11747714D01*
X8655357Y-11733429D01*
X8969643Y-11747714D02*
X8941071Y-11733429D01*
X8926786Y-11704857D01*
X8926786Y-11447714D01*
X9212500Y-11747714D02*
X9212500Y-11590571D01*
X9198214Y-11562000D01*
X9169643Y-11547714D01*
X9112500Y-11547714D01*
X9083928Y-11562000D01*
X9212500Y-11733429D02*
X9183928Y-11747714D01*
X9112500Y-11747714D01*
X9083928Y-11733429D01*
X9069643Y-11704857D01*
X9069643Y-11676286D01*
X9083928Y-11647714D01*
X9112500Y-11633429D01*
X9183928Y-11633429D01*
X9212500Y-11619143D01*
X9312500Y-11547714D02*
X9426786Y-11547714D01*
X9355357Y-11447714D02*
X9355357Y-11704857D01*
X9369643Y-11733429D01*
X9398214Y-11747714D01*
X9426786Y-11747714D01*
X9641071Y-11733429D02*
X9612500Y-11747714D01*
X9555357Y-11747714D01*
X9526786Y-11733429D01*
X9512500Y-11704857D01*
X9512500Y-11590571D01*
X9526786Y-11562000D01*
X9555357Y-11547714D01*
X9612500Y-11547714D01*
X9641071Y-11562000D01*
X9655357Y-11590571D01*
X9655357Y-11619143D01*
X9512500Y-11647714D01*
X9912500Y-11747714D02*
X9912500Y-11447714D01*
X9912500Y-11733429D02*
X9883928Y-11747714D01*
X9826786Y-11747714D01*
X9798214Y-11733429D01*
X9783928Y-11719143D01*
X9769643Y-11690571D01*
X9769643Y-11604857D01*
X9783928Y-11576286D01*
X9798214Y-11562000D01*
X9826786Y-11547714D01*
X9883928Y-11547714D01*
X9912500Y-11562000D01*
X10026786Y-11862000D02*
X10041071Y-11847714D01*
X10069643Y-11804857D01*
X10083928Y-11776286D01*
X10098214Y-11733429D01*
X10112500Y-11662000D01*
X10112500Y-11604857D01*
X10098214Y-11533429D01*
X10083928Y-11490571D01*
X10069643Y-11462000D01*
X10041071Y-11419143D01*
X10026786Y-11404857D01*
X-155000Y-12160500D02*
X-2500Y-12008000D01*
X-155000Y-11855500D01*
X-307500Y-12008000D01*
X-155000Y-12160500D01*
X255357Y-11843714D02*
X441071Y-11843714D01*
X341071Y-11958000D01*
X383928Y-11958000D01*
X412500Y-11972286D01*
X426786Y-11986571D01*
X441071Y-12015143D01*
X441071Y-12086571D01*
X426786Y-12115143D01*
X412500Y-12129429D01*
X383928Y-12143714D01*
X298214Y-12143714D01*
X269643Y-12129429D01*
X255357Y-12115143D01*
X569643Y-12115143D02*
X583928Y-12129429D01*
X569643Y-12143714D01*
X555357Y-12129429D01*
X569643Y-12115143D01*
X569643Y-12143714D01*
X769643Y-11843714D02*
X798214Y-11843714D01*
X826786Y-11858000D01*
X841071Y-11872286D01*
X855357Y-11900857D01*
X869643Y-11958000D01*
X869643Y-12029429D01*
X855357Y-12086571D01*
X841071Y-12115143D01*
X826786Y-12129429D01*
X798214Y-12143714D01*
X769643Y-12143714D01*
X741071Y-12129429D01*
X726786Y-12115143D01*
X712500Y-12086571D01*
X698214Y-12029429D01*
X698214Y-11958000D01*
X712500Y-11900857D01*
X726786Y-11872286D01*
X741071Y-11858000D01*
X769643Y-11843714D01*
X1141071Y-11843714D02*
X998214Y-11843714D01*
X983928Y-11986571D01*
X998214Y-11972286D01*
X1026786Y-11958000D01*
X1098214Y-11958000D01*
X1126786Y-11972286D01*
X1141071Y-11986571D01*
X1155357Y-12015143D01*
X1155357Y-12086571D01*
X1141071Y-12115143D01*
X1126786Y-12129429D01*
X1098214Y-12143714D01*
X1026786Y-12143714D01*
X998214Y-12129429D01*
X983928Y-12115143D01*
X1341071Y-11843714D02*
X1369643Y-11843714D01*
X1398214Y-11858000D01*
X1412500Y-11872286D01*
X1426786Y-11900857D01*
X1441071Y-11958000D01*
X1441071Y-12029429D01*
X1426786Y-12086571D01*
X1412500Y-12115143D01*
X1398214Y-12129429D01*
X1369643Y-12143714D01*
X1341071Y-12143714D01*
X1312500Y-12129429D01*
X1298214Y-12115143D01*
X1283928Y-12086571D01*
X1269643Y-12029429D01*
X1269643Y-11958000D01*
X1283928Y-11900857D01*
X1298214Y-11872286D01*
X1312500Y-11858000D01*
X1341071Y-11843714D01*
X1569643Y-12143714D02*
X1569643Y-11943714D01*
X1569643Y-11972286D02*
X1583928Y-11958000D01*
X1612500Y-11943714D01*
X1655357Y-11943714D01*
X1683928Y-11958000D01*
X1698214Y-11986571D01*
X1698214Y-12143714D01*
X1698214Y-11986571D02*
X1712500Y-11958000D01*
X1741071Y-11943714D01*
X1783928Y-11943714D01*
X1812500Y-11958000D01*
X1826786Y-11986571D01*
X1826786Y-12143714D01*
X1969643Y-12143714D02*
X1969643Y-11943714D01*
X1969643Y-11972286D02*
X1983928Y-11958000D01*
X2012500Y-11943714D01*
X2055357Y-11943714D01*
X2083928Y-11958000D01*
X2098214Y-11986571D01*
X2098214Y-12143714D01*
X2098214Y-11986571D02*
X2112500Y-11958000D01*
X2141071Y-11943714D01*
X2183928Y-11943714D01*
X2212500Y-11958000D01*
X2226786Y-11986571D01*
X2226786Y-12143714D01*
X2812500Y-11829429D02*
X2555357Y-12215143D01*
X3198214Y-11843714D02*
X3226786Y-11843714D01*
X3255357Y-11858000D01*
X3269643Y-11872286D01*
X3283928Y-11900857D01*
X3298214Y-11958000D01*
X3298214Y-12029429D01*
X3283928Y-12086571D01*
X3269643Y-12115143D01*
X3255357Y-12129429D01*
X3226786Y-12143714D01*
X3198214Y-12143714D01*
X3169643Y-12129429D01*
X3155357Y-12115143D01*
X3141071Y-12086571D01*
X3126786Y-12029429D01*
X3126786Y-11958000D01*
X3141071Y-11900857D01*
X3155357Y-11872286D01*
X3169643Y-11858000D01*
X3198214Y-11843714D01*
X3426786Y-12115143D02*
X3441071Y-12129429D01*
X3426786Y-12143714D01*
X3412500Y-12129429D01*
X3426786Y-12115143D01*
X3426786Y-12143714D01*
X3726786Y-12143714D02*
X3555357Y-12143714D01*
X3641071Y-12143714D02*
X3641071Y-11843714D01*
X3612500Y-11886571D01*
X3583928Y-11915143D01*
X3555357Y-11929429D01*
X3841071Y-11872286D02*
X3855357Y-11858000D01*
X3883928Y-11843714D01*
X3955357Y-11843714D01*
X3983928Y-11858000D01*
X3998214Y-11872286D01*
X4012500Y-11900857D01*
X4012500Y-11929429D01*
X3998214Y-11972286D01*
X3826786Y-12143714D01*
X4012500Y-12143714D01*
X4198214Y-11843714D02*
X4226786Y-11843714D01*
X4255357Y-11858000D01*
X4269643Y-11872286D01*
X4283928Y-11900857D01*
X4298214Y-11958000D01*
X4298214Y-12029429D01*
X4283928Y-12086571D01*
X4269643Y-12115143D01*
X4255357Y-12129429D01*
X4226786Y-12143714D01*
X4198214Y-12143714D01*
X4169643Y-12129429D01*
X4155357Y-12115143D01*
X4141071Y-12086571D01*
X4126786Y-12029429D01*
X4126786Y-11958000D01*
X4141071Y-11900857D01*
X4155357Y-11872286D01*
X4169643Y-11858000D01*
X4198214Y-11843714D01*
X4583928Y-12143714D02*
X4412500Y-12143714D01*
X4498214Y-12143714D02*
X4498214Y-11843714D01*
X4469643Y-11886571D01*
X4441071Y-11915143D01*
X4412500Y-11929429D01*
X4698214Y-11843714D02*
X4698214Y-11900857D01*
X4812500Y-11843714D02*
X4812500Y-11900857D01*
X5255357Y-12258000D02*
X5241071Y-12243714D01*
X5212500Y-12200857D01*
X5198214Y-12172286D01*
X5183928Y-12129429D01*
X5169643Y-12058000D01*
X5169643Y-12000857D01*
X5183928Y-11929429D01*
X5198214Y-11886571D01*
X5212500Y-11858000D01*
X5241071Y-11815143D01*
X5255357Y-11800857D01*
X5498214Y-11943714D02*
X5498214Y-12143714D01*
X5426786Y-11829429D02*
X5355357Y-12043714D01*
X5541071Y-12043714D01*
X5883928Y-12143714D02*
X5883928Y-11843714D01*
X6012500Y-12143714D02*
X6012500Y-11986571D01*
X5998214Y-11958000D01*
X5969643Y-11943714D01*
X5926786Y-11943714D01*
X5898214Y-11958000D01*
X5883928Y-11972286D01*
X6198214Y-12143714D02*
X6169643Y-12129429D01*
X6155357Y-12115143D01*
X6141071Y-12086571D01*
X6141071Y-12000857D01*
X6155357Y-11972286D01*
X6169643Y-11958000D01*
X6198214Y-11943714D01*
X6241071Y-11943714D01*
X6269643Y-11958000D01*
X6283928Y-11972286D01*
X6298214Y-12000857D01*
X6298214Y-12086571D01*
X6283928Y-12115143D01*
X6269643Y-12129429D01*
X6241071Y-12143714D01*
X6198214Y-12143714D01*
X6469643Y-12143714D02*
X6441071Y-12129429D01*
X6426786Y-12100857D01*
X6426786Y-11843714D01*
X6698214Y-12129429D02*
X6669643Y-12143714D01*
X6612500Y-12143714D01*
X6583928Y-12129429D01*
X6569643Y-12100857D01*
X6569643Y-11986571D01*
X6583928Y-11958000D01*
X6612500Y-11943714D01*
X6669643Y-11943714D01*
X6698214Y-11958000D01*
X6712500Y-11986571D01*
X6712500Y-12015143D01*
X6569643Y-12043714D01*
X6826786Y-12129429D02*
X6855357Y-12143714D01*
X6912500Y-12143714D01*
X6941071Y-12129429D01*
X6955357Y-12100857D01*
X6955357Y-12086571D01*
X6941071Y-12058000D01*
X6912500Y-12043714D01*
X6869643Y-12043714D01*
X6841071Y-12029429D01*
X6826786Y-12000857D01*
X6826786Y-11986571D01*
X6841071Y-11958000D01*
X6869643Y-11943714D01*
X6912500Y-11943714D01*
X6941071Y-11958000D01*
X7055357Y-12258000D02*
X7069643Y-12243714D01*
X7098214Y-12200857D01*
X7112500Y-12172286D01*
X7126786Y-12129429D01*
X7141071Y-12058000D01*
X7141071Y-12000857D01*
X7126786Y-11929429D01*
X7112500Y-11886571D01*
X7098214Y-11858000D01*
X7069643Y-11815143D01*
X7055357Y-11800857D01*
X7598214Y-12258000D02*
X7583928Y-12243714D01*
X7555357Y-12200857D01*
X7541071Y-12172286D01*
X7526786Y-12129429D01*
X7512500Y-12058000D01*
X7512500Y-12000857D01*
X7526786Y-11929429D01*
X7541071Y-11886571D01*
X7555357Y-11858000D01*
X7583928Y-11815143D01*
X7598214Y-11800857D01*
X7712500Y-11943714D02*
X7712500Y-12143714D01*
X7712500Y-11972286D02*
X7726786Y-11958000D01*
X7755357Y-11943714D01*
X7798214Y-11943714D01*
X7826786Y-11958000D01*
X7841071Y-11986571D01*
X7841071Y-12143714D01*
X8026786Y-12143714D02*
X7998214Y-12129429D01*
X7983928Y-12115143D01*
X7969643Y-12086571D01*
X7969643Y-12000857D01*
X7983928Y-11972286D01*
X7998214Y-11958000D01*
X8026786Y-11943714D01*
X8069643Y-11943714D01*
X8098214Y-11958000D01*
X8112500Y-11972286D01*
X8126786Y-12000857D01*
X8126786Y-12086571D01*
X8112500Y-12115143D01*
X8098214Y-12129429D01*
X8069643Y-12143714D01*
X8026786Y-12143714D01*
X8212500Y-11943714D02*
X8326786Y-11943714D01*
X8255357Y-11843714D02*
X8255357Y-12100857D01*
X8269643Y-12129429D01*
X8298214Y-12143714D01*
X8326786Y-12143714D01*
X8655357Y-11943714D02*
X8655357Y-12243714D01*
X8655357Y-11958000D02*
X8683928Y-11943714D01*
X8741071Y-11943714D01*
X8769643Y-11958000D01*
X8783928Y-11972286D01*
X8798214Y-12000857D01*
X8798214Y-12086571D01*
X8783928Y-12115143D01*
X8769643Y-12129429D01*
X8741071Y-12143714D01*
X8683928Y-12143714D01*
X8655357Y-12129429D01*
X8969643Y-12143714D02*
X8941071Y-12129429D01*
X8926786Y-12100857D01*
X8926786Y-11843714D01*
X9212500Y-12143714D02*
X9212500Y-11986571D01*
X9198214Y-11958000D01*
X9169643Y-11943714D01*
X9112500Y-11943714D01*
X9083928Y-11958000D01*
X9212500Y-12129429D02*
X9183928Y-12143714D01*
X9112500Y-12143714D01*
X9083928Y-12129429D01*
X9069643Y-12100857D01*
X9069643Y-12072286D01*
X9083928Y-12043714D01*
X9112500Y-12029429D01*
X9183928Y-12029429D01*
X9212500Y-12015143D01*
X9312500Y-11943714D02*
X9426786Y-11943714D01*
X9355357Y-11843714D02*
X9355357Y-12100857D01*
X9369643Y-12129429D01*
X9398214Y-12143714D01*
X9426786Y-12143714D01*
X9641071Y-12129429D02*
X9612500Y-12143714D01*
X9555357Y-12143714D01*
X9526786Y-12129429D01*
X9512500Y-12100857D01*
X9512500Y-11986571D01*
X9526786Y-11958000D01*
X9555357Y-11943714D01*
X9612500Y-11943714D01*
X9641071Y-11958000D01*
X9655357Y-11986571D01*
X9655357Y-12015143D01*
X9512500Y-12043714D01*
X9912500Y-12143714D02*
X9912500Y-11843714D01*
X9912500Y-12129429D02*
X9883928Y-12143714D01*
X9826786Y-12143714D01*
X9798214Y-12129429D01*
X9783928Y-12115143D01*
X9769643Y-12086571D01*
X9769643Y-12000857D01*
X9783928Y-11972286D01*
X9798214Y-11958000D01*
X9826786Y-11943714D01*
X9883928Y-11943714D01*
X9912500Y-11958000D01*
X10026786Y-12258000D02*
X10041071Y-12243714D01*
X10069643Y-12200857D01*
X10083928Y-12172286D01*
X10098214Y-12129429D01*
X10112500Y-12058000D01*
X10112500Y-12000857D01*
X10098214Y-11929429D01*
X10083928Y-11886571D01*
X10069643Y-11858000D01*
X10041071Y-11815143D01*
X10026786Y-11800857D01*
X-402500Y-12243000D02*
X-2500Y-12643000D01*
X-2500Y-12243000D02*
X-402500Y-12643000D01*
X-2500Y-12443000D02*
G75*
G03*
X-2500Y-12443000I-200000J0D01*
G01*
X412500Y-12378714D02*
X412500Y-12578714D01*
X341071Y-12264429D02*
X269643Y-12478714D01*
X455357Y-12478714D01*
X569643Y-12550143D02*
X583928Y-12564429D01*
X569643Y-12578714D01*
X555357Y-12564429D01*
X569643Y-12550143D01*
X569643Y-12578714D01*
X769643Y-12278714D02*
X798214Y-12278714D01*
X826786Y-12293000D01*
X841071Y-12307286D01*
X855357Y-12335857D01*
X869643Y-12393000D01*
X869643Y-12464429D01*
X855357Y-12521571D01*
X841071Y-12550143D01*
X826786Y-12564429D01*
X798214Y-12578714D01*
X769643Y-12578714D01*
X741071Y-12564429D01*
X726786Y-12550143D01*
X712500Y-12521571D01*
X698214Y-12464429D01*
X698214Y-12393000D01*
X712500Y-12335857D01*
X726786Y-12307286D01*
X741071Y-12293000D01*
X769643Y-12278714D01*
X1055357Y-12278714D02*
X1083928Y-12278714D01*
X1112500Y-12293000D01*
X1126786Y-12307286D01*
X1141071Y-12335857D01*
X1155357Y-12393000D01*
X1155357Y-12464429D01*
X1141071Y-12521571D01*
X1126786Y-12550143D01*
X1112500Y-12564429D01*
X1083928Y-12578714D01*
X1055357Y-12578714D01*
X1026786Y-12564429D01*
X1012500Y-12550143D01*
X998214Y-12521571D01*
X983928Y-12464429D01*
X983928Y-12393000D01*
X998214Y-12335857D01*
X1012500Y-12307286D01*
X1026786Y-12293000D01*
X1055357Y-12278714D01*
X1341071Y-12278714D02*
X1369643Y-12278714D01*
X1398214Y-12293000D01*
X1412500Y-12307286D01*
X1426786Y-12335857D01*
X1441071Y-12393000D01*
X1441071Y-12464429D01*
X1426786Y-12521571D01*
X1412500Y-12550143D01*
X1398214Y-12564429D01*
X1369643Y-12578714D01*
X1341071Y-12578714D01*
X1312500Y-12564429D01*
X1298214Y-12550143D01*
X1283928Y-12521571D01*
X1269643Y-12464429D01*
X1269643Y-12393000D01*
X1283928Y-12335857D01*
X1298214Y-12307286D01*
X1312500Y-12293000D01*
X1341071Y-12278714D01*
X1569643Y-12578714D02*
X1569643Y-12378714D01*
X1569643Y-12407286D02*
X1583928Y-12393000D01*
X1612500Y-12378714D01*
X1655357Y-12378714D01*
X1683928Y-12393000D01*
X1698214Y-12421571D01*
X1698214Y-12578714D01*
X1698214Y-12421571D02*
X1712500Y-12393000D01*
X1741071Y-12378714D01*
X1783928Y-12378714D01*
X1812500Y-12393000D01*
X1826786Y-12421571D01*
X1826786Y-12578714D01*
X1969643Y-12578714D02*
X1969643Y-12378714D01*
X1969643Y-12407286D02*
X1983928Y-12393000D01*
X2012500Y-12378714D01*
X2055357Y-12378714D01*
X2083928Y-12393000D01*
X2098214Y-12421571D01*
X2098214Y-12578714D01*
X2098214Y-12421571D02*
X2112500Y-12393000D01*
X2141071Y-12378714D01*
X2183928Y-12378714D01*
X2212500Y-12393000D01*
X2226786Y-12421571D01*
X2226786Y-12578714D01*
X2812500Y-12264429D02*
X2555357Y-12650143D01*
X3198214Y-12278714D02*
X3226786Y-12278714D01*
X3255357Y-12293000D01*
X3269643Y-12307286D01*
X3283928Y-12335857D01*
X3298214Y-12393000D01*
X3298214Y-12464429D01*
X3283928Y-12521571D01*
X3269643Y-12550143D01*
X3255357Y-12564429D01*
X3226786Y-12578714D01*
X3198214Y-12578714D01*
X3169643Y-12564429D01*
X3155357Y-12550143D01*
X3141071Y-12521571D01*
X3126786Y-12464429D01*
X3126786Y-12393000D01*
X3141071Y-12335857D01*
X3155357Y-12307286D01*
X3169643Y-12293000D01*
X3198214Y-12278714D01*
X3426786Y-12550143D02*
X3441071Y-12564429D01*
X3426786Y-12578714D01*
X3412500Y-12564429D01*
X3426786Y-12550143D01*
X3426786Y-12578714D01*
X3726786Y-12578714D02*
X3555357Y-12578714D01*
X3641071Y-12578714D02*
X3641071Y-12278714D01*
X3612500Y-12321571D01*
X3583928Y-12350143D01*
X3555357Y-12364429D01*
X3998214Y-12278714D02*
X3855357Y-12278714D01*
X3841071Y-12421571D01*
X3855357Y-12407286D01*
X3883928Y-12393000D01*
X3955357Y-12393000D01*
X3983928Y-12407286D01*
X3998214Y-12421571D01*
X4012500Y-12450143D01*
X4012500Y-12521571D01*
X3998214Y-12550143D01*
X3983928Y-12564429D01*
X3955357Y-12578714D01*
X3883928Y-12578714D01*
X3855357Y-12564429D01*
X3841071Y-12550143D01*
X4112500Y-12278714D02*
X4312500Y-12278714D01*
X4183928Y-12578714D01*
X4569643Y-12278714D02*
X4426786Y-12278714D01*
X4412500Y-12421571D01*
X4426786Y-12407286D01*
X4455357Y-12393000D01*
X4526786Y-12393000D01*
X4555357Y-12407286D01*
X4569643Y-12421571D01*
X4583928Y-12450143D01*
X4583928Y-12521571D01*
X4569643Y-12550143D01*
X4555357Y-12564429D01*
X4526786Y-12578714D01*
X4455357Y-12578714D01*
X4426786Y-12564429D01*
X4412500Y-12550143D01*
X4698214Y-12278714D02*
X4698214Y-12335857D01*
X4812500Y-12278714D02*
X4812500Y-12335857D01*
X5255357Y-12693000D02*
X5241071Y-12678714D01*
X5212500Y-12635857D01*
X5198214Y-12607286D01*
X5183928Y-12564429D01*
X5169643Y-12493000D01*
X5169643Y-12435857D01*
X5183928Y-12364429D01*
X5198214Y-12321571D01*
X5212500Y-12293000D01*
X5241071Y-12250143D01*
X5255357Y-12235857D01*
X5498214Y-12278714D02*
X5441071Y-12278714D01*
X5412500Y-12293000D01*
X5398214Y-12307286D01*
X5369643Y-12350143D01*
X5355357Y-12407286D01*
X5355357Y-12521571D01*
X5369643Y-12550143D01*
X5383928Y-12564429D01*
X5412500Y-12578714D01*
X5469643Y-12578714D01*
X5498214Y-12564429D01*
X5512500Y-12550143D01*
X5526786Y-12521571D01*
X5526786Y-12450143D01*
X5512500Y-12421571D01*
X5498214Y-12407286D01*
X5469643Y-12393000D01*
X5412500Y-12393000D01*
X5383928Y-12407286D01*
X5369643Y-12421571D01*
X5355357Y-12450143D01*
X5783928Y-12378714D02*
X5783928Y-12578714D01*
X5712500Y-12264429D02*
X5641071Y-12478714D01*
X5826786Y-12478714D01*
X6169643Y-12578714D02*
X6169643Y-12278714D01*
X6298214Y-12578714D02*
X6298214Y-12421571D01*
X6283928Y-12393000D01*
X6255357Y-12378714D01*
X6212500Y-12378714D01*
X6183928Y-12393000D01*
X6169643Y-12407286D01*
X6483928Y-12578714D02*
X6455357Y-12564429D01*
X6441071Y-12550143D01*
X6426786Y-12521571D01*
X6426786Y-12435857D01*
X6441071Y-12407286D01*
X6455357Y-12393000D01*
X6483928Y-12378714D01*
X6526786Y-12378714D01*
X6555357Y-12393000D01*
X6569643Y-12407286D01*
X6583928Y-12435857D01*
X6583928Y-12521571D01*
X6569643Y-12550143D01*
X6555357Y-12564429D01*
X6526786Y-12578714D01*
X6483928Y-12578714D01*
X6755357Y-12578714D02*
X6726786Y-12564429D01*
X6712500Y-12535857D01*
X6712500Y-12278714D01*
X6983928Y-12564429D02*
X6955357Y-12578714D01*
X6898214Y-12578714D01*
X6869643Y-12564429D01*
X6855357Y-12535857D01*
X6855357Y-12421571D01*
X6869643Y-12393000D01*
X6898214Y-12378714D01*
X6955357Y-12378714D01*
X6983928Y-12393000D01*
X6998214Y-12421571D01*
X6998214Y-12450143D01*
X6855357Y-12478714D01*
X7112500Y-12564429D02*
X7141071Y-12578714D01*
X7198214Y-12578714D01*
X7226786Y-12564429D01*
X7241071Y-12535857D01*
X7241071Y-12521571D01*
X7226786Y-12493000D01*
X7198214Y-12478714D01*
X7155357Y-12478714D01*
X7126786Y-12464429D01*
X7112500Y-12435857D01*
X7112500Y-12421571D01*
X7126786Y-12393000D01*
X7155357Y-12378714D01*
X7198214Y-12378714D01*
X7226786Y-12393000D01*
X7341071Y-12693000D02*
X7355357Y-12678714D01*
X7383928Y-12635857D01*
X7398214Y-12607286D01*
X7412500Y-12564429D01*
X7426786Y-12493000D01*
X7426786Y-12435857D01*
X7412500Y-12364429D01*
X7398214Y-12321571D01*
X7383928Y-12293000D01*
X7355357Y-12250143D01*
X7341071Y-12235857D01*
X7883928Y-12693000D02*
X7869643Y-12678714D01*
X7841071Y-12635857D01*
X7826786Y-12607286D01*
X7812500Y-12564429D01*
X7798214Y-12493000D01*
X7798214Y-12435857D01*
X7812500Y-12364429D01*
X7826786Y-12321571D01*
X7841071Y-12293000D01*
X7869643Y-12250143D01*
X7883928Y-12235857D01*
X7998214Y-12378714D02*
X7998214Y-12578714D01*
X7998214Y-12407286D02*
X8012500Y-12393000D01*
X8041071Y-12378714D01*
X8083928Y-12378714D01*
X8112500Y-12393000D01*
X8126786Y-12421571D01*
X8126786Y-12578714D01*
X8312500Y-12578714D02*
X8283928Y-12564429D01*
X8269643Y-12550143D01*
X8255357Y-12521571D01*
X8255357Y-12435857D01*
X8269643Y-12407286D01*
X8283928Y-12393000D01*
X8312500Y-12378714D01*
X8355357Y-12378714D01*
X8383928Y-12393000D01*
X8398214Y-12407286D01*
X8412500Y-12435857D01*
X8412500Y-12521571D01*
X8398214Y-12550143D01*
X8383928Y-12564429D01*
X8355357Y-12578714D01*
X8312500Y-12578714D01*
X8498214Y-12378714D02*
X8612500Y-12378714D01*
X8541071Y-12278714D02*
X8541071Y-12535857D01*
X8555357Y-12564429D01*
X8583928Y-12578714D01*
X8612500Y-12578714D01*
X8941071Y-12378714D02*
X8941071Y-12678714D01*
X8941071Y-12393000D02*
X8969643Y-12378714D01*
X9026786Y-12378714D01*
X9055357Y-12393000D01*
X9069643Y-12407286D01*
X9083928Y-12435857D01*
X9083928Y-12521571D01*
X9069643Y-12550143D01*
X9055357Y-12564429D01*
X9026786Y-12578714D01*
X8969643Y-12578714D01*
X8941071Y-12564429D01*
X9255357Y-12578714D02*
X9226786Y-12564429D01*
X9212500Y-12535857D01*
X9212500Y-12278714D01*
X9498214Y-12578714D02*
X9498214Y-12421571D01*
X9483928Y-12393000D01*
X9455357Y-12378714D01*
X9398214Y-12378714D01*
X9369643Y-12393000D01*
X9498214Y-12564429D02*
X9469643Y-12578714D01*
X9398214Y-12578714D01*
X9369643Y-12564429D01*
X9355357Y-12535857D01*
X9355357Y-12507286D01*
X9369643Y-12478714D01*
X9398214Y-12464429D01*
X9469643Y-12464429D01*
X9498214Y-12450143D01*
X9598214Y-12378714D02*
X9712500Y-12378714D01*
X9641071Y-12278714D02*
X9641071Y-12535857D01*
X9655357Y-12564429D01*
X9683928Y-12578714D01*
X9712500Y-12578714D01*
X9926786Y-12564429D02*
X9898214Y-12578714D01*
X9841071Y-12578714D01*
X9812500Y-12564429D01*
X9798214Y-12535857D01*
X9798214Y-12421571D01*
X9812500Y-12393000D01*
X9841071Y-12378714D01*
X9898214Y-12378714D01*
X9926786Y-12393000D01*
X9941071Y-12421571D01*
X9941071Y-12450143D01*
X9798214Y-12478714D01*
X10198214Y-12578714D02*
X10198214Y-12278714D01*
X10198214Y-12564429D02*
X10169643Y-12578714D01*
X10112500Y-12578714D01*
X10083928Y-12564429D01*
X10069643Y-12550143D01*
X10055357Y-12521571D01*
X10055357Y-12435857D01*
X10069643Y-12407286D01*
X10083928Y-12393000D01*
X10112500Y-12378714D01*
X10169643Y-12378714D01*
X10198214Y-12393000D01*
X10312500Y-12693000D02*
X10326786Y-12678714D01*
X10355357Y-12635857D01*
X10369643Y-12607286D01*
X10383928Y-12564429D01*
X10398214Y-12493000D01*
X10398214Y-12435857D01*
X10383928Y-12364429D01*
X10369643Y-12321571D01*
X10355357Y-12293000D01*
X10326786Y-12250143D01*
X10312500Y-12235857D01*
M02*
