
  <svg width='840px'
       height='300px'
       viewBox='0 0 840 300'
       xmlns='http://www.w3.org/2000/svg'
       xmlns:xlink="http://www.w3.org/1999/xlink">

    <style type='text/css'>
    .keycap .border { stroke: black; stroke-width: 2; }
    .keycap .inner.border { stroke: rgba(0,0,0,.1); }
    </style>
    <defs>
      <linearGradient id="DCS">
        <stop offset="0%" stop-color="black" stop-opacity="0"/>
        <stop offset="40%" stop-color="black" stop-opacity="0.1"/>
        <stop offset="60%" stop-color="black" stop-opacity="0.1"/>
        <stop offset="100%" stop-color="black" stop-opacity="0"/>
      </linearGradient>
      <linearGradient id="SPACE" x1="0%" x2="0%" y1="0%" y2="100%">
        <stop offset="0%" stop-color="black" stop-opacity="0.1"/>
        <stop offset="20%" stop-color="black" stop-opacity="0.0"/>
        <stop offset="40%" stop-color="black" stop-opacity="0.0"/>
        <stop offset="100%" stop-color="black" stop-opacity="0.1"/>
      </linearGradient>
      <radialGradient id="DSA">
        <stop offset="0%" stop-color="black" stop-opacity="0.1"/>
        <stop offset="10%" stop-color="black" stop-opacity="0.1"/>
        <stop offset="100%" stop-color="black" stop-opacity="0"/>
      </radialGradient>
      <radialGradient id="SA" xlink:href="#DSA" />
    </defs>

    <g transform='translate(10,10)'>
      <rect width="820" height="280"
            stroke="#ddd" stroke-width="1" fill="#eeeeee" rx="6"/>
      <g transform='translate(5,5)'>
        
  <g class='  keycap'
  >

  
    <!-- Outer Border -->
    <rect x="1" y="1"
          width="52" height="52"
          rx="5" fill="#044b7d" class="outer border"/>
    
    <!-- Outer Fill -->
    <rect x="1" y="1"
          width="52" height="52"
          rx="5" fill="#044b7d"/>
    

    
      <!-- Inner Border -->
      <rect x="7" y="4"
            width="40" height="40"
            rx="5" fill="#235a8d" class="inner border"/>
      
      <!-- Inner Fill -->
      <rect x="7" y="4"
            width="40" height="40"
            rx="5" fill="#235a8d"/>
      
      

     
   
  </g>

  <g class='  keycap'
  >

  
    <!-- Outer Border -->
    <rect x="55" y="1"
          width="52" height="52"
          rx="5" fill="#ffffff" class="outer border"/>
    
    <!-- Outer Fill -->
    <rect x="55" y="1"
          width="52" height="52"
          rx="5" fill="#ffffff"/>
    

    
      <!-- Inner Border -->
      <rect x="61" y="4"
            width="40" height="40"
            rx="5" fill="#fffffe" class="inner border"/>
      
      <!-- Inner Fill -->
      <rect x="61" y="4"
            width="40" height="40"
            rx="5" fill="#fffffe"/>
      
      

     
   
  </g>

  <g class='  keycap'
  >

  
    <!-- Outer Border -->
    <rect x="109" y="1"
          width="52" height="52"
          rx="5" fill="#ffffff" class="outer border"/>
    
    <!-- Outer Fill -->
    <rect x="109" y="1"
          width="52" height="52"
          rx="5" fill="#ffffff"/>
    

    
      <!-- Inner Border -->
      <rect x="115" y="4"
            width="40" height="40"
            rx="5" fill="#fffffe" class="inner border"/>
      
      <!-- Inner Fill -->
      <rect x="115" y="4"
            width="40" height="40"
            rx="5" fill="#fffffe"/>
      
      

     
   
  </g>

  <g class='  keycap'
  >

  
    <!-- Outer Border -->
    <rect x="163" y="1"
          width="52" height="52"
          rx="5" fill="#ffffff" class="outer border"/>
    
    <!-- Outer Fill -->
    <rect x="163" y="1"
          width="52" height="52"
          rx="5" fill="#ffffff"/>
    

    
      <!-- Inner Border -->
      <rect x="169" y="4"
            width="40" height="40"
            rx="5" fill="#fffffe" class="inner border"/>
      
      <!-- Inner Fill -->
      <rect x="169" y="4"
            width="40" height="40"
            rx="5" fill="#fffffe"/>
      
      

     
   
  </g>

  <g class='  keycap'
  >

  
    <!-- Outer Border -->
    <rect x="217" y="1"
          width="52" height="52"
          rx="5" fill="#ffffff" class="outer border"/>
    
    <!-- Outer Fill -->
    <rect x="217" y="1"
          width="52" height="52"
          rx="5" fill="#ffffff"/>
    

    
      <!-- Inner Border -->
      <rect x="223" y="4"
            width="40" height="40"
            rx="5" fill="#fffffe" class="inner border"/>
      
      <!-- Inner Fill -->
      <rect x="223" y="4"
            width="40" height="40"
            rx="5" fill="#fffffe"/>
      
      

     
   
  </g>

  <g class='  keycap'
  >

  
    <!-- Outer Border -->
    <rect x="271" y="1"
          width="52" height="52"
          rx="5" fill="#ffffff" class="outer border"/>
    
    <!-- Outer Fill -->
    <rect x="271" y="1"
          width="52" height="52"
          rx="5" fill="#ffffff"/>
    

    
      <!-- Inner Border -->
      <rect x="277" y="4"
            width="40" height="40"
            rx="5" fill="#fffffe" class="inner border"/>
      
      <!-- Inner Fill -->
      <rect x="277" y="4"
            width="40" height="40"
            rx="5" fill="#fffffe"/>
      
      

     
   
  </g>

  <g class='  keycap'
  >

  
    <!-- Outer Border -->
    <rect x="352" y="1"
          width="106" height="127.6"
          rx="5" fill="#d1cdcd" class="outer border"/>
    
    <!-- Outer Fill -->
    <rect x="352" y="1"
          width="106" height="127.6"
          rx="5" fill="#d1cdcd"/>
    

    
      <!-- Inner Border -->
      <rect x="358" y="4"
            width="94" height="115.6"
            rx="5" fill="#fffefe" class="inner border"/>
      
      <!-- Inner Fill -->
      <rect x="358" y="4"
            width="94" height="115.6"
            rx="5" fill="#fffefe"/>
      
      

     
   
  </g>

  <g class='  keycap'
  >

  
    <!-- Outer Border -->
    <rect x="352" y="1"
          width="106" height="106"
          rx="5" fill="#ffffff" class="outer border"/>
    
    <!-- Outer Fill -->
    <rect x="352" y="1"
          width="106" height="106"
          rx="5" fill="#ffffff"/>
    

    
      <!-- Inner Border -->
      <rect x="358" y="4"
            width="94" height="94"
            rx="5" fill="#fffffe" class="inner border"/>
      
      <!-- Inner Fill -->
      <rect x="358" y="4"
            width="94" height="94"
            rx="5" fill="#fffffe"/>
      
      

     
   
  </g>

  <g class='  keycap'
  >

  
    <!-- Outer Border -->
    <rect x="487" y="1"
          width="52" height="52"
          rx="5" fill="#ffffff" class="outer border"/>
    
    <!-- Outer Fill -->
    <rect x="487" y="1"
          width="52" height="52"
          rx="5" fill="#ffffff"/>
    

    
      <!-- Inner Border -->
      <rect x="493" y="4"
            width="40" height="40"
            rx="5" fill="#fffffe" class="inner border"/>
      
      <!-- Inner Fill -->
      <rect x="493" y="4"
            width="40" height="40"
            rx="5" fill="#fffffe"/>
      
      

     
   
  </g>

  <g class='  keycap'
  >

  
    <!-- Outer Border -->
    <rect x="541" y="1"
          width="52" height="52"
          rx="5" fill="#ffffff" class="outer border"/>
    
    <!-- Outer Fill -->
    <rect x="541" y="1"
          width="52" height="52"
          rx="5" fill="#ffffff"/>
    

    
      <!-- Inner Border -->
      <rect x="547" y="4"
            width="40" height="40"
            rx="5" fill="#fffffe" class="inner border"/>
      
      <!-- Inner Fill -->
      <rect x="547" y="4"
            width="40" height="40"
            rx="5" fill="#fffffe"/>
      
      

     
   
  </g>

  <g class='  keycap'
  >

  
    <!-- Outer Border -->
    <rect x="595" y="1"
          width="52" height="52"
          rx="5" fill="#ffffff" class="outer border"/>
    
    <!-- Outer Fill -->
    <rect x="595" y="1"
          width="52" height="52"
          rx="5" fill="#ffffff"/>
    

    
      <!-- Inner Border -->
      <rect x="601" y="4"
            width="40" height="40"
            rx="5" fill="#fffffe" class="inner border"/>
      
      <!-- Inner Fill -->
      <rect x="601" y="4"
            width="40" height="40"
            rx="5" fill="#fffffe"/>
      
      

     
   
  </g>

  <g class='  keycap'
  >

  
    <!-- Outer Border -->
    <rect x="649" y="1"
          width="52" height="52"
          rx="5" fill="#ffffff" class="outer border"/>
    
    <!-- Outer Fill -->
    <rect x="649" y="1"
          width="52" height="52"
          rx="5" fill="#ffffff"/>
    

    
      <!-- Inner Border -->
      <rect x="655" y="4"
            width="40" height="40"
            rx="5" fill="#fffffe" class="inner border"/>
      
      <!-- Inner Fill -->
      <rect x="655" y="4"
            width="40" height="40"
            rx="5" fill="#fffffe"/>
      
      

     
   
  </g>

  <g class='  keycap'
  >

  
    <!-- Outer Border -->
    <rect x="703" y="1"
          width="52" height="52"
          rx="5" fill="#ffffff" class="outer border"/>
    
    <!-- Outer Fill -->
    <rect x="703" y="1"
          width="52" height="52"
          rx="5" fill="#ffffff"/>
    

    
      <!-- Inner Border -->
      <rect x="709" y="4"
            width="40" height="40"
            rx="5" fill="#fffffe" class="inner border"/>
      
      <!-- Inner Fill -->
      <rect x="709" y="4"
            width="40" height="40"
            rx="5" fill="#fffffe"/>
      
      

     
   
  </g>

  <g class='  keycap'
  >

  
    <!-- Outer Border -->
    <rect x="757" y="1"
          width="52" height="52"
          rx="5" fill="#ffffff" class="outer border"/>
    
    <!-- Outer Fill -->
    <rect x="757" y="1"
          width="52" height="52"
          rx="5" fill="#ffffff"/>
    

    
      <!-- Inner Border -->
      <rect x="763" y="4"
            width="40" height="40"
            rx="5" fill="#fffffe" class="inner border"/>
      
      <!-- Inner Fill -->
      <rect x="763" y="4"
            width="40" height="40"
            rx="5" fill="#fffffe"/>
      
      

     
   
  </g>

  <g class='  keycap'
  >

  
    <!-- Outer Border -->
    <rect x="1" y="55"
          width="52" height="52"
          rx="5" fill="#044b7d" class="outer border"/>
    
    <!-- Outer Fill -->
    <rect x="1" y="55"
          width="52" height="52"
          rx="5" fill="#044b7d"/>
    

    
      <!-- Inner Border -->
      <rect x="7" y="58"
            width="40" height="40"
            rx="5" fill="#235a8d" class="inner border"/>
      
      <!-- Inner Fill -->
      <rect x="7" y="58"
            width="40" height="40"
            rx="5" fill="#235a8d"/>
      
      

     
   
  </g>

  <g class='  keycap'
  >

  
    <!-- Outer Border -->
    <rect x="55" y="55"
          width="52" height="52"
          rx="5" fill="#ffffff" class="outer border"/>
    
    <!-- Outer Fill -->
    <rect x="55" y="55"
          width="52" height="52"
          rx="5" fill="#ffffff"/>
    

    
      <!-- Inner Border -->
      <rect x="61" y="58"
            width="40" height="40"
            rx="5" fill="#fffffe" class="inner border"/>
      
      <!-- Inner Fill -->
      <rect x="61" y="58"
            width="40" height="40"
            rx="5" fill="#fffffe"/>
      
      

     
   
  </g>

  <g class='  keycap'
  >

  
    <!-- Outer Border -->
    <rect x="109" y="55"
          width="52" height="52"
          rx="5" fill="#ffffff" class="outer border"/>
    
    <!-- Outer Fill -->
    <rect x="109" y="55"
          width="52" height="52"
          rx="5" fill="#ffffff"/>
    

    
      <!-- Inner Border -->
      <rect x="115" y="58"
            width="40" height="40"
            rx="5" fill="#fffffe" class="inner border"/>
      
      <!-- Inner Fill -->
      <rect x="115" y="58"
            width="40" height="40"
            rx="5" fill="#fffffe"/>
      
      

     
   
  </g>

  <g class='  keycap'
  >

  
    <!-- Outer Border -->
    <rect x="163" y="55"
          width="52" height="52"
          rx="5" fill="#ffffff" class="outer border"/>
    
    <!-- Outer Fill -->
    <rect x="163" y="55"
          width="52" height="52"
          rx="5" fill="#ffffff"/>
    

    
      <!-- Inner Border -->
      <rect x="169" y="58"
            width="40" height="40"
            rx="5" fill="#fffffe" class="inner border"/>
      
      <!-- Inner Fill -->
      <rect x="169" y="58"
            width="40" height="40"
            rx="5" fill="#fffffe"/>
      
      

     
   
  </g>

  <g class='  keycap'
  >

  
    <!-- Outer Border -->
    <rect x="217" y="55"
          width="52" height="52"
          rx="5" fill="#ffffff" class="outer border"/>
    
    <!-- Outer Fill -->
    <rect x="217" y="55"
          width="52" height="52"
          rx="5" fill="#ffffff"/>
    

    
      <!-- Inner Border -->
      <rect x="223" y="58"
            width="40" height="40"
            rx="5" fill="#fffffe" class="inner border"/>
      
      <!-- Inner Fill -->
      <rect x="223" y="58"
            width="40" height="40"
            rx="5" fill="#fffffe"/>
      
      

     
   
  </g>

  <g class='  keycap'
  >

  
    <!-- Outer Border -->
    <rect x="271" y="55"
          width="52" height="52"
          rx="5" fill="#ffffff" class="outer border"/>
    
    <!-- Outer Fill -->
    <rect x="271" y="55"
          width="52" height="52"
          rx="5" fill="#ffffff"/>
    

    
      <!-- Inner Border -->
      <rect x="277" y="58"
            width="40" height="40"
            rx="5" fill="#fffffe" class="inner border"/>
      
      <!-- Inner Fill -->
      <rect x="277" y="58"
            width="40" height="40"
            rx="5" fill="#fffffe"/>
      
      

     
   
  </g>

  <g class='  keycap'
  >

  
    <!-- Outer Border -->
    <rect x="487" y="55"
          width="52" height="52"
          rx="5" fill="#ffffff" class="outer border"/>
    
    <!-- Outer Fill -->
    <rect x="487" y="55"
          width="52" height="52"
          rx="5" fill="#ffffff"/>
    

    
      <!-- Inner Border -->
      <rect x="493" y="58"
            width="40" height="40"
            rx="5" fill="#fffffe" class="inner border"/>
      
      <!-- Inner Fill -->
      <rect x="493" y="58"
            width="40" height="40"
            rx="5" fill="#fffffe"/>
      
      

     
   
  </g>

  <g class='  keycap'
  >

  
    <!-- Outer Border -->
    <rect x="541" y="55"
          width="52" height="52"
          rx="5" fill="#ffffff" class="outer border"/>
    
    <!-- Outer Fill -->
    <rect x="541" y="55"
          width="52" height="52"
          rx="5" fill="#ffffff"/>
    

    
      <!-- Inner Border -->
      <rect x="547" y="58"
            width="40" height="40"
            rx="5" fill="#fffffe" class="inner border"/>
      
      <!-- Inner Fill -->
      <rect x="547" y="58"
            width="40" height="40"
            rx="5" fill="#fffffe"/>
      
      

     
   
  </g>

  <g class='  keycap'
  >

  
    <!-- Outer Border -->
    <rect x="595" y="55"
          width="52" height="52"
          rx="5" fill="#ffffff" class="outer border"/>
    
    <!-- Outer Fill -->
    <rect x="595" y="55"
          width="52" height="52"
          rx="5" fill="#ffffff"/>
    

    
      <!-- Inner Border -->
      <rect x="601" y="58"
            width="40" height="40"
            rx="5" fill="#fffffe" class="inner border"/>
      
      <!-- Inner Fill -->
      <rect x="601" y="58"
            width="40" height="40"
            rx="5" fill="#fffffe"/>
      
      

     
   
  </g>

  <g class='  keycap'
  >

  
    <!-- Outer Border -->
    <rect x="649" y="55"
          width="52" height="52"
          rx="5" fill="#ffffff" class="outer border"/>
    
    <!-- Outer Fill -->
    <rect x="649" y="55"
          width="52" height="52"
          rx="5" fill="#ffffff"/>
    

    
      <!-- Inner Border -->
      <rect x="655" y="58"
            width="40" height="40"
            rx="5" fill="#fffffe" class="inner border"/>
      
      <!-- Inner Fill -->
      <rect x="655" y="58"
            width="40" height="40"
            rx="5" fill="#fffffe"/>
      
      

     
   
  </g>

  <g class='  keycap'
  >

  
    <!-- Outer Border -->
    <rect x="703" y="55"
          width="52" height="52"
          rx="5" fill="#ffffff" class="outer border"/>
    
    <!-- Outer Fill -->
    <rect x="703" y="55"
          width="52" height="52"
          rx="5" fill="#ffffff"/>
    

    
      <!-- Inner Border -->
      <rect x="709" y="58"
            width="40" height="40"
            rx="5" fill="#fffffe" class="inner border"/>
      
      <!-- Inner Fill -->
      <rect x="709" y="58"
            width="40" height="40"
            rx="5" fill="#fffffe"/>
      
      

     
   
  </g>

  <g class='  keycap'
  >

  
    <!-- Outer Border -->
    <rect x="757" y="55"
          width="52" height="52"
          rx="5" fill="#ffffff" class="outer border"/>
    
    <!-- Outer Fill -->
    <rect x="757" y="55"
          width="52" height="52"
          rx="5" fill="#ffffff"/>
    

    
      <!-- Inner Border -->
      <rect x="763" y="58"
            width="40" height="40"
            rx="5" fill="#fffffe" class="inner border"/>
      
      <!-- Inner Fill -->
      <rect x="763" y="58"
            width="40" height="40"
            rx="5" fill="#fffffe"/>
      
      

     
   
  </g>

  <g class='  keycap'
  >

  
    <!-- Outer Border -->
    <rect x="1" y="109"
          width="52" height="52"
          rx="5" fill="#044b7d" class="outer border"/>
    
    <!-- Outer Fill -->
    <rect x="1" y="109"
          width="52" height="52"
          rx="5" fill="#044b7d"/>
    

    
      <!-- Inner Border -->
      <rect x="7" y="112"
            width="40" height="40"
            rx="5" fill="#235a8d" class="inner border"/>
      
      <!-- Inner Fill -->
      <rect x="7" y="112"
            width="40" height="40"
            rx="5" fill="#235a8d"/>
      
      

     
   
  </g>

  <g class='  keycap'
  >

  
    <!-- Outer Border -->
    <rect x="55" y="109"
          width="52" height="52"
          rx="5" fill="#ffffff" class="outer border"/>
    
    <!-- Outer Fill -->
    <rect x="55" y="109"
          width="52" height="52"
          rx="5" fill="#ffffff"/>
    

    
      <!-- Inner Border -->
      <rect x="61" y="112"
            width="40" height="40"
            rx="5" fill="#fffffe" class="inner border"/>
      
      <!-- Inner Fill -->
      <rect x="61" y="112"
            width="40" height="40"
            rx="5" fill="#fffffe"/>
      
      

     
   
  </g>

  <g class='  keycap'
  >

  
    <!-- Outer Border -->
    <rect x="109" y="109"
          width="52" height="52"
          rx="5" fill="#ffffff" class="outer border"/>
    
    <!-- Outer Fill -->
    <rect x="109" y="109"
          width="52" height="52"
          rx="5" fill="#ffffff"/>
    

    
      <!-- Inner Border -->
      <rect x="115" y="112"
            width="40" height="40"
            rx="5" fill="#fffffe" class="inner border"/>
      
      <!-- Inner Fill -->
      <rect x="115" y="112"
            width="40" height="40"
            rx="5" fill="#fffffe"/>
      
      

     
   
  </g>

  <g class='  keycap'
  >

  
    <!-- Outer Border -->
    <rect x="163" y="109"
          width="52" height="52"
          rx="5" fill="#ffffff" class="outer border"/>
    
    <!-- Outer Fill -->
    <rect x="163" y="109"
          width="52" height="52"
          rx="5" fill="#ffffff"/>
    

    
      <!-- Inner Border -->
      <rect x="169" y="112"
            width="40" height="40"
            rx="5" fill="#fffffe" class="inner border"/>
      
      <!-- Inner Fill -->
      <rect x="169" y="112"
            width="40" height="40"
            rx="5" fill="#fffffe"/>
      
      

     
   
  </g>

  <g class='  keycap'
  >

  
    <!-- Outer Border -->
    <rect x="217" y="109"
          width="52" height="52"
          rx="5" fill="#ffffff" class="outer border"/>
    
    <!-- Outer Fill -->
    <rect x="217" y="109"
          width="52" height="52"
          rx="5" fill="#ffffff"/>
    

    
      <!-- Inner Border -->
      <rect x="223" y="112"
            width="40" height="40"
            rx="5" fill="#fffffe" class="inner border"/>
      
      <!-- Inner Fill -->
      <rect x="223" y="112"
            width="40" height="40"
            rx="5" fill="#fffffe"/>
      
      

     
   
  </g>

  <g class='  keycap'
  >

  
    <!-- Outer Border -->
    <rect x="271" y="109"
          width="52" height="52"
          rx="5" fill="#ffffff" class="outer border"/>
    
    <!-- Outer Fill -->
    <rect x="271" y="109"
          width="52" height="52"
          rx="5" fill="#ffffff"/>
    

    
      <!-- Inner Border -->
      <rect x="277" y="112"
            width="40" height="40"
            rx="5" fill="#fffffe" class="inner border"/>
      
      <!-- Inner Fill -->
      <rect x="277" y="112"
            width="40" height="40"
            rx="5" fill="#fffffe"/>
      
      

     
   
  </g>

  <g class='  keycap'
  >

  
    <!-- Outer Border -->
    <rect x="487" y="109"
          width="52" height="52"
          rx="5" fill="#ffffff" class="outer border"/>
    
    <!-- Outer Fill -->
    <rect x="487" y="109"
          width="52" height="52"
          rx="5" fill="#ffffff"/>
    

    
      <!-- Inner Border -->
      <rect x="493" y="112"
            width="40" height="40"
            rx="5" fill="#fffffe" class="inner border"/>
      
      <!-- Inner Fill -->
      <rect x="493" y="112"
            width="40" height="40"
            rx="5" fill="#fffffe"/>
      
      

     
   
  </g>

  <g class='  keycap'
  >

  
    <!-- Outer Border -->
    <rect x="541" y="109"
          width="52" height="52"
          rx="5" fill="#ffffff" class="outer border"/>
    
    <!-- Outer Fill -->
    <rect x="541" y="109"
          width="52" height="52"
          rx="5" fill="#ffffff"/>
    

    
      <!-- Inner Border -->
      <rect x="547" y="112"
            width="40" height="40"
            rx="5" fill="#fffffe" class="inner border"/>
      
      <!-- Inner Fill -->
      <rect x="547" y="112"
            width="40" height="40"
            rx="5" fill="#fffffe"/>
      
      

     
   
  </g>

  <g class='  keycap'
  >

  
    <!-- Outer Border -->
    <rect x="595" y="109"
          width="52" height="52"
          rx="5" fill="#ffffff" class="outer border"/>
    
    <!-- Outer Fill -->
    <rect x="595" y="109"
          width="52" height="52"
          rx="5" fill="#ffffff"/>
    

    
      <!-- Inner Border -->
      <rect x="601" y="112"
            width="40" height="40"
            rx="5" fill="#fffffe" class="inner border"/>
      
      <!-- Inner Fill -->
      <rect x="601" y="112"
            width="40" height="40"
            rx="5" fill="#fffffe"/>
      
      

     
   
  </g>

  <g class='  keycap'
  >

  
    <!-- Outer Border -->
    <rect x="649" y="109"
          width="52" height="52"
          rx="5" fill="#ffffff" class="outer border"/>
    
    <!-- Outer Fill -->
    <rect x="649" y="109"
          width="52" height="52"
          rx="5" fill="#ffffff"/>
    

    
      <!-- Inner Border -->
      <rect x="655" y="112"
            width="40" height="40"
            rx="5" fill="#fffffe" class="inner border"/>
      
      <!-- Inner Fill -->
      <rect x="655" y="112"
            width="40" height="40"
            rx="5" fill="#fffffe"/>
      
      

     
   
  </g>

  <g class='  keycap'
  >

  
    <!-- Outer Border -->
    <rect x="703" y="109"
          width="52" height="52"
          rx="5" fill="#ffffff" class="outer border"/>
    
    <!-- Outer Fill -->
    <rect x="703" y="109"
          width="52" height="52"
          rx="5" fill="#ffffff"/>
    

    
      <!-- Inner Border -->
      <rect x="709" y="112"
            width="40" height="40"
            rx="5" fill="#fffffe" class="inner border"/>
      
      <!-- Inner Fill -->
      <rect x="709" y="112"
            width="40" height="40"
            rx="5" fill="#fffffe"/>
      
      

     
   
  </g>

  <g class='  keycap'
  >

  
    <!-- Outer Border -->
    <rect x="757" y="109"
          width="52" height="52"
          rx="5" fill="#ffffff" class="outer border"/>
    
    <!-- Outer Fill -->
    <rect x="757" y="109"
          width="52" height="52"
          rx="5" fill="#ffffff"/>
    

    
      <!-- Inner Border -->
      <rect x="763" y="112"
            width="40" height="40"
            rx="5" fill="#fffffe" class="inner border"/>
      
      <!-- Inner Fill -->
      <rect x="763" y="112"
            width="40" height="40"
            rx="5" fill="#fffffe"/>
      
      

     
   
  </g>

  <g class='  keycap'
  >

  
    <!-- Outer Border -->
    <rect x="338.5" y="149.5"
          width="52" height="52"
          rx="5" fill="#ffffff" class="outer border"/>
    
    <!-- Outer Fill -->
    <rect x="338.5" y="149.5"
          width="52" height="52"
          rx="5" fill="#ffffff"/>
    

    
      <!-- Inner Border -->
      <rect x="344.5" y="152.5"
            width="40" height="40"
            rx="5" fill="#fffffe" class="inner border"/>
      
      <!-- Inner Fill -->
      <rect x="344.5" y="152.5"
            width="40" height="40"
            rx="5" fill="#fffffe"/>
      
      

     
   
  </g>

  <g class='  keycap'
  >

  
    <!-- Outer Border -->
    <rect x="419.5" y="149.5"
          width="52" height="52"
          rx="5" fill="#ffffff" class="outer border"/>
    
    <!-- Outer Fill -->
    <rect x="419.5" y="149.5"
          width="52" height="52"
          rx="5" fill="#ffffff"/>
    

    
      <!-- Inner Border -->
      <rect x="425.5" y="152.5"
            width="40" height="40"
            rx="5" fill="#fffffe" class="inner border"/>
      
      <!-- Inner Fill -->
      <rect x="425.5" y="152.5"
            width="40" height="40"
            rx="5" fill="#fffffe"/>
      
      

     
   
  </g>

  <g class='  keycap'
  >

  
    <!-- Outer Border -->
    <rect x="1" y="163"
          width="52" height="52"
          rx="5" fill="#044b7d" class="outer border"/>
    
    <!-- Outer Fill -->
    <rect x="1" y="163"
          width="52" height="52"
          rx="5" fill="#044b7d"/>
    

    
      <!-- Inner Border -->
      <rect x="7" y="166"
            width="40" height="40"
            rx="5" fill="#235a8d" class="inner border"/>
      
      <!-- Inner Fill -->
      <rect x="7" y="166"
            width="40" height="40"
            rx="5" fill="#235a8d"/>
      
      

     
   
  </g>

  <g class='  keycap'
  >

  
    <!-- Outer Border -->
    <rect x="55" y="163"
          width="52" height="52"
          rx="5" fill="#ffffff" class="outer border"/>
    
    <!-- Outer Fill -->
    <rect x="55" y="163"
          width="52" height="52"
          rx="5" fill="#ffffff"/>
    

    
      <!-- Inner Border -->
      <rect x="61" y="166"
            width="40" height="40"
            rx="5" fill="#fffffe" class="inner border"/>
      
      <!-- Inner Fill -->
      <rect x="61" y="166"
            width="40" height="40"
            rx="5" fill="#fffffe"/>
      
      

     
   
  </g>

  <g class='  keycap'
  >

  
    <!-- Outer Border -->
    <rect x="109" y="163"
          width="52" height="52"
          rx="5" fill="#ffffff" class="outer border"/>
    
    <!-- Outer Fill -->
    <rect x="109" y="163"
          width="52" height="52"
          rx="5" fill="#ffffff"/>
    

    
      <!-- Inner Border -->
      <rect x="115" y="166"
            width="40" height="40"
            rx="5" fill="#fffffe" class="inner border"/>
      
      <!-- Inner Fill -->
      <rect x="115" y="166"
            width="40" height="40"
            rx="5" fill="#fffffe"/>
      
      

     
   
  </g>

  <g class='  keycap'
  >

  
    <!-- Outer Border -->
    <rect x="163" y="163"
          width="52" height="52"
          rx="5" fill="#ffffff" class="outer border"/>
    
    <!-- Outer Fill -->
    <rect x="163" y="163"
          width="52" height="52"
          rx="5" fill="#ffffff"/>
    

    
      <!-- Inner Border -->
      <rect x="169" y="166"
            width="40" height="40"
            rx="5" fill="#fffffe" class="inner border"/>
      
      <!-- Inner Fill -->
      <rect x="169" y="166"
            width="40" height="40"
            rx="5" fill="#fffffe"/>
      
      

     
   
  </g>

  <g class='  keycap'
  >

  
    <!-- Outer Border -->
    <rect x="217" y="163"
          width="52" height="52"
          rx="5" fill="#ffffff" class="outer border"/>
    
    <!-- Outer Fill -->
    <rect x="217" y="163"
          width="52" height="52"
          rx="5" fill="#ffffff"/>
    

    
      <!-- Inner Border -->
      <rect x="223" y="166"
            width="40" height="40"
            rx="5" fill="#fffffe" class="inner border"/>
      
      <!-- Inner Fill -->
      <rect x="223" y="166"
            width="40" height="40"
            rx="5" fill="#fffffe"/>
      
      

     
   
  </g>

  <g class='  keycap'
  >

  
    <!-- Outer Border -->
    <rect x="271" y="163"
          width="52" height="52"
          rx="5" fill="#ffffff" class="outer border"/>
    
    <!-- Outer Fill -->
    <rect x="271" y="163"
          width="52" height="52"
          rx="5" fill="#ffffff"/>
    

    
      <!-- Inner Border -->
      <rect x="277" y="166"
            width="40" height="40"
            rx="5" fill="#fffffe" class="inner border"/>
      
      <!-- Inner Fill -->
      <rect x="277" y="166"
            width="40" height="40"
            rx="5" fill="#fffffe"/>
      
      

     
   
  </g>

  <g class='  keycap'
  >

  
    <!-- Outer Border -->
    <rect x="487" y="163"
          width="52" height="52"
          rx="5" fill="#ffffff" class="outer border"/>
    
    <!-- Outer Fill -->
    <rect x="487" y="163"
          width="52" height="52"
          rx="5" fill="#ffffff"/>
    

    
      <!-- Inner Border -->
      <rect x="493" y="166"
            width="40" height="40"
            rx="5" fill="#fffffe" class="inner border"/>
      
      <!-- Inner Fill -->
      <rect x="493" y="166"
            width="40" height="40"
            rx="5" fill="#fffffe"/>
      
      

     
   
  </g>

  <g class='  keycap'
  >

  
    <!-- Outer Border -->
    <rect x="541" y="163"
          width="52" height="52"
          rx="5" fill="#ffffff" class="outer border"/>
    
    <!-- Outer Fill -->
    <rect x="541" y="163"
          width="52" height="52"
          rx="5" fill="#ffffff"/>
    

    
      <!-- Inner Border -->
      <rect x="547" y="166"
            width="40" height="40"
            rx="5" fill="#fffffe" class="inner border"/>
      
      <!-- Inner Fill -->
      <rect x="547" y="166"
            width="40" height="40"
            rx="5" fill="#fffffe"/>
      
      

     
   
  </g>

  <g class='  keycap'
  >

  
    <!-- Outer Border -->
    <rect x="595" y="163"
          width="52" height="52"
          rx="5" fill="#ffffff" class="outer border"/>
    
    <!-- Outer Fill -->
    <rect x="595" y="163"
          width="52" height="52"
          rx="5" fill="#ffffff"/>
    

    
      <!-- Inner Border -->
      <rect x="601" y="166"
            width="40" height="40"
            rx="5" fill="#fffffe" class="inner border"/>
      
      <!-- Inner Fill -->
      <rect x="601" y="166"
            width="40" height="40"
            rx="5" fill="#fffffe"/>
      
      

     
   
  </g>

  <g class='  keycap'
  >

  
    <!-- Outer Border -->
    <rect x="649" y="163"
          width="52" height="52"
          rx="5" fill="#ffffff" class="outer border"/>
    
    <!-- Outer Fill -->
    <rect x="649" y="163"
          width="52" height="52"
          rx="5" fill="#ffffff"/>
    

    
      <!-- Inner Border -->
      <rect x="655" y="166"
            width="40" height="40"
            rx="5" fill="#fffffe" class="inner border"/>
      
      <!-- Inner Fill -->
      <rect x="655" y="166"
            width="40" height="40"
            rx="5" fill="#fffffe"/>
      
      

     
   
  </g>

  <g class='  keycap'
  >

  
    <!-- Outer Border -->
    <rect x="703" y="163"
          width="52" height="52"
          rx="5" fill="#044b7d" class="outer border"/>
    
    <!-- Outer Fill -->
    <rect x="703" y="163"
          width="52" height="52"
          rx="5" fill="#044b7d"/>
    

    
      <!-- Inner Border -->
      <rect x="709" y="166"
            width="40" height="40"
            rx="5" fill="#235a8d" class="inner border"/>
      
      <!-- Inner Fill -->
      <rect x="709" y="166"
            width="40" height="40"
            rx="5" fill="#235a8d"/>
      
      

     
   
  </g>

  <g class='  keycap'
  >

  
    <!-- Outer Border -->
    <rect x="757" y="163"
          width="52" height="52"
          rx="5" fill="#ffffff" class="outer border"/>
    
    <!-- Outer Fill -->
    <rect x="757" y="163"
          width="52" height="52"
          rx="5" fill="#ffffff"/>
    

    
      <!-- Inner Border -->
      <rect x="763" y="166"
            width="40" height="40"
            rx="5" fill="#fffffe" class="inner border"/>
      
      <!-- Inner Fill -->
      <rect x="763" y="166"
            width="40" height="40"
            rx="5" fill="#fffffe"/>
      
      

     
   
  </g>

  <g class='  keycap'
  >

  
    <!-- Outer Border -->
    <rect x="1" y="217"
          width="52" height="52"
          rx="5" fill="#044b7d" class="outer border"/>
    
    <!-- Outer Fill -->
    <rect x="1" y="217"
          width="52" height="52"
          rx="5" fill="#044b7d"/>
    

    
      <!-- Inner Border -->
      <rect x="7" y="220"
            width="40" height="40"
            rx="5" fill="#235a8d" class="inner border"/>
      
      <!-- Inner Fill -->
      <rect x="7" y="220"
            width="40" height="40"
            rx="5" fill="#235a8d"/>
      
      

     
   
  </g>

  <g class='  keycap'
  >

  
    <!-- Outer Border -->
    <rect x="55" y="217"
          width="52" height="52"
          rx="5" fill="#044b7d" class="outer border"/>
    
    <!-- Outer Fill -->
    <rect x="55" y="217"
          width="52" height="52"
          rx="5" fill="#044b7d"/>
    

    
      <!-- Inner Border -->
      <rect x="61" y="220"
            width="40" height="40"
            rx="5" fill="#235a8d" class="inner border"/>
      
      <!-- Inner Fill -->
      <rect x="61" y="220"
            width="40" height="40"
            rx="5" fill="#235a8d"/>
      
      

     
   
  </g>

  <g class='  keycap'
  >

  
    <!-- Outer Border -->
    <rect x="109" y="217"
          width="52" height="52"
          rx="5" fill="#044b7d" class="outer border"/>
    
    <!-- Outer Fill -->
    <rect x="109" y="217"
          width="52" height="52"
          rx="5" fill="#044b7d"/>
    

    
      <!-- Inner Border -->
      <rect x="115" y="220"
            width="40" height="40"
            rx="5" fill="#235a8d" class="inner border"/>
      
      <!-- Inner Fill -->
      <rect x="115" y="220"
            width="40" height="40"
            rx="5" fill="#235a8d"/>
      
      

     
   
  </g>

  <g class='  keycap'
  >

  
    <!-- Outer Border -->
    <rect x="163" y="217"
          width="52" height="52"
          rx="5" fill="#ffffff" class="outer border"/>
    
    <!-- Outer Fill -->
    <rect x="163" y="217"
          width="52" height="52"
          rx="5" fill="#ffffff"/>
    

    
      <!-- Inner Border -->
      <rect x="169" y="220"
            width="40" height="40"
            rx="5" fill="#fffffe" class="inner border"/>
      
      <!-- Inner Fill -->
      <rect x="169" y="220"
            width="40" height="40"
            rx="5" fill="#fffffe"/>
      
      

     
   
  </g>

  <g class='  keycap'
  >

  
    <!-- Outer Border -->
    <rect x="217" y="217"
          width="52" height="52"
          rx="5" fill="#ffffff" class="outer border"/>
    
    <!-- Outer Fill -->
    <rect x="217" y="217"
          width="52" height="52"
          rx="5" fill="#ffffff"/>
    

    
      <!-- Inner Border -->
      <rect x="223" y="220"
            width="40" height="40"
            rx="5" fill="#fffffe" class="inner border"/>
      
      <!-- Inner Fill -->
      <rect x="223" y="220"
            width="40" height="40"
            rx="5" fill="#fffffe"/>
      
      

     
   
  </g>

  <g class='  keycap'
  >

  
    <!-- Outer Border -->
    <rect x="271" y="217"
          width="52" height="52"
          rx="5" fill="#2581c4" class="outer border"/>
    
    <!-- Outer Fill -->
    <rect x="271" y="217"
          width="52" height="52"
          rx="5" fill="#2581c4"/>
    

    
      <!-- Inner Border -->
      <rect x="277" y="220"
            width="40" height="40"
            rx="5" fill="#4f9de2" class="inner border"/>
      
      <!-- Inner Fill -->
      <rect x="277" y="220"
            width="40" height="40"
            rx="5" fill="#4f9de2"/>
      
      

     
   
  </g>

  <g class='  keycap'
  >

  
    <!-- Outer Border -->
    <rect x="325" y="217"
          width="160" height="52"
          rx="5" fill="#2581c4" class="outer border"/>
    
    <!-- Outer Fill -->
    <rect x="325" y="217"
          width="160" height="52"
          rx="5" fill="#2581c4"/>
    

    
      <!-- Inner Border -->
      <rect x="331" y="220"
            width="148" height="40"
            rx="5" fill="#4f9de2" class="inner border"/>
      
      <!-- Inner Fill -->
      <rect x="331" y="220"
            width="148" height="40"
            rx="5" fill="#4f9de2"/>
      
      

     
   
  </g>

  <g class='  keycap'
  >

  
    <!-- Outer Border -->
    <rect x="487" y="217"
          width="52" height="52"
          rx="5" fill="#2581c4" class="outer border"/>
    
    <!-- Outer Fill -->
    <rect x="487" y="217"
          width="52" height="52"
          rx="5" fill="#2581c4"/>
    

    
      <!-- Inner Border -->
      <rect x="493" y="220"
            width="40" height="40"
            rx="5" fill="#4f9de2" class="inner border"/>
      
      <!-- Inner Fill -->
      <rect x="493" y="220"
            width="40" height="40"
            rx="5" fill="#4f9de2"/>
      
      

     
   
  </g>

  <g class='  keycap'
  >

  
    <!-- Outer Border -->
    <rect x="541" y="217"
          width="52" height="52"
          rx="5" fill="#ffffff" class="outer border"/>
    
    <!-- Outer Fill -->
    <rect x="541" y="217"
          width="52" height="52"
          rx="5" fill="#ffffff"/>
    

    
      <!-- Inner Border -->
      <rect x="547" y="220"
            width="40" height="40"
            rx="5" fill="#fffffe" class="inner border"/>
      
      <!-- Inner Fill -->
      <rect x="547" y="220"
            width="40" height="40"
            rx="5" fill="#fffffe"/>
      
      

     
   
  </g>

  <g class='  keycap'
  >

  
    <!-- Outer Border -->
    <rect x="595" y="217"
          width="52" height="52"
          rx="5" fill="#ffffff" class="outer border"/>
    
    <!-- Outer Fill -->
    <rect x="595" y="217"
          width="52" height="52"
          rx="5" fill="#ffffff"/>
    

    
      <!-- Inner Border -->
      <rect x="601" y="220"
            width="40" height="40"
            rx="5" fill="#fffffe" class="inner border"/>
      
      <!-- Inner Fill -->
      <rect x="601" y="220"
            width="40" height="40"
            rx="5" fill="#fffffe"/>
      
      

     
   
  </g>

  <g class='  keycap'
  >

  
    <!-- Outer Border -->
    <rect x="649" y="217"
          width="52" height="52"
          rx="5" fill="#044b7d" class="outer border"/>
    
    <!-- Outer Fill -->
    <rect x="649" y="217"
          width="52" height="52"
          rx="5" fill="#044b7d"/>
    

    
      <!-- Inner Border -->
      <rect x="655" y="220"
            width="40" height="40"
            rx="5" fill="#235a8d" class="inner border"/>
      
      <!-- Inner Fill -->
      <rect x="655" y="220"
            width="40" height="40"
            rx="5" fill="#235a8d"/>
      
      

     
   
  </g>

  <g class='  keycap'
  >

  
    <!-- Outer Border -->
    <rect x="703" y="217"
          width="52" height="52"
          rx="5" fill="#044b7d" class="outer border"/>
    
    <!-- Outer Fill -->
    <rect x="703" y="217"
          width="52" height="52"
          rx="5" fill="#044b7d"/>
    

    
      <!-- Inner Border -->
      <rect x="709" y="220"
            width="40" height="40"
            rx="5" fill="#235a8d" class="inner border"/>
      
      <!-- Inner Fill -->
      <rect x="709" y="220"
            width="40" height="40"
            rx="5" fill="#235a8d"/>
      
      

     
   
  </g>

  <g class='  keycap'
  >

  
    <!-- Outer Border -->
    <rect x="757" y="217"
          width="52" height="52"
          rx="5" fill="#044b7d" class="outer border"/>
    
    <!-- Outer Fill -->
    <rect x="757" y="217"
          width="52" height="52"
          rx="5" fill="#044b7d"/>
    

    
      <!-- Inner Border -->
      <rect x="763" y="220"
            width="40" height="40"
            rx="5" fill="#235a8d" class="inner border"/>
      
      <!-- Inner Fill -->
      <rect x="763" y="220"
            width="40" height="40"
            rx="5" fill="#235a8d"/>
      
      

     
   
  </g>

      </g>
    </g>
  </svg>
