%FSLAX45Y45*%
G04 Gerber Fmt 4.5, Leading zero omitted, Abs format (unit mm)*
G04 Created by KiCad (PCBNEW (5.1.12)-1) date 2022-06-19 17:56:36*
%MOMM*%
%LPD*%
G01*
G04 APERTURE LIST*
%TA.AperFunction,Profile*%
%ADD10C,0.050000*%
%TD*%
%ADD11C,0.200000*%
%ADD12C,0.300000*%
G04 APERTURE END LIST*
D10*
X28333700Y0D02*
G75*
G02*
X28498800Y-165100I0J-165100D01*
G01*
X28498800Y-9309100D02*
G75*
G02*
X28346400Y-9461500I-152400J0D01*
G01*
X114300Y-9461500D02*
G75*
G02*
X0Y-9347200I0J114300D01*
G01*
X0Y-127000D02*
G75*
G02*
X127000Y0I127000J0D01*
G01*
X0Y-127000D02*
X0Y-9347200D01*
X114300Y-9461500D02*
X28346400Y-9461500D01*
X28498800Y-165100D02*
X28498800Y-9309100D01*
X127000Y0D02*
X28333700Y0D01*
D11*
X1567500Y-1199200D02*
X1607500Y-1239200D01*
X1607500Y-1199200D02*
X1567500Y-1239200D01*
X1796100Y-945200D02*
X1836100Y-985200D01*
X1836100Y-945200D02*
X1796100Y-985200D01*
X1885000Y-780100D02*
X1925000Y-820100D01*
X1925000Y-780100D02*
X1885000Y-820100D01*
X1910400Y-1173800D02*
X1950400Y-1213800D01*
X1950400Y-1173800D02*
X1910400Y-1213800D01*
X2037400Y-932500D02*
X2077400Y-972500D01*
X2077400Y-932500D02*
X2037400Y-972500D01*
X2354900Y-1288100D02*
X2394900Y-1328100D01*
X2394900Y-1288100D02*
X2354900Y-1328100D01*
X2494600Y-970600D02*
X2534600Y-1010600D01*
X2534600Y-970600D02*
X2494600Y-1010600D01*
X2520000Y-3917000D02*
X2560000Y-3957000D01*
X2560000Y-3917000D02*
X2520000Y-3957000D01*
X2532700Y-1059500D02*
X2572700Y-1099500D01*
X2572700Y-1059500D02*
X2532700Y-1099500D01*
X2596200Y-488000D02*
X2636200Y-528000D01*
X2636200Y-488000D02*
X2596200Y-528000D01*
X2647000Y-2012000D02*
X2687000Y-2052000D01*
X2687000Y-2012000D02*
X2647000Y-2052000D01*
X2647000Y-5822000D02*
X2687000Y-5862000D01*
X2687000Y-5822000D02*
X2647000Y-5862000D01*
X2774000Y-2393000D02*
X2814000Y-2433000D01*
X2814000Y-2393000D02*
X2774000Y-2433000D01*
X2774000Y-4298000D02*
X2814000Y-4338000D01*
X2814000Y-4298000D02*
X2774000Y-4338000D01*
X2774000Y-6203000D02*
X2814000Y-6243000D01*
X2814000Y-6203000D02*
X2774000Y-6243000D01*
X2901000Y-7727000D02*
X2941000Y-7767000D01*
X2941000Y-7727000D02*
X2901000Y-7767000D01*
X3536000Y-1504000D02*
X3576000Y-1544000D01*
X3576000Y-1504000D02*
X3536000Y-1544000D01*
X3536000Y-5314000D02*
X3576000Y-5354000D01*
X3576000Y-5314000D02*
X3536000Y-5354000D01*
X3663000Y-3409000D02*
X3703000Y-3449000D01*
X3703000Y-3409000D02*
X3663000Y-3449000D01*
X3663000Y-7219000D02*
X3703000Y-7259000D01*
X3703000Y-7219000D02*
X3663000Y-7259000D01*
X3663000Y-8870000D02*
X3703000Y-8910000D01*
X3703000Y-8870000D02*
X3663000Y-8910000D01*
X3917000Y-869000D02*
X3957000Y-909000D01*
X3957000Y-869000D02*
X3917000Y-909000D01*
X3917000Y-4552000D02*
X3957000Y-4592000D01*
X3957000Y-4552000D02*
X3917000Y-4592000D01*
X3917000Y-8489000D02*
X3957000Y-8529000D01*
X3957000Y-8489000D02*
X3917000Y-8529000D01*
X4044000Y-2393000D02*
X4084000Y-2433000D01*
X4084000Y-2393000D02*
X4044000Y-2433000D01*
X4044000Y-6076000D02*
X4084000Y-6116000D01*
X4084000Y-6076000D02*
X4044000Y-6116000D01*
X5441000Y-4933000D02*
X5481000Y-4973000D01*
X5481000Y-4933000D02*
X5441000Y-4973000D01*
X5568000Y-1504000D02*
X5608000Y-1544000D01*
X5608000Y-1504000D02*
X5568000Y-1544000D01*
X5568000Y-3282000D02*
X5608000Y-3322000D01*
X5608000Y-3282000D02*
X5568000Y-3322000D01*
X5568000Y-7092000D02*
X5608000Y-7132000D01*
X5608000Y-7092000D02*
X5568000Y-7132000D01*
X5822000Y-996000D02*
X5862000Y-1036000D01*
X5862000Y-996000D02*
X5822000Y-1036000D01*
X5822000Y-2774000D02*
X5862000Y-2814000D01*
X5862000Y-2774000D02*
X5822000Y-2814000D01*
X5822000Y-4171000D02*
X5862000Y-4211000D01*
X5862000Y-4171000D02*
X5822000Y-4211000D01*
X5822000Y-6203000D02*
X5862000Y-6243000D01*
X5862000Y-6203000D02*
X5822000Y-6243000D01*
X7346000Y-1504000D02*
X7386000Y-1544000D01*
X7386000Y-1504000D02*
X7346000Y-1544000D01*
X7346000Y-7092000D02*
X7386000Y-7132000D01*
X7386000Y-7092000D02*
X7346000Y-7132000D01*
X7473000Y-3155000D02*
X7513000Y-3195000D01*
X7513000Y-3155000D02*
X7473000Y-3195000D01*
X7473000Y-5060000D02*
X7513000Y-5100000D01*
X7513000Y-5060000D02*
X7473000Y-5100000D01*
X7727000Y-996000D02*
X7767000Y-1036000D01*
X7767000Y-996000D02*
X7727000Y-1036000D01*
X7727000Y-2266000D02*
X7767000Y-2306000D01*
X7767000Y-2266000D02*
X7727000Y-2306000D01*
X7727000Y-4298000D02*
X7767000Y-4338000D01*
X7767000Y-4298000D02*
X7727000Y-4338000D01*
X7727000Y-6203000D02*
X7767000Y-6243000D01*
X7767000Y-6203000D02*
X7727000Y-6243000D01*
X9251000Y-3282000D02*
X9291000Y-3322000D01*
X9291000Y-3282000D02*
X9251000Y-3322000D01*
X9251000Y-5187000D02*
X9291000Y-5227000D01*
X9291000Y-5187000D02*
X9251000Y-5227000D01*
X9378000Y-1377000D02*
X9418000Y-1417000D01*
X9418000Y-1377000D02*
X9378000Y-1417000D01*
X9378000Y-7092000D02*
X9418000Y-7132000D01*
X9418000Y-7092000D02*
X9378000Y-7132000D01*
X9632000Y-996000D02*
X9672000Y-1036000D01*
X9672000Y-996000D02*
X9632000Y-1036000D01*
X9632000Y-4298000D02*
X9672000Y-4338000D01*
X9672000Y-4298000D02*
X9632000Y-4338000D01*
X9759000Y-2393000D02*
X9799000Y-2433000D01*
X9799000Y-2393000D02*
X9759000Y-2433000D01*
X9759000Y-6076000D02*
X9799000Y-6116000D01*
X9799000Y-6076000D02*
X9759000Y-6116000D01*
X11117900Y-2354900D02*
X11157900Y-2394900D01*
X11157900Y-2354900D02*
X11117900Y-2394900D01*
X11168700Y-1059500D02*
X11208700Y-1099500D01*
X11208700Y-1059500D02*
X11168700Y-1099500D01*
X11244900Y-2342200D02*
X11284900Y-2382200D01*
X11284900Y-2342200D02*
X11244900Y-2382200D01*
X11283000Y-843600D02*
X11323000Y-883600D01*
X11323000Y-843600D02*
X11283000Y-883600D01*
X11321100Y-5187000D02*
X11361100Y-5227000D01*
X11361100Y-5187000D02*
X11321100Y-5227000D01*
X11384600Y-1250000D02*
X11424600Y-1290000D01*
X11424600Y-1250000D02*
X11384600Y-1290000D01*
X11384600Y-2329500D02*
X11424600Y-2369500D01*
X11424600Y-2329500D02*
X11384600Y-2369500D01*
X11473500Y-5771200D02*
X11513500Y-5811200D01*
X11513500Y-5771200D02*
X11473500Y-5811200D01*
X11498900Y-4818700D02*
X11538900Y-4858700D01*
X11538900Y-4818700D02*
X11498900Y-4858700D01*
X11537000Y-195900D02*
X11577000Y-235900D01*
X11577000Y-195900D02*
X11537000Y-235900D01*
X11562400Y-5301300D02*
X11602400Y-5341300D01*
X11602400Y-5301300D02*
X11562400Y-5341300D01*
X11625900Y-4831400D02*
X11665900Y-4871400D01*
X11665900Y-4831400D02*
X11625900Y-4871400D01*
X11791000Y-284800D02*
X11831000Y-324800D01*
X11831000Y-284800D02*
X11791000Y-324800D01*
X11829100Y-107000D02*
X11869100Y-147000D01*
X11869100Y-107000D02*
X11829100Y-147000D01*
X11918000Y-1250000D02*
X11958000Y-1290000D01*
X11958000Y-1250000D02*
X11918000Y-1290000D01*
X11930700Y-4679000D02*
X11970700Y-4719000D01*
X11970700Y-4679000D02*
X11930700Y-4719000D01*
X11981500Y-1846900D02*
X12021500Y-1886900D01*
X12021500Y-1846900D02*
X11981500Y-1886900D01*
X12070400Y-373700D02*
X12110400Y-413700D01*
X12110400Y-373700D02*
X12070400Y-413700D01*
X12210100Y-5136200D02*
X12250100Y-5176200D01*
X12250100Y-5136200D02*
X12210100Y-5176200D01*
X12273600Y-4780600D02*
X12313600Y-4820600D01*
X12313600Y-4780600D02*
X12273600Y-4820600D01*
X12337100Y-462600D02*
X12377100Y-502600D01*
X12377100Y-462600D02*
X12337100Y-502600D01*
X12375200Y-1846900D02*
X12415200Y-1886900D01*
X12415200Y-1846900D02*
X12375200Y-1886900D01*
X12375200Y-4615500D02*
X12415200Y-4655500D01*
X12415200Y-4615500D02*
X12375200Y-4655500D01*
X12603800Y-551500D02*
X12643800Y-591500D01*
X12643800Y-551500D02*
X12603800Y-591500D01*
X13073700Y-830900D02*
X13113700Y-870900D01*
X13113700Y-830900D02*
X13073700Y-870900D01*
X13574080Y-966790D02*
X13614080Y-1006790D01*
X13614080Y-966790D02*
X13574080Y-1006790D01*
X13585510Y-1512890D02*
X13625510Y-1552890D01*
X13625510Y-1512890D02*
X13585510Y-1552890D01*
X13645200Y-2913700D02*
X13685200Y-2953700D01*
X13685200Y-2913700D02*
X13645200Y-2953700D01*
X13886500Y-3370900D02*
X13926500Y-3410900D01*
X13926500Y-3370900D02*
X13886500Y-3410900D01*
X13908090Y-3562670D02*
X13948090Y-3602670D01*
X13948090Y-3562670D02*
X13908090Y-3602670D01*
X14061760Y-3551240D02*
X14101760Y-3591240D01*
X14101760Y-3551240D02*
X14061760Y-3591240D01*
X14115100Y-3091500D02*
X14155100Y-3131500D01*
X14155100Y-3091500D02*
X14115100Y-3131500D01*
X14140500Y-945200D02*
X14180500Y-985200D01*
X14180500Y-945200D02*
X14140500Y-985200D01*
X14305600Y-983300D02*
X14345600Y-1023300D01*
X14345600Y-983300D02*
X14305600Y-1023300D01*
X14458000Y-1885000D02*
X14498000Y-1925000D01*
X14498000Y-1885000D02*
X14458000Y-1925000D01*
X14712000Y-1885000D02*
X14752000Y-1925000D01*
X14752000Y-1885000D02*
X14712000Y-1925000D01*
X14940600Y-3434400D02*
X14980600Y-3474400D01*
X14980600Y-3434400D02*
X14940600Y-3474400D01*
X14991400Y-3726500D02*
X15031400Y-3766500D01*
X15031400Y-3726500D02*
X14991400Y-3766500D01*
X15270800Y-3726500D02*
X15310800Y-3766500D01*
X15310800Y-3726500D02*
X15270800Y-3766500D01*
X15575600Y-5085400D02*
X15615600Y-5125400D01*
X15615600Y-5085400D02*
X15575600Y-5125400D01*
X15943900Y-5098100D02*
X15983900Y-5138100D01*
X15983900Y-5098100D02*
X15943900Y-5138100D01*
X16223300Y-5136200D02*
X16263300Y-5176200D01*
X16263300Y-5136200D02*
X16223300Y-5176200D01*
X16458470Y-5955570D02*
X16498470Y-5995570D01*
X16498470Y-5955570D02*
X16458470Y-5995570D01*
X16617000Y-4869500D02*
X16657000Y-4909500D01*
X16657000Y-4869500D02*
X16617000Y-4909500D01*
X16731300Y-5575440D02*
X16771300Y-5615440D01*
X16771300Y-5575440D02*
X16731300Y-5615440D01*
X16744000Y-843600D02*
X16784000Y-883600D01*
X16784000Y-843600D02*
X16744000Y-883600D01*
X16845600Y-221300D02*
X16885600Y-261300D01*
X16885600Y-221300D02*
X16845600Y-261300D01*
X16858300Y-856300D02*
X16898300Y-896300D01*
X16898300Y-856300D02*
X16858300Y-896300D01*
X16858300Y-3586800D02*
X16898300Y-3626800D01*
X16898300Y-3586800D02*
X16858300Y-3626800D01*
X16959900Y-869000D02*
X16999900Y-909000D01*
X16999900Y-869000D02*
X16959900Y-909000D01*
X16985300Y-2024700D02*
X17025300Y-2064700D01*
X17025300Y-2024700D02*
X16985300Y-2064700D01*
X17010700Y-119700D02*
X17050700Y-159700D01*
X17050700Y-119700D02*
X17010700Y-159700D01*
X17086900Y-869000D02*
X17126900Y-909000D01*
X17126900Y-869000D02*
X17086900Y-909000D01*
X17099600Y-2012000D02*
X17139600Y-2052000D01*
X17139600Y-2012000D02*
X17099600Y-2052000D01*
X17201200Y-3599500D02*
X17241200Y-3639500D01*
X17241200Y-3599500D02*
X17201200Y-3639500D01*
X17366300Y-81600D02*
X17406300Y-121600D01*
X17406300Y-81600D02*
X17366300Y-121600D01*
X17467900Y-5136200D02*
X17507900Y-5176200D01*
X17507900Y-5136200D02*
X17467900Y-5176200D01*
X26611900Y-221300D02*
X26651900Y-261300D01*
X26651900Y-221300D02*
X26611900Y-261300D01*
X1503000Y-146500D02*
G75*
G03*
X1503000Y-146500I-30000J0D01*
G01*
X1453000Y-116500D02*
X1453000Y-176500D01*
X1493000Y-116500D02*
X1493000Y-176500D01*
X1453000Y-176500D02*
G75*
G03*
X1493000Y-176500I20000J0D01*
G01*
X1493000Y-116500D02*
G75*
G03*
X1453000Y-116500I-20000J0D01*
G01*
X1503000Y-564500D02*
G75*
G03*
X1503000Y-564500I-30000J0D01*
G01*
X1453000Y-509500D02*
X1453000Y-619500D01*
X1493000Y-509500D02*
X1493000Y-619500D01*
X1453000Y-619500D02*
G75*
G03*
X1493000Y-619500I20000J0D01*
G01*
X1493000Y-509500D02*
G75*
G03*
X1453000Y-509500I-20000J0D01*
G01*
X2367000Y-146500D02*
G75*
G03*
X2367000Y-146500I-30000J0D01*
G01*
X2317000Y-116500D02*
X2317000Y-176500D01*
X2357000Y-116500D02*
X2357000Y-176500D01*
X2317000Y-176500D02*
G75*
G03*
X2357000Y-176500I20000J0D01*
G01*
X2357000Y-116500D02*
G75*
G03*
X2317000Y-116500I-20000J0D01*
G01*
X2367000Y-564500D02*
G75*
G03*
X2367000Y-564500I-30000J0D01*
G01*
X2317000Y-509500D02*
X2317000Y-619500D01*
X2357000Y-509500D02*
X2357000Y-619500D01*
X2317000Y-619500D02*
G75*
G03*
X2357000Y-619500I20000J0D01*
G01*
X2357000Y-509500D02*
G75*
G03*
X2317000Y-509500I-20000J0D01*
G01*
X12738100Y-2982600D02*
X12738100Y-3062600D01*
X12698100Y-3022600D02*
X12778100Y-3022600D01*
X12738100Y-3182600D02*
X12738100Y-3262600D01*
X12698100Y-3222600D02*
X12778100Y-3222600D01*
X12738100Y-3382600D02*
X12738100Y-3462600D01*
X12698100Y-3422600D02*
X12778100Y-3422600D01*
X13716000Y-5548000D02*
X13716000Y-5628000D01*
X13676000Y-5588000D02*
X13756000Y-5588000D01*
X13716000Y-6017900D02*
X13716000Y-6097900D01*
X13676000Y-6057900D02*
X13756000Y-6057900D01*
X13716000Y-6538600D02*
X13716000Y-6618600D01*
X13676000Y-6578600D02*
X13756000Y-6578600D01*
X13721200Y-7006300D02*
X13721200Y-7086300D01*
X13681200Y-7046300D02*
X13761200Y-7046300D01*
X14732000Y-5548000D02*
X14732000Y-5628000D01*
X14692000Y-5588000D02*
X14772000Y-5588000D01*
X14732000Y-6017900D02*
X14732000Y-6097900D01*
X14692000Y-6057900D02*
X14772000Y-6057900D01*
X14732000Y-6538600D02*
X14732000Y-6618600D01*
X14692000Y-6578600D02*
X14772000Y-6578600D01*
X14737200Y-7006300D02*
X14737200Y-7086300D01*
X14697200Y-7046300D02*
X14777200Y-7046300D01*
X12489356Y-5623356D02*
X12489356Y-5552644D01*
X12418644Y-5552644D01*
X12418644Y-5623356D01*
X12489356Y-5623356D01*
X12489356Y-7073356D02*
X12489356Y-7002644D01*
X12418644Y-7002644D01*
X12418644Y-7073356D01*
X12489356Y-7073356D01*
X12739356Y-5623356D02*
X12739356Y-5552644D01*
X12668644Y-5552644D01*
X12668644Y-5623356D01*
X12739356Y-5623356D01*
X12989356Y-5623356D02*
X12989356Y-5552644D01*
X12918644Y-5552644D01*
X12918644Y-5623356D01*
X12989356Y-5623356D01*
X12989356Y-7073356D02*
X12989356Y-7002644D01*
X12918644Y-7002644D01*
X12918644Y-7073356D01*
X12989356Y-7073356D01*
X13408456Y-594156D02*
X13408456Y-523444D01*
X13337744Y-523444D01*
X13337744Y-594156D01*
X13408456Y-594156D01*
X13662456Y-594156D02*
X13662456Y-523444D01*
X13591744Y-523444D01*
X13591744Y-594156D01*
X13662456Y-594156D01*
X13916456Y-594156D02*
X13916456Y-523444D01*
X13845744Y-523444D01*
X13845744Y-594156D01*
X13916456Y-594156D01*
X14170456Y-594156D02*
X14170456Y-523444D01*
X14099744Y-523444D01*
X14099744Y-594156D01*
X14170456Y-594156D01*
X14424456Y-594156D02*
X14424456Y-523444D01*
X14353744Y-523444D01*
X14353744Y-594156D01*
X14424456Y-594156D01*
X14678456Y-594156D02*
X14678456Y-523444D01*
X14607744Y-523444D01*
X14607744Y-594156D01*
X14678456Y-594156D01*
X14932456Y-594156D02*
X14932456Y-523444D01*
X14861744Y-523444D01*
X14861744Y-594156D01*
X14932456Y-594156D01*
X15186456Y-594156D02*
X15186456Y-523444D01*
X15115744Y-523444D01*
X15115744Y-594156D01*
X15186456Y-594156D01*
X15560724Y-5615228D02*
X15560724Y-5544516D01*
X15490012Y-5544516D01*
X15490012Y-5615228D01*
X15560724Y-5615228D01*
X15560724Y-7065228D02*
X15560724Y-6994516D01*
X15490012Y-6994516D01*
X15490012Y-7065228D01*
X15560724Y-7065228D01*
X15810724Y-5615228D02*
X15810724Y-5544516D01*
X15740012Y-5544516D01*
X15740012Y-5615228D01*
X15810724Y-5615228D01*
X16060724Y-5615228D02*
X16060724Y-5544516D01*
X15990012Y-5544516D01*
X15990012Y-5615228D01*
X16060724Y-5615228D01*
X16060724Y-7065228D02*
X16060724Y-6994516D01*
X15990012Y-6994516D01*
X15990012Y-7065228D01*
X16060724Y-7065228D01*
X11849100Y-2375100D02*
X11900100Y-2324100D01*
X11849100Y-2273100D01*
X11798100Y-2324100D01*
X11849100Y-2375100D01*
X11849100Y-4153100D02*
X11900100Y-4102100D01*
X11849100Y-4051100D01*
X11798100Y-4102100D01*
X11849100Y-4153100D01*
X11872100Y-3010100D02*
X11923100Y-2959100D01*
X11872100Y-2908100D01*
X11821100Y-2959100D01*
X11872100Y-3010100D01*
X11872100Y-3264100D02*
X11923100Y-3213100D01*
X11872100Y-3162100D01*
X11821100Y-3213100D01*
X11872100Y-3264100D01*
X11872100Y-3518100D02*
X11923100Y-3467100D01*
X11872100Y-3416100D01*
X11821100Y-3467100D01*
X11872100Y-3518100D01*
X12103100Y-2375100D02*
X12154100Y-2324100D01*
X12103100Y-2273100D01*
X12052100Y-2324100D01*
X12103100Y-2375100D01*
X12103100Y-4153100D02*
X12154100Y-4102100D01*
X12103100Y-4051100D01*
X12052100Y-4102100D01*
X12103100Y-4153100D01*
X12357100Y-2375100D02*
X12408100Y-2324100D01*
X12357100Y-2273100D01*
X12306100Y-2324100D01*
X12357100Y-2375100D01*
X12357100Y-4153100D02*
X12408100Y-4102100D01*
X12357100Y-4051100D01*
X12306100Y-4102100D01*
X12357100Y-4153100D01*
X12611100Y-2375100D02*
X12662100Y-2324100D01*
X12611100Y-2273100D01*
X12560100Y-2324100D01*
X12611100Y-2375100D01*
X12611100Y-4153100D02*
X12662100Y-4102100D01*
X12611100Y-4051100D01*
X12560100Y-4102100D01*
X12611100Y-4153100D01*
X12865100Y-2375100D02*
X12916100Y-2324100D01*
X12865100Y-2273100D01*
X12814100Y-2324100D01*
X12865100Y-2375100D01*
X12865100Y-4153100D02*
X12916100Y-4102100D01*
X12865100Y-4051100D01*
X12814100Y-4102100D01*
X12865100Y-4153100D01*
X13119100Y-2375100D02*
X13170100Y-2324100D01*
X13119100Y-2273100D01*
X13068100Y-2324100D01*
X13119100Y-2375100D01*
X13119100Y-4153100D02*
X13170100Y-4102100D01*
X13119100Y-4051100D01*
X13068100Y-4102100D01*
X13119100Y-4153100D01*
X13373100Y-2375100D02*
X13424100Y-2324100D01*
X13373100Y-2273100D01*
X13322100Y-2324100D01*
X13373100Y-2375100D01*
X13373100Y-4153100D02*
X13424100Y-4102100D01*
X13373100Y-4051100D01*
X13322100Y-4102100D01*
X13373100Y-4153100D01*
X13627100Y-2375100D02*
X13678100Y-2324100D01*
X13627100Y-2273100D01*
X13576100Y-2324100D01*
X13627100Y-2375100D01*
X13627100Y-4153100D02*
X13678100Y-4102100D01*
X13627100Y-4051100D01*
X13576100Y-4102100D01*
X13627100Y-4153100D01*
X13881100Y-2375100D02*
X13932100Y-2324100D01*
X13881100Y-2273100D01*
X13830100Y-2324100D01*
X13881100Y-2375100D01*
X13881100Y-4153100D02*
X13932100Y-4102100D01*
X13881100Y-4051100D01*
X13830100Y-4102100D01*
X13881100Y-4153100D01*
X14135100Y-2375100D02*
X14186100Y-2324100D01*
X14135100Y-2273100D01*
X14084100Y-2324100D01*
X14135100Y-2375100D01*
X14135100Y-4153100D02*
X14186100Y-4102100D01*
X14135100Y-4051100D01*
X14084100Y-4102100D01*
X14135100Y-4153100D01*
X14389100Y-2375100D02*
X14440100Y-2324100D01*
X14389100Y-2273100D01*
X14338100Y-2324100D01*
X14389100Y-2375100D01*
X14389100Y-4153100D02*
X14440100Y-4102100D01*
X14389100Y-4051100D01*
X14338100Y-4102100D01*
X14389100Y-4153100D01*
X14643100Y-2375100D02*
X14694100Y-2324100D01*
X14643100Y-2273100D01*
X14592100Y-2324100D01*
X14643100Y-2375100D01*
X14643100Y-4153100D02*
X14694100Y-4102100D01*
X14643100Y-4051100D01*
X14592100Y-4102100D01*
X14643100Y-4153100D01*
X14897100Y-2375100D02*
X14948100Y-2324100D01*
X14897100Y-2273100D01*
X14846100Y-2324100D01*
X14897100Y-2375100D01*
X14897100Y-4153100D02*
X14948100Y-4102100D01*
X14897100Y-4051100D01*
X14846100Y-4102100D01*
X14897100Y-4153100D01*
X15151100Y-2375100D02*
X15202100Y-2324100D01*
X15151100Y-2273100D01*
X15100100Y-2324100D01*
X15151100Y-2375100D01*
X15151100Y-4153100D02*
X15202100Y-4102100D01*
X15151100Y-4051100D01*
X15100100Y-4102100D01*
X15151100Y-4153100D01*
X15405100Y-2375100D02*
X15456100Y-2324100D01*
X15405100Y-2273100D01*
X15354100Y-2324100D01*
X15405100Y-2375100D01*
X15405100Y-4153100D02*
X15456100Y-4102100D01*
X15405100Y-4051100D01*
X15354100Y-4102100D01*
X15405100Y-4153100D01*
X15659100Y-2375100D02*
X15710100Y-2324100D01*
X15659100Y-2273100D01*
X15608100Y-2324100D01*
X15659100Y-2375100D01*
X15659100Y-4153100D02*
X15710100Y-4102100D01*
X15659100Y-4051100D01*
X15608100Y-4102100D01*
X15659100Y-4153100D01*
X15913100Y-2375100D02*
X15964100Y-2324100D01*
X15913100Y-2273100D01*
X15862100Y-2324100D01*
X15913100Y-2375100D01*
X15913100Y-4153100D02*
X15964100Y-4102100D01*
X15913100Y-4051100D01*
X15862100Y-4102100D01*
X15913100Y-4153100D01*
X16167100Y-2375100D02*
X16218100Y-2324100D01*
X16167100Y-2273100D01*
X16116100Y-2324100D01*
X16167100Y-2375100D01*
X16167100Y-4153100D02*
X16218100Y-4102100D01*
X16167100Y-4051100D01*
X16116100Y-4102100D01*
X16167100Y-4153100D01*
X16421100Y-2375100D02*
X16472100Y-2324100D01*
X16421100Y-2273100D01*
X16370100Y-2324100D01*
X16421100Y-2375100D01*
X16421100Y-4153100D02*
X16472100Y-4102100D01*
X16421100Y-4051100D01*
X16370100Y-4102100D01*
X16421100Y-4153100D01*
X16675100Y-2375100D02*
X16726100Y-2324100D01*
X16675100Y-2273100D01*
X16624100Y-2324100D01*
X16675100Y-2375100D01*
X16675100Y-4153100D02*
X16726100Y-4102100D01*
X16675100Y-4051100D01*
X16624100Y-4102100D01*
X16675100Y-4153100D01*
X13838800Y-4694800D02*
X13948800Y-4804800D01*
X13948800Y-4694800D02*
X13838800Y-4804800D01*
X13948800Y-4749800D02*
G75*
G03*
X13948800Y-4749800I-55000J0D01*
G01*
X13838800Y-5144800D02*
X13948800Y-5254800D01*
X13948800Y-5144800D02*
X13838800Y-5254800D01*
X13948800Y-5199800D02*
G75*
G03*
X13948800Y-5199800I-55000J0D01*
G01*
X14488800Y-4694800D02*
X14598800Y-4804800D01*
X14598800Y-4694800D02*
X14488800Y-4804800D01*
X14598800Y-4749800D02*
G75*
G03*
X14598800Y-4749800I-55000J0D01*
G01*
X14488800Y-5144800D02*
X14598800Y-5254800D01*
X14598800Y-5144800D02*
X14488800Y-5254800D01*
X14598800Y-5199800D02*
G75*
G03*
X14598800Y-5199800I-55000J0D01*
G01*
X496500Y-590988D02*
X646500Y-740988D01*
X646500Y-590988D02*
X496500Y-740988D01*
X571500Y-590988D02*
X571500Y-740988D01*
X496500Y-665988D02*
X646500Y-665988D01*
X496500Y-2495988D02*
X646500Y-2645988D01*
X646500Y-2495988D02*
X496500Y-2645988D01*
X571500Y-2495988D02*
X571500Y-2645988D01*
X496500Y-2570988D02*
X646500Y-2570988D01*
X496500Y-4414704D02*
X646500Y-4564704D01*
X646500Y-4414704D02*
X496500Y-4564704D01*
X571500Y-4414704D02*
X571500Y-4564704D01*
X496500Y-4489704D02*
X646500Y-4489704D01*
X496500Y-6317672D02*
X646500Y-6467672D01*
X646500Y-6317672D02*
X496500Y-6467672D01*
X571500Y-6317672D02*
X571500Y-6467672D01*
X496500Y-6392672D02*
X646500Y-6392672D01*
X496500Y-8222164D02*
X646500Y-8372164D01*
X646500Y-8222164D02*
X496500Y-8372164D01*
X571500Y-8222164D02*
X571500Y-8372164D01*
X496500Y-8297164D02*
X646500Y-8297164D01*
X1131500Y-336988D02*
X1281500Y-486988D01*
X1281500Y-336988D02*
X1131500Y-486988D01*
X1206500Y-336988D02*
X1206500Y-486988D01*
X1131500Y-411988D02*
X1281500Y-411988D01*
X1131500Y-2241988D02*
X1281500Y-2391988D01*
X1281500Y-2241988D02*
X1131500Y-2391988D01*
X1206500Y-2241988D02*
X1206500Y-2391988D01*
X1131500Y-2316988D02*
X1281500Y-2316988D01*
X1131500Y-4160704D02*
X1281500Y-4310704D01*
X1281500Y-4160704D02*
X1131500Y-4310704D01*
X1206500Y-4160704D02*
X1206500Y-4310704D01*
X1131500Y-4235704D02*
X1281500Y-4235704D01*
X1131500Y-6063672D02*
X1281500Y-6213672D01*
X1281500Y-6063672D02*
X1131500Y-6213672D01*
X1206500Y-6063672D02*
X1206500Y-6213672D01*
X1131500Y-6138672D02*
X1281500Y-6138672D01*
X1131500Y-7968164D02*
X1281500Y-8118164D01*
X1281500Y-7968164D02*
X1131500Y-8118164D01*
X1206500Y-7968164D02*
X1206500Y-8118164D01*
X1131500Y-8043164D02*
X1281500Y-8043164D01*
X2401500Y-2495988D02*
X2551500Y-2645988D01*
X2551500Y-2495988D02*
X2401500Y-2645988D01*
X2476500Y-2495988D02*
X2476500Y-2645988D01*
X2401500Y-2570988D02*
X2551500Y-2570988D01*
X2401500Y-4400988D02*
X2551500Y-4550988D01*
X2551500Y-4400988D02*
X2401500Y-4550988D01*
X2476500Y-4400988D02*
X2476500Y-4550988D01*
X2401500Y-4475988D02*
X2551500Y-4475988D01*
X2401500Y-6305988D02*
X2551500Y-6455988D01*
X2551500Y-6305988D02*
X2401500Y-6455988D01*
X2476500Y-6305988D02*
X2476500Y-6455988D01*
X2401500Y-6380988D02*
X2551500Y-6380988D01*
X2401500Y-8210988D02*
X2551500Y-8360988D01*
X2551500Y-8210988D02*
X2401500Y-8360988D01*
X2476500Y-8210988D02*
X2476500Y-8360988D01*
X2401500Y-8285988D02*
X2551500Y-8285988D01*
X2541200Y-1360100D02*
X2691200Y-1510100D01*
X2691200Y-1360100D02*
X2541200Y-1510100D01*
X2616200Y-1360100D02*
X2616200Y-1510100D01*
X2541200Y-1435100D02*
X2691200Y-1435100D01*
X3036500Y-2241988D02*
X3186500Y-2391988D01*
X3186500Y-2241988D02*
X3036500Y-2391988D01*
X3111500Y-2241988D02*
X3111500Y-2391988D01*
X3036500Y-2316988D02*
X3186500Y-2316988D01*
X3036500Y-4146988D02*
X3186500Y-4296988D01*
X3186500Y-4146988D02*
X3036500Y-4296988D01*
X3111500Y-4146988D02*
X3111500Y-4296988D01*
X3036500Y-4221988D02*
X3186500Y-4221988D01*
X3036500Y-6051988D02*
X3186500Y-6201988D01*
X3186500Y-6051988D02*
X3036500Y-6201988D01*
X3111500Y-6051988D02*
X3111500Y-6201988D01*
X3036500Y-6126988D02*
X3186500Y-6126988D01*
X3036500Y-7956988D02*
X3186500Y-8106988D01*
X3186500Y-7956988D02*
X3036500Y-8106988D01*
X3111500Y-7956988D02*
X3111500Y-8106988D01*
X3036500Y-8031988D02*
X3186500Y-8031988D01*
X3176200Y-1106100D02*
X3326200Y-1256100D01*
X3326200Y-1106100D02*
X3176200Y-1256100D01*
X3251200Y-1106100D02*
X3251200Y-1256100D01*
X3176200Y-1181100D02*
X3326200Y-1181100D01*
X4300912Y-8209464D02*
X4450912Y-8359464D01*
X4450912Y-8209464D02*
X4300912Y-8359464D01*
X4375912Y-8209464D02*
X4375912Y-8359464D01*
X4300912Y-8284464D02*
X4450912Y-8284464D01*
X4310564Y-4403020D02*
X4460564Y-4553020D01*
X4460564Y-4403020D02*
X4310564Y-4553020D01*
X4385564Y-4403020D02*
X4385564Y-4553020D01*
X4310564Y-4478020D02*
X4460564Y-4478020D01*
X4310564Y-6307004D02*
X4460564Y-6457004D01*
X4460564Y-6307004D02*
X4310564Y-6457004D01*
X4385564Y-6307004D02*
X4385564Y-6457004D01*
X4310564Y-6382004D02*
X4460564Y-6382004D01*
X4311580Y-598100D02*
X4461580Y-748100D01*
X4461580Y-598100D02*
X4311580Y-748100D01*
X4386580Y-598100D02*
X4386580Y-748100D01*
X4311580Y-673100D02*
X4461580Y-673100D01*
X4311580Y-2502084D02*
X4461580Y-2652084D01*
X4461580Y-2502084D02*
X4311580Y-2652084D01*
X4386580Y-2502084D02*
X4386580Y-2652084D01*
X4311580Y-2577084D02*
X4461580Y-2577084D01*
X4935912Y-7955464D02*
X5085912Y-8105464D01*
X5085912Y-7955464D02*
X4935912Y-8105464D01*
X5010912Y-7955464D02*
X5010912Y-8105464D01*
X4935912Y-8030464D02*
X5085912Y-8030464D01*
X4945564Y-4149020D02*
X5095564Y-4299020D01*
X5095564Y-4149020D02*
X4945564Y-4299020D01*
X5020564Y-4149020D02*
X5020564Y-4299020D01*
X4945564Y-4224020D02*
X5095564Y-4224020D01*
X4945564Y-6053004D02*
X5095564Y-6203004D01*
X5095564Y-6053004D02*
X4945564Y-6203004D01*
X5020564Y-6053004D02*
X5020564Y-6203004D01*
X4945564Y-6128004D02*
X5095564Y-6128004D01*
X4946580Y-344100D02*
X5096580Y-494100D01*
X5096580Y-344100D02*
X4946580Y-494100D01*
X5021580Y-344100D02*
X5021580Y-494100D01*
X4946580Y-419100D02*
X5096580Y-419100D01*
X4946580Y-2248084D02*
X5096580Y-2398084D01*
X5096580Y-2248084D02*
X4946580Y-2398084D01*
X5021580Y-2248084D02*
X5021580Y-2398084D01*
X4946580Y-2323084D02*
X5096580Y-2323084D01*
X6210484Y-8209464D02*
X6360484Y-8359464D01*
X6360484Y-8209464D02*
X6210484Y-8359464D01*
X6285484Y-8209464D02*
X6285484Y-8359464D01*
X6210484Y-8284464D02*
X6360484Y-8284464D01*
X6216072Y-2502084D02*
X6366072Y-2652084D01*
X6366072Y-2502084D02*
X6216072Y-2652084D01*
X6291072Y-2502084D02*
X6291072Y-2652084D01*
X6216072Y-2577084D02*
X6366072Y-2577084D01*
X6216072Y-4400988D02*
X6366072Y-4550988D01*
X6366072Y-4400988D02*
X6216072Y-4550988D01*
X6291072Y-4400988D02*
X6291072Y-4550988D01*
X6216072Y-4475988D02*
X6366072Y-4475988D01*
X6216072Y-6304972D02*
X6366072Y-6454972D01*
X6366072Y-6304972D02*
X6216072Y-6454972D01*
X6291072Y-6304972D02*
X6291072Y-6454972D01*
X6216072Y-6379972D02*
X6366072Y-6379972D01*
X6220136Y-600132D02*
X6370136Y-750132D01*
X6370136Y-600132D02*
X6220136Y-750132D01*
X6295136Y-600132D02*
X6295136Y-750132D01*
X6220136Y-675132D02*
X6370136Y-675132D01*
X6845484Y-7955464D02*
X6995484Y-8105464D01*
X6995484Y-7955464D02*
X6845484Y-8105464D01*
X6920484Y-7955464D02*
X6920484Y-8105464D01*
X6845484Y-8030464D02*
X6995484Y-8030464D01*
X6851072Y-2248084D02*
X7001072Y-2398084D01*
X7001072Y-2248084D02*
X6851072Y-2398084D01*
X6926072Y-2248084D02*
X6926072Y-2398084D01*
X6851072Y-2323084D02*
X7001072Y-2323084D01*
X6851072Y-4146988D02*
X7001072Y-4296988D01*
X7001072Y-4146988D02*
X6851072Y-4296988D01*
X6926072Y-4146988D02*
X6926072Y-4296988D01*
X6851072Y-4221988D02*
X7001072Y-4221988D01*
X6851072Y-6050972D02*
X7001072Y-6200972D01*
X7001072Y-6050972D02*
X6851072Y-6200972D01*
X6926072Y-6050972D02*
X6926072Y-6200972D01*
X6851072Y-6125972D02*
X7001072Y-6125972D01*
X6855136Y-346132D02*
X7005136Y-496132D01*
X7005136Y-346132D02*
X6855136Y-496132D01*
X6930136Y-346132D02*
X6930136Y-496132D01*
X6855136Y-421132D02*
X7005136Y-421132D01*
X8121072Y-8210988D02*
X8271072Y-8360988D01*
X8271072Y-8210988D02*
X8121072Y-8360988D01*
X8196072Y-8210988D02*
X8196072Y-8360988D01*
X8121072Y-8285988D02*
X8271072Y-8285988D01*
X8124628Y-2498528D02*
X8274628Y-2648528D01*
X8274628Y-2498528D02*
X8124628Y-2648528D01*
X8199628Y-2498528D02*
X8199628Y-2648528D01*
X8124628Y-2573528D02*
X8274628Y-2573528D01*
X8124628Y-4413688D02*
X8274628Y-4563688D01*
X8274628Y-4413688D02*
X8124628Y-4563688D01*
X8199628Y-4413688D02*
X8199628Y-4563688D01*
X8124628Y-4488688D02*
X8274628Y-4488688D01*
X8125644Y-6304972D02*
X8275644Y-6454972D01*
X8275644Y-6304972D02*
X8125644Y-6454972D01*
X8200644Y-6304972D02*
X8200644Y-6454972D01*
X8125644Y-6379972D02*
X8275644Y-6379972D01*
X8128184Y-596576D02*
X8278184Y-746576D01*
X8278184Y-596576D02*
X8128184Y-746576D01*
X8203184Y-596576D02*
X8203184Y-746576D01*
X8128184Y-671576D02*
X8278184Y-671576D01*
X8756072Y-7956988D02*
X8906072Y-8106988D01*
X8906072Y-7956988D02*
X8756072Y-8106988D01*
X8831072Y-7956988D02*
X8831072Y-8106988D01*
X8756072Y-8031988D02*
X8906072Y-8031988D01*
X8759628Y-2244528D02*
X8909628Y-2394528D01*
X8909628Y-2244528D02*
X8759628Y-2394528D01*
X8834628Y-2244528D02*
X8834628Y-2394528D01*
X8759628Y-2319528D02*
X8909628Y-2319528D01*
X8759628Y-4159688D02*
X8909628Y-4309688D01*
X8909628Y-4159688D02*
X8759628Y-4309688D01*
X8834628Y-4159688D02*
X8834628Y-4309688D01*
X8759628Y-4234688D02*
X8909628Y-4234688D01*
X8760644Y-6050972D02*
X8910644Y-6200972D01*
X8910644Y-6050972D02*
X8760644Y-6200972D01*
X8835644Y-6050972D02*
X8835644Y-6200972D01*
X8760644Y-6125972D02*
X8910644Y-6125972D01*
X8763184Y-342576D02*
X8913184Y-492576D01*
X8913184Y-342576D02*
X8763184Y-492576D01*
X8838184Y-342576D02*
X8838184Y-492576D01*
X8763184Y-417576D02*
X8913184Y-417576D01*
X10034200Y-600132D02*
X10184200Y-750132D01*
X10184200Y-600132D02*
X10034200Y-750132D01*
X10109200Y-600132D02*
X10109200Y-750132D01*
X10034200Y-675132D02*
X10184200Y-675132D01*
X10034200Y-2498528D02*
X10184200Y-2648528D01*
X10184200Y-2498528D02*
X10034200Y-2648528D01*
X10109200Y-2498528D02*
X10109200Y-2648528D01*
X10034200Y-2573528D02*
X10184200Y-2573528D01*
X10034200Y-4413688D02*
X10184200Y-4563688D01*
X10184200Y-4413688D02*
X10034200Y-4563688D01*
X10109200Y-4413688D02*
X10109200Y-4563688D01*
X10034200Y-4488688D02*
X10184200Y-4488688D01*
X10035216Y-6310052D02*
X10185216Y-6460052D01*
X10185216Y-6310052D02*
X10035216Y-6460052D01*
X10110216Y-6310052D02*
X10110216Y-6460052D01*
X10035216Y-6385052D02*
X10185216Y-6385052D01*
X10669200Y-346132D02*
X10819200Y-496132D01*
X10819200Y-346132D02*
X10669200Y-496132D01*
X10744200Y-346132D02*
X10744200Y-496132D01*
X10669200Y-421132D02*
X10819200Y-421132D01*
X10669200Y-2244528D02*
X10819200Y-2394528D01*
X10819200Y-2244528D02*
X10669200Y-2394528D01*
X10744200Y-2244528D02*
X10744200Y-2394528D01*
X10669200Y-2319528D02*
X10819200Y-2319528D01*
X10669200Y-4159688D02*
X10819200Y-4309688D01*
X10819200Y-4159688D02*
X10669200Y-4309688D01*
X10744200Y-4159688D02*
X10744200Y-4309688D01*
X10669200Y-4234688D02*
X10819200Y-4234688D01*
X10670216Y-6056052D02*
X10820216Y-6206052D01*
X10820216Y-6056052D02*
X10670216Y-6206052D01*
X10745216Y-6056052D02*
X10745216Y-6206052D01*
X10670216Y-6131052D02*
X10820216Y-6131052D01*
X11348396Y-8970448D02*
X11498396Y-9120448D01*
X11498396Y-8970448D02*
X11348396Y-9120448D01*
X11423396Y-8970448D02*
X11423396Y-9120448D01*
X11348396Y-9045448D02*
X11498396Y-9045448D01*
X11983396Y-8716448D02*
X12133396Y-8866448D01*
X12133396Y-8716448D02*
X11983396Y-8866448D01*
X12058396Y-8716448D02*
X12058396Y-8866448D01*
X11983396Y-8791448D02*
X12133396Y-8791448D01*
X12069000Y-6263000D02*
X12219000Y-6413000D01*
X12219000Y-6263000D02*
X12069000Y-6413000D01*
X12144000Y-6263000D02*
X12144000Y-6413000D01*
X12069000Y-6338000D02*
X12219000Y-6338000D01*
X12079000Y-6273000D02*
X12079000Y-6403000D01*
X12209000Y-6273000D02*
X12209000Y-6403000D01*
X12079000Y-6403000D02*
G75*
G03*
X12209000Y-6403000I65000J0D01*
G01*
X12209000Y-6273000D02*
G75*
G03*
X12079000Y-6273000I-65000J0D01*
G01*
X13189000Y-6263000D02*
X13339000Y-6413000D01*
X13339000Y-6263000D02*
X13189000Y-6413000D01*
X13264000Y-6263000D02*
X13264000Y-6413000D01*
X13189000Y-6338000D02*
X13339000Y-6338000D01*
X13199000Y-6273000D02*
X13199000Y-6403000D01*
X13329000Y-6273000D02*
X13329000Y-6403000D01*
X13199000Y-6403000D02*
G75*
G03*
X13329000Y-6403000I65000J0D01*
G01*
X13329000Y-6273000D02*
G75*
G03*
X13199000Y-6273000I-65000J0D01*
G01*
X15140368Y-6254872D02*
X15290368Y-6404872D01*
X15290368Y-6254872D02*
X15140368Y-6404872D01*
X15215368Y-6254872D02*
X15215368Y-6404872D01*
X15140368Y-6329872D02*
X15290368Y-6329872D01*
X15150368Y-6264872D02*
X15150368Y-6394872D01*
X15280368Y-6264872D02*
X15280368Y-6394872D01*
X15150368Y-6394872D02*
G75*
G03*
X15280368Y-6394872I65000J0D01*
G01*
X15280368Y-6264872D02*
G75*
G03*
X15150368Y-6264872I-65000J0D01*
G01*
X16260368Y-6254872D02*
X16410368Y-6404872D01*
X16410368Y-6254872D02*
X16260368Y-6404872D01*
X16335368Y-6254872D02*
X16335368Y-6404872D01*
X16260368Y-6329872D02*
X16410368Y-6329872D01*
X16270368Y-6264872D02*
X16270368Y-6394872D01*
X16400368Y-6264872D02*
X16400368Y-6394872D01*
X16270368Y-6394872D02*
G75*
G03*
X16400368Y-6394872I65000J0D01*
G01*
X16400368Y-6264872D02*
G75*
G03*
X16270368Y-6264872I-65000J0D01*
G01*
X16481736Y-8980100D02*
X16631736Y-9130100D01*
X16631736Y-8980100D02*
X16481736Y-9130100D01*
X16556736Y-8980100D02*
X16556736Y-9130100D01*
X16481736Y-9055100D02*
X16631736Y-9055100D01*
X17116736Y-8726100D02*
X17266736Y-8876100D01*
X17266736Y-8726100D02*
X17116736Y-8876100D01*
X17191736Y-8726100D02*
X17191736Y-8876100D01*
X17116736Y-8801100D02*
X17266736Y-8801100D01*
X17538884Y-6322752D02*
X17688884Y-6472752D01*
X17688884Y-6322752D02*
X17538884Y-6472752D01*
X17613884Y-6322752D02*
X17613884Y-6472752D01*
X17538884Y-6397752D02*
X17688884Y-6397752D01*
X17551584Y-601656D02*
X17701584Y-751656D01*
X17701584Y-601656D02*
X17551584Y-751656D01*
X17626584Y-601656D02*
X17626584Y-751656D01*
X17551584Y-676656D02*
X17701584Y-676656D01*
X17553616Y-2506148D02*
X17703616Y-2656148D01*
X17703616Y-2506148D02*
X17553616Y-2656148D01*
X17628616Y-2506148D02*
X17628616Y-2656148D01*
X17553616Y-2581148D02*
X17703616Y-2581148D01*
X17553616Y-4411148D02*
X17703616Y-4561148D01*
X17703616Y-4411148D02*
X17553616Y-4561148D01*
X17628616Y-4411148D02*
X17628616Y-4561148D01*
X17553616Y-4486148D02*
X17703616Y-4486148D01*
X18173884Y-6068752D02*
X18323884Y-6218752D01*
X18323884Y-6068752D02*
X18173884Y-6218752D01*
X18248884Y-6068752D02*
X18248884Y-6218752D01*
X18173884Y-6143752D02*
X18323884Y-6143752D01*
X18186584Y-347656D02*
X18336584Y-497656D01*
X18336584Y-347656D02*
X18186584Y-497656D01*
X18261584Y-347656D02*
X18261584Y-497656D01*
X18186584Y-422656D02*
X18336584Y-422656D01*
X18188616Y-2252148D02*
X18338616Y-2402148D01*
X18338616Y-2252148D02*
X18188616Y-2402148D01*
X18263616Y-2252148D02*
X18263616Y-2402148D01*
X18188616Y-2327148D02*
X18338616Y-2327148D01*
X18188616Y-4157148D02*
X18338616Y-4307148D01*
X18338616Y-4157148D02*
X18188616Y-4307148D01*
X18263616Y-4157148D02*
X18263616Y-4307148D01*
X18188616Y-4232148D02*
X18338616Y-4232148D01*
X19452012Y-4410132D02*
X19602012Y-4560132D01*
X19602012Y-4410132D02*
X19452012Y-4560132D01*
X19527012Y-4410132D02*
X19527012Y-4560132D01*
X19452012Y-4485132D02*
X19602012Y-4485132D01*
X19452012Y-8218608D02*
X19602012Y-8368608D01*
X19602012Y-8218608D02*
X19452012Y-8368608D01*
X19527012Y-8218608D02*
X19527012Y-8368608D01*
X19452012Y-8293608D02*
X19602012Y-8293608D01*
X19453028Y-6315640D02*
X19603028Y-6465640D01*
X19603028Y-6315640D02*
X19453028Y-6465640D01*
X19528028Y-6315640D02*
X19528028Y-6465640D01*
X19453028Y-6390640D02*
X19603028Y-6390640D01*
X19454552Y-600132D02*
X19604552Y-750132D01*
X19604552Y-600132D02*
X19454552Y-750132D01*
X19529552Y-600132D02*
X19529552Y-750132D01*
X19454552Y-675132D02*
X19604552Y-675132D01*
X19454552Y-2505640D02*
X19604552Y-2655640D01*
X19604552Y-2505640D02*
X19454552Y-2655640D01*
X19529552Y-2505640D02*
X19529552Y-2655640D01*
X19454552Y-2580640D02*
X19604552Y-2580640D01*
X20087012Y-4156132D02*
X20237012Y-4306132D01*
X20237012Y-4156132D02*
X20087012Y-4306132D01*
X20162012Y-4156132D02*
X20162012Y-4306132D01*
X20087012Y-4231132D02*
X20237012Y-4231132D01*
X20087012Y-7964608D02*
X20237012Y-8114608D01*
X20237012Y-7964608D02*
X20087012Y-8114608D01*
X20162012Y-7964608D02*
X20162012Y-8114608D01*
X20087012Y-8039608D02*
X20237012Y-8039608D01*
X20088028Y-6061640D02*
X20238028Y-6211640D01*
X20238028Y-6061640D02*
X20088028Y-6211640D01*
X20163028Y-6061640D02*
X20163028Y-6211640D01*
X20088028Y-6136640D02*
X20238028Y-6136640D01*
X20089552Y-346132D02*
X20239552Y-496132D01*
X20239552Y-346132D02*
X20089552Y-496132D01*
X20164552Y-346132D02*
X20164552Y-496132D01*
X20089552Y-421132D02*
X20239552Y-421132D01*
X20089552Y-2251640D02*
X20239552Y-2401640D01*
X20239552Y-2251640D02*
X20089552Y-2401640D01*
X20164552Y-2251640D02*
X20164552Y-2401640D01*
X20089552Y-2326640D02*
X20239552Y-2326640D01*
X21356504Y-6310052D02*
X21506504Y-6460052D01*
X21506504Y-6310052D02*
X21356504Y-6460052D01*
X21431504Y-6310052D02*
X21431504Y-6460052D01*
X21356504Y-6385052D02*
X21506504Y-6385052D01*
X21358028Y-4405560D02*
X21508028Y-4555560D01*
X21508028Y-4405560D02*
X21358028Y-4555560D01*
X21433028Y-4405560D02*
X21433028Y-4555560D01*
X21358028Y-4480560D02*
X21508028Y-4480560D01*
X21359552Y-8219624D02*
X21509552Y-8369624D01*
X21509552Y-8219624D02*
X21359552Y-8369624D01*
X21434552Y-8219624D02*
X21434552Y-8369624D01*
X21359552Y-8294624D02*
X21509552Y-8294624D01*
X21361076Y-2500560D02*
X21511076Y-2650560D01*
X21511076Y-2500560D02*
X21361076Y-2650560D01*
X21436076Y-2500560D02*
X21436076Y-2650560D01*
X21361076Y-2575560D02*
X21511076Y-2575560D01*
X21361584Y-596068D02*
X21511584Y-746068D01*
X21511584Y-596068D02*
X21361584Y-746068D01*
X21436584Y-596068D02*
X21436584Y-746068D01*
X21361584Y-671068D02*
X21511584Y-671068D01*
X21991504Y-6056052D02*
X22141504Y-6206052D01*
X22141504Y-6056052D02*
X21991504Y-6206052D01*
X22066504Y-6056052D02*
X22066504Y-6206052D01*
X21991504Y-6131052D02*
X22141504Y-6131052D01*
X21993028Y-4151560D02*
X22143028Y-4301560D01*
X22143028Y-4151560D02*
X21993028Y-4301560D01*
X22068028Y-4151560D02*
X22068028Y-4301560D01*
X21993028Y-4226560D02*
X22143028Y-4226560D01*
X21994552Y-7965624D02*
X22144552Y-8115624D01*
X22144552Y-7965624D02*
X21994552Y-8115624D01*
X22069552Y-7965624D02*
X22069552Y-8115624D01*
X21994552Y-8040624D02*
X22144552Y-8040624D01*
X21996076Y-2246560D02*
X22146076Y-2396560D01*
X22146076Y-2246560D02*
X21996076Y-2396560D01*
X22071076Y-2246560D02*
X22071076Y-2396560D01*
X21996076Y-2321560D02*
X22146076Y-2321560D01*
X21996584Y-342068D02*
X22146584Y-492068D01*
X22146584Y-342068D02*
X21996584Y-492068D01*
X22071584Y-342068D02*
X22071584Y-492068D01*
X21996584Y-417068D02*
X22146584Y-417068D01*
X23273188Y-2495480D02*
X23423188Y-2645480D01*
X23423188Y-2495480D02*
X23273188Y-2645480D01*
X23348188Y-2495480D02*
X23348188Y-2645480D01*
X23273188Y-2570480D02*
X23423188Y-2570480D01*
X23273188Y-4402004D02*
X23423188Y-4552004D01*
X23423188Y-4402004D02*
X23273188Y-4552004D01*
X23348188Y-4402004D02*
X23348188Y-4552004D01*
X23273188Y-4477004D02*
X23423188Y-4477004D01*
X23273188Y-8208448D02*
X23423188Y-8358448D01*
X23423188Y-8208448D02*
X23273188Y-8358448D01*
X23348188Y-8208448D02*
X23348188Y-8358448D01*
X23273188Y-8283448D02*
X23423188Y-8283448D01*
X23274204Y-597084D02*
X23424204Y-747084D01*
X23424204Y-597084D02*
X23274204Y-747084D01*
X23349204Y-597084D02*
X23349204Y-747084D01*
X23274204Y-672084D02*
X23424204Y-672084D01*
X23275220Y-6306496D02*
X23425220Y-6456496D01*
X23425220Y-6306496D02*
X23275220Y-6456496D01*
X23350220Y-6306496D02*
X23350220Y-6456496D01*
X23275220Y-6381496D02*
X23425220Y-6381496D01*
X23908188Y-2241480D02*
X24058188Y-2391480D01*
X24058188Y-2241480D02*
X23908188Y-2391480D01*
X23983188Y-2241480D02*
X23983188Y-2391480D01*
X23908188Y-2316480D02*
X24058188Y-2316480D01*
X23908188Y-4148004D02*
X24058188Y-4298004D01*
X24058188Y-4148004D02*
X23908188Y-4298004D01*
X23983188Y-4148004D02*
X23983188Y-4298004D01*
X23908188Y-4223004D02*
X24058188Y-4223004D01*
X23908188Y-7954448D02*
X24058188Y-8104448D01*
X24058188Y-7954448D02*
X23908188Y-8104448D01*
X23983188Y-7954448D02*
X23983188Y-8104448D01*
X23908188Y-8029448D02*
X24058188Y-8029448D01*
X23909204Y-343084D02*
X24059204Y-493084D01*
X24059204Y-343084D02*
X23909204Y-493084D01*
X23984204Y-343084D02*
X23984204Y-493084D01*
X23909204Y-418084D02*
X24059204Y-418084D01*
X23910220Y-6052496D02*
X24060220Y-6202496D01*
X24060220Y-6052496D02*
X23910220Y-6202496D01*
X23985220Y-6052496D02*
X23985220Y-6202496D01*
X23910220Y-6127496D02*
X24060220Y-6127496D01*
X25177172Y-6304972D02*
X25327172Y-6454972D01*
X25327172Y-6304972D02*
X25177172Y-6454972D01*
X25252172Y-6304972D02*
X25252172Y-6454972D01*
X25177172Y-6379972D02*
X25327172Y-6379972D01*
X25177172Y-8206416D02*
X25327172Y-8356416D01*
X25327172Y-8206416D02*
X25177172Y-8356416D01*
X25252172Y-8206416D02*
X25252172Y-8356416D01*
X25177172Y-8281416D02*
X25327172Y-8281416D01*
X25180220Y-4403528D02*
X25330220Y-4553528D01*
X25330220Y-4403528D02*
X25180220Y-4553528D01*
X25255220Y-4403528D02*
X25255220Y-4553528D01*
X25180220Y-4478528D02*
X25330220Y-4478528D01*
X25183268Y-594544D02*
X25333268Y-744544D01*
X25333268Y-594544D02*
X25183268Y-744544D01*
X25258268Y-594544D02*
X25258268Y-744544D01*
X25183268Y-669544D02*
X25333268Y-669544D01*
X25184792Y-2497004D02*
X25334792Y-2647004D01*
X25334792Y-2497004D02*
X25184792Y-2647004D01*
X25259792Y-2497004D02*
X25259792Y-2647004D01*
X25184792Y-2572004D02*
X25334792Y-2572004D01*
X25812172Y-6050972D02*
X25962172Y-6200972D01*
X25962172Y-6050972D02*
X25812172Y-6200972D01*
X25887172Y-6050972D02*
X25887172Y-6200972D01*
X25812172Y-6125972D02*
X25962172Y-6125972D01*
X25812172Y-7952416D02*
X25962172Y-8102416D01*
X25962172Y-7952416D02*
X25812172Y-8102416D01*
X25887172Y-7952416D02*
X25887172Y-8102416D01*
X25812172Y-8027416D02*
X25962172Y-8027416D01*
X25815220Y-4149528D02*
X25965220Y-4299528D01*
X25965220Y-4149528D02*
X25815220Y-4299528D01*
X25890220Y-4149528D02*
X25890220Y-4299528D01*
X25815220Y-4224528D02*
X25965220Y-4224528D01*
X25818268Y-340544D02*
X25968268Y-490544D01*
X25968268Y-340544D02*
X25818268Y-490544D01*
X25893268Y-340544D02*
X25893268Y-490544D01*
X25818268Y-415544D02*
X25968268Y-415544D01*
X25819792Y-2243004D02*
X25969792Y-2393004D01*
X25969792Y-2243004D02*
X25819792Y-2393004D01*
X25894792Y-2243004D02*
X25894792Y-2393004D01*
X25819792Y-2318004D02*
X25969792Y-2318004D01*
X27079632Y-4405560D02*
X27229632Y-4555560D01*
X27229632Y-4405560D02*
X27079632Y-4555560D01*
X27154632Y-4405560D02*
X27154632Y-4555560D01*
X27079632Y-4480560D02*
X27229632Y-4480560D01*
X27079632Y-6307004D02*
X27229632Y-6457004D01*
X27229632Y-6307004D02*
X27079632Y-6457004D01*
X27154632Y-6307004D02*
X27154632Y-6457004D01*
X27079632Y-6382004D02*
X27229632Y-6382004D01*
X27079632Y-8208448D02*
X27229632Y-8358448D01*
X27229632Y-8208448D02*
X27079632Y-8358448D01*
X27154632Y-8208448D02*
X27154632Y-8358448D01*
X27079632Y-8283448D02*
X27229632Y-8283448D01*
X27081156Y-2502592D02*
X27231156Y-2652592D01*
X27231156Y-2502592D02*
X27081156Y-2652592D01*
X27156156Y-2502592D02*
X27156156Y-2652592D01*
X27081156Y-2577592D02*
X27231156Y-2577592D01*
X27081664Y-595052D02*
X27231664Y-745052D01*
X27231664Y-595052D02*
X27081664Y-745052D01*
X27156664Y-595052D02*
X27156664Y-745052D01*
X27081664Y-670052D02*
X27231664Y-670052D01*
X27714632Y-4151560D02*
X27864632Y-4301560D01*
X27864632Y-4151560D02*
X27714632Y-4301560D01*
X27789632Y-4151560D02*
X27789632Y-4301560D01*
X27714632Y-4226560D02*
X27864632Y-4226560D01*
X27714632Y-6053004D02*
X27864632Y-6203004D01*
X27864632Y-6053004D02*
X27714632Y-6203004D01*
X27789632Y-6053004D02*
X27789632Y-6203004D01*
X27714632Y-6128004D02*
X27864632Y-6128004D01*
X27714632Y-7954448D02*
X27864632Y-8104448D01*
X27864632Y-7954448D02*
X27714632Y-8104448D01*
X27789632Y-7954448D02*
X27789632Y-8104448D01*
X27714632Y-8029448D02*
X27864632Y-8029448D01*
X27716156Y-2248592D02*
X27866156Y-2398592D01*
X27866156Y-2248592D02*
X27716156Y-2398592D01*
X27791156Y-2248592D02*
X27791156Y-2398592D01*
X27716156Y-2323592D02*
X27866156Y-2323592D01*
X27716664Y-341052D02*
X27866664Y-491052D01*
X27866664Y-341052D02*
X27716664Y-491052D01*
X27791664Y-341052D02*
X27791664Y-491052D01*
X27716664Y-416052D02*
X27866664Y-416052D01*
X3675000Y-3977260D02*
X3945000Y-4247260D01*
X3945000Y-3977260D02*
X3675000Y-4247260D01*
X3905460Y-4207720D02*
X3905460Y-4016800D01*
X3714540Y-4016800D01*
X3714540Y-4207720D01*
X3905460Y-4207720D01*
X9690990Y-7735190D02*
X9960990Y-8005190D01*
X9960990Y-7735190D02*
X9690990Y-8005190D01*
X9921450Y-7965650D02*
X9921450Y-7774730D01*
X9730530Y-7774730D01*
X9730530Y-7965650D01*
X9921450Y-7965650D01*
X18565750Y-7772020D02*
X18835750Y-8042020D01*
X18835750Y-7772020D02*
X18565750Y-8042020D01*
X18796210Y-8002480D02*
X18796210Y-7811560D01*
X18605290Y-7811560D01*
X18605290Y-8002480D01*
X18796210Y-8002480D01*
X24555070Y-4020440D02*
X24825070Y-4290440D01*
X24825070Y-4020440D02*
X24555070Y-4290440D01*
X24785530Y-4250900D02*
X24785530Y-4059980D01*
X24594610Y-4059980D01*
X24594610Y-4250900D01*
X24785530Y-4250900D01*
D12*
X283928Y-9929714D02*
X283928Y-9629714D01*
X355357Y-9629714D01*
X398214Y-9644000D01*
X426786Y-9672572D01*
X441071Y-9701143D01*
X455357Y-9758286D01*
X455357Y-9801143D01*
X441071Y-9858286D01*
X426786Y-9886857D01*
X398214Y-9915429D01*
X355357Y-9929714D01*
X283928Y-9929714D01*
X583928Y-9929714D02*
X583928Y-9729714D01*
X583928Y-9786857D02*
X598214Y-9758286D01*
X612500Y-9744000D01*
X641071Y-9729714D01*
X669643Y-9729714D01*
X769643Y-9929714D02*
X769643Y-9729714D01*
X769643Y-9629714D02*
X755357Y-9644000D01*
X769643Y-9658286D01*
X783928Y-9644000D01*
X769643Y-9629714D01*
X769643Y-9658286D01*
X955357Y-9929714D02*
X926786Y-9915429D01*
X912500Y-9886857D01*
X912500Y-9629714D01*
X1112500Y-9929714D02*
X1083928Y-9915429D01*
X1069643Y-9886857D01*
X1069643Y-9629714D01*
X1455357Y-9929714D02*
X1455357Y-9629714D01*
X1555357Y-9844000D01*
X1655357Y-9629714D01*
X1655357Y-9929714D01*
X1926786Y-9929714D02*
X1926786Y-9772572D01*
X1912500Y-9744000D01*
X1883928Y-9729714D01*
X1826786Y-9729714D01*
X1798214Y-9744000D01*
X1926786Y-9915429D02*
X1898214Y-9929714D01*
X1826786Y-9929714D01*
X1798214Y-9915429D01*
X1783928Y-9886857D01*
X1783928Y-9858286D01*
X1798214Y-9829714D01*
X1826786Y-9815429D01*
X1898214Y-9815429D01*
X1926786Y-9801143D01*
X2069643Y-9729714D02*
X2069643Y-10029714D01*
X2069643Y-9744000D02*
X2098214Y-9729714D01*
X2155357Y-9729714D01*
X2183928Y-9744000D01*
X2198214Y-9758286D01*
X2212500Y-9786857D01*
X2212500Y-9872572D01*
X2198214Y-9901143D01*
X2183928Y-9915429D01*
X2155357Y-9929714D01*
X2098214Y-9929714D01*
X2069643Y-9915429D01*
X2341071Y-9901143D02*
X2355357Y-9915429D01*
X2341071Y-9929714D01*
X2326786Y-9915429D01*
X2341071Y-9901143D01*
X2341071Y-9929714D01*
X2341071Y-9744000D02*
X2355357Y-9758286D01*
X2341071Y-9772572D01*
X2326786Y-9758286D01*
X2341071Y-9744000D01*
X2341071Y-9772572D01*
X-42500Y-10404000D02*
X-2500Y-10444000D01*
X-2500Y-10404000D02*
X-42500Y-10444000D01*
X341071Y-10259714D02*
X369643Y-10259714D01*
X398214Y-10274000D01*
X412500Y-10288286D01*
X426786Y-10316857D01*
X441071Y-10374000D01*
X441071Y-10445429D01*
X426786Y-10502572D01*
X412500Y-10531143D01*
X398214Y-10545429D01*
X369643Y-10559714D01*
X341071Y-10559714D01*
X312500Y-10545429D01*
X298214Y-10531143D01*
X283928Y-10502572D01*
X269643Y-10445429D01*
X269643Y-10374000D01*
X283928Y-10316857D01*
X298214Y-10288286D01*
X312500Y-10274000D01*
X341071Y-10259714D01*
X569643Y-10531143D02*
X583928Y-10545429D01*
X569643Y-10559714D01*
X555357Y-10545429D01*
X569643Y-10531143D01*
X569643Y-10559714D01*
X841071Y-10359714D02*
X841071Y-10559714D01*
X769643Y-10245429D02*
X698214Y-10459714D01*
X883928Y-10459714D01*
X1055357Y-10259714D02*
X1083928Y-10259714D01*
X1112500Y-10274000D01*
X1126786Y-10288286D01*
X1141071Y-10316857D01*
X1155357Y-10374000D01*
X1155357Y-10445429D01*
X1141071Y-10502572D01*
X1126786Y-10531143D01*
X1112500Y-10545429D01*
X1083928Y-10559714D01*
X1055357Y-10559714D01*
X1026786Y-10545429D01*
X1012500Y-10531143D01*
X998214Y-10502572D01*
X983928Y-10445429D01*
X983928Y-10374000D01*
X998214Y-10316857D01*
X1012500Y-10288286D01*
X1026786Y-10274000D01*
X1055357Y-10259714D01*
X1341071Y-10259714D02*
X1369643Y-10259714D01*
X1398214Y-10274000D01*
X1412500Y-10288286D01*
X1426786Y-10316857D01*
X1441071Y-10374000D01*
X1441071Y-10445429D01*
X1426786Y-10502572D01*
X1412500Y-10531143D01*
X1398214Y-10545429D01*
X1369643Y-10559714D01*
X1341071Y-10559714D01*
X1312500Y-10545429D01*
X1298214Y-10531143D01*
X1283928Y-10502572D01*
X1269643Y-10445429D01*
X1269643Y-10374000D01*
X1283928Y-10316857D01*
X1298214Y-10288286D01*
X1312500Y-10274000D01*
X1341071Y-10259714D01*
X1569643Y-10559714D02*
X1569643Y-10359714D01*
X1569643Y-10388286D02*
X1583928Y-10374000D01*
X1612500Y-10359714D01*
X1655357Y-10359714D01*
X1683928Y-10374000D01*
X1698214Y-10402572D01*
X1698214Y-10559714D01*
X1698214Y-10402572D02*
X1712500Y-10374000D01*
X1741071Y-10359714D01*
X1783928Y-10359714D01*
X1812500Y-10374000D01*
X1826786Y-10402572D01*
X1826786Y-10559714D01*
X1969643Y-10559714D02*
X1969643Y-10359714D01*
X1969643Y-10388286D02*
X1983928Y-10374000D01*
X2012500Y-10359714D01*
X2055357Y-10359714D01*
X2083928Y-10374000D01*
X2098214Y-10402572D01*
X2098214Y-10559714D01*
X2098214Y-10402572D02*
X2112500Y-10374000D01*
X2141071Y-10359714D01*
X2183928Y-10359714D01*
X2212500Y-10374000D01*
X2226786Y-10402572D01*
X2226786Y-10559714D01*
X2812500Y-10245429D02*
X2555357Y-10631143D01*
X3198214Y-10259714D02*
X3226786Y-10259714D01*
X3255357Y-10274000D01*
X3269643Y-10288286D01*
X3283928Y-10316857D01*
X3298214Y-10374000D01*
X3298214Y-10445429D01*
X3283928Y-10502572D01*
X3269643Y-10531143D01*
X3255357Y-10545429D01*
X3226786Y-10559714D01*
X3198214Y-10559714D01*
X3169643Y-10545429D01*
X3155357Y-10531143D01*
X3141071Y-10502572D01*
X3126786Y-10445429D01*
X3126786Y-10374000D01*
X3141071Y-10316857D01*
X3155357Y-10288286D01*
X3169643Y-10274000D01*
X3198214Y-10259714D01*
X3426786Y-10531143D02*
X3441071Y-10545429D01*
X3426786Y-10559714D01*
X3412500Y-10545429D01*
X3426786Y-10531143D01*
X3426786Y-10559714D01*
X3626786Y-10259714D02*
X3655357Y-10259714D01*
X3683928Y-10274000D01*
X3698214Y-10288286D01*
X3712500Y-10316857D01*
X3726786Y-10374000D01*
X3726786Y-10445429D01*
X3712500Y-10502572D01*
X3698214Y-10531143D01*
X3683928Y-10545429D01*
X3655357Y-10559714D01*
X3626786Y-10559714D01*
X3598214Y-10545429D01*
X3583928Y-10531143D01*
X3569643Y-10502572D01*
X3555357Y-10445429D01*
X3555357Y-10374000D01*
X3569643Y-10316857D01*
X3583928Y-10288286D01*
X3598214Y-10274000D01*
X3626786Y-10259714D01*
X4012500Y-10559714D02*
X3841071Y-10559714D01*
X3926786Y-10559714D02*
X3926786Y-10259714D01*
X3898214Y-10302572D01*
X3869643Y-10331143D01*
X3841071Y-10345429D01*
X4283928Y-10259714D02*
X4141071Y-10259714D01*
X4126786Y-10402572D01*
X4141071Y-10388286D01*
X4169643Y-10374000D01*
X4241071Y-10374000D01*
X4269643Y-10388286D01*
X4283928Y-10402572D01*
X4298214Y-10431143D01*
X4298214Y-10502572D01*
X4283928Y-10531143D01*
X4269643Y-10545429D01*
X4241071Y-10559714D01*
X4169643Y-10559714D01*
X4141071Y-10545429D01*
X4126786Y-10531143D01*
X4398214Y-10259714D02*
X4598214Y-10259714D01*
X4469643Y-10559714D01*
X4698214Y-10259714D02*
X4698214Y-10316857D01*
X4812500Y-10259714D02*
X4812500Y-10316857D01*
X5255357Y-10674000D02*
X5241071Y-10659714D01*
X5212500Y-10616857D01*
X5198214Y-10588286D01*
X5183928Y-10545429D01*
X5169643Y-10474000D01*
X5169643Y-10416857D01*
X5183928Y-10345429D01*
X5198214Y-10302572D01*
X5212500Y-10274000D01*
X5241071Y-10231143D01*
X5255357Y-10216857D01*
X5526786Y-10559714D02*
X5355357Y-10559714D01*
X5441071Y-10559714D02*
X5441071Y-10259714D01*
X5412500Y-10302572D01*
X5383928Y-10331143D01*
X5355357Y-10345429D01*
X5712500Y-10259714D02*
X5741071Y-10259714D01*
X5769643Y-10274000D01*
X5783928Y-10288286D01*
X5798214Y-10316857D01*
X5812500Y-10374000D01*
X5812500Y-10445429D01*
X5798214Y-10502572D01*
X5783928Y-10531143D01*
X5769643Y-10545429D01*
X5741071Y-10559714D01*
X5712500Y-10559714D01*
X5683928Y-10545429D01*
X5669643Y-10531143D01*
X5655357Y-10502572D01*
X5641071Y-10445429D01*
X5641071Y-10374000D01*
X5655357Y-10316857D01*
X5669643Y-10288286D01*
X5683928Y-10274000D01*
X5712500Y-10259714D01*
X5983928Y-10388286D02*
X5955357Y-10374000D01*
X5941071Y-10359714D01*
X5926786Y-10331143D01*
X5926786Y-10316857D01*
X5941071Y-10288286D01*
X5955357Y-10274000D01*
X5983928Y-10259714D01*
X6041071Y-10259714D01*
X6069643Y-10274000D01*
X6083928Y-10288286D01*
X6098214Y-10316857D01*
X6098214Y-10331143D01*
X6083928Y-10359714D01*
X6069643Y-10374000D01*
X6041071Y-10388286D01*
X5983928Y-10388286D01*
X5955357Y-10402572D01*
X5941071Y-10416857D01*
X5926786Y-10445429D01*
X5926786Y-10502572D01*
X5941071Y-10531143D01*
X5955357Y-10545429D01*
X5983928Y-10559714D01*
X6041071Y-10559714D01*
X6069643Y-10545429D01*
X6083928Y-10531143D01*
X6098214Y-10502572D01*
X6098214Y-10445429D01*
X6083928Y-10416857D01*
X6069643Y-10402572D01*
X6041071Y-10388286D01*
X6455357Y-10559714D02*
X6455357Y-10259714D01*
X6583928Y-10559714D02*
X6583928Y-10402572D01*
X6569643Y-10374000D01*
X6541071Y-10359714D01*
X6498214Y-10359714D01*
X6469643Y-10374000D01*
X6455357Y-10388286D01*
X6769643Y-10559714D02*
X6741071Y-10545429D01*
X6726786Y-10531143D01*
X6712500Y-10502572D01*
X6712500Y-10416857D01*
X6726786Y-10388286D01*
X6741071Y-10374000D01*
X6769643Y-10359714D01*
X6812500Y-10359714D01*
X6841071Y-10374000D01*
X6855357Y-10388286D01*
X6869643Y-10416857D01*
X6869643Y-10502572D01*
X6855357Y-10531143D01*
X6841071Y-10545429D01*
X6812500Y-10559714D01*
X6769643Y-10559714D01*
X7041071Y-10559714D02*
X7012500Y-10545429D01*
X6998214Y-10516857D01*
X6998214Y-10259714D01*
X7269643Y-10545429D02*
X7241071Y-10559714D01*
X7183928Y-10559714D01*
X7155357Y-10545429D01*
X7141071Y-10516857D01*
X7141071Y-10402572D01*
X7155357Y-10374000D01*
X7183928Y-10359714D01*
X7241071Y-10359714D01*
X7269643Y-10374000D01*
X7283928Y-10402572D01*
X7283928Y-10431143D01*
X7141071Y-10459714D01*
X7398214Y-10545429D02*
X7426786Y-10559714D01*
X7483928Y-10559714D01*
X7512500Y-10545429D01*
X7526786Y-10516857D01*
X7526786Y-10502572D01*
X7512500Y-10474000D01*
X7483928Y-10459714D01*
X7441071Y-10459714D01*
X7412500Y-10445429D01*
X7398214Y-10416857D01*
X7398214Y-10402572D01*
X7412500Y-10374000D01*
X7441071Y-10359714D01*
X7483928Y-10359714D01*
X7512500Y-10374000D01*
X7626786Y-10674000D02*
X7641071Y-10659714D01*
X7669643Y-10616857D01*
X7683928Y-10588286D01*
X7698214Y-10545429D01*
X7712500Y-10474000D01*
X7712500Y-10416857D01*
X7698214Y-10345429D01*
X7683928Y-10302572D01*
X7669643Y-10274000D01*
X7641071Y-10231143D01*
X7626786Y-10216857D01*
X-2500Y-10820000D02*
G75*
G03*
X-2500Y-10820000I-30000J0D01*
G01*
X341071Y-10655714D02*
X369643Y-10655714D01*
X398214Y-10670000D01*
X412500Y-10684286D01*
X426786Y-10712857D01*
X441071Y-10770000D01*
X441071Y-10841429D01*
X426786Y-10898572D01*
X412500Y-10927143D01*
X398214Y-10941429D01*
X369643Y-10955714D01*
X341071Y-10955714D01*
X312500Y-10941429D01*
X298214Y-10927143D01*
X283928Y-10898572D01*
X269643Y-10841429D01*
X269643Y-10770000D01*
X283928Y-10712857D01*
X298214Y-10684286D01*
X312500Y-10670000D01*
X341071Y-10655714D01*
X569643Y-10927143D02*
X583928Y-10941429D01*
X569643Y-10955714D01*
X555357Y-10941429D01*
X569643Y-10927143D01*
X569643Y-10955714D01*
X841071Y-10655714D02*
X783928Y-10655714D01*
X755357Y-10670000D01*
X741071Y-10684286D01*
X712500Y-10727143D01*
X698214Y-10784286D01*
X698214Y-10898572D01*
X712500Y-10927143D01*
X726786Y-10941429D01*
X755357Y-10955714D01*
X812500Y-10955714D01*
X841071Y-10941429D01*
X855357Y-10927143D01*
X869643Y-10898572D01*
X869643Y-10827143D01*
X855357Y-10798572D01*
X841071Y-10784286D01*
X812500Y-10770000D01*
X755357Y-10770000D01*
X726786Y-10784286D01*
X712500Y-10798572D01*
X698214Y-10827143D01*
X1055357Y-10655714D02*
X1083928Y-10655714D01*
X1112500Y-10670000D01*
X1126786Y-10684286D01*
X1141071Y-10712857D01*
X1155357Y-10770000D01*
X1155357Y-10841429D01*
X1141071Y-10898572D01*
X1126786Y-10927143D01*
X1112500Y-10941429D01*
X1083928Y-10955714D01*
X1055357Y-10955714D01*
X1026786Y-10941429D01*
X1012500Y-10927143D01*
X998214Y-10898572D01*
X983928Y-10841429D01*
X983928Y-10770000D01*
X998214Y-10712857D01*
X1012500Y-10684286D01*
X1026786Y-10670000D01*
X1055357Y-10655714D01*
X1341071Y-10655714D02*
X1369643Y-10655714D01*
X1398214Y-10670000D01*
X1412500Y-10684286D01*
X1426786Y-10712857D01*
X1441071Y-10770000D01*
X1441071Y-10841429D01*
X1426786Y-10898572D01*
X1412500Y-10927143D01*
X1398214Y-10941429D01*
X1369643Y-10955714D01*
X1341071Y-10955714D01*
X1312500Y-10941429D01*
X1298214Y-10927143D01*
X1283928Y-10898572D01*
X1269643Y-10841429D01*
X1269643Y-10770000D01*
X1283928Y-10712857D01*
X1298214Y-10684286D01*
X1312500Y-10670000D01*
X1341071Y-10655714D01*
X1569643Y-10955714D02*
X1569643Y-10755714D01*
X1569643Y-10784286D02*
X1583928Y-10770000D01*
X1612500Y-10755714D01*
X1655357Y-10755714D01*
X1683928Y-10770000D01*
X1698214Y-10798572D01*
X1698214Y-10955714D01*
X1698214Y-10798572D02*
X1712500Y-10770000D01*
X1741071Y-10755714D01*
X1783928Y-10755714D01*
X1812500Y-10770000D01*
X1826786Y-10798572D01*
X1826786Y-10955714D01*
X1969643Y-10955714D02*
X1969643Y-10755714D01*
X1969643Y-10784286D02*
X1983928Y-10770000D01*
X2012500Y-10755714D01*
X2055357Y-10755714D01*
X2083928Y-10770000D01*
X2098214Y-10798572D01*
X2098214Y-10955714D01*
X2098214Y-10798572D02*
X2112500Y-10770000D01*
X2141071Y-10755714D01*
X2183928Y-10755714D01*
X2212500Y-10770000D01*
X2226786Y-10798572D01*
X2226786Y-10955714D01*
X2812500Y-10641429D02*
X2555357Y-11027143D01*
X3198214Y-10655714D02*
X3226786Y-10655714D01*
X3255357Y-10670000D01*
X3269643Y-10684286D01*
X3283928Y-10712857D01*
X3298214Y-10770000D01*
X3298214Y-10841429D01*
X3283928Y-10898572D01*
X3269643Y-10927143D01*
X3255357Y-10941429D01*
X3226786Y-10955714D01*
X3198214Y-10955714D01*
X3169643Y-10941429D01*
X3155357Y-10927143D01*
X3141071Y-10898572D01*
X3126786Y-10841429D01*
X3126786Y-10770000D01*
X3141071Y-10712857D01*
X3155357Y-10684286D01*
X3169643Y-10670000D01*
X3198214Y-10655714D01*
X3426786Y-10927143D02*
X3441071Y-10941429D01*
X3426786Y-10955714D01*
X3412500Y-10941429D01*
X3426786Y-10927143D01*
X3426786Y-10955714D01*
X3626786Y-10655714D02*
X3655357Y-10655714D01*
X3683928Y-10670000D01*
X3698214Y-10684286D01*
X3712500Y-10712857D01*
X3726786Y-10770000D01*
X3726786Y-10841429D01*
X3712500Y-10898572D01*
X3698214Y-10927143D01*
X3683928Y-10941429D01*
X3655357Y-10955714D01*
X3626786Y-10955714D01*
X3598214Y-10941429D01*
X3583928Y-10927143D01*
X3569643Y-10898572D01*
X3555357Y-10841429D01*
X3555357Y-10770000D01*
X3569643Y-10712857D01*
X3583928Y-10684286D01*
X3598214Y-10670000D01*
X3626786Y-10655714D01*
X3841071Y-10684286D02*
X3855357Y-10670000D01*
X3883928Y-10655714D01*
X3955357Y-10655714D01*
X3983928Y-10670000D01*
X3998214Y-10684286D01*
X4012500Y-10712857D01*
X4012500Y-10741429D01*
X3998214Y-10784286D01*
X3826786Y-10955714D01*
X4012500Y-10955714D01*
X4112500Y-10655714D02*
X4298214Y-10655714D01*
X4198214Y-10770000D01*
X4241071Y-10770000D01*
X4269643Y-10784286D01*
X4283928Y-10798572D01*
X4298214Y-10827143D01*
X4298214Y-10898572D01*
X4283928Y-10927143D01*
X4269643Y-10941429D01*
X4241071Y-10955714D01*
X4155357Y-10955714D01*
X4126786Y-10941429D01*
X4112500Y-10927143D01*
X4555357Y-10655714D02*
X4498214Y-10655714D01*
X4469643Y-10670000D01*
X4455357Y-10684286D01*
X4426786Y-10727143D01*
X4412500Y-10784286D01*
X4412500Y-10898572D01*
X4426786Y-10927143D01*
X4441071Y-10941429D01*
X4469643Y-10955714D01*
X4526786Y-10955714D01*
X4555357Y-10941429D01*
X4569643Y-10927143D01*
X4583928Y-10898572D01*
X4583928Y-10827143D01*
X4569643Y-10798572D01*
X4555357Y-10784286D01*
X4526786Y-10770000D01*
X4469643Y-10770000D01*
X4441071Y-10784286D01*
X4426786Y-10798572D01*
X4412500Y-10827143D01*
X4698214Y-10655714D02*
X4698214Y-10712857D01*
X4812500Y-10655714D02*
X4812500Y-10712857D01*
X5255357Y-11070000D02*
X5241071Y-11055714D01*
X5212500Y-11012857D01*
X5198214Y-10984286D01*
X5183928Y-10941429D01*
X5169643Y-10870000D01*
X5169643Y-10812857D01*
X5183928Y-10741429D01*
X5198214Y-10698572D01*
X5212500Y-10670000D01*
X5241071Y-10627143D01*
X5255357Y-10612857D01*
X5426786Y-10655714D02*
X5455357Y-10655714D01*
X5483928Y-10670000D01*
X5498214Y-10684286D01*
X5512500Y-10712857D01*
X5526786Y-10770000D01*
X5526786Y-10841429D01*
X5512500Y-10898572D01*
X5498214Y-10927143D01*
X5483928Y-10941429D01*
X5455357Y-10955714D01*
X5426786Y-10955714D01*
X5398214Y-10941429D01*
X5383928Y-10927143D01*
X5369643Y-10898572D01*
X5355357Y-10841429D01*
X5355357Y-10770000D01*
X5369643Y-10712857D01*
X5383928Y-10684286D01*
X5398214Y-10670000D01*
X5426786Y-10655714D01*
X5883928Y-10955714D02*
X5883928Y-10655714D01*
X6012500Y-10955714D02*
X6012500Y-10798572D01*
X5998214Y-10770000D01*
X5969643Y-10755714D01*
X5926786Y-10755714D01*
X5898214Y-10770000D01*
X5883928Y-10784286D01*
X6198214Y-10955714D02*
X6169643Y-10941429D01*
X6155357Y-10927143D01*
X6141071Y-10898572D01*
X6141071Y-10812857D01*
X6155357Y-10784286D01*
X6169643Y-10770000D01*
X6198214Y-10755714D01*
X6241071Y-10755714D01*
X6269643Y-10770000D01*
X6283928Y-10784286D01*
X6298214Y-10812857D01*
X6298214Y-10898572D01*
X6283928Y-10927143D01*
X6269643Y-10941429D01*
X6241071Y-10955714D01*
X6198214Y-10955714D01*
X6469643Y-10955714D02*
X6441071Y-10941429D01*
X6426786Y-10912857D01*
X6426786Y-10655714D01*
X6698214Y-10941429D02*
X6669643Y-10955714D01*
X6612500Y-10955714D01*
X6583928Y-10941429D01*
X6569643Y-10912857D01*
X6569643Y-10798572D01*
X6583928Y-10770000D01*
X6612500Y-10755714D01*
X6669643Y-10755714D01*
X6698214Y-10770000D01*
X6712500Y-10798572D01*
X6712500Y-10827143D01*
X6569643Y-10855714D01*
X6826786Y-10941429D02*
X6855357Y-10955714D01*
X6912500Y-10955714D01*
X6941071Y-10941429D01*
X6955357Y-10912857D01*
X6955357Y-10898572D01*
X6941071Y-10870000D01*
X6912500Y-10855714D01*
X6869643Y-10855714D01*
X6841071Y-10841429D01*
X6826786Y-10812857D01*
X6826786Y-10798572D01*
X6841071Y-10770000D01*
X6869643Y-10755714D01*
X6912500Y-10755714D01*
X6941071Y-10770000D01*
X7312500Y-10841429D02*
X7541071Y-10841429D01*
X7426786Y-10955714D02*
X7426786Y-10727143D01*
X8041071Y-10755714D02*
X8041071Y-10955714D01*
X7969643Y-10641429D02*
X7898214Y-10855714D01*
X8083928Y-10855714D01*
X8412500Y-10941429D02*
X8441071Y-10955714D01*
X8498214Y-10955714D01*
X8526786Y-10941429D01*
X8541071Y-10912857D01*
X8541071Y-10898572D01*
X8526786Y-10870000D01*
X8498214Y-10855714D01*
X8455357Y-10855714D01*
X8426786Y-10841429D01*
X8412500Y-10812857D01*
X8412500Y-10798572D01*
X8426786Y-10770000D01*
X8455357Y-10755714D01*
X8498214Y-10755714D01*
X8526786Y-10770000D01*
X8712500Y-10955714D02*
X8683928Y-10941429D01*
X8669643Y-10912857D01*
X8669643Y-10655714D01*
X8869643Y-10955714D02*
X8841071Y-10941429D01*
X8826786Y-10927143D01*
X8812500Y-10898572D01*
X8812500Y-10812857D01*
X8826786Y-10784286D01*
X8841071Y-10770000D01*
X8869643Y-10755714D01*
X8912500Y-10755714D01*
X8941071Y-10770000D01*
X8955357Y-10784286D01*
X8969643Y-10812857D01*
X8969643Y-10898572D01*
X8955357Y-10927143D01*
X8941071Y-10941429D01*
X8912500Y-10955714D01*
X8869643Y-10955714D01*
X9055357Y-10755714D02*
X9169643Y-10755714D01*
X9098214Y-10655714D02*
X9098214Y-10912857D01*
X9112500Y-10941429D01*
X9141071Y-10955714D01*
X9169643Y-10955714D01*
X9255357Y-10941429D02*
X9283928Y-10955714D01*
X9341071Y-10955714D01*
X9369643Y-10941429D01*
X9383928Y-10912857D01*
X9383928Y-10898572D01*
X9369643Y-10870000D01*
X9341071Y-10855714D01*
X9298214Y-10855714D01*
X9269643Y-10841429D01*
X9255357Y-10812857D01*
X9255357Y-10798572D01*
X9269643Y-10770000D01*
X9298214Y-10755714D01*
X9341071Y-10755714D01*
X9369643Y-10770000D01*
X9483928Y-11070000D02*
X9498214Y-11055714D01*
X9526786Y-11012857D01*
X9541071Y-10984286D01*
X9555357Y-10941429D01*
X9569643Y-10870000D01*
X9569643Y-10812857D01*
X9555357Y-10741429D01*
X9541071Y-10698572D01*
X9526786Y-10670000D01*
X9498214Y-10627143D01*
X9483928Y-10612857D01*
X-42500Y-11176000D02*
X-42500Y-11256000D01*
X-82500Y-11216000D02*
X-2500Y-11216000D01*
X341071Y-11051714D02*
X369643Y-11051714D01*
X398214Y-11066000D01*
X412500Y-11080286D01*
X426786Y-11108857D01*
X441071Y-11166000D01*
X441071Y-11237429D01*
X426786Y-11294571D01*
X412500Y-11323143D01*
X398214Y-11337429D01*
X369643Y-11351714D01*
X341071Y-11351714D01*
X312500Y-11337429D01*
X298214Y-11323143D01*
X283928Y-11294571D01*
X269643Y-11237429D01*
X269643Y-11166000D01*
X283928Y-11108857D01*
X298214Y-11080286D01*
X312500Y-11066000D01*
X341071Y-11051714D01*
X569643Y-11323143D02*
X583928Y-11337429D01*
X569643Y-11351714D01*
X555357Y-11337429D01*
X569643Y-11323143D01*
X569643Y-11351714D01*
X755357Y-11180286D02*
X726786Y-11166000D01*
X712500Y-11151714D01*
X698214Y-11123143D01*
X698214Y-11108857D01*
X712500Y-11080286D01*
X726786Y-11066000D01*
X755357Y-11051714D01*
X812500Y-11051714D01*
X841071Y-11066000D01*
X855357Y-11080286D01*
X869643Y-11108857D01*
X869643Y-11123143D01*
X855357Y-11151714D01*
X841071Y-11166000D01*
X812500Y-11180286D01*
X755357Y-11180286D01*
X726786Y-11194571D01*
X712500Y-11208857D01*
X698214Y-11237429D01*
X698214Y-11294571D01*
X712500Y-11323143D01*
X726786Y-11337429D01*
X755357Y-11351714D01*
X812500Y-11351714D01*
X841071Y-11337429D01*
X855357Y-11323143D01*
X869643Y-11294571D01*
X869643Y-11237429D01*
X855357Y-11208857D01*
X841071Y-11194571D01*
X812500Y-11180286D01*
X1055357Y-11051714D02*
X1083928Y-11051714D01*
X1112500Y-11066000D01*
X1126786Y-11080286D01*
X1141071Y-11108857D01*
X1155357Y-11166000D01*
X1155357Y-11237429D01*
X1141071Y-11294571D01*
X1126786Y-11323143D01*
X1112500Y-11337429D01*
X1083928Y-11351714D01*
X1055357Y-11351714D01*
X1026786Y-11337429D01*
X1012500Y-11323143D01*
X998214Y-11294571D01*
X983928Y-11237429D01*
X983928Y-11166000D01*
X998214Y-11108857D01*
X1012500Y-11080286D01*
X1026786Y-11066000D01*
X1055357Y-11051714D01*
X1341071Y-11051714D02*
X1369643Y-11051714D01*
X1398214Y-11066000D01*
X1412500Y-11080286D01*
X1426786Y-11108857D01*
X1441071Y-11166000D01*
X1441071Y-11237429D01*
X1426786Y-11294571D01*
X1412500Y-11323143D01*
X1398214Y-11337429D01*
X1369643Y-11351714D01*
X1341071Y-11351714D01*
X1312500Y-11337429D01*
X1298214Y-11323143D01*
X1283928Y-11294571D01*
X1269643Y-11237429D01*
X1269643Y-11166000D01*
X1283928Y-11108857D01*
X1298214Y-11080286D01*
X1312500Y-11066000D01*
X1341071Y-11051714D01*
X1569643Y-11351714D02*
X1569643Y-11151714D01*
X1569643Y-11180286D02*
X1583928Y-11166000D01*
X1612500Y-11151714D01*
X1655357Y-11151714D01*
X1683928Y-11166000D01*
X1698214Y-11194571D01*
X1698214Y-11351714D01*
X1698214Y-11194571D02*
X1712500Y-11166000D01*
X1741071Y-11151714D01*
X1783928Y-11151714D01*
X1812500Y-11166000D01*
X1826786Y-11194571D01*
X1826786Y-11351714D01*
X1969643Y-11351714D02*
X1969643Y-11151714D01*
X1969643Y-11180286D02*
X1983928Y-11166000D01*
X2012500Y-11151714D01*
X2055357Y-11151714D01*
X2083928Y-11166000D01*
X2098214Y-11194571D01*
X2098214Y-11351714D01*
X2098214Y-11194571D02*
X2112500Y-11166000D01*
X2141071Y-11151714D01*
X2183928Y-11151714D01*
X2212500Y-11166000D01*
X2226786Y-11194571D01*
X2226786Y-11351714D01*
X2812500Y-11037429D02*
X2555357Y-11423143D01*
X3198214Y-11051714D02*
X3226786Y-11051714D01*
X3255357Y-11066000D01*
X3269643Y-11080286D01*
X3283928Y-11108857D01*
X3298214Y-11166000D01*
X3298214Y-11237429D01*
X3283928Y-11294571D01*
X3269643Y-11323143D01*
X3255357Y-11337429D01*
X3226786Y-11351714D01*
X3198214Y-11351714D01*
X3169643Y-11337429D01*
X3155357Y-11323143D01*
X3141071Y-11294571D01*
X3126786Y-11237429D01*
X3126786Y-11166000D01*
X3141071Y-11108857D01*
X3155357Y-11080286D01*
X3169643Y-11066000D01*
X3198214Y-11051714D01*
X3426786Y-11323143D02*
X3441071Y-11337429D01*
X3426786Y-11351714D01*
X3412500Y-11337429D01*
X3426786Y-11323143D01*
X3426786Y-11351714D01*
X3626786Y-11051714D02*
X3655357Y-11051714D01*
X3683928Y-11066000D01*
X3698214Y-11080286D01*
X3712500Y-11108857D01*
X3726786Y-11166000D01*
X3726786Y-11237429D01*
X3712500Y-11294571D01*
X3698214Y-11323143D01*
X3683928Y-11337429D01*
X3655357Y-11351714D01*
X3626786Y-11351714D01*
X3598214Y-11337429D01*
X3583928Y-11323143D01*
X3569643Y-11294571D01*
X3555357Y-11237429D01*
X3555357Y-11166000D01*
X3569643Y-11108857D01*
X3583928Y-11080286D01*
X3598214Y-11066000D01*
X3626786Y-11051714D01*
X3826786Y-11051714D02*
X4012500Y-11051714D01*
X3912500Y-11166000D01*
X3955357Y-11166000D01*
X3983928Y-11180286D01*
X3998214Y-11194571D01*
X4012500Y-11223143D01*
X4012500Y-11294571D01*
X3998214Y-11323143D01*
X3983928Y-11337429D01*
X3955357Y-11351714D01*
X3869643Y-11351714D01*
X3841071Y-11337429D01*
X3826786Y-11323143D01*
X4298214Y-11351714D02*
X4126786Y-11351714D01*
X4212500Y-11351714D02*
X4212500Y-11051714D01*
X4183928Y-11094572D01*
X4155357Y-11123143D01*
X4126786Y-11137429D01*
X4569643Y-11051714D02*
X4426786Y-11051714D01*
X4412500Y-11194571D01*
X4426786Y-11180286D01*
X4455357Y-11166000D01*
X4526786Y-11166000D01*
X4555357Y-11180286D01*
X4569643Y-11194571D01*
X4583928Y-11223143D01*
X4583928Y-11294571D01*
X4569643Y-11323143D01*
X4555357Y-11337429D01*
X4526786Y-11351714D01*
X4455357Y-11351714D01*
X4426786Y-11337429D01*
X4412500Y-11323143D01*
X4698214Y-11051714D02*
X4698214Y-11108857D01*
X4812500Y-11051714D02*
X4812500Y-11108857D01*
X5255357Y-11466000D02*
X5241071Y-11451714D01*
X5212500Y-11408857D01*
X5198214Y-11380286D01*
X5183928Y-11337429D01*
X5169643Y-11266000D01*
X5169643Y-11208857D01*
X5183928Y-11137429D01*
X5198214Y-11094572D01*
X5212500Y-11066000D01*
X5241071Y-11023143D01*
X5255357Y-11008857D01*
X5526786Y-11351714D02*
X5355357Y-11351714D01*
X5441071Y-11351714D02*
X5441071Y-11051714D01*
X5412500Y-11094572D01*
X5383928Y-11123143D01*
X5355357Y-11137429D01*
X5812500Y-11351714D02*
X5641071Y-11351714D01*
X5726786Y-11351714D02*
X5726786Y-11051714D01*
X5698214Y-11094572D01*
X5669643Y-11123143D01*
X5641071Y-11137429D01*
X6169643Y-11351714D02*
X6169643Y-11051714D01*
X6298214Y-11351714D02*
X6298214Y-11194571D01*
X6283928Y-11166000D01*
X6255357Y-11151714D01*
X6212500Y-11151714D01*
X6183928Y-11166000D01*
X6169643Y-11180286D01*
X6483928Y-11351714D02*
X6455357Y-11337429D01*
X6441071Y-11323143D01*
X6426786Y-11294571D01*
X6426786Y-11208857D01*
X6441071Y-11180286D01*
X6455357Y-11166000D01*
X6483928Y-11151714D01*
X6526786Y-11151714D01*
X6555357Y-11166000D01*
X6569643Y-11180286D01*
X6583928Y-11208857D01*
X6583928Y-11294571D01*
X6569643Y-11323143D01*
X6555357Y-11337429D01*
X6526786Y-11351714D01*
X6483928Y-11351714D01*
X6755357Y-11351714D02*
X6726786Y-11337429D01*
X6712500Y-11308857D01*
X6712500Y-11051714D01*
X6983928Y-11337429D02*
X6955357Y-11351714D01*
X6898214Y-11351714D01*
X6869643Y-11337429D01*
X6855357Y-11308857D01*
X6855357Y-11194571D01*
X6869643Y-11166000D01*
X6898214Y-11151714D01*
X6955357Y-11151714D01*
X6983928Y-11166000D01*
X6998214Y-11194571D01*
X6998214Y-11223143D01*
X6855357Y-11251714D01*
X7112500Y-11337429D02*
X7141071Y-11351714D01*
X7198214Y-11351714D01*
X7226786Y-11337429D01*
X7241071Y-11308857D01*
X7241071Y-11294571D01*
X7226786Y-11266000D01*
X7198214Y-11251714D01*
X7155357Y-11251714D01*
X7126786Y-11237429D01*
X7112500Y-11208857D01*
X7112500Y-11194571D01*
X7126786Y-11166000D01*
X7155357Y-11151714D01*
X7198214Y-11151714D01*
X7226786Y-11166000D01*
X7341071Y-11466000D02*
X7355357Y-11451714D01*
X7383928Y-11408857D01*
X7398214Y-11380286D01*
X7412500Y-11337429D01*
X7426786Y-11266000D01*
X7426786Y-11208857D01*
X7412500Y-11137429D01*
X7398214Y-11094572D01*
X7383928Y-11066000D01*
X7355357Y-11023143D01*
X7341071Y-11008857D01*
X-17144Y-11647356D02*
X-17144Y-11576644D01*
X-87856Y-11576644D01*
X-87856Y-11647356D01*
X-17144Y-11647356D01*
X441071Y-11747714D02*
X269643Y-11747714D01*
X355357Y-11747714D02*
X355357Y-11447714D01*
X326786Y-11490571D01*
X298214Y-11519143D01*
X269643Y-11533429D01*
X569643Y-11719143D02*
X583928Y-11733429D01*
X569643Y-11747714D01*
X555357Y-11733429D01*
X569643Y-11719143D01*
X569643Y-11747714D01*
X769643Y-11447714D02*
X798214Y-11447714D01*
X826786Y-11462000D01*
X841071Y-11476286D01*
X855357Y-11504857D01*
X869643Y-11562000D01*
X869643Y-11633429D01*
X855357Y-11690571D01*
X841071Y-11719143D01*
X826786Y-11733429D01*
X798214Y-11747714D01*
X769643Y-11747714D01*
X741071Y-11733429D01*
X726786Y-11719143D01*
X712500Y-11690571D01*
X698214Y-11633429D01*
X698214Y-11562000D01*
X712500Y-11504857D01*
X726786Y-11476286D01*
X741071Y-11462000D01*
X769643Y-11447714D01*
X1055357Y-11447714D02*
X1083928Y-11447714D01*
X1112500Y-11462000D01*
X1126786Y-11476286D01*
X1141071Y-11504857D01*
X1155357Y-11562000D01*
X1155357Y-11633429D01*
X1141071Y-11690571D01*
X1126786Y-11719143D01*
X1112500Y-11733429D01*
X1083928Y-11747714D01*
X1055357Y-11747714D01*
X1026786Y-11733429D01*
X1012500Y-11719143D01*
X998214Y-11690571D01*
X983928Y-11633429D01*
X983928Y-11562000D01*
X998214Y-11504857D01*
X1012500Y-11476286D01*
X1026786Y-11462000D01*
X1055357Y-11447714D01*
X1341071Y-11447714D02*
X1369643Y-11447714D01*
X1398214Y-11462000D01*
X1412500Y-11476286D01*
X1426786Y-11504857D01*
X1441071Y-11562000D01*
X1441071Y-11633429D01*
X1426786Y-11690571D01*
X1412500Y-11719143D01*
X1398214Y-11733429D01*
X1369643Y-11747714D01*
X1341071Y-11747714D01*
X1312500Y-11733429D01*
X1298214Y-11719143D01*
X1283928Y-11690571D01*
X1269643Y-11633429D01*
X1269643Y-11562000D01*
X1283928Y-11504857D01*
X1298214Y-11476286D01*
X1312500Y-11462000D01*
X1341071Y-11447714D01*
X1569643Y-11747714D02*
X1569643Y-11547714D01*
X1569643Y-11576286D02*
X1583928Y-11562000D01*
X1612500Y-11547714D01*
X1655357Y-11547714D01*
X1683928Y-11562000D01*
X1698214Y-11590571D01*
X1698214Y-11747714D01*
X1698214Y-11590571D02*
X1712500Y-11562000D01*
X1741071Y-11547714D01*
X1783928Y-11547714D01*
X1812500Y-11562000D01*
X1826786Y-11590571D01*
X1826786Y-11747714D01*
X1969643Y-11747714D02*
X1969643Y-11547714D01*
X1969643Y-11576286D02*
X1983928Y-11562000D01*
X2012500Y-11547714D01*
X2055357Y-11547714D01*
X2083928Y-11562000D01*
X2098214Y-11590571D01*
X2098214Y-11747714D01*
X2098214Y-11590571D02*
X2112500Y-11562000D01*
X2141071Y-11547714D01*
X2183928Y-11547714D01*
X2212500Y-11562000D01*
X2226786Y-11590571D01*
X2226786Y-11747714D01*
X2812500Y-11433429D02*
X2555357Y-11819143D01*
X3198214Y-11447714D02*
X3226786Y-11447714D01*
X3255357Y-11462000D01*
X3269643Y-11476286D01*
X3283928Y-11504857D01*
X3298214Y-11562000D01*
X3298214Y-11633429D01*
X3283928Y-11690571D01*
X3269643Y-11719143D01*
X3255357Y-11733429D01*
X3226786Y-11747714D01*
X3198214Y-11747714D01*
X3169643Y-11733429D01*
X3155357Y-11719143D01*
X3141071Y-11690571D01*
X3126786Y-11633429D01*
X3126786Y-11562000D01*
X3141071Y-11504857D01*
X3155357Y-11476286D01*
X3169643Y-11462000D01*
X3198214Y-11447714D01*
X3426786Y-11719143D02*
X3441071Y-11733429D01*
X3426786Y-11747714D01*
X3412500Y-11733429D01*
X3426786Y-11719143D01*
X3426786Y-11747714D01*
X3626786Y-11447714D02*
X3655357Y-11447714D01*
X3683928Y-11462000D01*
X3698214Y-11476286D01*
X3712500Y-11504857D01*
X3726786Y-11562000D01*
X3726786Y-11633429D01*
X3712500Y-11690571D01*
X3698214Y-11719143D01*
X3683928Y-11733429D01*
X3655357Y-11747714D01*
X3626786Y-11747714D01*
X3598214Y-11733429D01*
X3583928Y-11719143D01*
X3569643Y-11690571D01*
X3555357Y-11633429D01*
X3555357Y-11562000D01*
X3569643Y-11504857D01*
X3583928Y-11476286D01*
X3598214Y-11462000D01*
X3626786Y-11447714D01*
X3826786Y-11447714D02*
X4012500Y-11447714D01*
X3912500Y-11562000D01*
X3955357Y-11562000D01*
X3983928Y-11576286D01*
X3998214Y-11590571D01*
X4012500Y-11619143D01*
X4012500Y-11690571D01*
X3998214Y-11719143D01*
X3983928Y-11733429D01*
X3955357Y-11747714D01*
X3869643Y-11747714D01*
X3841071Y-11733429D01*
X3826786Y-11719143D01*
X4155357Y-11747714D02*
X4212500Y-11747714D01*
X4241071Y-11733429D01*
X4255357Y-11719143D01*
X4283928Y-11676286D01*
X4298214Y-11619143D01*
X4298214Y-11504857D01*
X4283928Y-11476286D01*
X4269643Y-11462000D01*
X4241071Y-11447714D01*
X4183928Y-11447714D01*
X4155357Y-11462000D01*
X4141071Y-11476286D01*
X4126786Y-11504857D01*
X4126786Y-11576286D01*
X4141071Y-11604857D01*
X4155357Y-11619143D01*
X4183928Y-11633429D01*
X4241071Y-11633429D01*
X4269643Y-11619143D01*
X4283928Y-11604857D01*
X4298214Y-11576286D01*
X4555357Y-11547714D02*
X4555357Y-11747714D01*
X4483928Y-11433429D02*
X4412500Y-11647714D01*
X4598214Y-11647714D01*
X4698214Y-11447714D02*
X4698214Y-11504857D01*
X4812500Y-11447714D02*
X4812500Y-11504857D01*
X5255357Y-11862000D02*
X5241071Y-11847714D01*
X5212500Y-11804857D01*
X5198214Y-11776286D01*
X5183928Y-11733429D01*
X5169643Y-11662000D01*
X5169643Y-11604857D01*
X5183928Y-11533429D01*
X5198214Y-11490571D01*
X5212500Y-11462000D01*
X5241071Y-11419143D01*
X5255357Y-11404857D01*
X5526786Y-11747714D02*
X5355357Y-11747714D01*
X5441071Y-11747714D02*
X5441071Y-11447714D01*
X5412500Y-11490571D01*
X5383928Y-11519143D01*
X5355357Y-11533429D01*
X5698214Y-11576286D02*
X5669643Y-11562000D01*
X5655357Y-11547714D01*
X5641071Y-11519143D01*
X5641071Y-11504857D01*
X5655357Y-11476286D01*
X5669643Y-11462000D01*
X5698214Y-11447714D01*
X5755357Y-11447714D01*
X5783928Y-11462000D01*
X5798214Y-11476286D01*
X5812500Y-11504857D01*
X5812500Y-11519143D01*
X5798214Y-11547714D01*
X5783928Y-11562000D01*
X5755357Y-11576286D01*
X5698214Y-11576286D01*
X5669643Y-11590571D01*
X5655357Y-11604857D01*
X5641071Y-11633429D01*
X5641071Y-11690571D01*
X5655357Y-11719143D01*
X5669643Y-11733429D01*
X5698214Y-11747714D01*
X5755357Y-11747714D01*
X5783928Y-11733429D01*
X5798214Y-11719143D01*
X5812500Y-11690571D01*
X5812500Y-11633429D01*
X5798214Y-11604857D01*
X5783928Y-11590571D01*
X5755357Y-11576286D01*
X6169643Y-11747714D02*
X6169643Y-11447714D01*
X6298214Y-11747714D02*
X6298214Y-11590571D01*
X6283928Y-11562000D01*
X6255357Y-11547714D01*
X6212500Y-11547714D01*
X6183928Y-11562000D01*
X6169643Y-11576286D01*
X6483928Y-11747714D02*
X6455357Y-11733429D01*
X6441071Y-11719143D01*
X6426786Y-11690571D01*
X6426786Y-11604857D01*
X6441071Y-11576286D01*
X6455357Y-11562000D01*
X6483928Y-11547714D01*
X6526786Y-11547714D01*
X6555357Y-11562000D01*
X6569643Y-11576286D01*
X6583928Y-11604857D01*
X6583928Y-11690571D01*
X6569643Y-11719143D01*
X6555357Y-11733429D01*
X6526786Y-11747714D01*
X6483928Y-11747714D01*
X6755357Y-11747714D02*
X6726786Y-11733429D01*
X6712500Y-11704857D01*
X6712500Y-11447714D01*
X6983928Y-11733429D02*
X6955357Y-11747714D01*
X6898214Y-11747714D01*
X6869643Y-11733429D01*
X6855357Y-11704857D01*
X6855357Y-11590571D01*
X6869643Y-11562000D01*
X6898214Y-11547714D01*
X6955357Y-11547714D01*
X6983928Y-11562000D01*
X6998214Y-11590571D01*
X6998214Y-11619143D01*
X6855357Y-11647714D01*
X7112500Y-11733429D02*
X7141071Y-11747714D01*
X7198214Y-11747714D01*
X7226786Y-11733429D01*
X7241071Y-11704857D01*
X7241071Y-11690571D01*
X7226786Y-11662000D01*
X7198214Y-11647714D01*
X7155357Y-11647714D01*
X7126786Y-11633429D01*
X7112500Y-11604857D01*
X7112500Y-11590571D01*
X7126786Y-11562000D01*
X7155357Y-11547714D01*
X7198214Y-11547714D01*
X7226786Y-11562000D01*
X7341071Y-11862000D02*
X7355357Y-11847714D01*
X7383928Y-11804857D01*
X7398214Y-11776286D01*
X7412500Y-11733429D01*
X7426786Y-11662000D01*
X7426786Y-11604857D01*
X7412500Y-11533429D01*
X7398214Y-11490571D01*
X7383928Y-11462000D01*
X7355357Y-11419143D01*
X7341071Y-11404857D01*
X-53500Y-12059000D02*
X-2500Y-12008000D01*
X-53500Y-11957000D01*
X-104500Y-12008000D01*
X-53500Y-12059000D01*
X441071Y-12143714D02*
X269643Y-12143714D01*
X355357Y-12143714D02*
X355357Y-11843714D01*
X326786Y-11886571D01*
X298214Y-11915143D01*
X269643Y-11929429D01*
X569643Y-12115143D02*
X583928Y-12129429D01*
X569643Y-12143714D01*
X555357Y-12129429D01*
X569643Y-12115143D01*
X569643Y-12143714D01*
X769643Y-11843714D02*
X798214Y-11843714D01*
X826786Y-11858000D01*
X841071Y-11872286D01*
X855357Y-11900857D01*
X869643Y-11958000D01*
X869643Y-12029429D01*
X855357Y-12086571D01*
X841071Y-12115143D01*
X826786Y-12129429D01*
X798214Y-12143714D01*
X769643Y-12143714D01*
X741071Y-12129429D01*
X726786Y-12115143D01*
X712500Y-12086571D01*
X698214Y-12029429D01*
X698214Y-11958000D01*
X712500Y-11900857D01*
X726786Y-11872286D01*
X741071Y-11858000D01*
X769643Y-11843714D01*
X983928Y-11872286D02*
X998214Y-11858000D01*
X1026786Y-11843714D01*
X1098214Y-11843714D01*
X1126786Y-11858000D01*
X1141071Y-11872286D01*
X1155357Y-11900857D01*
X1155357Y-11929429D01*
X1141071Y-11972286D01*
X969643Y-12143714D01*
X1155357Y-12143714D01*
X1341071Y-11843714D02*
X1369643Y-11843714D01*
X1398214Y-11858000D01*
X1412500Y-11872286D01*
X1426786Y-11900857D01*
X1441071Y-11958000D01*
X1441071Y-12029429D01*
X1426786Y-12086571D01*
X1412500Y-12115143D01*
X1398214Y-12129429D01*
X1369643Y-12143714D01*
X1341071Y-12143714D01*
X1312500Y-12129429D01*
X1298214Y-12115143D01*
X1283928Y-12086571D01*
X1269643Y-12029429D01*
X1269643Y-11958000D01*
X1283928Y-11900857D01*
X1298214Y-11872286D01*
X1312500Y-11858000D01*
X1341071Y-11843714D01*
X1569643Y-12143714D02*
X1569643Y-11943714D01*
X1569643Y-11972286D02*
X1583928Y-11958000D01*
X1612500Y-11943714D01*
X1655357Y-11943714D01*
X1683928Y-11958000D01*
X1698214Y-11986571D01*
X1698214Y-12143714D01*
X1698214Y-11986571D02*
X1712500Y-11958000D01*
X1741071Y-11943714D01*
X1783928Y-11943714D01*
X1812500Y-11958000D01*
X1826786Y-11986571D01*
X1826786Y-12143714D01*
X1969643Y-12143714D02*
X1969643Y-11943714D01*
X1969643Y-11972286D02*
X1983928Y-11958000D01*
X2012500Y-11943714D01*
X2055357Y-11943714D01*
X2083928Y-11958000D01*
X2098214Y-11986571D01*
X2098214Y-12143714D01*
X2098214Y-11986571D02*
X2112500Y-11958000D01*
X2141071Y-11943714D01*
X2183928Y-11943714D01*
X2212500Y-11958000D01*
X2226786Y-11986571D01*
X2226786Y-12143714D01*
X2812500Y-11829429D02*
X2555357Y-12215143D01*
X3198214Y-11843714D02*
X3226786Y-11843714D01*
X3255357Y-11858000D01*
X3269643Y-11872286D01*
X3283928Y-11900857D01*
X3298214Y-11958000D01*
X3298214Y-12029429D01*
X3283928Y-12086571D01*
X3269643Y-12115143D01*
X3255357Y-12129429D01*
X3226786Y-12143714D01*
X3198214Y-12143714D01*
X3169643Y-12129429D01*
X3155357Y-12115143D01*
X3141071Y-12086571D01*
X3126786Y-12029429D01*
X3126786Y-11958000D01*
X3141071Y-11900857D01*
X3155357Y-11872286D01*
X3169643Y-11858000D01*
X3198214Y-11843714D01*
X3426786Y-12115143D02*
X3441071Y-12129429D01*
X3426786Y-12143714D01*
X3412500Y-12129429D01*
X3426786Y-12115143D01*
X3426786Y-12143714D01*
X3626786Y-11843714D02*
X3655357Y-11843714D01*
X3683928Y-11858000D01*
X3698214Y-11872286D01*
X3712500Y-11900857D01*
X3726786Y-11958000D01*
X3726786Y-12029429D01*
X3712500Y-12086571D01*
X3698214Y-12115143D01*
X3683928Y-12129429D01*
X3655357Y-12143714D01*
X3626786Y-12143714D01*
X3598214Y-12129429D01*
X3583928Y-12115143D01*
X3569643Y-12086571D01*
X3555357Y-12029429D01*
X3555357Y-11958000D01*
X3569643Y-11900857D01*
X3583928Y-11872286D01*
X3598214Y-11858000D01*
X3626786Y-11843714D01*
X3983928Y-11943714D02*
X3983928Y-12143714D01*
X3912500Y-11829429D02*
X3841071Y-12043714D01*
X4026786Y-12043714D01*
X4198214Y-11843714D02*
X4226786Y-11843714D01*
X4255357Y-11858000D01*
X4269643Y-11872286D01*
X4283928Y-11900857D01*
X4298214Y-11958000D01*
X4298214Y-12029429D01*
X4283928Y-12086571D01*
X4269643Y-12115143D01*
X4255357Y-12129429D01*
X4226786Y-12143714D01*
X4198214Y-12143714D01*
X4169643Y-12129429D01*
X4155357Y-12115143D01*
X4141071Y-12086571D01*
X4126786Y-12029429D01*
X4126786Y-11958000D01*
X4141071Y-11900857D01*
X4155357Y-11872286D01*
X4169643Y-11858000D01*
X4198214Y-11843714D01*
X4412500Y-11872286D02*
X4426786Y-11858000D01*
X4455357Y-11843714D01*
X4526786Y-11843714D01*
X4555357Y-11858000D01*
X4569643Y-11872286D01*
X4583928Y-11900857D01*
X4583928Y-11929429D01*
X4569643Y-11972286D01*
X4398214Y-12143714D01*
X4583928Y-12143714D01*
X4698214Y-11843714D02*
X4698214Y-11900857D01*
X4812500Y-11843714D02*
X4812500Y-11900857D01*
X5255357Y-12258000D02*
X5241071Y-12243714D01*
X5212500Y-12200857D01*
X5198214Y-12172286D01*
X5183928Y-12129429D01*
X5169643Y-12058000D01*
X5169643Y-12000857D01*
X5183928Y-11929429D01*
X5198214Y-11886571D01*
X5212500Y-11858000D01*
X5241071Y-11815143D01*
X5255357Y-11800857D01*
X5498214Y-11943714D02*
X5498214Y-12143714D01*
X5426786Y-11829429D02*
X5355357Y-12043714D01*
X5541071Y-12043714D01*
X5626786Y-11843714D02*
X5812500Y-11843714D01*
X5712500Y-11958000D01*
X5755357Y-11958000D01*
X5783928Y-11972286D01*
X5798214Y-11986571D01*
X5812500Y-12015143D01*
X5812500Y-12086571D01*
X5798214Y-12115143D01*
X5783928Y-12129429D01*
X5755357Y-12143714D01*
X5669643Y-12143714D01*
X5641071Y-12129429D01*
X5626786Y-12115143D01*
X6169643Y-12143714D02*
X6169643Y-11843714D01*
X6298214Y-12143714D02*
X6298214Y-11986571D01*
X6283928Y-11958000D01*
X6255357Y-11943714D01*
X6212500Y-11943714D01*
X6183928Y-11958000D01*
X6169643Y-11972286D01*
X6483928Y-12143714D02*
X6455357Y-12129429D01*
X6441071Y-12115143D01*
X6426786Y-12086571D01*
X6426786Y-12000857D01*
X6441071Y-11972286D01*
X6455357Y-11958000D01*
X6483928Y-11943714D01*
X6526786Y-11943714D01*
X6555357Y-11958000D01*
X6569643Y-11972286D01*
X6583928Y-12000857D01*
X6583928Y-12086571D01*
X6569643Y-12115143D01*
X6555357Y-12129429D01*
X6526786Y-12143714D01*
X6483928Y-12143714D01*
X6755357Y-12143714D02*
X6726786Y-12129429D01*
X6712500Y-12100857D01*
X6712500Y-11843714D01*
X6983928Y-12129429D02*
X6955357Y-12143714D01*
X6898214Y-12143714D01*
X6869643Y-12129429D01*
X6855357Y-12100857D01*
X6855357Y-11986571D01*
X6869643Y-11958000D01*
X6898214Y-11943714D01*
X6955357Y-11943714D01*
X6983928Y-11958000D01*
X6998214Y-11986571D01*
X6998214Y-12015143D01*
X6855357Y-12043714D01*
X7112500Y-12129429D02*
X7141071Y-12143714D01*
X7198214Y-12143714D01*
X7226786Y-12129429D01*
X7241071Y-12100857D01*
X7241071Y-12086571D01*
X7226786Y-12058000D01*
X7198214Y-12043714D01*
X7155357Y-12043714D01*
X7126786Y-12029429D01*
X7112500Y-12000857D01*
X7112500Y-11986571D01*
X7126786Y-11958000D01*
X7155357Y-11943714D01*
X7198214Y-11943714D01*
X7226786Y-11958000D01*
X7341071Y-12258000D02*
X7355357Y-12243714D01*
X7383928Y-12200857D01*
X7398214Y-12172286D01*
X7412500Y-12129429D01*
X7426786Y-12058000D01*
X7426786Y-12000857D01*
X7412500Y-11929429D01*
X7398214Y-11886571D01*
X7383928Y-11858000D01*
X7355357Y-11815143D01*
X7341071Y-11800857D01*
X-112500Y-12349000D02*
X-2500Y-12459000D01*
X-2500Y-12349000D02*
X-112500Y-12459000D01*
X-2500Y-12404000D02*
G75*
G03*
X-2500Y-12404000I-55000J0D01*
G01*
X441071Y-12539714D02*
X269643Y-12539714D01*
X355357Y-12539714D02*
X355357Y-12239714D01*
X326786Y-12282571D01*
X298214Y-12311143D01*
X269643Y-12325429D01*
X569643Y-12511143D02*
X583928Y-12525429D01*
X569643Y-12539714D01*
X555357Y-12525429D01*
X569643Y-12511143D01*
X569643Y-12539714D01*
X869643Y-12539714D02*
X698214Y-12539714D01*
X783928Y-12539714D02*
X783928Y-12239714D01*
X755357Y-12282571D01*
X726786Y-12311143D01*
X698214Y-12325429D01*
X1055357Y-12239714D02*
X1083928Y-12239714D01*
X1112500Y-12254000D01*
X1126786Y-12268286D01*
X1141071Y-12296857D01*
X1155357Y-12354000D01*
X1155357Y-12425429D01*
X1141071Y-12482571D01*
X1126786Y-12511143D01*
X1112500Y-12525429D01*
X1083928Y-12539714D01*
X1055357Y-12539714D01*
X1026786Y-12525429D01*
X1012500Y-12511143D01*
X998214Y-12482571D01*
X983928Y-12425429D01*
X983928Y-12354000D01*
X998214Y-12296857D01*
X1012500Y-12268286D01*
X1026786Y-12254000D01*
X1055357Y-12239714D01*
X1341071Y-12239714D02*
X1369643Y-12239714D01*
X1398214Y-12254000D01*
X1412500Y-12268286D01*
X1426786Y-12296857D01*
X1441071Y-12354000D01*
X1441071Y-12425429D01*
X1426786Y-12482571D01*
X1412500Y-12511143D01*
X1398214Y-12525429D01*
X1369643Y-12539714D01*
X1341071Y-12539714D01*
X1312500Y-12525429D01*
X1298214Y-12511143D01*
X1283928Y-12482571D01*
X1269643Y-12425429D01*
X1269643Y-12354000D01*
X1283928Y-12296857D01*
X1298214Y-12268286D01*
X1312500Y-12254000D01*
X1341071Y-12239714D01*
X1569643Y-12539714D02*
X1569643Y-12339714D01*
X1569643Y-12368286D02*
X1583928Y-12354000D01*
X1612500Y-12339714D01*
X1655357Y-12339714D01*
X1683928Y-12354000D01*
X1698214Y-12382571D01*
X1698214Y-12539714D01*
X1698214Y-12382571D02*
X1712500Y-12354000D01*
X1741071Y-12339714D01*
X1783928Y-12339714D01*
X1812500Y-12354000D01*
X1826786Y-12382571D01*
X1826786Y-12539714D01*
X1969643Y-12539714D02*
X1969643Y-12339714D01*
X1969643Y-12368286D02*
X1983928Y-12354000D01*
X2012500Y-12339714D01*
X2055357Y-12339714D01*
X2083928Y-12354000D01*
X2098214Y-12382571D01*
X2098214Y-12539714D01*
X2098214Y-12382571D02*
X2112500Y-12354000D01*
X2141071Y-12339714D01*
X2183928Y-12339714D01*
X2212500Y-12354000D01*
X2226786Y-12382571D01*
X2226786Y-12539714D01*
X2812500Y-12225429D02*
X2555357Y-12611143D01*
X3198214Y-12239714D02*
X3226786Y-12239714D01*
X3255357Y-12254000D01*
X3269643Y-12268286D01*
X3283928Y-12296857D01*
X3298214Y-12354000D01*
X3298214Y-12425429D01*
X3283928Y-12482571D01*
X3269643Y-12511143D01*
X3255357Y-12525429D01*
X3226786Y-12539714D01*
X3198214Y-12539714D01*
X3169643Y-12525429D01*
X3155357Y-12511143D01*
X3141071Y-12482571D01*
X3126786Y-12425429D01*
X3126786Y-12354000D01*
X3141071Y-12296857D01*
X3155357Y-12268286D01*
X3169643Y-12254000D01*
X3198214Y-12239714D01*
X3426786Y-12511143D02*
X3441071Y-12525429D01*
X3426786Y-12539714D01*
X3412500Y-12525429D01*
X3426786Y-12511143D01*
X3426786Y-12539714D01*
X3626786Y-12239714D02*
X3655357Y-12239714D01*
X3683928Y-12254000D01*
X3698214Y-12268286D01*
X3712500Y-12296857D01*
X3726786Y-12354000D01*
X3726786Y-12425429D01*
X3712500Y-12482571D01*
X3698214Y-12511143D01*
X3683928Y-12525429D01*
X3655357Y-12539714D01*
X3626786Y-12539714D01*
X3598214Y-12525429D01*
X3583928Y-12511143D01*
X3569643Y-12482571D01*
X3555357Y-12425429D01*
X3555357Y-12354000D01*
X3569643Y-12296857D01*
X3583928Y-12268286D01*
X3598214Y-12254000D01*
X3626786Y-12239714D01*
X3983928Y-12339714D02*
X3983928Y-12539714D01*
X3912500Y-12225429D02*
X3841071Y-12439714D01*
X4026786Y-12439714D01*
X4112500Y-12239714D02*
X4298214Y-12239714D01*
X4198214Y-12354000D01*
X4241071Y-12354000D01*
X4269643Y-12368286D01*
X4283928Y-12382571D01*
X4298214Y-12411143D01*
X4298214Y-12482571D01*
X4283928Y-12511143D01*
X4269643Y-12525429D01*
X4241071Y-12539714D01*
X4155357Y-12539714D01*
X4126786Y-12525429D01*
X4112500Y-12511143D01*
X4398214Y-12239714D02*
X4583928Y-12239714D01*
X4483928Y-12354000D01*
X4526786Y-12354000D01*
X4555357Y-12368286D01*
X4569643Y-12382571D01*
X4583928Y-12411143D01*
X4583928Y-12482571D01*
X4569643Y-12511143D01*
X4555357Y-12525429D01*
X4526786Y-12539714D01*
X4441071Y-12539714D01*
X4412500Y-12525429D01*
X4398214Y-12511143D01*
X4698214Y-12239714D02*
X4698214Y-12296857D01*
X4812500Y-12239714D02*
X4812500Y-12296857D01*
X5255357Y-12654000D02*
X5241071Y-12639714D01*
X5212500Y-12596857D01*
X5198214Y-12568286D01*
X5183928Y-12525429D01*
X5169643Y-12454000D01*
X5169643Y-12396857D01*
X5183928Y-12325429D01*
X5198214Y-12282571D01*
X5212500Y-12254000D01*
X5241071Y-12211143D01*
X5255357Y-12196857D01*
X5498214Y-12339714D02*
X5498214Y-12539714D01*
X5426786Y-12225429D02*
X5355357Y-12439714D01*
X5541071Y-12439714D01*
X5883928Y-12539714D02*
X5883928Y-12239714D01*
X6012500Y-12539714D02*
X6012500Y-12382571D01*
X5998214Y-12354000D01*
X5969643Y-12339714D01*
X5926786Y-12339714D01*
X5898214Y-12354000D01*
X5883928Y-12368286D01*
X6198214Y-12539714D02*
X6169643Y-12525429D01*
X6155357Y-12511143D01*
X6141071Y-12482571D01*
X6141071Y-12396857D01*
X6155357Y-12368286D01*
X6169643Y-12354000D01*
X6198214Y-12339714D01*
X6241071Y-12339714D01*
X6269643Y-12354000D01*
X6283928Y-12368286D01*
X6298214Y-12396857D01*
X6298214Y-12482571D01*
X6283928Y-12511143D01*
X6269643Y-12525429D01*
X6241071Y-12539714D01*
X6198214Y-12539714D01*
X6469643Y-12539714D02*
X6441071Y-12525429D01*
X6426786Y-12496857D01*
X6426786Y-12239714D01*
X6698214Y-12525429D02*
X6669643Y-12539714D01*
X6612500Y-12539714D01*
X6583928Y-12525429D01*
X6569643Y-12496857D01*
X6569643Y-12382571D01*
X6583928Y-12354000D01*
X6612500Y-12339714D01*
X6669643Y-12339714D01*
X6698214Y-12354000D01*
X6712500Y-12382571D01*
X6712500Y-12411143D01*
X6569643Y-12439714D01*
X6826786Y-12525429D02*
X6855357Y-12539714D01*
X6912500Y-12539714D01*
X6941071Y-12525429D01*
X6955357Y-12496857D01*
X6955357Y-12482571D01*
X6941071Y-12454000D01*
X6912500Y-12439714D01*
X6869643Y-12439714D01*
X6841071Y-12425429D01*
X6826786Y-12396857D01*
X6826786Y-12382571D01*
X6841071Y-12354000D01*
X6869643Y-12339714D01*
X6912500Y-12339714D01*
X6941071Y-12354000D01*
X7055357Y-12654000D02*
X7069643Y-12639714D01*
X7098214Y-12596857D01*
X7112500Y-12568286D01*
X7126786Y-12525429D01*
X7141071Y-12454000D01*
X7141071Y-12396857D01*
X7126786Y-12325429D01*
X7112500Y-12282571D01*
X7098214Y-12254000D01*
X7069643Y-12211143D01*
X7055357Y-12196857D01*
X-152500Y-12725000D02*
X-2500Y-12875000D01*
X-2500Y-12725000D02*
X-152500Y-12875000D01*
X-77500Y-12725000D02*
X-77500Y-12875000D01*
X-152500Y-12800000D02*
X-2500Y-12800000D01*
X441071Y-12935714D02*
X269643Y-12935714D01*
X355357Y-12935714D02*
X355357Y-12635714D01*
X326786Y-12678571D01*
X298214Y-12707143D01*
X269643Y-12721429D01*
X569643Y-12907143D02*
X583928Y-12921429D01*
X569643Y-12935714D01*
X555357Y-12921429D01*
X569643Y-12907143D01*
X569643Y-12935714D01*
X855357Y-12635714D02*
X712500Y-12635714D01*
X698214Y-12778571D01*
X712500Y-12764286D01*
X741071Y-12750000D01*
X812500Y-12750000D01*
X841071Y-12764286D01*
X855357Y-12778571D01*
X869643Y-12807143D01*
X869643Y-12878571D01*
X855357Y-12907143D01*
X841071Y-12921429D01*
X812500Y-12935714D01*
X741071Y-12935714D01*
X712500Y-12921429D01*
X698214Y-12907143D01*
X1055357Y-12635714D02*
X1083928Y-12635714D01*
X1112500Y-12650000D01*
X1126786Y-12664286D01*
X1141071Y-12692857D01*
X1155357Y-12750000D01*
X1155357Y-12821429D01*
X1141071Y-12878571D01*
X1126786Y-12907143D01*
X1112500Y-12921429D01*
X1083928Y-12935714D01*
X1055357Y-12935714D01*
X1026786Y-12921429D01*
X1012500Y-12907143D01*
X998214Y-12878571D01*
X983928Y-12821429D01*
X983928Y-12750000D01*
X998214Y-12692857D01*
X1012500Y-12664286D01*
X1026786Y-12650000D01*
X1055357Y-12635714D01*
X1341071Y-12635714D02*
X1369643Y-12635714D01*
X1398214Y-12650000D01*
X1412500Y-12664286D01*
X1426786Y-12692857D01*
X1441071Y-12750000D01*
X1441071Y-12821429D01*
X1426786Y-12878571D01*
X1412500Y-12907143D01*
X1398214Y-12921429D01*
X1369643Y-12935714D01*
X1341071Y-12935714D01*
X1312500Y-12921429D01*
X1298214Y-12907143D01*
X1283928Y-12878571D01*
X1269643Y-12821429D01*
X1269643Y-12750000D01*
X1283928Y-12692857D01*
X1298214Y-12664286D01*
X1312500Y-12650000D01*
X1341071Y-12635714D01*
X1569643Y-12935714D02*
X1569643Y-12735714D01*
X1569643Y-12764286D02*
X1583928Y-12750000D01*
X1612500Y-12735714D01*
X1655357Y-12735714D01*
X1683928Y-12750000D01*
X1698214Y-12778571D01*
X1698214Y-12935714D01*
X1698214Y-12778571D02*
X1712500Y-12750000D01*
X1741071Y-12735714D01*
X1783928Y-12735714D01*
X1812500Y-12750000D01*
X1826786Y-12778571D01*
X1826786Y-12935714D01*
X1969643Y-12935714D02*
X1969643Y-12735714D01*
X1969643Y-12764286D02*
X1983928Y-12750000D01*
X2012500Y-12735714D01*
X2055357Y-12735714D01*
X2083928Y-12750000D01*
X2098214Y-12778571D01*
X2098214Y-12935714D01*
X2098214Y-12778571D02*
X2112500Y-12750000D01*
X2141071Y-12735714D01*
X2183928Y-12735714D01*
X2212500Y-12750000D01*
X2226786Y-12778571D01*
X2226786Y-12935714D01*
X2812500Y-12621429D02*
X2555357Y-13007143D01*
X3198214Y-12635714D02*
X3226786Y-12635714D01*
X3255357Y-12650000D01*
X3269643Y-12664286D01*
X3283928Y-12692857D01*
X3298214Y-12750000D01*
X3298214Y-12821429D01*
X3283928Y-12878571D01*
X3269643Y-12907143D01*
X3255357Y-12921429D01*
X3226786Y-12935714D01*
X3198214Y-12935714D01*
X3169643Y-12921429D01*
X3155357Y-12907143D01*
X3141071Y-12878571D01*
X3126786Y-12821429D01*
X3126786Y-12750000D01*
X3141071Y-12692857D01*
X3155357Y-12664286D01*
X3169643Y-12650000D01*
X3198214Y-12635714D01*
X3426786Y-12907143D02*
X3441071Y-12921429D01*
X3426786Y-12935714D01*
X3412500Y-12921429D01*
X3426786Y-12907143D01*
X3426786Y-12935714D01*
X3626786Y-12635714D02*
X3655357Y-12635714D01*
X3683928Y-12650000D01*
X3698214Y-12664286D01*
X3712500Y-12692857D01*
X3726786Y-12750000D01*
X3726786Y-12821429D01*
X3712500Y-12878571D01*
X3698214Y-12907143D01*
X3683928Y-12921429D01*
X3655357Y-12935714D01*
X3626786Y-12935714D01*
X3598214Y-12921429D01*
X3583928Y-12907143D01*
X3569643Y-12878571D01*
X3555357Y-12821429D01*
X3555357Y-12750000D01*
X3569643Y-12692857D01*
X3583928Y-12664286D01*
X3598214Y-12650000D01*
X3626786Y-12635714D01*
X3998214Y-12635714D02*
X3855357Y-12635714D01*
X3841071Y-12778571D01*
X3855357Y-12764286D01*
X3883928Y-12750000D01*
X3955357Y-12750000D01*
X3983928Y-12764286D01*
X3998214Y-12778571D01*
X4012500Y-12807143D01*
X4012500Y-12878571D01*
X3998214Y-12907143D01*
X3983928Y-12921429D01*
X3955357Y-12935714D01*
X3883928Y-12935714D01*
X3855357Y-12921429D01*
X3841071Y-12907143D01*
X4155357Y-12935714D02*
X4212500Y-12935714D01*
X4241071Y-12921429D01*
X4255357Y-12907143D01*
X4283928Y-12864286D01*
X4298214Y-12807143D01*
X4298214Y-12692857D01*
X4283928Y-12664286D01*
X4269643Y-12650000D01*
X4241071Y-12635714D01*
X4183928Y-12635714D01*
X4155357Y-12650000D01*
X4141071Y-12664286D01*
X4126786Y-12692857D01*
X4126786Y-12764286D01*
X4141071Y-12792857D01*
X4155357Y-12807143D01*
X4183928Y-12821429D01*
X4241071Y-12821429D01*
X4269643Y-12807143D01*
X4283928Y-12792857D01*
X4298214Y-12764286D01*
X4583928Y-12935714D02*
X4412500Y-12935714D01*
X4498214Y-12935714D02*
X4498214Y-12635714D01*
X4469643Y-12678571D01*
X4441071Y-12707143D01*
X4412500Y-12721429D01*
X4698214Y-12635714D02*
X4698214Y-12692857D01*
X4812500Y-12635714D02*
X4812500Y-12692857D01*
X5255357Y-13050000D02*
X5241071Y-13035714D01*
X5212500Y-12992857D01*
X5198214Y-12964286D01*
X5183928Y-12921429D01*
X5169643Y-12850000D01*
X5169643Y-12792857D01*
X5183928Y-12721429D01*
X5198214Y-12678571D01*
X5212500Y-12650000D01*
X5241071Y-12607143D01*
X5255357Y-12592857D01*
X5526786Y-12935714D02*
X5355357Y-12935714D01*
X5441071Y-12935714D02*
X5441071Y-12635714D01*
X5412500Y-12678571D01*
X5383928Y-12707143D01*
X5355357Y-12721429D01*
X5641071Y-12664286D02*
X5655357Y-12650000D01*
X5683928Y-12635714D01*
X5755357Y-12635714D01*
X5783928Y-12650000D01*
X5798214Y-12664286D01*
X5812500Y-12692857D01*
X5812500Y-12721429D01*
X5798214Y-12764286D01*
X5626786Y-12935714D01*
X5812500Y-12935714D01*
X5998214Y-12635714D02*
X6026786Y-12635714D01*
X6055357Y-12650000D01*
X6069643Y-12664286D01*
X6083928Y-12692857D01*
X6098214Y-12750000D01*
X6098214Y-12821429D01*
X6083928Y-12878571D01*
X6069643Y-12907143D01*
X6055357Y-12921429D01*
X6026786Y-12935714D01*
X5998214Y-12935714D01*
X5969643Y-12921429D01*
X5955357Y-12907143D01*
X5941071Y-12878571D01*
X5926786Y-12821429D01*
X5926786Y-12750000D01*
X5941071Y-12692857D01*
X5955357Y-12664286D01*
X5969643Y-12650000D01*
X5998214Y-12635714D01*
X6455357Y-12935714D02*
X6455357Y-12635714D01*
X6583928Y-12935714D02*
X6583928Y-12778571D01*
X6569643Y-12750000D01*
X6541071Y-12735714D01*
X6498214Y-12735714D01*
X6469643Y-12750000D01*
X6455357Y-12764286D01*
X6769643Y-12935714D02*
X6741071Y-12921429D01*
X6726786Y-12907143D01*
X6712500Y-12878571D01*
X6712500Y-12792857D01*
X6726786Y-12764286D01*
X6741071Y-12750000D01*
X6769643Y-12735714D01*
X6812500Y-12735714D01*
X6841071Y-12750000D01*
X6855357Y-12764286D01*
X6869643Y-12792857D01*
X6869643Y-12878571D01*
X6855357Y-12907143D01*
X6841071Y-12921429D01*
X6812500Y-12935714D01*
X6769643Y-12935714D01*
X7041071Y-12935714D02*
X7012500Y-12921429D01*
X6998214Y-12892857D01*
X6998214Y-12635714D01*
X7269643Y-12921429D02*
X7241071Y-12935714D01*
X7183928Y-12935714D01*
X7155357Y-12921429D01*
X7141071Y-12892857D01*
X7141071Y-12778571D01*
X7155357Y-12750000D01*
X7183928Y-12735714D01*
X7241071Y-12735714D01*
X7269643Y-12750000D01*
X7283928Y-12778571D01*
X7283928Y-12807143D01*
X7141071Y-12835714D01*
X7398214Y-12921429D02*
X7426786Y-12935714D01*
X7483928Y-12935714D01*
X7512500Y-12921429D01*
X7526786Y-12892857D01*
X7526786Y-12878571D01*
X7512500Y-12850000D01*
X7483928Y-12835714D01*
X7441071Y-12835714D01*
X7412500Y-12821429D01*
X7398214Y-12792857D01*
X7398214Y-12778571D01*
X7412500Y-12750000D01*
X7441071Y-12735714D01*
X7483928Y-12735714D01*
X7512500Y-12750000D01*
X7883928Y-12821429D02*
X8112500Y-12821429D01*
X7998214Y-12935714D02*
X7998214Y-12707143D01*
X8612500Y-12735714D02*
X8612500Y-12935714D01*
X8541071Y-12621429D02*
X8469643Y-12835714D01*
X8655357Y-12835714D01*
X8983928Y-12921429D02*
X9012500Y-12935714D01*
X9069643Y-12935714D01*
X9098214Y-12921429D01*
X9112500Y-12892857D01*
X9112500Y-12878571D01*
X9098214Y-12850000D01*
X9069643Y-12835714D01*
X9026786Y-12835714D01*
X8998214Y-12821429D01*
X8983928Y-12792857D01*
X8983928Y-12778571D01*
X8998214Y-12750000D01*
X9026786Y-12735714D01*
X9069643Y-12735714D01*
X9098214Y-12750000D01*
X9283928Y-12935714D02*
X9255357Y-12921429D01*
X9241071Y-12892857D01*
X9241071Y-12635714D01*
X9441071Y-12935714D02*
X9412500Y-12921429D01*
X9398214Y-12907143D01*
X9383928Y-12878571D01*
X9383928Y-12792857D01*
X9398214Y-12764286D01*
X9412500Y-12750000D01*
X9441071Y-12735714D01*
X9483928Y-12735714D01*
X9512500Y-12750000D01*
X9526786Y-12764286D01*
X9541071Y-12792857D01*
X9541071Y-12878571D01*
X9526786Y-12907143D01*
X9512500Y-12921429D01*
X9483928Y-12935714D01*
X9441071Y-12935714D01*
X9626786Y-12735714D02*
X9741071Y-12735714D01*
X9669643Y-12635714D02*
X9669643Y-12892857D01*
X9683928Y-12921429D01*
X9712500Y-12935714D01*
X9741071Y-12935714D01*
X9826786Y-12921429D02*
X9855357Y-12935714D01*
X9912500Y-12935714D01*
X9941071Y-12921429D01*
X9955357Y-12892857D01*
X9955357Y-12878571D01*
X9941071Y-12850000D01*
X9912500Y-12835714D01*
X9869643Y-12835714D01*
X9841071Y-12821429D01*
X9826786Y-12792857D01*
X9826786Y-12778571D01*
X9841071Y-12750000D01*
X9869643Y-12735714D01*
X9912500Y-12735714D01*
X9941071Y-12750000D01*
X10055357Y-13050000D02*
X10069643Y-13035714D01*
X10098214Y-12992857D01*
X10112500Y-12964286D01*
X10126786Y-12921429D01*
X10141071Y-12850000D01*
X10141071Y-12792857D01*
X10126786Y-12721429D01*
X10112500Y-12678571D01*
X10098214Y-12650000D01*
X10069643Y-12607143D01*
X10055357Y-12592857D01*
X-272500Y-13061000D02*
X-2500Y-13331000D01*
X-2500Y-13061000D02*
X-272500Y-13331000D01*
X-42040Y-13291460D02*
X-42040Y-13100540D01*
X-232960Y-13100540D01*
X-232960Y-13291460D01*
X-42040Y-13291460D01*
X269643Y-13060286D02*
X283928Y-13046000D01*
X312500Y-13031714D01*
X383928Y-13031714D01*
X412500Y-13046000D01*
X426786Y-13060286D01*
X441071Y-13088857D01*
X441071Y-13117429D01*
X426786Y-13160286D01*
X255357Y-13331714D01*
X441071Y-13331714D01*
X569643Y-13303143D02*
X583928Y-13317429D01*
X569643Y-13331714D01*
X555357Y-13317429D01*
X569643Y-13303143D01*
X569643Y-13331714D01*
X683928Y-13031714D02*
X883928Y-13031714D01*
X755357Y-13331714D01*
X1055357Y-13031714D02*
X1083928Y-13031714D01*
X1112500Y-13046000D01*
X1126786Y-13060286D01*
X1141071Y-13088857D01*
X1155357Y-13146000D01*
X1155357Y-13217429D01*
X1141071Y-13274571D01*
X1126786Y-13303143D01*
X1112500Y-13317429D01*
X1083928Y-13331714D01*
X1055357Y-13331714D01*
X1026786Y-13317429D01*
X1012500Y-13303143D01*
X998214Y-13274571D01*
X983928Y-13217429D01*
X983928Y-13146000D01*
X998214Y-13088857D01*
X1012500Y-13060286D01*
X1026786Y-13046000D01*
X1055357Y-13031714D01*
X1341071Y-13031714D02*
X1369643Y-13031714D01*
X1398214Y-13046000D01*
X1412500Y-13060286D01*
X1426786Y-13088857D01*
X1441071Y-13146000D01*
X1441071Y-13217429D01*
X1426786Y-13274571D01*
X1412500Y-13303143D01*
X1398214Y-13317429D01*
X1369643Y-13331714D01*
X1341071Y-13331714D01*
X1312500Y-13317429D01*
X1298214Y-13303143D01*
X1283928Y-13274571D01*
X1269643Y-13217429D01*
X1269643Y-13146000D01*
X1283928Y-13088857D01*
X1298214Y-13060286D01*
X1312500Y-13046000D01*
X1341071Y-13031714D01*
X1569643Y-13331714D02*
X1569643Y-13131714D01*
X1569643Y-13160286D02*
X1583928Y-13146000D01*
X1612500Y-13131714D01*
X1655357Y-13131714D01*
X1683928Y-13146000D01*
X1698214Y-13174571D01*
X1698214Y-13331714D01*
X1698214Y-13174571D02*
X1712500Y-13146000D01*
X1741071Y-13131714D01*
X1783928Y-13131714D01*
X1812500Y-13146000D01*
X1826786Y-13174571D01*
X1826786Y-13331714D01*
X1969643Y-13331714D02*
X1969643Y-13131714D01*
X1969643Y-13160286D02*
X1983928Y-13146000D01*
X2012500Y-13131714D01*
X2055357Y-13131714D01*
X2083928Y-13146000D01*
X2098214Y-13174571D01*
X2098214Y-13331714D01*
X2098214Y-13174571D02*
X2112500Y-13146000D01*
X2141071Y-13131714D01*
X2183928Y-13131714D01*
X2212500Y-13146000D01*
X2226786Y-13174571D01*
X2226786Y-13331714D01*
X2812500Y-13017429D02*
X2555357Y-13403143D01*
X3198214Y-13031714D02*
X3226786Y-13031714D01*
X3255357Y-13046000D01*
X3269643Y-13060286D01*
X3283928Y-13088857D01*
X3298214Y-13146000D01*
X3298214Y-13217429D01*
X3283928Y-13274571D01*
X3269643Y-13303143D01*
X3255357Y-13317429D01*
X3226786Y-13331714D01*
X3198214Y-13331714D01*
X3169643Y-13317429D01*
X3155357Y-13303143D01*
X3141071Y-13274571D01*
X3126786Y-13217429D01*
X3126786Y-13146000D01*
X3141071Y-13088857D01*
X3155357Y-13060286D01*
X3169643Y-13046000D01*
X3198214Y-13031714D01*
X3426786Y-13303143D02*
X3441071Y-13317429D01*
X3426786Y-13331714D01*
X3412500Y-13317429D01*
X3426786Y-13303143D01*
X3426786Y-13331714D01*
X3726786Y-13331714D02*
X3555357Y-13331714D01*
X3641071Y-13331714D02*
X3641071Y-13031714D01*
X3612500Y-13074571D01*
X3583928Y-13103143D01*
X3555357Y-13117429D01*
X3912500Y-13031714D02*
X3941071Y-13031714D01*
X3969643Y-13046000D01*
X3983928Y-13060286D01*
X3998214Y-13088857D01*
X4012500Y-13146000D01*
X4012500Y-13217429D01*
X3998214Y-13274571D01*
X3983928Y-13303143D01*
X3969643Y-13317429D01*
X3941071Y-13331714D01*
X3912500Y-13331714D01*
X3883928Y-13317429D01*
X3869643Y-13303143D01*
X3855357Y-13274571D01*
X3841071Y-13217429D01*
X3841071Y-13146000D01*
X3855357Y-13088857D01*
X3869643Y-13060286D01*
X3883928Y-13046000D01*
X3912500Y-13031714D01*
X4269643Y-13031714D02*
X4212500Y-13031714D01*
X4183928Y-13046000D01*
X4169643Y-13060286D01*
X4141071Y-13103143D01*
X4126786Y-13160286D01*
X4126786Y-13274571D01*
X4141071Y-13303143D01*
X4155357Y-13317429D01*
X4183928Y-13331714D01*
X4241071Y-13331714D01*
X4269643Y-13317429D01*
X4283928Y-13303143D01*
X4298214Y-13274571D01*
X4298214Y-13203143D01*
X4283928Y-13174571D01*
X4269643Y-13160286D01*
X4241071Y-13146000D01*
X4183928Y-13146000D01*
X4155357Y-13160286D01*
X4141071Y-13174571D01*
X4126786Y-13203143D01*
X4398214Y-13031714D02*
X4583928Y-13031714D01*
X4483928Y-13146000D01*
X4526786Y-13146000D01*
X4555357Y-13160286D01*
X4569643Y-13174571D01*
X4583928Y-13203143D01*
X4583928Y-13274571D01*
X4569643Y-13303143D01*
X4555357Y-13317429D01*
X4526786Y-13331714D01*
X4441071Y-13331714D01*
X4412500Y-13317429D01*
X4398214Y-13303143D01*
X4698214Y-13031714D02*
X4698214Y-13088857D01*
X4812500Y-13031714D02*
X4812500Y-13088857D01*
X5255357Y-13446000D02*
X5241071Y-13431714D01*
X5212500Y-13388857D01*
X5198214Y-13360286D01*
X5183928Y-13317429D01*
X5169643Y-13246000D01*
X5169643Y-13188857D01*
X5183928Y-13117429D01*
X5198214Y-13074571D01*
X5212500Y-13046000D01*
X5241071Y-13003143D01*
X5255357Y-12988857D01*
X5498214Y-13131714D02*
X5498214Y-13331714D01*
X5426786Y-13017429D02*
X5355357Y-13231714D01*
X5541071Y-13231714D01*
X5883928Y-13331714D02*
X5883928Y-13031714D01*
X6012500Y-13331714D02*
X6012500Y-13174571D01*
X5998214Y-13146000D01*
X5969643Y-13131714D01*
X5926786Y-13131714D01*
X5898214Y-13146000D01*
X5883928Y-13160286D01*
X6198214Y-13331714D02*
X6169643Y-13317429D01*
X6155357Y-13303143D01*
X6141071Y-13274571D01*
X6141071Y-13188857D01*
X6155357Y-13160286D01*
X6169643Y-13146000D01*
X6198214Y-13131714D01*
X6241071Y-13131714D01*
X6269643Y-13146000D01*
X6283928Y-13160286D01*
X6298214Y-13188857D01*
X6298214Y-13274571D01*
X6283928Y-13303143D01*
X6269643Y-13317429D01*
X6241071Y-13331714D01*
X6198214Y-13331714D01*
X6469643Y-13331714D02*
X6441071Y-13317429D01*
X6426786Y-13288857D01*
X6426786Y-13031714D01*
X6698214Y-13317429D02*
X6669643Y-13331714D01*
X6612500Y-13331714D01*
X6583928Y-13317429D01*
X6569643Y-13288857D01*
X6569643Y-13174571D01*
X6583928Y-13146000D01*
X6612500Y-13131714D01*
X6669643Y-13131714D01*
X6698214Y-13146000D01*
X6712500Y-13174571D01*
X6712500Y-13203143D01*
X6569643Y-13231714D01*
X6826786Y-13317429D02*
X6855357Y-13331714D01*
X6912500Y-13331714D01*
X6941071Y-13317429D01*
X6955357Y-13288857D01*
X6955357Y-13274571D01*
X6941071Y-13246000D01*
X6912500Y-13231714D01*
X6869643Y-13231714D01*
X6841071Y-13217429D01*
X6826786Y-13188857D01*
X6826786Y-13174571D01*
X6841071Y-13146000D01*
X6869643Y-13131714D01*
X6912500Y-13131714D01*
X6941071Y-13146000D01*
X7055357Y-13446000D02*
X7069643Y-13431714D01*
X7098214Y-13388857D01*
X7112500Y-13360286D01*
X7126786Y-13317429D01*
X7141071Y-13246000D01*
X7141071Y-13188857D01*
X7126786Y-13117429D01*
X7112500Y-13074571D01*
X7098214Y-13046000D01*
X7069643Y-13003143D01*
X7055357Y-12988857D01*
M02*
