%TF.GenerationSoftware,KiCad,Pcbnew,(5.1.12)-1*%
%TF.CreationDate,2022-06-19T17:50:05+02:00*%
%TF.ProjectId,Moledupy,4d6f6c65-6475-4707-992e-6b696361645f,rev?*%
%TF.SameCoordinates,Original*%
%TF.FileFunction,Soldermask,Top*%
%TF.FilePolarity,Negative*%
%FSLAX46Y46*%
G04 Gerber Fmt 4.6, Leading zero omitted, Abs format (unit mm)*
G04 Created by KiCad (PCBNEW (5.1.12)-1) date 2022-06-19 17:50:05*
%MOMM*%
%LPD*%
G01*
G04 APERTURE LIST*
%ADD10C,4.700000*%
%ADD11C,2.000000*%
%ADD12O,1.350000X1.350000*%
%ADD13R,1.350000X1.350000*%
%ADD14O,1.600000X1.600000*%
%ADD15C,1.600000*%
%ADD16C,3.050000*%
%ADD17C,4.000000*%
%ADD18C,1.700000*%
%ADD19C,2.200000*%
%ADD20R,1.700000X1.700000*%
%ADD21C,0.650000*%
%ADD22O,1.000000X1.600000*%
%ADD23O,1.000000X2.100000*%
%ADD24R,2.000000X2.000000*%
%ADD25R,2.000000X3.200000*%
%ADD26O,1.700000X1.700000*%
%ADD27O,1.500000X1.500000*%
%ADD28O,1.800000X1.800000*%
G04 APERTURE END LIST*
D10*
%TO.C,HOLE1*%
X187007500Y-79070200D03*
%TD*%
%TO.C,HOLE2*%
X98259900Y-78701900D03*
%TD*%
%TO.C,HOLE3*%
X246900700Y-41554400D03*
%TD*%
%TO.C,HOLE0*%
X38100000Y-41122600D03*
%TD*%
D11*
%TO.C,RESET1*%
X145438000Y-47498000D03*
X145438000Y-51998000D03*
X138938000Y-47498000D03*
X138938000Y-51998000D03*
%TD*%
D12*
%TO.C,J2*%
X127381000Y-34226000D03*
X127381000Y-32226000D03*
D13*
X127381000Y-30226000D03*
%TD*%
D14*
%TO.C,R4*%
X147372000Y-70463000D03*
D15*
X137212000Y-70463000D03*
%TD*%
D14*
%TO.C,R3*%
X147320000Y-65786000D03*
D15*
X137160000Y-65786000D03*
%TD*%
D16*
%TO.C,SW37*%
X156207360Y-92471000D03*
X180007360Y-92471000D03*
D17*
X180007360Y-77231000D03*
X156207360Y-77231000D03*
D18*
X163027360Y-85471000D03*
X173187360Y-85471000D03*
D17*
X168107360Y-85471000D03*
D19*
X171917360Y-88011000D03*
X165567360Y-90551000D03*
%TD*%
D16*
%TO.C,SW32*%
X104873960Y-92374480D03*
X128673960Y-92374480D03*
D17*
X128673960Y-77134480D03*
X104873960Y-77134480D03*
D18*
X111693960Y-85374480D03*
X121853960Y-85374480D03*
D17*
X116773960Y-85374480D03*
D19*
X120583960Y-87914480D03*
X114233960Y-90454480D03*
%TD*%
D18*
%TO.C,U2*%
X151511000Y-5588000D03*
X148971000Y-5588000D03*
X146431000Y-5588000D03*
X143891000Y-5588000D03*
X141351000Y-5588000D03*
X138811000Y-5588000D03*
X136271000Y-5588000D03*
D20*
X133731000Y-5588000D03*
%TD*%
D18*
%TO.C,SW62*%
X280436320Y-85374480D03*
X270276320Y-85374480D03*
D17*
X275356320Y-85374480D03*
D19*
X271546320Y-82834480D03*
X277896320Y-80294480D03*
%TD*%
D18*
%TO.C,SW61*%
X280436320Y-66360040D03*
X270276320Y-66360040D03*
D17*
X275356320Y-66360040D03*
D19*
X271546320Y-63820040D03*
X277896320Y-61280040D03*
%TD*%
D18*
%TO.C,SW60*%
X280436320Y-47345600D03*
X270276320Y-47345600D03*
D17*
X275356320Y-47345600D03*
D19*
X271546320Y-44805600D03*
X277896320Y-42265600D03*
%TD*%
D18*
%TO.C,SW59*%
X280451560Y-28315920D03*
X270291560Y-28315920D03*
D17*
X275371560Y-28315920D03*
D19*
X271561560Y-25775920D03*
X277911560Y-23235920D03*
%TD*%
D18*
%TO.C,SW58*%
X280456640Y-9240520D03*
X270296640Y-9240520D03*
D17*
X275376640Y-9240520D03*
D19*
X271566640Y-6700520D03*
X277916640Y-4160520D03*
%TD*%
D18*
%TO.C,SW57*%
X261411720Y-85354160D03*
X251251720Y-85354160D03*
D17*
X256331720Y-85354160D03*
D19*
X252521720Y-82814160D03*
X258871720Y-80274160D03*
%TD*%
D18*
%TO.C,SW56*%
X261411720Y-66339720D03*
X251251720Y-66339720D03*
D17*
X256331720Y-66339720D03*
D19*
X252521720Y-63799720D03*
X258871720Y-61259720D03*
%TD*%
D18*
%TO.C,SW55*%
X261442200Y-47325280D03*
X251282200Y-47325280D03*
D17*
X256362200Y-47325280D03*
D19*
X252552200Y-44785280D03*
X258902200Y-42245280D03*
%TD*%
D18*
%TO.C,SW54*%
X261487920Y-28260040D03*
X251327920Y-28260040D03*
D17*
X256407920Y-28260040D03*
D19*
X252597920Y-25720040D03*
X258947920Y-23180040D03*
%TD*%
D18*
%TO.C,SW53*%
X261472680Y-9235440D03*
X251312680Y-9235440D03*
D17*
X256392680Y-9235440D03*
D19*
X252582680Y-6695440D03*
X258932680Y-4155440D03*
%TD*%
D18*
%TO.C,SW52*%
X242371880Y-85374480D03*
X232211880Y-85374480D03*
D17*
X237291880Y-85374480D03*
D19*
X233481880Y-82834480D03*
X239831880Y-80294480D03*
%TD*%
D18*
%TO.C,SW51*%
X242392200Y-66354960D03*
X232232200Y-66354960D03*
D17*
X237312200Y-66354960D03*
D19*
X233502200Y-63814960D03*
X239852200Y-61274960D03*
%TD*%
D18*
%TO.C,SW50*%
X242371880Y-47310040D03*
X232211880Y-47310040D03*
D17*
X237291880Y-47310040D03*
D19*
X233481880Y-44770040D03*
X239831880Y-42230040D03*
%TD*%
D18*
%TO.C,SW49*%
X242371880Y-28244800D03*
X232211880Y-28244800D03*
D17*
X237291880Y-28244800D03*
D19*
X233481880Y-25704800D03*
X239831880Y-23164800D03*
%TD*%
D18*
%TO.C,SW48*%
X242382040Y-9260840D03*
X232222040Y-9260840D03*
D17*
X237302040Y-9260840D03*
D19*
X233492040Y-6720840D03*
X239842040Y-4180840D03*
%TD*%
D18*
%TO.C,SW47*%
X223235520Y-85486240D03*
X213075520Y-85486240D03*
D17*
X218155520Y-85486240D03*
D19*
X214345520Y-82946240D03*
X220695520Y-80406240D03*
%TD*%
D18*
%TO.C,SW46*%
X223205040Y-66390520D03*
X213045040Y-66390520D03*
D17*
X218125040Y-66390520D03*
D19*
X214315040Y-63850520D03*
X220665040Y-61310520D03*
%TD*%
D18*
%TO.C,SW45*%
X223220280Y-47345600D03*
X213060280Y-47345600D03*
D17*
X218140280Y-47345600D03*
D19*
X214330280Y-44805600D03*
X220680280Y-42265600D03*
%TD*%
D18*
%TO.C,SW44*%
X223250760Y-28295600D03*
X213090760Y-28295600D03*
D17*
X218170760Y-28295600D03*
D19*
X214360760Y-25755600D03*
X220710760Y-23215600D03*
%TD*%
D18*
%TO.C,SW43*%
X223255840Y-9250680D03*
X213095840Y-9250680D03*
D17*
X218175840Y-9250680D03*
D19*
X214365840Y-6710680D03*
X220715840Y-4170680D03*
%TD*%
D18*
%TO.C,SW42*%
X204160120Y-85476080D03*
X194000120Y-85476080D03*
D17*
X199080120Y-85476080D03*
D19*
X195270120Y-82936080D03*
X201620120Y-80396080D03*
%TD*%
D18*
%TO.C,SW41*%
X204170280Y-66446400D03*
X194010280Y-66446400D03*
D17*
X199090280Y-66446400D03*
D19*
X195280280Y-63906400D03*
X201630280Y-61366400D03*
%TD*%
D18*
%TO.C,SW40*%
X204160120Y-47391320D03*
X194000120Y-47391320D03*
D17*
X199080120Y-47391320D03*
D19*
X195270120Y-44851320D03*
X201620120Y-42311320D03*
%TD*%
D18*
%TO.C,SW39*%
X204185520Y-28346400D03*
X194025520Y-28346400D03*
D17*
X199105520Y-28346400D03*
D19*
X195295520Y-25806400D03*
X201645520Y-23266400D03*
%TD*%
D18*
%TO.C,SW38*%
X204185520Y-9291320D03*
X194025520Y-9291320D03*
D17*
X199105520Y-9291320D03*
D19*
X195295520Y-6751320D03*
X201645520Y-4211320D03*
%TD*%
D18*
%TO.C,SW36*%
X185028840Y-66517520D03*
X174868840Y-66517520D03*
D17*
X179948840Y-66517520D03*
D19*
X176138840Y-63977520D03*
X182488840Y-61437520D03*
%TD*%
D18*
%TO.C,SW35*%
X185176160Y-47401480D03*
X175016160Y-47401480D03*
D17*
X180096160Y-47401480D03*
D19*
X176286160Y-44861480D03*
X182636160Y-42321480D03*
%TD*%
D18*
%TO.C,SW34*%
X185176160Y-28351480D03*
X175016160Y-28351480D03*
D17*
X180096160Y-28351480D03*
D19*
X176286160Y-25811480D03*
X182636160Y-23271480D03*
%TD*%
D18*
%TO.C,SW33*%
X185155840Y-9306560D03*
X174995840Y-9306560D03*
D17*
X180075840Y-9306560D03*
D19*
X176265840Y-6766560D03*
X182615840Y-4226560D03*
%TD*%
D18*
%TO.C,SW31*%
X109992160Y-66390520D03*
X99832160Y-66390520D03*
D17*
X104912160Y-66390520D03*
D19*
X101102160Y-63850520D03*
X107452160Y-61310520D03*
%TD*%
D18*
%TO.C,SW30*%
X109982000Y-47426880D03*
X99822000Y-47426880D03*
D17*
X104902000Y-47426880D03*
D19*
X101092000Y-44886880D03*
X107442000Y-42346880D03*
%TD*%
D18*
%TO.C,SW29*%
X109982000Y-28275280D03*
X99822000Y-28275280D03*
D17*
X104902000Y-28275280D03*
D19*
X101092000Y-25735280D03*
X107442000Y-23195280D03*
%TD*%
D18*
%TO.C,SW28*%
X109982000Y-9291320D03*
X99822000Y-9291320D03*
D17*
X104902000Y-9291320D03*
D19*
X101092000Y-6751320D03*
X107442000Y-4211320D03*
%TD*%
D18*
%TO.C,SW27*%
X90850720Y-85399880D03*
X80690720Y-85399880D03*
D17*
X85770720Y-85399880D03*
D19*
X81960720Y-82859880D03*
X88310720Y-80319880D03*
%TD*%
D18*
%TO.C,SW26*%
X90896440Y-66339720D03*
X80736440Y-66339720D03*
D17*
X85816440Y-66339720D03*
D19*
X82006440Y-63799720D03*
X88356440Y-61259720D03*
%TD*%
D18*
%TO.C,SW25*%
X90886280Y-47426880D03*
X80726280Y-47426880D03*
D17*
X85806280Y-47426880D03*
D19*
X81996280Y-44886880D03*
X88346280Y-42346880D03*
%TD*%
D18*
%TO.C,SW24*%
X90886280Y-28275280D03*
X80726280Y-28275280D03*
D17*
X85806280Y-28275280D03*
D19*
X81996280Y-25735280D03*
X88346280Y-23195280D03*
%TD*%
D18*
%TO.C,SW23*%
X90921840Y-9255760D03*
X80761840Y-9255760D03*
D17*
X85841840Y-9255760D03*
D19*
X82031840Y-6715760D03*
X88381840Y-4175760D03*
%TD*%
D18*
%TO.C,SW22*%
X71744840Y-85384640D03*
X61584840Y-85384640D03*
D17*
X66664840Y-85384640D03*
D19*
X62854840Y-82844640D03*
X69204840Y-80304640D03*
%TD*%
D18*
%TO.C,SW21*%
X71800720Y-66339720D03*
X61640720Y-66339720D03*
D17*
X66720720Y-66339720D03*
D19*
X62910720Y-63799720D03*
X69260720Y-61259720D03*
%TD*%
D18*
%TO.C,SW20*%
X71800720Y-47299880D03*
X61640720Y-47299880D03*
D17*
X66720720Y-47299880D03*
D19*
X62910720Y-44759880D03*
X69260720Y-42219880D03*
%TD*%
D18*
%TO.C,SW19*%
X71800720Y-28310840D03*
X61640720Y-28310840D03*
D17*
X66720720Y-28310840D03*
D19*
X62910720Y-25770840D03*
X69260720Y-23230840D03*
%TD*%
D18*
%TO.C,SW18*%
X71841360Y-9291320D03*
X61681360Y-9291320D03*
D17*
X66761360Y-9291320D03*
D19*
X62951360Y-6751320D03*
X69301360Y-4211320D03*
%TD*%
D18*
%TO.C,SW17*%
X52649120Y-85384640D03*
X42489120Y-85384640D03*
D17*
X47569120Y-85384640D03*
D19*
X43759120Y-82844640D03*
X50109120Y-80304640D03*
%TD*%
D18*
%TO.C,SW16*%
X52745640Y-66360040D03*
X42585640Y-66360040D03*
D17*
X47665640Y-66360040D03*
D19*
X43855640Y-63820040D03*
X50205640Y-61280040D03*
%TD*%
D18*
%TO.C,SW15*%
X52745640Y-47320200D03*
X42585640Y-47320200D03*
D17*
X47665640Y-47320200D03*
D19*
X43855640Y-44780200D03*
X50205640Y-42240200D03*
%TD*%
D18*
%TO.C,SW14*%
X52755800Y-28310840D03*
X42595800Y-28310840D03*
D17*
X47675800Y-28310840D03*
D19*
X43865800Y-25770840D03*
X50215800Y-23230840D03*
%TD*%
D18*
%TO.C,SW13*%
X52755800Y-9271000D03*
X42595800Y-9271000D03*
D17*
X47675800Y-9271000D03*
D19*
X43865800Y-6731000D03*
X50215800Y-4191000D03*
%TD*%
D18*
%TO.C,SW12*%
X33655000Y-85399880D03*
X23495000Y-85399880D03*
D17*
X28575000Y-85399880D03*
D19*
X24765000Y-82859880D03*
X31115000Y-80319880D03*
%TD*%
D18*
%TO.C,SW11*%
X33655000Y-66349880D03*
X23495000Y-66349880D03*
D17*
X28575000Y-66349880D03*
D19*
X24765000Y-63809880D03*
X31115000Y-61269880D03*
%TD*%
D18*
%TO.C,SW10*%
X33655000Y-47299880D03*
X23495000Y-47299880D03*
D17*
X28575000Y-47299880D03*
D19*
X24765000Y-44759880D03*
X31115000Y-42219880D03*
%TD*%
D18*
%TO.C,SW9*%
X33655000Y-28249880D03*
X23495000Y-28249880D03*
D17*
X28575000Y-28249880D03*
D19*
X24765000Y-25709880D03*
X31115000Y-23169880D03*
%TD*%
D18*
%TO.C,SW8*%
X23622000Y-9271000D03*
X33782000Y-9271000D03*
D17*
X28702000Y-9271000D03*
D19*
X32512000Y-11811000D03*
X26162000Y-14351000D03*
%TD*%
%TO.C,SW7*%
X12065000Y-80431640D03*
X5715000Y-82971640D03*
D17*
X9525000Y-85511640D03*
D18*
X4445000Y-85511640D03*
X14605000Y-85511640D03*
%TD*%
D19*
%TO.C,SW6*%
X12065000Y-61386720D03*
X5715000Y-63926720D03*
D17*
X9525000Y-66466720D03*
D18*
X4445000Y-66466720D03*
X14605000Y-66466720D03*
%TD*%
%TO.C,SW5*%
X14605000Y-47437040D03*
X4445000Y-47437040D03*
D17*
X9525000Y-47437040D03*
D19*
X5715000Y-44897040D03*
X12065000Y-42357040D03*
%TD*%
D18*
%TO.C,SW4*%
X14605000Y-28249880D03*
X4445000Y-28249880D03*
D17*
X9525000Y-28249880D03*
D19*
X5715000Y-25709880D03*
X12065000Y-23169880D03*
%TD*%
D18*
%TO.C,SW3*%
X14605000Y-9199880D03*
X4445000Y-9199880D03*
D17*
X9525000Y-9199880D03*
D19*
X5715000Y-6659880D03*
X12065000Y-4119880D03*
%TD*%
D14*
%TO.C,R2*%
X147320000Y-55880000D03*
D15*
X137160000Y-55880000D03*
%TD*%
D14*
%TO.C,R1*%
X147320000Y-60579000D03*
D15*
X137160000Y-60579000D03*
%TD*%
D21*
%TO.C,J1*%
X16160000Y-5145000D03*
X21940000Y-5145000D03*
D22*
X23370000Y-1465000D03*
X14730000Y-1465000D03*
D23*
X23370000Y-5645000D03*
X14730000Y-5645000D03*
%TD*%
D24*
%TO.C,SW2*%
X129540000Y-55880000D03*
D11*
X127040000Y-55880000D03*
X124540000Y-55880000D03*
D25*
X132640000Y-63380000D03*
X121440000Y-63380000D03*
D11*
X129540000Y-70380000D03*
X124540000Y-70380000D03*
%TD*%
D24*
%TO.C,SW1*%
X160253680Y-55798720D03*
D11*
X157753680Y-55798720D03*
X155253680Y-55798720D03*
D25*
X163353680Y-63298720D03*
X152153680Y-63298720D03*
D11*
X160253680Y-70298720D03*
X155253680Y-70298720D03*
%TD*%
D26*
%TO.C,U1*%
X118721000Y-29591000D03*
D20*
X118721000Y-32131000D03*
D26*
X118721000Y-34671000D03*
D27*
X163591000Y-29706000D03*
X163591000Y-34556000D03*
D28*
X166621000Y-29406000D03*
X166621000Y-34856000D03*
D26*
X166751000Y-23241000D03*
X164211000Y-23241000D03*
D20*
X161671000Y-23241000D03*
D26*
X159131000Y-23241000D03*
X156591000Y-23241000D03*
X154051000Y-23241000D03*
X151511000Y-23241000D03*
D20*
X148971000Y-23241000D03*
D26*
X146431000Y-23241000D03*
X143891000Y-23241000D03*
X141351000Y-23241000D03*
X138811000Y-23241000D03*
D20*
X136271000Y-23241000D03*
D26*
X133731000Y-23241000D03*
X131191000Y-23241000D03*
X128651000Y-23241000D03*
X126111000Y-23241000D03*
D20*
X123571000Y-23241000D03*
D26*
X121031000Y-23241000D03*
X118491000Y-23241000D03*
X118491000Y-41021000D03*
X121031000Y-41021000D03*
D20*
X123571000Y-41021000D03*
D26*
X126111000Y-41021000D03*
X128651000Y-41021000D03*
X131191000Y-41021000D03*
X133731000Y-41021000D03*
D20*
X136271000Y-41021000D03*
D26*
X138811000Y-41021000D03*
X141351000Y-41021000D03*
X143891000Y-41021000D03*
X146431000Y-41021000D03*
D20*
X148971000Y-41021000D03*
D26*
X151511000Y-41021000D03*
X154051000Y-41021000D03*
X156591000Y-41021000D03*
X159131000Y-41021000D03*
D20*
X161671000Y-41021000D03*
D26*
X164211000Y-41021000D03*
X166751000Y-41021000D03*
%TD*%
M02*
